<?xml version="1.0" encoding="UTF-8"?>
<svg xmlns="http://www.w3.org/2000/svg" xmlns:xlink="http://www.w3.org/1999/xlink" viewBox="0 0 1932.22 1906.04">
  <g id="Procore_Drawing" data-name="Procore Drawing">
    <image width="5760" height="4320" transform="translate(-292.8 -147.56) scale(.6)" xlink:href="../PDF and PNG/RCP/Level 15.jpg"/>
  </g>
  <g id="_1510.001b" data-name="1510.001b">
    <polygon points="1404.61 756.47 1387.73 756.47 1387.73 728.34 1404.51 728.34 1404.61 728.34 1404.61 754.22 1404.61 756.47"/>
  </g>
  <g id="_1510.005b" data-name="1510.005b">
    <polygon points="816.09 851.94 830.14 851.94 833.11 851.94 833.11 880.06 816.09 880.06 816.09 851.94"/>
  </g>
  <g id="_1520.058" data-name="1520.058">
    <polygon points="1591.93 605.72 1591.93 561.08 1645.08 561.08 1645.08 553.41 1688.25 553.41 1688.25 565.71 1690.85 565.71 1690.85 605.72 1591.93 605.72"/>
  </g>
  <g id="_1502.005" data-name="1502.005">
    <polygon points="1588.27 414.38 1588.27 461.41 1588.27 507.66 1535.64 507.66 1535.64 414.38 1588.27 414.38"/>
  </g>
  <g id="_1512.0031" data-name="1512.0031">
    <polygon points="994.55 725.39 973.51 725.39 973.51 667.69 973.51 667.59 994.55 667.59 994.55 677.6 994.55 677.64 994.55 679.11 994.55 725.39"/>
  </g>
  <g id="_1510.017a" data-name="1510.017a">
    <polygon points="1407.55 1392.38 1368.43 1392.38 1368.43 1327.27 1407.55 1327.27 1407.55 1371.7 1407.55 1392.38"/>
  </g>
  <g id="_1510.031a" data-name="1510.031a">
    <polygon points="1082.3 1053.54 1082.3 1087.29 1004.83 1087.29 1004.83 1044.27 1040.53 1044.27 1040.53 1053.54 1068.3 1053.54 1072.21 1053.54 1082.3 1053.54"/>
  </g>
  <g id="_1510.031" data-name="1510.031">
    <polygon points="1066.26 1050.59 1043.48 1050.59 1043.48 1041.32 1004.83 1041.32 1004.83 958.62 1003 958.62 1004.24 954.75 1039.48 954.75 1039.48 981.19 1066.26 981.19 1066.26 999.58 1066.26 1050.59"/>
  </g>
  <g id="_1512a" data-name="1512a">
    <polygon points="1099.17 676.07 1099.17 672.27 1099.17 664.65 1194.51 664.65 1194.51 672.27 1194.51 676.07 1194.51 682.64 1099.17 682.64 1099.17 676.07"/>
  </g>
  <g id="_1502.004" data-name="1502.004">
    <polygon points="1726.5 550.45 1726.5 516.7 1750.12 516.7 1750.11 550.45 1726.5 550.45"/>
  </g>
  <g id="_1510.002.2" data-name="1510.002.2">
    <rect x="686.54" y="895.27" width="460.27" height="56.25"/>
  </g>
  <g id="_1510.002.1" data-name="1510.002.1">
    <polygon points="1146.81 951.52 1146.81 895.27 1407.55 895.27 1407.55 862.5 1462.69 862.5 1462.69 895.27 1604.75 895.27 1604.75 951.52 1146.81 951.52"/>
  </g>
  <g id="_1510.025" data-name="1510.025">
    <path d="M880.64,881.24h-10.42v-33.75h10.26v-22.52h-10.26v-40.5h139.58v40.5h-32.43v2.95h28.14v25.81h-12.09v38.58h-32.62v-10.2h-32.91v10.2h-47.25v-11.07ZM944.18,824.01h-2.95v23.62h2.95v-23.62Z"/>
  </g>
  <g id="_1510.025c" data-name="1510.025c">
    <polygon points="870.22 753.87 870.22 728.34 870.32 728.34 909.31 728.34 909.31 781.52 870.22 781.52 870.22 753.87"/>
  </g>
  <g id="_1510.025b" data-name="1510.025b">
    <rect x="912.27" y="728.34" width="30.37" height="53.17"/>
  </g>
  <g id="_1510.025a" data-name="1510.025a">
    <polygon points="947.07 728.34 973.51 728.34 991.94 728.34 991.94 781.52 947.07 781.52 947.07 728.34"/>
  </g>
  <g id="_1511.006" data-name="1511.006">
    <polygon points="1694.15 565.71 1694.15 553.41 1726.5 553.41 1750.12 553.41 1750.12 606.84 1697.21 606.84 1694.15 606.84 1694.15 565.71"/>
  </g>
  <g id="_1512.001" data-name="1512.001">
    <polygon points="385.64 618.66 385.64 617.95 385.64 611.28 385.5 610.99 385.5 609.06 385.5 605.3 384.8 605.3 384.8 564.52 390.84 564.52 408.39 564.52 442.8 564.52 442.8 608.67 498.84 608.67 543.56 608.67 543.56 669.74 453.46 669.74 448.32 669.74 399.1 669.74 399.1 657.89 385.64 657.89 385.64 621.01 385.64 618.66"/>
  </g>
  <g id="_1513.001" data-name="1513.001">
    <polygon points="527.32 1507.44 527.32 1456.04 543.56 1456.04 543.56 1450.74 604.63 1450.74 604.63 1540.84 604.63 1545.97 604.63 1563.99 604.63 1565.28 604.56 1565.35 578.96 1590.94 578.96 1608.66 527.32 1608.66 527.32 1507.44"/>
  </g>
  <g id="_1511.001" data-name="1511.001">
    <polygon points="1714.72 1595.44 1689.13 1569.85 1689.06 1569.78 1689.06 1568.49 1689.06 1545.97 1689.06 1540.84 1689.06 1450.74 1750.12 1450.74 1750.12 1455.69 1766.37 1455.69 1766.37 1507.44 1766.37 1613.16 1714.72 1613.16 1714.72 1595.44"/>
  </g>
  <g id="_1513.004" data-name="1513.004">
    <polygon points="657.05 951.52 657.05 1063.45 653.99 1063.45 622.45 1063.45 622.45 1060.5 602.58 1060.5 601.64 1060.5 601.64 954.47 622.45 954.47 622.45 951.52 657.05 951.52"/>
  </g>
  <g id="_1511.004" data-name="1511.004">
    <polygon points="1692.05 1060.5 1691.95 1060.5 1671.37 1060.5 1671.37 1063.45 1636.64 1063.45 1636.64 951.52 1671.8 951.52 1671.8 954.47 1692.05 954.47 1692.05 1060.5"/>
  </g>
  <g id="_1514.002" data-name="1514.002">
    <polygon points="1030.59 1334.45 1045.8 1334.45 1146.84 1334.45 1146.84 1395.33 1126.59 1395.33 1126.59 1371.7 1123.64 1371.7 1123.64 1392.28 1123.64 1392.38 1021.26 1392.38 1021.26 1392.28 1021.26 1371.7 1018.31 1371.7 1018.31 1395.33 991.31 1395.33 991.31 1371.7 991.31 1329.11 991.31 1327.2 1030.59 1327.2 1030.59 1334.45"/>
  </g>
  <g id="_1510.005" data-name="1510.005">
    <polygon points="835.22 849.83 830.14 849.83 830.14 785.07 830.14 781.68 830.14 755.34 867.27 755.34 867.27 782.99 867.27 825.85 867.27 846.61 867.27 882.12 867.27 895.27 835.22 895.27 835.22 880.94 835.22 880.05 835.22 849.83"/>
  </g>
  <g id="_1510.011" data-name="1510.011">
    <polygon points="1556.9 775.24 1556.9 728.34 1579.12 728.34 1579.12 725.39 1606.12 725.39 1606.12 728.34 1614.84 728.34 1614.84 750.53 1614.84 758.09 1632.7 758.09 1632.7 775.24 1556.9 775.24"/>
  </g>
  <g id="_1510.024" data-name="1510.024">
    <polygon points="660.98 761.74 678.84 761.74 678.84 728.34 687.84 728.34 687.84 725.39 714.84 725.39 714.84 728.34 736.78 728.34 736.78 774.2 735.48 774.2 660.98 774.2 660.98 761.74"/>
  </g>
  <g id="_1520.29b" data-name="1520.29b">
    <polygon points="496.45 496.74 491.32 496.74 491.32 541.24 442.45 541.24 442.45 561.56 409.26 561.56 409.26 541.24 393.23 541.24 393.23 465.13 393.23 465.1 412.09 465.1 412.09 446.25 418.62 446.25 496.45 446.25 496.45 496.74"/>
  </g>
  <g id="_1510.005a" data-name="1510.005a">
    <rect x="816.09" y="782.56" width="14.05" height="67.28"/>
  </g>
  <g id="_1512.003" data-name="1512.003">
    <polygon points="867.27 687.42 870.22 687.42 870.22 667.66 939.13 667.66 939.13 667.69 939.13 687.42 942.08 687.42 942.08 664.64 973.51 664.64 973.51 725.39 944.86 725.39 910.79 725.39 867.27 725.39 867.27 687.42"/>
  </g>
  <g id="_1510.034" data-name="1510.034">
    <polygon points="1253.59 954.47 1253.59 956.54 1288.86 956.54 1288.86 1088.06 1262.22 1088.06 1247.89 1088.06 1148.32 1088.06 1148.32 954.47 1253.59 954.47"/>
  </g>
  <g id="_1520.48a" data-name="1520.48a">
    <polygon points="1815.23 1493.73 1803.41 1493.73 1803.41 1505.97 1769.32 1505.97 1769.32 1457.17 1815.23 1457.17 1815.23 1493.73"/>
  </g>
  <g id="_1520.56b" data-name="1520.56b">
    <polygon points="1824.76 629.91 1859.57 629.91 1892.58 629.91 1892.58 636.64 1909.59 636.64 1909.59 644.18 1909.59 657.46 1892.58 657.46 1892.58 669.74 1848.52 669.74 1848.52 650.14 1845.57 650.14 1845.57 669.74 1845.36 669.74 1840.23 669.74 1839.19 669.74 1824.76 669.74 1824.76 629.91"/>
  </g>
  <g id="_1520.56a" data-name="1520.56a">
    <polygon points="1773.33 619.01 1807.78 619.01 1807.78 629.91 1820.68 629.91 1820.68 669.74 1773.33 669.74 1773.33 619.01"/>
  </g>
  <g id="_1520.56" data-name="1520.56">
    <polygon points="1895.53 633.69 1895.53 626.95 1861.04 626.95 1861.04 615.13 1858.09 615.13 1858.09 626.95 1822.72 626.95 1810.73 626.95 1810.73 616.06 1773.36 616.06 1771.85 616.06 1771.85 616.13 1753.08 616.13 1753.08 606.84 1753.08 553.44 1753.08 553.25 1753.43 553.25 1753.43 551.93 1753.43 520.57 1760.32 520.57 1827.1 520.57 1890.41 520.57 1912.55 520.57 1912.55 633.69 1895.53 633.69"/>
  </g>
  <g id="_1510.033" data-name="1510.033">
    <polygon points="1120.19 1088.06 1108.45 1088.06 1108.45 1080.19 1088.98 1080.19 1088.98 1049.46 1083.6 1049.46 1074.07 1049.46 1074.07 1000.88 1083.07 1000.88 1083.07 981.19 1104.09 981.19 1104.09 954.47 1145.37 954.47 1145.37 1088.06 1120.19 1088.06"/>
  </g>
  <g id="_1510.001" data-name="1510.001">
    <polyline points="1249.22 662.85 1249.22 608.85 1473.35 608.85 1473.35 594.36 1532.68 594.36 1532.68 609.18 1694.15 609.18 1694.15 665.52 1462.69 665.52 1462.69 857.91 1407.56 857.91 1407.56 664.64"/>
  </g>
  <g id="_1512.005" data-name="1512.005">
    <polygon points="1606.12 725.39 1579.12 725.39 1556.94 725.39 1556.9 725.39 1555.08 725.39 1479.42 725.39 1477.59 725.39 1477.56 725.39 1462.69 725.39 1462.69 687.42 1465.64 687.42 1465.64 681.52 1486.03 681.52 1486.03 667.59 1633.83 667.59 1633.83 667.69 1633.83 687.42 1636.78 687.42 1636.78 725.39 1616.14 725.39 1615.19 725.39 1614.81 725.39 1606.12 725.39"/>
  </g>
  <g id="_1513.005" data-name="1513.005">
    <polygon points="602.67 775.32 602.48 775.32 602.48 681.8 622.31 681.8 622.31 664.64 656.9 664.64 656.9 687.42 656.9 723.3 656.9 726.69 656.9 759.11 656.9 760.44 656.9 776.24 656.9 779.62 656.9 805.27 622.31 805.27 599.62 805.27 599.62 778.27 622.59 778.27 622.59 775.32 602.67 775.32"/>
  </g>
  <g id="_1510.004.3" data-name="1510.004.3">
    <rect x="958.69" y="1204.65" width="188.15" height="40.5"/>
  </g>
  <g id="_1510.004.4" data-name="1510.004.4">
    <rect x="1146.84" y="1204.65" width="260.71" height="40.5"/>
  </g>
  <g id="_1510.007" data-name="1510.007">
    <polygon points="886.12 951.52 886.13 953.27 886.14 1115.98 886.14 1204.64 955.38 1204.64 955.38 1245.14 886.14 1245.14 886.14 1284.24 830.82 1284.24 830.82 1245.14 778.18 1245.14 723.14 1245.14 723.14 1204.64 727.85 1204.64 831 1204.64 831 1141.4 831 1111.48 831 1064.8 831 1061.41 831 951.52 886.12 951.52"/>
  </g>
  <g id="_1510.003" data-name="1510.003">
    <polygon points="1570.55 1204.64 1570.55 1245.14 1515.86 1245.14 1462.69 1245.14 1462.69 1284.24 1407.55 1284.24 1407.55 1245.14 1407.55 1206.55 1407.55 1204.64 1407.55 1203.16 1407.55 1115.98 1407.55 951.52 1462.69 951.52 1462.69 1061.4 1462.69 1064.79 1462.69 1110.6 1463.04 1110.6 1463.04 1138.44 1463.04 1140.52 1462.69 1140.52 1462.69 1204.64 1565.83 1204.64 1570.55 1204.64"/>
  </g>
  <g id="_1503" data-name="1503">
    <polygon points="1194.51 744.66 1194.51 815.53 1194.51 885.74 1194.51 895.27 1099.17 895.27 1099.17 887.64 1099.17 883.84 1099.17 818.19 1099.1 818.19 1099.1 811.44 1099.17 811.44 1099.17 744.66 1099.17 685.59 1194.51 685.59 1194.51 744.66"/>
  </g>
  <g id="_1513.3" data-name="1513.3">
    <polygon points="599.53 1245.15 599.53 1325.79 600.09 1327.27 600.09 1395.33 604.8 1395.33 604.8 1450.74 543.56 1450.74 543.56 1101.74 599.53 1101.74 599.53 1112.36 598.97 1112.36 598.97 1204.65 720.19 1204.65 720.19 1245.15 599.53 1245.15"/>
  </g>
  <g id="_1513.2" data-name="1513.2">
    <polygon points="683.9 895.27 683.9 951.45 658.87 951.45 657.03 951.52 598.69 951.52 598.69 1061.98 599.53 1061.98 599.53 1101.74 543.56 1101.74 543.56 670.55 599.53 670.55 599.53 776.8 599.62 776.8 599.62 806.76 599.53 806.76 599.53 895.27 683.9 895.27"/>
  </g>
  <g id="_1511.1" data-name="1511.1">
    <polygon points="1694.15 606.84 1694.15 895.27 1609.45 895.27 1609.45 951.52 1694.15 951.52 1750.12 951.52 1750.12 669.74 1770.14 669.74 1770.14 620.85 1750.12 620.85 1750.12 606.84 1694.15 606.84"/>
  </g>
  <g id="_1511.4" data-name="1511.4">
    <polygon points="1574.02 1205.31 1695 1205.31 1695 951.52 1750.12 951.52 1750.12 1450.74 1689.06 1450.74 1689.06 1395.78 1694.13 1395.78 1694.13 1245.14 1574.02 1245.14 1574.02 1205.31"/>
  </g>
  <g id="_1512" data-name="1512">
    <polygon points="654.99 664.64 624.82 664.64 621.43 664.64 599.53 664.64 599.53 670.55 545.47 670.55 543.56 670.55 543.56 668.57 543.56 608.67 601.57 608.67 612.11 608.67 714.84 608.67 817.57 608.67 828.11 608.67 930.84 608.67 1033.57 608.67 1044.11 608.67 1146.84 608.67 1218.74 608.67 1220.39 608.67 1220.39 606.42 1249.22 606.42 1249.22 610.58 1249.22 666.89 1245.28 666.89 1245.28 664.64 1195.99 664.64 1194.88 664.65 1194.83 664.65 1098.29 664.64 1097.69 664.64 1011.28 664.64 1009.8 664.64 1009.77 664.64 995.42 664.64 973.51 664.64 970.46 664.64 943.99 664.64 940.6 664.64 940.6 664.71 867.27 664.71 867.27 687.42 867.27 723.48 867.27 726.87 867.27 752.39 830.14 752.39 830.14 726.69 830.14 726.27 830.14 723.3 830.14 687.42 830.14 687.21 830.14 682.33 830.14 664.64 807.41 664.64 807.41 664.71 658.38 664.71 658.38 664.64 654.99 664.64"/>
  </g>
  <g id="_1520.24a" data-name="1520.24a">
    <polygon points="1017.08 512.56 1006.25 512.56 1006.25 464.21 1024.32 464.21 1036.63 464.21 1036.63 512.56 1017.08 512.56"/>
  </g>
  <g id="_1520.23a" data-name="1520.23a">
    <polygon points="1052.94 464.21 1071.43 464.21 1071.43 512.56 1060.6 512.56 1041.06 512.56 1041.06 464.21 1052.94 464.21"/>
  </g>
  <g id="_1520.22a" data-name="1520.22a">
    <polygon points="1233.08 512.56 1222.25 512.56 1222.25 464.21 1240.32 464.21 1252.63 464.21 1252.63 512.56 1233.08 512.56"/>
  </g>
  <g id="_1510.016" data-name="1510.016">
    <polygon points="1671.37 1245.14 1671.37 1248.09 1690.08 1248.09 1690.08 1312.64 1689.89 1312.64 1674.33 1312.64 1674.33 1300.83 1635.9 1300.83 1613.86 1300.83 1613.86 1324.31 1582.64 1324.31 1582.64 1248.09 1636.78 1248.09 1636.78 1245.14 1671.37 1245.14"/>
  </g>
  <g id="_1520.29a" data-name="1520.29a">
    <polygon points="445.76 605.37 445.76 564.55 445.76 563.04 445.76 544.55 492.2 544.55 496.45 544.55 496.45 605.37 445.76 605.37"/>
  </g>
  <g id="_1520.50a" data-name="1520.50a">
    <polygon points="1847.3 1317.74 1846.24 1317.74 1846.24 1298.19 1846.24 1287.36 1894.59 1287.36 1894.59 1305.43 1894.59 1317.74 1847.3 1317.74"/>
  </g>
  <g id="_1520.28a" data-name="1520.28a">
    <polygon points="604.63 512.56 585.08 512.56 574.25 512.56 574.25 464.21 592.32 464.21 604.63 464.21 604.63 512.56"/>
  </g>
  <g id="_1520.20" data-name="1520.20">
    <polygon points="1451.58 446.39 1452.84 444.84 1455.44 444.84 1455.44 461.26 1435.3 461.26 1435.3 515.51 1448.2 515.51 1448.2 519.45 1468.45 519.45 1468.45 594.36 1468.45 605.72 1365.06 605.72 1365.06 446.25 1435.4 446.25 1435.55 446.25 1435.55 441.89 1437.09 441.89 1437.09 446.39 1451.58 446.39"/>
  </g>
  <g id="_1520.31a" data-name="1520.31a">
    <polygon points="399.1 873.86 399.1 855.36 447.44 855.36 447.44 866.19 447.44 885.74 399.1 885.74 399.1 873.86"/>
  </g>
  <g id="_1520.30a" data-name="1520.30a">
    <polygon points="447.44 693.71 447.44 704.54 399.1 704.54 399.1 686.47 399.1 674.17 447.44 674.17 447.44 693.71"/>
  </g>
  <g id="_1520.47a" data-name="1520.47a">
    <polygon points="1684.63 1571.72 1684.63 1595.2 1672.33 1595.2 1654.26 1595.2 1654.26 1546.85 1665.09 1546.85 1684.63 1546.85 1684.63 1568.49 1684.63 1571.72"/>
  </g>
  <g id="_1510.055" data-name="1510.055">
    <polygon points="721.66 1248.09 776.53 1248.09 776.53 1303.4 776.53 1304.73 776.53 1323.96 713.21 1323.96 713.21 1313.31 713.56 1313.31 713.56 1248.13 713.56 1248.09 721.66 1248.09"/>
  </g>
  <g id="_1514.003" data-name="1514.003">
    <polygon points="1302.37 1329.11 1302.37 1371.7 1302.37 1395.33 1275.37 1395.33 1275.37 1371.7 1272.42 1371.7 1272.42 1392.28 1272.42 1392.38 1170.05 1392.38 1170.05 1392.28 1170.05 1371.7 1167.09 1371.7 1167.09 1395.33 1146.84 1395.33 1146.84 1334.45 1199.15 1334.45 1246.55 1334.45 1246.59 1334.45 1248.38 1334.45 1263.1 1334.45 1263.1 1327.2 1302.37 1327.2 1302.37 1329.11"/>
  </g>
  <g id="_1502.003" data-name="1502.003">
    <polygon points="1642.12 556.65 1591.93 556.65 1591.93 511.79 1642.12 511.79 1642.12 551.93 1642.12 556.65"/>
  </g>
  <g id="_1520.55a" data-name="1520.55a">
    <polygon points="1894.59 704.55 1846.24 704.55 1846.24 693.72 1846.24 674.17 1847.05 674.17 1893.46 674.17 1894.59 674.17 1894.59 686.05 1894.59 704.55"/>
  </g>
  <g id="_1510.032" data-name="1510.032">
    <polygon points="1042.78 955.1 1100.79 955.1 1100.79 976.76 1081.77 976.76 1068.3 976.76 1066.47 976.76 1066.23 976.76 1042.78 976.76 1042.78 955.1"/>
  </g>
  <g id="_1510.022" data-name="1510.022">
    <polygon points="622.31 876.7 603.61 876.7 603.61 808.23 622.31 808.23 656.9 808.23 656.9 824.6 656.9 824.64 656.9 826.11 656.9 895.27 622.31 895.27 622.31 876.7"/>
  </g>
  <g id="_1510.019" data-name="1510.019">
    <polygon points="622.31 1248.09 622.31 1245.14 656.9 1245.14 656.9 1248.09 710.61 1248.09 710.61 1312.43 683.61 1312.43 683.61 1300.83 657.78 1300.83 622.31 1300.83 622.31 1324.31 603.08 1324.31 602.48 1324.31 602.48 1248.09 622.31 1248.09"/>
  </g>
  <g id="_1510.017b" data-name="1510.017b">
    <polygon points="1334.98 1325.99 1336.46 1327.27 1365.48 1327.27 1365.48 1392.38 1305.33 1392.38 1305.33 1392.28 1305.33 1371.7 1302.37 1371.7 1302.37 1327.2 1334.97 1327.2 1334.98 1325.99"/>
  </g>
  <g id="_1510.018b" data-name="1510.018b">
    <polygon points="991.31 1371.7 988.36 1371.7 988.36 1392.28 988.36 1392.38 946.4 1392.38 925.04 1392.38 925.04 1327.2 957.22 1327.2 958.7 1325.99 958.7 1327.2 958.74 1327.2 991.31 1327.2 991.31 1371.7"/>
  </g>
  <g id="_1510.018a" data-name="1510.018a">
    <polygon points="922.09 1392.34 922.09 1392.36 886.14 1392.38 886.14 1395.33 922.79 1395.33 923.56 1395.33 925.08 1395.33 946.4 1395.33 993.22 1395.33 1016.4 1395.33 1019.79 1395.33 1125.12 1395.33 1128.5 1395.33 1146.84 1395.33 1165.18 1395.33 1168.57 1395.33 1273.9 1395.33 1277.29 1395.33 1300.46 1395.33 1303.85 1395.33 1366.96 1395.33 1404.5 1395.33 1407.55 1395.33 1407.55 1390.46 1407.55 1371.7 1407.55 1329.18 1407.55 1325.61 1407.55 1324.28 1407.55 1287.19 1462.69 1287.19 1462.69 1303.4 1462.69 1306.78 1462.69 1326.39 1463.38 1326.39 1463.38 1329.78 1463.38 1371.7 1463.38 1395.33 1635.3 1395.33 1635.3 1394.91 1638.69 1394.91 1671.37 1394.91 1688.88 1394.91 1688.88 1450.74 1578.84 1450.74 1476.15 1450.74 1465.61 1450.74 1362.84 1450.74 1260.15 1450.74 1249.61 1450.74 1146.84 1450.74 1044.15 1450.74 1033.61 1450.74 930.84 1450.74 858.84 1450.74 857.37 1450.74 857.37 1453.27 827.31 1453.27 827.31 1394.71 827.31 1392.62 831 1392.62 831 1371.7 831 1326.39 831 1306.78 831 1303.4 830.82 1303.4 830.82 1287.19 886.14 1287.19 886.14 1324.21 886.14 1325.61 886.14 1327.2 922.09 1327.2 922.09 1392.34"/>
  </g>
  <g id="_1510.047" data-name="1510.047">
    <polygon points="1118.72 1201.69 1031.11 1201.69 1031.11 1118.58 1047.28 1118.58 1047.28 1094.32 1086.94 1094.32 1089.01 1094.32 1107.15 1094.32 1118.72 1094.32 1118.72 1201.69"/>
  </g>
  <g id="_1520.36a" data-name="1520.36a">
    <polygon points="445.5 1336.8 445.5 1341.75 445.5 1371.78 409.5 1371.78 409.5 1364.46 388.69 1364.46 388.69 1343.65 397.3 1343.65 398.64 1343.65 410.35 1343.65 410.35 1340.7 399.94 1340.7 399.94 1322.17 445.5 1322.17 445.5 1336.8"/>
  </g>
  <g id="_1520.37b" data-name="1520.37b">
    <polygon points="474.38 1493.73 435.49 1493.73 388.03 1493.73 388.03 1459.77 450.61 1459.77 450.61 1473.48 453.57 1473.48 453.57 1458.47 453.57 1457.17 474.38 1457.17 474.38 1493.73"/>
  </g>
  <g id="_1520.37a" data-name="1520.37a">
    <polygon points="524.37 1505.97 490.27 1505.97 490.27 1493.73 478.46 1493.73 478.46 1457.17 524.37 1457.17 524.37 1505.97"/>
  </g>
  <g id="_1520.37" data-name="1520.37">
    <polygon points="399.1 1536.73 399.1 1507.96 381.14 1507.96 381.14 1496.69 386.73 1496.69 434.01 1496.69 434.01 1508.04 436.96 1508.04 436.96 1496.69 476.42 1496.69 487.32 1496.69 487.32 1508.92 524.37 1508.92 524.37 1610.84 520.71 1610.84 520.71 1611.82 444.07 1611.82 444.07 1613.16 399.1 1613.16 399.1 1595.93 381.14 1595.93 381.14 1536.73 399.1 1536.73"/>
  </g>
  <g id="_1520.36" data-name="1520.36">
    <polygon points="381.14 1367.42 387.39 1367.42 406.55 1367.42 406.55 1374.73 449.58 1374.73 449.58 1342.63 454.34 1342.63 454.34 1336.8 454.34 1322.17 501.3 1322.17 501.3 1331.77 502.14 1331.77 502.14 1322.17 533.79 1322.17 533.79 1326.26 540.61 1326.26 540.61 1450.74 540.61 1452.74 525.84 1452.74 476.42 1452.74 452.09 1452.74 386.73 1452.74 381.14 1452.74 381.14 1374.73 381.14 1367.42"/>
  </g>
  <g id="_1512.004" data-name="1512.004">
    <polygon points="1404.61 666.75 1404.61 687.42 1407.56 687.42 1407.56 725.39 1386.68 725.39 1349.13 725.39 1347.7 725.39 1347.62 725.39 1331.83 725.39 1299.15 725.39 1299.15 679.11 1299.15 677.64 1299.15 677.6 1299.15 664.64 1332.75 664.64 1332.75 687.42 1335.7 687.42 1335.7 667.69 1335.7 666.75 1404.61 666.75"/>
  </g>
  <g id="_1511.005" data-name="1511.005">
    <polygon points="1694.15 779.32 1694.15 805.69 1636.78 805.69 1636.78 780.67 1636.78 777.28 1636.78 757.21 1636.78 750.53 1636.78 749.19 1636.78 726.69 1636.78 723.3 1636.78 687.42 1636.78 664.64 1671.37 664.64 1671.37 679.27 1691.76 679.27 1691.76 776.37 1691.1 776.37 1671.37 776.37 1671.37 779.32 1694.15 779.32"/>
  </g>
  <g id="_1511.003" data-name="1511.003">
    <polygon points="1636.64 1138.33 1636.64 1136.57 1636.64 1063.48 1636.64 1063.45 1638.2 1063.45 1671.37 1063.45 1695 1063.45 1695 1090.44 1683.47 1090.44 1674.47 1090.44 1674.47 1111.55 1691.76 1111.55 1691.76 1201.69 1671.65 1201.69 1671.65 1204.64 1636.64 1204.64 1636.64 1139.95 1636.64 1138.33"/>
  </g>
  <g id="_1514.004" data-name="1514.004">
    <polygon points="1516.21 1327.27 1581.16 1327.27 1614.74 1327.27 1615.65 1327.27 1635.9 1327.27 1639.29 1327.27 1668.86 1327.27 1672.25 1327.27 1690.78 1327.27 1690.78 1391.95 1688.88 1391.95 1671.37 1391.95 1671.37 1394.91 1636.78 1394.91 1636.78 1371.7 1633.83 1371.7 1633.83 1391.86 1633.83 1392.38 1466.33 1392.38 1466.33 1371.7 1463.38 1371.7 1463.38 1327.27 1514.88 1327.27 1516.21 1327.27"/>
  </g>
  <g id="_1513.003" data-name="1513.003">
    <polygon points="601.92 1113.24 616.4 1113.24 616.4 1091.3 599.53 1091.3 599.53 1063.45 622.45 1063.45 657.05 1063.45 657.05 1087.08 657.05 1091.86 657.05 1114.08 657.05 1140.83 657.05 1204.64 622.31 1204.64 622.31 1201.69 601.92 1201.69 601.92 1113.24"/>
  </g>
  <g id="_1512.002" data-name="1512.002">
    <polygon points="677.54 725.39 656.9 725.39 656.9 687.42 659.86 687.42 659.86 667.69 659.86 667.66 806.53 667.66 806.53 683.2 827.19 683.2 827.19 687.21 827.19 687.42 830.14 687.42 830.14 725.39 816.13 725.39 816.09 725.39 814.26 725.39 738.61 725.39 736.78 725.39 736.74 725.39 714.84 725.39 687.84 725.39 678.88 725.39 678.84 725.39 677.54 725.39"/>
  </g>
  <g id="_1501" data-name="1501">
    <polygon points="1828.22 334.78 1828.22 369.75 1829.01 369.75 1829.01 399 1828.22 399 1828.22 439.5 1829.01 439.5 1829.01 468.75 1828.22 468.75 1828.22 475.51 1762.59 475.51 1762.59 468.75 1761.8 468.75 1761.8 439.5 1762.59 439.5 1762.59 399 1761.8 399 1761.8 369.75 1762.59 369.75 1762.59 334.78 1828.22 334.78"/>
  </g>
  <g id="_1510.013" data-name="1510.013">
    <polygon points="1671.37 880.64 1671.37 895.27 1636.78 895.27 1636.78 848.65 1636.78 847.17 1636.78 847.14 1636.78 809.77 1691.1 809.77 1691.2 809.77 1691.2 880.64 1671.37 880.64"/>
  </g>
  <g id="_1520.27a" data-name="1520.27a">
    <polygon points="639.43 464.21 639.43 512.56 628.6 512.56 609.06 512.56 609.06 464.21 620.94 464.21 639.43 464.21"/>
  </g>
  <g id="_1502" data-name="1502">
    <path d="M1903.69,233.2h17.72v101.39h-31.55v-5.72h-61.64v5.91h-65.62v-5.91h-40.5v.8h-49.45v21.09h20.97v59.18h-20.97v54.87h19.34v48.94h-18.46v2.95h52.98v33.75h-81.42v-140.51h-112.39v184.42h-59.45v-130.54h11.64v-22.64h-28.09v.7h-4.5v-208.69h17.44v-11.81h433.97v11.81ZM1571.46,254.09h14.77v-16.38h-14.77v16.38ZM1787.46,254.09h14.77v-16.38h-14.77v16.38Z"/>
  </g>
  <g id="_1502.006" data-name="1502.006">
    <polygon points="1588.27 510.96 1588.27 558.87 1588.27 605.02 1536.34 605.02 1536.34 594.36 1536.34 590.39 1535.64 590.39 1535.64 510.96 1588.27 510.96"/>
  </g>
  <g id="_1502.002" data-name="1502.002">
    <rect x="1591.93" y="464.19" width="50.2" height="44.3"/>
  </g>
  <g id="_1502.001" data-name="1502.001">
    <rect x="1591.93" y="414.38" width="50.2" height="44.26"/>
  </g>
  <g id="_1520.35a" data-name="1520.35a">
    <polygon points="399.1 1317.74 399.1 1305.43 399.1 1287.36 447.44 1287.36 447.44 1298.19 447.44 1317.74 446.38 1317.74 399.1 1317.74"/>
  </g>
  <g id="_1520.34a" data-name="1520.34a">
    <polygon points="447.44 1125.71 447.44 1136.54 399.1 1136.54 399.1 1118.47 399.1 1106.17 447.44 1106.17 447.44 1125.71"/>
  </g>
  <g id="_1520.33a" data-name="1520.33a">
    <polygon points="399.1 1089.86 399.1 1071.36 447.44 1071.36 447.44 1082.19 447.44 1101.74 399.1 1101.74 399.1 1089.86"/>
  </g>
  <g id="_1520.32a" data-name="1520.32a">
    <polygon points="447.44 909.71 447.44 920.54 399.1 920.54 399.1 902.47 399.1 890.17 447.44 890.17 447.44 909.71"/>
  </g>
  <g id="_1510.023" data-name="1510.023">
    <polygon points="734.18 829.74 718.01 829.74 718.01 846.61 674.03 846.61 674.03 824.64 659.86 824.64 659.86 806.75 656.9 806.75 656.9 805.27 656.9 778.27 734.18 778.27 734.18 829.74"/>
  </g>
  <g id="_1510.054" data-name="1510.054">
    <polygon points="826.39 1302.09 779.83 1302.09 779.83 1248.09 826.39 1248.09 826.39 1285.71 826.39 1302.09"/>
  </g>
  <g id="_1510.046" data-name="1510.046">
    <polygon points="1047.1 1248.09 1197.5 1248.09 1197.5 1331.5 1146.84 1331.5 1047.1 1331.5 1047.1 1306.33 1047.1 1248.09"/>
  </g>
  <g id="_1510.020" data-name="1510.020">
    <polygon points="660 1143.75 726.37 1143.75 726.37 1203.13 725.05 1203.13 723.4 1203.13 721.66 1203.13 660 1203.13 660 1203.03 660 1143.75"/>
  </g>
  <g id="_1510.015" data-name="1510.015">
    <polygon points="1572.02 1201.69 1570.6 1201.69 1570.51 1201.69 1567.31 1201.69 1567.31 1141.43 1631.77 1141.43 1633.69 1141.43 1633.69 1201.59 1633.69 1201.69 1572.02 1201.69"/>
  </g>
  <g id="_1510.039" data-name="1510.039">
    <polygon points="1514.21 1248.09 1514.21 1302.09 1467.12 1302.09 1467.12 1285.71 1467.12 1248.09 1514.21 1248.09"/>
  </g>
  <g id="_1514.001" data-name="1514.001">
    <polygon points="756.22 1371.7 753.27 1371.7 753.27 1392.38 659.86 1392.38 659.86 1392.28 659.86 1371.7 656.9 1371.7 656.9 1395.33 622.31 1395.33 622.31 1392.38 604.8 1392.38 603.05 1392.38 603.05 1327.27 622.28 1327.27 625.26 1327.27 625.26 1324.28 625.26 1303.78 656.9 1303.78 656.9 1327.27 710.57 1327.27 710.96 1327.27 711.91 1327.27 777.83 1327.27 827.69 1327.27 827.69 1371.7 827.69 1390.02 825.65 1390.02 823.76 1390.02 823.76 1389.84 822.27 1389.84 790.74 1389.84 790.74 1396.63 793.7 1396.63 793.7 1392.8 824 1392.8 824 1451.35 824 1453.37 822.84 1453.37 817.89 1453.37 817.89 1450.74 714.84 1450.74 604.8 1450.74 604.8 1395.33 622.31 1395.33 654.99 1395.33 658.38 1395.33 756.22 1395.33 756.22 1371.7"/>
  </g>
  <g id="_1510.009" data-name="1510.009">
    <polygon points="1338.86 817.33 1338.82 817.33 1337.35 817.33 1283.88 817.33 1283.88 815.53 1283.88 778.06 1299.15 778.06 1299.15 725.39 1331.83 725.39 1331.83 728.34 1347.65 728.34 1347.65 817.33 1338.86 817.33"/>
  </g>
  <g id="_1510.010" data-name="1510.010">
    <polygon points="1402.68 817.33 1350.61 817.33 1350.61 728.38 1350.61 728.34 1385.62 728.34 1385.62 758.58 1404.61 758.58 1404.61 817.33 1402.68 817.33"/>
  </g>
  <g id="_1510.042" data-name="1510.042">
    <polygon points="1263.1 1306.33 1263.1 1248.09 1334.98 1248.09 1334.98 1324.24 1305.42 1324.24 1303.85 1324.24 1302.37 1324.24 1263.13 1324.24 1263.1 1324.24 1263.1 1306.33"/>
  </g>
  <g id="_1510.030" data-name="1510.030">
    <polygon points="826.92 1059.38 826.73 1059.38 816.14 1059.38 747.61 1059.38 747.61 955.59 826.92 955.59 826.92 1059.38"/>
  </g>
  <g id="_1510.053" data-name="1510.053">
    <polygon points="781.31 1143.43 826.92 1143.43 826.92 1201.69 729.33 1201.69 729.33 1143.43 754.31 1143.43 781.31 1143.43"/>
  </g>
  <g id="_1510.044" data-name="1510.044">
    <polygon points="1200.81 1331.5 1200.81 1248.09 1259.79 1248.09 1259.79 1305.46 1246.59 1305.46 1246.59 1331.5 1200.81 1331.5"/>
  </g>
  <g id="_1510.021" data-name="1510.021">
    <polygon points="815.26 1112.36 828.05 1112.36 828.05 1139.36 782.79 1139.36 782.79 1138.06 782.79 1124.52 779.83 1124.52 779.83 1136.75 755.79 1136.75 755.79 1124.52 752.83 1124.52 752.83 1138.06 752.83 1139.36 727.85 1139.36 726.34 1139.36 660 1139.36 660 1114.08 660 1063.45 745.78 1063.45 815.26 1063.45 815.26 1112.36"/>
  </g>
  <g id="_1510.037" data-name="1510.037">
    <polygon points="1466.76 1142.56 1507.05 1142.56 1534.76 1142.56 1564.36 1142.56 1564.36 1201.69 1466.76 1201.69 1466.76 1142.56"/>
  </g>
  <g id="_1510.035" data-name="1510.035">
    <polygon points="1549.73 1059.36 1477.54 1059.36 1466.95 1059.36 1466.76 1059.36 1466.76 955.59 1549.73 955.59 1549.73 1059.36"/>
  </g>
  <g id="_1510.014" data-name="1510.014">
    <polygon points="1551.56 1063.44 1633.69 1063.44 1633.69 1138.48 1567.35 1138.48 1567.13 1138.48 1565.83 1138.48 1536.23 1138.48 1536.23 1137.18 1536.23 1123.64 1533.28 1123.64 1533.28 1135.88 1509.09 1135.88 1509.09 1123.64 1505.01 1123.64 1505.01 1137.18 1505.01 1138.48 1465.99 1138.48 1465.99 1111.48 1478.42 1111.48 1478.42 1063.44 1549.7 1063.44 1549.73 1063.44 1551.56 1063.44"/>
  </g>
  <g id="_1510.049" data-name="1510.049">
    <polygon points="1028.15 1201.65 1028.15 1201.67 958.7 1201.69 958.7 1118.16 1004.83 1118.16 1004.83 1093.97 1028.15 1093.97 1028.15 1094.58 1028.15 1117.28 1028.15 1201.65"/>
  </g>
  <g id="_1510.045" data-name="1510.045">
    <polygon points="1246.59 1199.78 1246.59 1201.69 1121.67 1201.69 1121.67 1093.02 1121.67 1091.02 1146.84 1091.02 1246.59 1091.02 1246.59 1117.57 1246.59 1199.78"/>
  </g>
  <g id="_1510.043" data-name="1510.043">
    <polygon points="1263.1 1091.02 1288.86 1091.02 1288.86 1118.16 1334.98 1118.16 1334.98 1201.69 1249.54 1201.69 1249.54 1118.45 1263.1 1118.45 1263.1 1091.02"/>
  </g>
  <g id="_1510.048" data-name="1510.048">
    <polygon points="989.83 1324.24 988.26 1324.24 958.7 1324.24 958.7 1248.09 1043.79 1248.09 1043.79 1305.46 1030.59 1305.46 1030.59 1324.24 991.31 1324.24 989.83 1324.24"/>
  </g>
  <g id="_1510.001a" data-name="1510.001a">
    <rect x="1462.69" y="755.2" width="14.91" height="76.5"/>
  </g>
  <g id="_1510.012" data-name="1510.012">
    <polygon points="1636.78 807.73 1633.83 807.73 1633.83 847.17 1622.58 847.17 1575.68 847.17 1575.68 829.74 1559.51 829.74 1559.51 779.32 1636.78 779.32 1636.78 807.73"/>
  </g>
  <g id="_1520.29" data-name="1520.29">
    <path d="M363,446.25h19.6v18.84h5.85v96.47h-18.47v2.95h12.56v44.58h-123.05l-4.5-4.92h-17.72v-153h17.72v-4.92h108ZM277.78,604.45h10.12v-10.12h-10.12v10.12ZM277.78,461.02h10.12v-10.12h-10.12v10.12Z"/>
  </g>
  <g id="_1520.38a" data-name="1520.38a">
    <polygon points="628.6 1546.85 639.43 1546.85 639.43 1595.2 621.36 1595.2 609.06 1595.2 609.06 1567.21 609.06 1563.99 609.06 1546.85 628.6 1546.85"/>
  </g>
  <g id="_1520.46a" data-name="1520.46a">
    <polygon points="1473.06 1546.85 1492.61 1546.85 1503.44 1546.85 1503.44 1595.2 1484.94 1595.2 1473.06 1595.2 1473.06 1546.85"/>
  </g>
  <g id="_1520.44a" data-name="1520.44a">
    <polygon points="1257.06 1546.85 1276.61 1546.85 1287.44 1546.85 1287.44 1595.2 1268.95 1595.2 1257.06 1595.2 1257.06 1546.85"/>
  </g>
  <g id="_1520.45a" data-name="1520.45a">
    <polygon points="1438.26 1595.2 1438.26 1546.85 1449.09 1546.85 1468.63 1546.85 1468.63 1595.2 1456.33 1595.2 1438.26 1595.2"/>
  </g>
  <g id="_1520.42a" data-name="1520.42a">
    <polygon points="1041.06 1546.85 1060.61 1546.85 1071.44 1546.85 1071.44 1595.2 1052.94 1595.2 1041.06 1595.2 1041.06 1546.85"/>
  </g>
  <g id="_1520.43a" data-name="1520.43a">
    <polygon points="1222.26 1595.2 1222.26 1546.85 1233.09 1546.85 1252.63 1546.85 1252.63 1595.2 1240.33 1595.2 1222.26 1595.2"/>
  </g>
  <g id="_1520.40a" data-name="1520.40a">
    <polygon points="825.06 1546.85 844.61 1546.85 855.44 1546.85 855.44 1595.2 837.23 1595.2 825.06 1595.2 825.06 1546.85"/>
  </g>
  <g id="_1520.41a" data-name="1520.41a">
    <polygon points="1006.26 1595.2 1006.26 1546.85 1017.09 1546.85 1036.63 1546.85 1036.63 1595.2 1024.33 1595.2 1006.26 1595.2"/>
  </g>
  <g id="_1520.39a" data-name="1520.39a">
    <polygon points="790.25 1595.2 790.25 1546.85 801.08 1546.85 820.63 1546.85 820.63 1595.2 808.32 1595.2 790.25 1595.2"/>
  </g>
  <g id="_1520.51a" data-name="1520.51a">
    <polygon points="1894.59 1136.54 1846.24 1136.54 1846.24 1125.71 1846.24 1106.17 1894.59 1106.17 1894.59 1118.05 1894.59 1136.54"/>
  </g>
  <g id="_1520.49a" data-name="1520.49a">
    <polygon points="1848.18 1336.8 1848.18 1322.17 1894.31 1322.17 1894.31 1340.7 1882.49 1340.7 1882.49 1343.65 1895.61 1343.65 1896.94 1343.65 1904.99 1343.65 1904.99 1364.46 1884.18 1364.46 1884.18 1371.78 1848.18 1371.78 1848.18 1341.75 1848.18 1336.8"/>
  </g>
  <g id="_1520.53a" data-name="1520.53a">
    <polygon points="1894.59 920.54 1846.24 920.54 1846.24 909.71 1846.24 890.17 1894.59 890.17 1894.59 902.05 1894.59 920.54"/>
  </g>
  <g id="_1520.52a" data-name="1520.52a">
    <polygon points="1846.24 1101.74 1846.24 1082.19 1846.24 1071.36 1894.59 1071.36 1894.59 1089.43 1894.59 1101.74 1846.24 1101.74"/>
  </g>
  <g id="_1520.54a" data-name="1520.54a">
    <polygon points="1846.24 885.74 1846.24 866.19 1846.24 855.36 1894.59 855.36 1894.59 873.43 1894.59 885.74 1846.24 885.74"/>
  </g>
  <g id="_1520.21a" data-name="1520.21a">
    <polygon points="1269.22 464.21 1287.43 464.21 1287.43 512.56 1276.6 512.56 1257.06 512.56 1257.06 464.21 1269.22 464.21"/>
  </g>
  <g id="_1520.20a" data-name="1520.20a">
    <polygon points="1449.08 512.56 1438.25 512.56 1438.25 464.21 1456.32 464.21 1468.45 464.21 1468.45 512.56 1449.08 512.56"/>
  </g>
  <g id="_1520.25a" data-name="1520.25a">
    <polygon points="855.43 464.21 855.43 512.56 844.6 512.56 825.06 512.56 825.06 464.21 836.94 464.21 855.43 464.21"/>
  </g>
  <g id="_1520.26a" data-name="1520.26a">
    <polygon points="820.63 512.56 801.08 512.56 790.25 512.56 790.25 464.21 808.32 464.21 820.63 464.21 820.63 512.56"/>
  </g>
  <g id="_1510.038" data-name="1510.038">
    <polygon points="1517.52 1324.31 1517.52 1303.4 1517.52 1248.09 1572.02 1248.09 1579.69 1248.09 1579.69 1324.31 1517.52 1324.31"/>
  </g>
  <g id="_1520.48b" data-name="1520.48b">
    <polygon points="1840.12 1458.47 1840.12 1473.48 1843.07 1473.48 1843.07 1459.77 1906.02 1459.77 1906.02 1493.73 1858.2 1493.73 1819.3 1493.73 1819.3 1457.17 1840.12 1457.17 1840.12 1458.47"/>
  </g>
  <g id="_1520.47" data-name="1520.47">
    <polygon points="1581.06 1453.69 1684.63 1453.69 1684.63 1453.79 1684.63 1539.96 1664.21 1539.96 1664.21 1543.9 1651.3 1543.9 1651.3 1598.15 1671.45 1598.15 1671.45 1613.16 1659.07 1613.16 1581.06 1613.16 1581.06 1453.69"/>
  </g>
  <g id="_1520.46" data-name="1520.46">
    <polygon points="1486.25 1598.15 1506.39 1598.15 1506.39 1543.9 1493.49 1543.9 1493.49 1539.96 1473.06 1539.96 1473.06 1459.24 1477.03 1459.24 1477.03 1453.69 1576.63 1453.69 1576.63 1613.16 1498.62 1613.16 1486.25 1613.16 1486.25 1598.15"/>
  </g>
  <g id="_1520.45" data-name="1520.45">
    <polygon points="1365.06 1453.69 1464.73 1453.69 1464.73 1459.24 1468.63 1459.24 1468.63 1537.45 1468.63 1538.28 1448.21 1538.28 1448.21 1543.9 1435.3 1543.9 1435.3 1598.15 1455.45 1598.15 1455.45 1613.16 1443.07 1613.16 1365.06 1613.16 1365.06 1453.69"/>
  </g>
  <g id="_1520.44" data-name="1520.44">
    <polygon points="1270.25 1598.15 1290.39 1598.15 1290.39 1543.9 1277.49 1543.9 1277.49 1539.96 1257.06 1539.96 1257.06 1459.24 1261.03 1459.24 1261.03 1453.69 1360.63 1453.69 1360.63 1613.16 1282.62 1613.16 1270.25 1613.16 1270.25 1598.15"/>
  </g>
  <g id="_1520.43" data-name="1520.43">
    <polygon points="1149.06 1453.69 1248.73 1453.69 1248.73 1459.24 1252.63 1459.24 1252.63 1539.96 1232.21 1539.96 1232.21 1543.9 1219.3 1543.9 1219.3 1598.15 1239.45 1598.15 1239.45 1613.16 1227.07 1613.16 1149.06 1613.16 1149.06 1453.69"/>
  </g>
  <g id="_1520.42" data-name="1520.42">
    <polygon points="1054.25 1598.15 1074.39 1598.15 1074.39 1543.9 1061.49 1543.9 1061.49 1539.96 1041.06 1539.96 1041.06 1459.24 1045.03 1459.24 1045.03 1453.69 1144.63 1453.69 1144.63 1613.16 1066.62 1613.16 1054.25 1613.16 1054.25 1598.15"/>
  </g>
  <g id="_1520.41" data-name="1520.41">
    <polygon points="933.06 1453.69 1032.73 1453.69 1032.73 1459.24 1036.63 1459.24 1036.63 1539.96 1016.21 1539.96 1016.21 1543.9 1003.3 1543.9 1003.3 1598.15 1023.45 1598.15 1023.45 1613.16 1011.07 1613.16 933.06 1613.16 933.06 1453.69"/>
  </g>
  <g id="_1520.40" data-name="1520.40">
    <polygon points="849.39 1613.16 838.53 1613.16 838.53 1613.12 838.53 1598.15 858.39 1598.15 858.39 1543.9 845.49 1543.9 845.49 1539.96 825.06 1539.96 825.06 1456.22 829.04 1456.22 857.37 1456.22 858.84 1456.22 858.84 1453.69 928.63 1453.69 928.63 1613.16 850.62 1613.16 849.39 1613.16"/>
  </g>
  <g id="_1520.39" data-name="1520.39">
    <polygon points="717.06 1453.69 817.89 1453.69 817.89 1456.33 820.63 1456.33 820.63 1539.96 800.2 1539.96 800.2 1543.9 787.3 1543.9 787.3 1598.15 807.44 1598.15 807.44 1613.16 795.07 1613.16 717.06 1613.16 717.06 1453.69"/>
  </g>
  <g id="_1520.38" data-name="1520.38">
    <polygon points="622.24 1613.16 622.24 1598.15 642.39 1598.15 642.39 1543.9 629.48 1543.9 629.48 1539.96 609.06 1539.96 609.06 1453.79 609.06 1453.69 712.63 1453.69 712.63 1613.16 634.62 1613.16 622.24 1613.16"/>
  </g>
  <g id="_1520.35" data-name="1520.35">
    <polygon points="540.61 1214.17 540.61 1313.96 533.79 1313.96 533.79 1317.74 501.72 1317.74 454.34 1317.74 454.34 1297.31 450.4 1297.31 450.4 1284.41 396.14 1284.41 396.14 1304.56 381.14 1304.56 381.14 1292.18 381.14 1214.17 540.61 1214.17"/>
  </g>
  <g id="_1520.34" data-name="1520.34">
    <polygon points="381.14 1119.35 396.14 1119.35 396.14 1139.5 450.4 1139.5 450.4 1126.59 454.34 1126.59 454.34 1106.17 533.79 1106.17 533.79 1110.26 540.61 1110.26 540.61 1209.74 381.14 1209.74 381.14 1131.73 381.14 1119.35"/>
  </g>
  <g id="_1520.33" data-name="1520.33">
    <polygon points="540.61 998.17 540.61 1097.96 533.79 1097.96 533.79 1101.74 454.34 1101.74 454.34 1081.31 450.4 1081.31 450.4 1068.41 396.14 1068.41 396.14 1088.56 381.14 1088.56 381.14 1076.18 381.14 998.17 540.61 998.17"/>
  </g>
  <g id="_1520.32" data-name="1520.32">
    <polygon points="381.14 903.35 396.14 903.35 396.14 923.5 450.4 923.5 450.4 910.59 454.34 910.59 454.34 890.17 533.79 890.17 533.79 894.26 540.61 894.26 540.61 993.74 381.14 993.74 381.14 915.8 381.14 903.35"/>
  </g>
  <g id="_1520.31" data-name="1520.31">
    <polygon points="540.61 782.17 540.61 881.96 533.79 881.96 533.79 885.74 454.34 885.74 454.34 865.31 450.4 865.31 450.4 852.41 396.14 852.41 396.14 872.56 381.14 872.56 381.14 860.18 381.14 782.17 540.61 782.17"/>
  </g>
  <g id="_1520.48" data-name="1520.48">
    <polygon points="1769.32 1611.82 1769.32 1508.92 1806.37 1508.92 1806.37 1496.69 1817.27 1496.69 1856.72 1496.69 1856.72 1508.04 1859.67 1508.04 1859.67 1496.69 1906.9 1496.69 1912.55 1496.69 1912.55 1507.96 1894.59 1507.96 1894.59 1536.95 1912.55 1536.95 1912.55 1595.86 1881.47 1595.86 1881.47 1613.16 1849.62 1613.16 1849.62 1611.82 1769.32 1611.82"/>
  </g>
  <g id="_1520.49" data-name="1520.49">
    <polygon points="1906.9 1452.74 1841.59 1452.74 1817.27 1452.74 1767.84 1452.74 1753.08 1452.74 1753.08 1450.74 1753.08 1326.24 1758.56 1326.24 1758.56 1322.17 1791.54 1322.17 1791.54 1331.73 1792.38 1331.73 1792.38 1322.17 1839.35 1322.17 1839.35 1336.8 1839.35 1342.63 1844.1 1342.63 1844.1 1374.73 1887.13 1374.73 1887.13 1367.42 1906.29 1367.42 1912.55 1367.42 1912.55 1374.73 1912.55 1452.74 1906.9 1452.74"/>
  </g>
  <g id="_1520.50" data-name="1520.50">
    <polygon points="1912.55 1304.56 1897.54 1304.56 1897.54 1284.41 1843.29 1284.41 1843.29 1297.31 1839.35 1297.31 1839.35 1317.74 1791.96 1317.74 1758.56 1317.74 1758.56 1313.66 1753.08 1313.66 1753.08 1214.17 1912.55 1214.17 1912.55 1292.18 1912.55 1304.56"/>
  </g>
  <g id="_1520.51" data-name="1520.51">
    <polygon points="1753.08 1209.74 1753.08 1110.24 1758.56 1110.24 1758.56 1106.17 1839.35 1106.17 1839.35 1126.59 1843.29 1126.59 1843.29 1139.5 1897.54 1139.5 1897.54 1119.35 1912.55 1119.35 1912.55 1131.73 1912.55 1209.74 1753.08 1209.74"/>
  </g>
  <g id="_1520.52" data-name="1520.52">
    <polygon points="1897.54 1088.56 1897.54 1068.41 1843.29 1068.41 1843.29 1081.31 1839.35 1081.31 1839.35 1101.74 1758.56 1101.74 1758.56 1097.66 1753.08 1097.66 1753.08 998.17 1912.55 998.17 1912.55 1076.18 1912.55 1088.56 1897.54 1088.56"/>
  </g>
  <g id="_1520.53" data-name="1520.53">
    <polygon points="1753.08 993.74 1753.08 894.24 1758.56 894.24 1758.56 890.17 1839.35 890.17 1839.35 910.59 1843.29 910.59 1843.29 923.5 1897.54 923.5 1897.54 903.35 1912.55 903.35 1912.55 915.73 1912.55 993.74 1753.08 993.74"/>
  </g>
  <g id="_1520.54" data-name="1520.54">
    <polygon points="1897.54 872.56 1897.54 852.41 1843.29 852.41 1843.29 865.31 1839.35 865.31 1839.35 885.74 1758.56 885.74 1758.56 881.66 1753.08 881.66 1753.08 782.17 1912.55 782.17 1912.55 860.18 1912.55 872.56 1897.54 872.56"/>
  </g>
  <g id="_1520.55" data-name="1520.55">
    <polygon points="1753.08 777.74 1753.08 674.17 1771.85 674.17 1822.72 674.17 1839.19 674.17 1839.35 674.17 1839.35 694.6 1843.29 694.6 1843.29 707.5 1897.54 707.5 1897.54 687.35 1912.55 687.35 1912.55 699.73 1912.55 777.74 1753.08 777.74"/>
  </g>
  <g id="_1520.21" data-name="1520.21">
    <polygon points="1270.52 446.29 1270.52 446.27 1281.39 446.25 1282.62 446.25 1360.63 446.25 1360.63 605.72 1257.06 605.72 1257.06 604.95 1257.06 519.45 1277.48 519.45 1277.48 515.51 1290.39 515.51 1290.39 461.26 1270.52 461.26 1270.52 446.29"/>
  </g>
  <g id="_1520.22" data-name="1520.22">
    <polygon points="1239.44 446.25 1239.44 461.26 1219.3 461.26 1219.3 515.51 1232.2 515.51 1232.2 519.45 1252.63 519.45 1252.63 603.65 1248.13 603.65 1248.13 603.47 1247.13 603.47 1220.39 603.47 1218.74 603.47 1218.74 605.72 1149.06 605.72 1149.06 446.25 1227.07 446.25 1239.44 446.25"/>
  </g>
  <g id="_1520.23" data-name="1520.23">
    <polygon points="1144.63 605.72 1044.99 605.72 1044.99 600.23 1041.06 600.23 1041.06 519.45 1061.48 519.45 1061.48 515.51 1074.39 515.51 1074.39 461.26 1054.24 461.26 1054.24 446.25 1066.62 446.25 1144.63 446.25 1144.63 605.72"/>
  </g>
  <g id="_1520.24" data-name="1520.24">
    <polygon points="1023.44 446.25 1023.44 461.26 1003.3 461.26 1003.3 515.51 1016.2 515.51 1016.2 519.45 1036.63 519.45 1036.63 519.48 1036.63 600.23 1032.69 600.23 1032.69 605.72 933.06 605.72 933.06 446.25 1011.07 446.25 1023.44 446.25"/>
  </g>
  <g id="_1520.25" data-name="1520.25">
    <polygon points="928.63 605.72 828.99 605.72 828.99 600.23 825.06 600.23 825.06 519.45 845.48 519.45 845.48 515.51 858.39 515.51 858.39 461.26 838.24 461.26 838.24 446.25 850.62 446.25 928.63 446.25 928.63 605.72"/>
  </g>
  <g id="_1520.26" data-name="1520.26">
    <polygon points="807.44 446.25 807.44 461.26 787.3 461.26 787.3 515.51 800.2 515.51 800.2 519.45 820.63 519.45 820.63 600.23 816.69 600.23 816.69 605.72 717.06 605.72 717.06 446.25 795.07 446.25 807.44 446.25"/>
  </g>
  <g id="_1520.27" data-name="1520.27">
    <polygon points="712.63 605.72 612.99 605.72 612.99 600.23 609.06 600.23 609.06 519.45 629.48 519.45 629.48 515.51 642.39 515.51 642.39 461.26 622.24 461.26 622.24 446.25 634.62 446.25 712.63 446.25 712.63 605.72"/>
  </g>
  <g id="_1520.28" data-name="1520.28">
    <polygon points="591.44 446.25 591.44 461.26 571.3 461.26 571.3 515.51 584.2 515.51 584.2 519.45 604.63 519.45 604.63 600.23 600.69 600.23 600.69 605.72 543.56 605.72 501.23 605.72 501.23 542.9 501.23 497.61 501.23 446.25 579.07 446.25 591.44 446.25"/>
  </g>
  <g id="_1520.30" data-name="1520.30">
    <polygon points="381.14 687.35 396.14 687.35 396.14 707.5 450.4 707.5 450.4 694.59 454.34 694.59 454.34 674.17 540.51 674.17 540.61 674.17 540.61 777.74 381.14 777.74 381.14 699.8 381.14 687.35"/>
  </g>
  <g id="_0031.015" data-name="0031.015">
    <polygon points="1404.5 1201.69 1337.94 1201.69 1337.94 1201.65 1337.94 1118.19 1337.94 1117.45 1404.59 1117.45 1404.59 1201.69 1404.5 1201.69"/>
  </g>
  <g id="_0030.015" data-name="0030.015">
    <polygon points="1404.5 1324.31 1368.47 1324.31 1365.44 1324.31 1337.94 1324.31 1337.94 1324.21 1337.94 1248.09 1404.59 1248.09 1404.59 1248.19 1404.59 1285.71 1404.59 1324.31 1404.5 1324.31"/>
  </g>
  <g id="_0026.015" data-name="0026.015">
    <polygon points="889.09 1248.09 955.35 1248.09 955.75 1248.09 955.75 1248.13 955.75 1324.21 955.75 1324.24 926.95 1324.24 920.18 1324.24 889.19 1324.24 889.09 1324.24 889.09 1285.71 889.09 1248.09"/>
  </g>
  <g id="_0027.015" data-name="0027.015">
    <polygon points="955.75 1117.45 955.75 1118.19 955.75 1201.65 955.75 1201.69 955.35 1201.69 889.09 1201.69 889.09 1117.45 955.75 1117.45"/>
  </g>
  <g id="_0050.015" data-name="0050.015">
    <polygon points="659.86 892.22 659.86 827.59 659.89 827.59 671.07 827.59 671.07 849.56 718.01 849.56 718.01 892.31 686.89 892.31 683.87 892.31 659.86 892.31 659.86 892.22"/>
  </g>
  <g id="_0049.015" data-name="0049.015">
    <polygon points="720.96 848.09 720.96 832.69 735.48 832.69 737.83 832.69 737.83 892.31 720.96 892.3 720.96 848.09"/>
  </g>
  <g id="_0018.015" data-name="0018.015">
    <polygon points="812.44 780.76 812.44 782.59 812.44 849.8 812.44 851.98 812.44 880.03 812.44 881.86 812.44 888.52 812.44 891.61 740.44 891.61 740.44 832.72 740.44 832.69 740.44 774.16 740.44 729.05 812.44 729.05 812.44 780.76"/>
  </g>
  <g id="_0047.015" data-name="0047.015">
    <polygon points="1010.15 680.59 1010.15 744.66 1010.15 775.09 997.5 775.09 997.5 723.48 997.5 680.59 1010.15 680.59"/>
  </g>
  <g id="_0043.015" data-name="0043.015">
    <polygon points="1296.2 775.1 1283.53 775.1 1283.53 744.66 1283.53 680.59 1296.2 680.59 1296.2 725.39 1296.2 775.1"/>
  </g>
  <g id="_0085.015" data-name="0085.015">
    <polygon points="1404.59 853.85 1396.52 853.85 1396.52 875.37 1404.59 875.37 1404.59 892.22 1404.59 892.31 1332.05 892.31 1332.05 868.23 1338.82 868.23 1338.82 820.28 1347.62 820.28 1350.64 820.28 1404.59 820.28 1404.59 833.04 1404.59 853.85"/>
  </g>
  <g id="_0042.015" data-name="0042.015">
    <polygon points="1335.87 865.28 1330.57 865.28 1297.96 865.28 1283.88 865.28 1283.88 820.28 1335.87 820.28 1335.87 820.31 1335.87 865.28"/>
  </g>
  <g id="_0037.015" data-name="0037.015">
    <polygon points="1622.58 850.13 1633.79 850.13 1633.83 850.13 1633.83 892.22 1633.83 892.31 1608.69 892.31 1605.67 892.31 1575.68 892.31 1575.68 850.13 1622.58 850.13"/>
  </g>
  <g id="_0017.015" data-name="0017.015">
    <polygon points="1553.25 773.89 1553.25 831.21 1553.25 832.69 1553.25 832.72 1553.25 891.61 1481.25 891.61 1481.25 891 1481.25 833.5 1481.25 831.67 1481.25 755.24 1481.25 753.41 1481.25 729.05 1553.25 729.05 1553.25 773.89"/>
  </g>
  <g id="_0040.015" data-name="0040.015">
    <polygon points="1555.85 832.69 1559.54 832.69 1572.73 832.69 1572.73 848.65 1572.73 892.31 1555.85 892.31 1555.85 832.69"/>
  </g>
  <g id="_0038.015" data-name="0038.015">
    <polygon points="1865.66 499.06 1865.66 495.33 1872.41 495.33 1872.41 499.06 1884.98 499.06 1884.98 513.89 1831.97 513.89 1831.97 499.06 1838.66 499.06 1838.66 495.33 1845.41 495.33 1845.41 499.06 1865.66 499.06"/>
  </g>
  <g id="_0039.015" data-name="0039.015">
    <polygon points="1745.4 499.06 1745.4 495.33 1752.15 495.33 1752.15 499.06 1758.84 499.06 1758.84 513.75 1751.78 513.75 1726.5 513.75 1704.28 513.75 1704.28 499.06 1718.4 499.06 1718.4 495.33 1725.15 495.33 1725.15 499.06 1745.4 499.06"/>
  </g>
  <g id="_0001.015" data-name="0001.015">
    <polygon points="1831.97 399 1831.97 369.75 1831.97 332.63 1884.98 332.63 1884.98 337.23 1884.98 361.98 1884.98 419.27 1831.97 419.27 1831.97 399"/>
  </g>
  <g id="_0003.015" data-name="0003.015">
    <polygon points="1884.98 450.36 1884.98 495.33 1872.41 495.33 1865.66 495.33 1845.41 495.33 1838.66 495.33 1831.97 495.33 1831.97 476.99 1831.97 468.75 1831.97 439.5 1831.97 419.27 1884.98 419.27 1884.98 450.36"/>
  </g>
  <g id="_0004.015" data-name="0004.015">
    <polygon points="1758.84 439.5 1758.84 468.75 1758.84 476.99 1758.84 495.33 1752.15 495.33 1745.4 495.33 1725.15 495.33 1718.4 495.33 1704.28 495.33 1704.28 419.27 1758.84 419.27 1758.84 439.5"/>
  </g>
  <g id="_0002.015" data-name="0002.015">
    <polygon points="1704.28 332.63 1758.84 332.63 1758.84 369.75 1758.84 399 1758.84 419.27 1704.28 419.27 1704.28 332.63"/>
  </g>
  <g id="_0005.015" data-name="0005.015">
    <polygon points="1197.47 685.63 1197.47 682.61 1197.47 676.03 1232.34 676.03 1233.47 676.03 1240.22 676.03 1243.8 676.03 1250.55 676.03 1270.8 676.03 1277.55 676.03 1279.02 676.03 1280.93 676.03 1280.93 680.62 1280.93 744.66 1197.47 744.66 1197.47 685.63"/>
  </g>
  <g id="_0007.015" data-name="0007.015">
    <polygon points="1197.47 744.66 1280.93 744.66 1280.93 775.07 1280.93 775.09 1280.93 776.58 1280.93 815.53 1270.8 815.53 1270.8 815.39 1250.55 815.39 1250.55 815.53 1197.47 815.53 1197.47 744.66"/>
  </g>
  <g id="_0009.015" data-name="0009.015">
    <polygon points="1270.8 815.67 1270.8 815.53 1280.93 815.53 1280.93 818.8 1280.93 866.76 1280.93 883.88 1277.55 883.88 1270.8 883.88 1250.55 883.88 1243.8 883.88 1240.22 883.88 1233.47 883.88 1225.01 883.88 1197.47 883.88 1197.47 815.53 1250.55 815.53 1250.55 815.67 1270.8 815.67"/>
  </g>
  <g id="_0010.015" data-name="0010.015">
    <polygon points="1043.13 815.67 1043.13 815.53 1096.22 815.53 1096.22 818.19 1096.22 883.88 1060.22 883.88 1053.47 883.88 1049.88 883.88 1043.13 883.88 1022.88 883.88 1016.13 883.88 1012.76 883.88 1012.76 878.73 1012.76 856.73 1012.76 824.94 1012.76 815.53 1022.88 815.53 1022.88 815.67 1043.13 815.67"/>
  </g>
  <g id="_0008.015" data-name="0008.015">
    <polygon points="1096.22 811.44 1096.22 815.53 1043.13 815.53 1043.13 815.39 1022.88 815.39 1022.88 815.53 1012.76 815.53 1012.76 784.51 1012.76 776.57 1012.76 775.09 1012.76 775.06 1012.76 744.66 1096.22 744.66 1096.22 811.44"/>
  </g>
  <g id="_0006.015" data-name="0006.015">
    <polygon points="1012.76 680.62 1012.76 676.03 1014.67 676.03 1016.13 676.03 1022.88 676.03 1043.13 676.03 1049.88 676.03 1053.47 676.03 1060.22 676.03 1061.34 676.03 1096.22 676.03 1096.22 682.61 1096.22 685.63 1096.22 744.66 1012.76 744.66 1012.76 680.62"/>
  </g>
  <g id="_0084.015" data-name="0084.015">
    <polygon points="1553.39 1059.33 1553.39 955.63 1553.39 955.1 1605.67 955.1 1608.69 955.1 1632.98 955.1 1632.98 1059.78 1553.39 1059.78 1553.39 1059.33"/>
  </g>
  <g id="_0086.015" data-name="0086.015">
    <polygon points="1292.52 1091.05 1292.52 1088.03 1292.52 957.69 1292.52 955.1 1403.89 955.1 1403.89 1114.5 1336.46 1114.5 1334.98 1114.5 1334.95 1114.5 1292.52 1114.5 1292.52 1091.05"/>
  </g>
  <g id="_0093.015" data-name="0093.015">
    <polygon points="889.79 958.27 916.19 958.27 949.87 958.27 965.91 958.27 991.71 958.27 1001.17 958.27 1001.17 958.62 1001.17 1041.28 1001.17 1044.31 1001.17 1087.25 1001.17 1094 1001.17 1114.5 958.74 1114.5 958.7 1114.5 957.22 1114.5 889.79 1114.5 889.79 958.27"/>
  </g>
  <g id="_0094.015" data-name="0094.015">
    <polygon points="743.95 955.1 743.95 1059.8 660.7 1059.8 660.7 955.1 683.9 955.1 683.9 957.65 686.86 957.65 686.86 955.1 743.95 955.1"/>
  </g>
</svg>