<?xml version="1.0" encoding="UTF-8"?>
<svg xmlns="http://www.w3.org/2000/svg" xmlns:xlink="http://www.w3.org/1999/xlink" viewBox="0 0 2406.26 1905.39">
  <defs>
    <style>
      .cls-1 {
        fill: red;
      }
    </style>
  </defs>
  <g id="Layer_1" data-name="Layer 1">
    <image width="5760" height="4320" transform="translate(-165.22 -127.47) scale(.6)" xlink:href="../PDF and PNG/RCP/Level 1.jpg"/>
  </g>
  <g id="_0103.048a" data-name="0103.048a">
    <g id="LWPOLYLINE">
      <polygon points="275.76 882.49 275.76 899.67 293.05 899.67 293.05 914.85 275.76 914.85 275.76 922.73 411.56 922.73 411.56 892.82 411.56 873.98 401.61 873.98 401.37 873.98 400.1 873.98 285.46 873.98 285.46 882.49 275.76 882.49"/>
    </g>
  </g>
  <g id="_0103.099" data-name="0103.099">
    <g id="LWPOLYLINE-2" data-name="LWPOLYLINE">
      <rect x="275.76" y="991.45" width="55.53" height="76.28"/>
    </g>
  </g>
  <g id="_0103.097" data-name="0103.097">
    <g id="LWPOLYLINE-3" data-name="LWPOLYLINE">
      <rect x="335.36" y="991.45" width="57.5" height="76.28"/>
    </g>
  </g>
  <g id="_0103.095" data-name="0103.095">
    <g id="LWPOLYLINE-4" data-name="LWPOLYLINE">
      <rect x="396.94" y="991.45" width="56.22" height="75.15"/>
    </g>
  </g>
  <g id="_0103.084a" data-name="0103.084a">
    <g id="LWPOLYLINE-5" data-name="LWPOLYLINE">
      <polygon points="497.37 1056.34 497.37 1030.35 497.37 987.38 457.24 987.38 457.24 1068.65 457.24 1072.03 457.24 1110.59 457.24 1128.8 497.37 1128.8 497.37 1127.79 497.37 1056.34"/>
    </g>
  </g>
  <g id="_0103.093" data-name="0103.093">
    <g id="LWPOLYLINE-6" data-name="LWPOLYLINE">
      <polygon points="275.76 1070.69 275.76 1108.56 292.17 1108.56 335.29 1108.56 395.57 1108.56 428.24 1108.56 455.76 1108.56 457.24 1108.56 457.24 1070.69 394.9 1070.69 392.83 1070.69 333.33 1070.69 275.76 1070.69"/>
    </g>
  </g>
  <g id="_0103.098" data-name="0103.098">
    <g id="LWPOLYLINE-7" data-name="LWPOLYLINE">
      <polygon points="275.76 1130.78 275.76 1202.13 333.26 1202.13 333.26 1111.51 293.05 1111.51 293.05 1130.78 275.76 1130.78"/>
    </g>
  </g>
  <g id="_0103.096" data-name="0103.096">
    <g id="LWPOLYLINE-8" data-name="LWPOLYLINE">
      <polygon points="394.27 1137.37 394.27 1111.51 337.33 1111.51 337.33 1202.13 394.27 1202.13 394.27 1137.37"/>
    </g>
  </g>
  <g id="_0103.091" data-name="0103.091">
    <g id="LWPOLYLINE-9" data-name="LWPOLYLINE">
      <polygon points="429.54 1112.63 429.54 1138.67 398.34 1138.67 398.34 1202.13 409.27 1202.13 454.29 1202.13 454.29 1130.28 454.29 1112.63 429.54 1112.63"/>
    </g>
  </g>
  <g id="_0103.087" data-name="0103.087">
    <g id="LWPOLYLINE-10" data-name="LWPOLYLINE">
      <polygon points="275.76 1206.2 275.76 1331.6 292.84 1331.6 292.84 1346.64 275.76 1346.64 275.76 1391.62 278.85 1391.62 278.85 1400.62 306.75 1400.62 340.07 1400.62 373.38 1400.62 423.37 1400.62 423.37 1445.04 454.29 1445.04 454.29 1327.44 428.69 1327.44 428.69 1353.75 407.8 1353.75 407.8 1325.36 407.8 1265.06 407.8 1206.2 396.3 1206.2 335.29 1206.2 275.76 1206.2"/>
    </g>
  </g>
  <g id="_0103.087f" data-name="0103.087f">
    <g id="LWPOLYLINE-11" data-name="LWPOLYLINE">
      <rect x="410.75" y="1206.2" width="42.41" height="56.82"/>
    </g>
  </g>
  <g id="_0103.087e" data-name="0103.087e">
    <g id="LWPOLYLINE-12" data-name="LWPOLYLINE">
      <polygon points="410.75 1324.48 427.82 1324.48 453.16 1324.48 453.16 1267.1 410.75 1267.1 410.75 1324.48"/>
    </g>
  </g>
  <g id="_0103.087d" data-name="0103.087d">
    <g id="LWPOLYLINE-13" data-name="LWPOLYLINE">
      <rect x="275.76" y="1403.57" width="29.51" height="41.47"/>
    </g>
  </g>
  <g id="_0103.087c" data-name="0103.087c">
    <g id="LWPOLYLINE-14" data-name="LWPOLYLINE">
      <rect x="308.23" y="1403.57" width="30.36" height="41.47"/>
    </g>
  </g>
  <g id="_0103.087b" data-name="0103.087b">
    <g id="LWPOLYLINE-15" data-name="LWPOLYLINE">
      <rect x="341.54" y="1403.57" width="30.36" height="41.47"/>
    </g>
  </g>
  <g id="_0103.087a" data-name="0103.087a">
    <g id="LWPOLYLINE-16" data-name="LWPOLYLINE">
      <polygon points="374.86 1445.04 411.94 1445.04 414.19 1445.04 420.41 1445.04 420.41 1403.57 374.86 1403.57 374.86 1445.04"/>
    </g>
  </g>
  <g id="_0103.084" data-name="0103.084">
    <g id="LWPOLYLINE-17" data-name="LWPOLYLINE">
      <polygon points="457.24 1559.82 497.37 1559.82 497.37 1506.48 497.37 1448.45 497.37 1368.78 497.37 1366.71 497.37 1317.29 497.37 1317.26 497.37 1315.04 497.37 1131.75 457.24 1131.75 457.24 1202.09 457.24 1204.16 457.24 1265.06 457.24 1325.96 457.24 1445.01 457.24 1446.7 457.24 1447.26 457.24 1528.58 457.24 1529.92 457.24 1530.83 457.24 1559.82"/>
    </g>
  </g>
  <g id="_0103.085" data-name="0103.085">
    <g id="LWPOLYLINE-18" data-name="LWPOLYLINE">
      <polygon points="416.41 1526.37 427.97 1526.37 452.81 1526.37 452.81 1449.47 421.89 1449.47 416.41 1449.47 416.41 1526.37"/>
    </g>
  </g>
  <g id="_0103.083" data-name="0103.083">
    <g id="LWPOLYLINE-19" data-name="LWPOLYLINE">
      <polygon points="275.76 1600.94 287.57 1600.94 287.57 1614.93 299.03 1614.93 299.03 1627.72 398.56 1627.72 398.56 1632.22 412.82 1632.22 412.82 1614.93 428.01 1614.93 428.01 1632.22 445.37 1632.22 445.37 1626.6 453.16 1626.6 453.16 1559.82 453.16 1530.8 428.85 1530.8 428.85 1563.48 412.86 1563.48 392.86 1563.48 392.86 1557.37 411.98 1557.37 411.98 1555.75 411.98 1527.25 411.98 1449.12 373.38 1449.12 340.07 1449.12 306.75 1449.12 275.76 1449.12 275.76 1600.94"/>
    </g>
  </g>
  <g id="_0103.089" data-name="0103.089">
    <g id="LWPOLYLINE-20" data-name="LWPOLYLINE">
      <polygon points="536.39 1317.26 500.33 1317.26 500.33 1366.74 536.39 1366.74 536.39 1365.44 536.39 1317.26"/>
    </g>
  </g>
  <g id="_0103.079g" data-name="0103.079g">
    <g id="LWPOLYLINE-21" data-name="LWPOLYLINE">
      <polygon points="595.15 1317.26 564.33 1317.26 540.82 1317.26 540.82 1364.14 595.15 1364.14 595.15 1317.26"/>
    </g>
  </g>
  <g id="_0103.079f" data-name="0103.079f">
    <g id="LWPOLYLINE-22" data-name="LWPOLYLINE">
      <polygon points="501.45 1446.41 595.15 1446.41 595.15 1396.51 595.15 1370.82 539.34 1370.82 538.6 1370.82 501.45 1370.82 501.45 1446.41"/>
    </g>
  </g>
  <g id="_0103.079e" data-name="0103.079e">
    <g id="LWPOLYLINE-23" data-name="LWPOLYLINE">
      <polygon points="595.15 1450.49 501.45 1450.49 501.45 1504.44 563.87 1504.44 595.15 1504.44 595.15 1450.49"/>
    </g>
  </g>
  <g id="_0103.081" data-name="0103.081">
    <g id="LWPOLYLINE-24" data-name="LWPOLYLINE">
      <polygon points="561.84 1555.75 561.84 1508.51 501.45 1508.51 501.45 1555.75 501.56 1555.75 561.84 1555.75"/>
    </g>
  </g>
  <g id="_0103.079d" data-name="0103.079d">
    <g id="LWPOLYLINE-25" data-name="LWPOLYLINE">
      <rect x="565.91" y="1508.51" width="33.32" height="47.23"/>
    </g>
  </g>
  <g id="_0103.078" data-name="0103.078">
    <g id="LWPOLYLINE-26" data-name="LWPOLYLINE">
      <polygon points="457.24 1632.22 621.72 1632.22 621.72 1614.93 650.96 1614.93 650.96 1632.22 837.65 1632.22 837.65 1614.93 866.89 1614.93 866.89 1632.22 904.21 1632.22 904.21 1627.69 914.97 1627.69 914.97 1559.82 855.33 1559.82 684.74 1559.82 681.35 1559.82 599.23 1559.82 563.87 1559.82 501.56 1559.82 496.02 1559.82 457.24 1559.82 457.24 1632.22"/>
    </g>
  </g>
  <g id="_0103.079c" data-name="0103.079c">
    <g id="LWPOLYLINE-27" data-name="LWPOLYLINE">
      <polygon points="689.27 1550.76 850.79 1550.76 850.79 1408 799.19 1408 799.19 1424.52 796.24 1424.52 796.24 1408 689.27 1408 689.27 1550.76"/>
    </g>
  </g>
  <g id="_0103.075" data-name="0103.075">
    <polygon points="689.97 1399.43 797.71 1399.43 855.78 1399.43 855.78 1347.27 835.4 1347.27 835.4 1335.67 797.72 1335.67 724.91 1335.67 724.91 1347.27 704.94 1347.27 704.94 1335.67 684.28 1335.67 684.28 1393.73 689.97 1393.73 689.97 1399.43"/>
  </g>
  <g id="_0103.079b" data-name="0103.079b">
    <g id="LWPOLYLINE-28" data-name="LWPOLYLINE">
      <polygon points="850.79 1187.86 689.27 1187.86 689.27 1327.1 705.82 1327.1 711.48 1327.1 723.15 1327.1 796.25 1327.1 796.25 1310.58 799.2 1310.58 799.2 1327.1 836.28 1327.1 846.44 1327.1 850.79 1327.1 850.79 1187.86"/>
    </g>
  </g>
  <g id="_0103.079h" data-name="0103.079h">
    <g id="LWPOLYLINE-29" data-name="LWPOLYLINE">
      <polygon points="538.6 1312.83 564.33 1312.83 564.33 1129.9 559.12 1129.9 556.07 1129.9 556.07 1126.85 556.07 1057.82 501.8 1057.82 501.8 1127.83 522.04 1127.83 522.04 1130.78 501.8 1130.78 501.8 1312.83 538.6 1312.83"/>
    </g>
  </g>
  <g id="_0103.079" data-name="0103.079">
    <g id="LWPOLYLINE-30" data-name="LWPOLYLINE">
      <polygon points="680.2 1032.39 658.62 1032.39 656.58 1032.39 656.54 1032.39 583.77 1032.39 583.77 1057.82 556.07 1057.82 556.07 1129.9 564.33 1129.9 564.33 1312.83 599.23 1312.83 599.23 1365.44 599.23 1368.78 599.23 1396.51 599.23 1448.45 599.23 1506.48 599.23 1509.86 599.23 1555.75 680.2 1555.75 680.2 1403.71 680.2 1394.61 680.2 1334.77 680.2 1331.39 680.2 1183.57 680.2 1122.77 680.2 1120.7 680.2 1032.39"/>
    </g>
  </g>
  <g id="_0103.055" data-name="0103.055">
    <g id="LWPOLYLINE-31" data-name="LWPOLYLINE">
      <polygon points="579.69 974.04 501.8 974.04 501.8 987.38 501.8 1030.35 501.8 1054.87 556.07 1054.87 579.69 1054.87 579.69 1032.43 579.69 1032.08 579.69 1030.35 579.69 974.04"/>
    </g>
  </g>
  <g id="_0103.079i" data-name="0103.079i">
    <g id="LWPOLYLINE-32" data-name="LWPOLYLINE">
      <polygon points="656.58 1028.31 656.58 1026.84 656.58 975.92 656.58 974.81 583.77 974.81 583.77 975.21 583.77 1028.31 583.8 1028.31 656.58 1028.31"/>
    </g>
  </g>
  <g id="_0103.057" data-name="0103.057">
    <g id="LWPOLYLINE-33" data-name="LWPOLYLINE">
      <polygon points="687.65 1179.28 855.78 1179.28 855.78 1131.34 844.89 1131.34 844.89 1124.81 687.65 1124.81 687.65 1179.28"/>
    </g>
  </g>
  <g id="_0022.00C" data-name="0022.00C">
    <g id="LWPOLYLINE-34" data-name="LWPOLYLINE">
      <polygon points="684.7 1028.31 684.7 980.78 660.66 980.78 660.66 1026.84 660.66 1028.28 660.66 1028.31 680.17 1028.31 684.7 1028.31"/>
    </g>
  </g>
  <g id="_0103.079a" data-name="0103.079a">
    <g id="LWPOLYLINE-35" data-name="LWPOLYLINE">
      <polygon points="688.78 974.04 688.78 1032.39 684.98 1032.39 684.98 1120.74 686.35 1120.74 842.38 1120.74 844.33 1120.74 844.33 1115.63 855.43 1115.63 855.43 974.04 688.78 974.04"/>
    </g>
  </g>
  <g id="_0103.048" data-name="0103.048">
    <g id="LWPOLYLINE-36" data-name="LWPOLYLINE">
      <polygon points="739.73 914.59 688.57 914.59 645.71 914.59 645.68 914.59 644.2 914.59 631.48 914.59 628.1 914.59 557.86 914.59 556.77 914.59 555.78 914.59 497.37 914.59 497.37 895.59 442.62 895.59 442.51 895.59 442.51 914.59 429.97 914.59 429.97 922.73 412.44 922.73 409.05 922.73 275.76 922.73 275.76 987.38 333.33 987.38 394.9 987.38 455.2 987.38 458.59 987.38 497.37 987.38 497.37 969.61 578.34 969.61 579.54 969.61 581.73 969.61 656.58 969.61 656.58 972.21 656.58 977.83 686.74 977.83 687.48 969.61 857.65 969.61 861.03 969.61 913.64 969.61 917.02 969.61 1082.59 969.61 1082.94 969.61 1084.68 969.61 1118.52 969.61 1118.52 914.5 1040.64 914.5 1039.17 914.5 1037.26 914.5 1025.64 914.5 980.2 914.5 980.2 899.67 926.42 899.67 926.42 914.59 859.85 914.59 858.94 914.59 846.68 914.59 846.65 914.59 768.59 914.59 739.73 914.59"/>
    </g>
  </g>
  <g id="_0103.067" data-name="0103.067">
    <g id="LWPOLYLINE-37" data-name="LWPOLYLINE">
      <polygon points="914.97 1127 914.97 969.61 859.86 969.61 859.86 1116.79 859.86 1117.99 859.86 1127.08 859.86 1128.88 859.86 1133.85 859.86 1178.93 859.86 1183.57 859.86 1330.47 859.86 1331.61 859.86 1333.86 859.86 1343.01 859.86 1345.51 859.86 1349.78 859.86 1400.33 859.86 1403.71 859.86 1559.82 914.97 1559.82 914.97 1546.58 914.97 1545.24 914.97 1543.19 914.97 1494.94 914.97 1491.56 914.97 1353.58 914.97 1351.14 914.97 1263.64 914.97 1131.29 914.97 1127"/>
    </g>
  </g>
  <g id="_0103.069" data-name="0103.069">
    <g id="LWPOLYLINE-38" data-name="LWPOLYLINE">
      <polygon points="919.08 974.39 919.08 1127 919.08 1129.23 1060.61 1129.23 1060.61 1108.57 1061.5 1108.57 1074.91 1108.57 1080.53 1108.57 1080.53 1023.87 1080.53 974.39 919.08 974.39"/>
    </g>
  </g>
  <g id="_0103.071" data-name="0103.071">
    <g id="LWPOLYLINE-39" data-name="LWPOLYLINE">
      <polygon points="1080.53 1279.23 1080.53 1242.55 1080.53 1240.52 1080.53 1240.48 1080.53 1137.81 1075.82 1137.81 1075.79 1137.81 1060.61 1137.81 1060.61 1133.35 919.08 1133.35 919.08 1261.24 984.92 1261.24 984.92 1279.23 1080.53 1279.23"/>
    </g>
  </g>
  <g id="_0103.067a" data-name="0103.067a">
    <g id="LWPOLYLINE-40" data-name="LWPOLYLINE">
      <polygon points="1014.07 1544.36 1014.07 1493.61 914.97 1493.61 914.97 1544.54 974.54 1544.54 976.96 1544.54 976.96 1544.36 1006.2 1544.36 1014.07 1544.36"/>
    </g>
  </g>
  <g id="_0103.071a" data-name="0103.071a">
    <polygon points="1080.53 1316.52 1080.53 1314.48 1080.53 1286.65 980.1 1286.65 980.1 1280.53 980.1 1266.05 919.04 1266.05 919.04 1351.17 1059.2 1351.17 1059.2 1320.84 1080.53 1320.84 1080.53 1316.55 1080.53 1316.52"/>
  </g>
  <g id="_0027.001" data-name="0027.001">
    <g id="LWPOLYLINE-41" data-name="LWPOLYLINE">
      <polygon points="1083.48 1286.68 1083.48 1312.44 1085.38 1312.44 1117.68 1312.44 1117.68 1244.59 1084.68 1244.59 1083.48 1244.59 1083.48 1279.2 1083.48 1286.68"/>
    </g>
  </g>
  <g id="_0103.065d" data-name="0103.065d">
    <g id="LWPOLYLINE-42" data-name="LWPOLYLINE">
      <rect x="1121.76" y="1243.47" width="22.91" height="70.1"/>
    </g>
  </g>
  <g id="_0103.073" data-name="0103.073">
    <g id="LWPOLYLINE-43" data-name="LWPOLYLINE">
      <polygon points="1080.6 1489.5 1080.6 1469.82 1080.6 1467.78 1080.6 1467.75 1080.6 1355.99 1060.69 1355.99 919.08 1355.99 919.08 1489.5 1014.07 1489.5 1016.11 1489.5 1080.6 1489.5"/>
    </g>
  </g>
  <g id="_0103.077" data-name="0103.077">
    <g id="LWPOLYLINE-44" data-name="LWPOLYLINE">
      <polygon points="919.04 1632.22 984.84 1632.22 984.84 1615.16 974.57 1615.16 974.57 1610.45 974.57 1548.61 919.04 1548.61 919.04 1559.82 919.04 1632.22"/>
    </g>
  </g>
  <g id="_0011.001" data-name="0011.001">
    <g id="LWPOLYLINE-45" data-name="LWPOLYLINE">
      <polygon points="1085.91 1545.06 1085.91 1497.83 1082.64 1497.83 1018.15 1497.83 1018.15 1544.33 1018.15 1545.06 1042.05 1545.06 1070.16 1545.06 1085.91 1545.06"/>
    </g>
  </g>
  <g id="_0012.001" data-name="0012.001">
    <g id="LWPOLYLINE-46" data-name="LWPOLYLINE">
      <polygon points="1085.91 1497.83 1085.91 1545.06 1103.9 1545.06 1132.02 1545.06 1153.67 1545.06 1153.67 1498.57 1153.67 1497.83 1110.41 1497.83 1100.95 1497.83 1085.91 1497.83"/>
    </g>
  </g>
  <g id="_0104" data-name="0104">
    <g id="LWPOLYLINE-47" data-name="LWPOLYLINE">
      <polygon points="1198.14 1609.85 1199.36 1609.85 1199.36 1498.53 1157.74 1498.53 1157.74 1547.1 1157.96 1547.1 1157.96 1550.2 1157.9 1550.2 1157.9 1549.98 1132.02 1549.98 1132.02 1549.14 1103.9 1549.14 1103.9 1549.98 1070.16 1549.98 1070.16 1549.14 1042.05 1549.14 1042.05 1547.95 1007.47 1547.95 1007.47 1550.2 1006.2 1550.2 1006.2 1549.14 979.35 1549.14 979.35 1609.85 1151.66 1609.85 1151.66 1641.56 1198.14 1641.56 1198.14 1609.85"/>
    </g>
  </g>
  <g id="_0019.001" data-name="0019.001">
    <g id="LWPOLYLINE-48" data-name="LWPOLYLINE">
      <polyline points="1201.75 1447.12 1201.75 1493.72 1201.75 1498.57 1201.75 1609.85 1201.75 1613.57 1203.12 1613.57 1277.38 1613.57 1277.38 1564.85 1277.38 1501.27 1277.38 1447.12"/>
    </g>
  </g>
  <g id="_0102.017" data-name="0102.017">
    <g id="LWPOLYLINE-49" data-name="LWPOLYLINE">
      <polygon points="1279.77 1447.12 1279.77 1501.3 1283.95 1501.3 1351 1501.3 1351 1430.28 1279.77 1430.28 1279.77 1444.09 1279.77 1447.12"/>
    </g>
  </g>
  <g id="_0102.018" data-name="0102.018">
    <g id="LWPOLYLINE-50" data-name="LWPOLYLINE">
      <polygon points="1279.77 1392.36 1279.77 1425.85 1351 1425.85 1351 1354.82 1344.36 1354.82 1331.89 1354.82 1290.84 1354.82 1279.77 1354.82 1279.77 1371.11 1279.77 1371.7 1279.77 1392.36"/>
    </g>
  </g>
  <g id="_0102.016" data-name="0102.016">
    <g id="LWPOLYLINE-51" data-name="LWPOLYLINE">
      <polygon points="1393.42 1430.28 1393.42 1501.65 1465.26 1501.65 1465.26 1444.58 1465.26 1430.56 1465.26 1430.28 1393.42 1430.28"/>
    </g>
  </g>
  <g id="_0102.015" data-name="0102.015">
    <g id="LWPOLYLINE-52" data-name="LWPOLYLINE">
      <rect x="1393.42" y="1356.3" width="71.84" height="69.55"/>
    </g>
  </g>
  <g id="_0102.010a" data-name="0102.010a">
    <g id="LWPOLYLINE-53" data-name="LWPOLYLINE">
      <polygon points="1507.64 1336.08 1507.64 1354.82 1492.71 1354.82 1469.69 1354.82 1469.69 1428.06 1469.69 1428.52 1514.25 1428.52 1514.25 1442.54 1560.57 1442.54 1586.71 1336.08 1575.16 1336.08 1532.57 1336.08 1507.64 1336.08"/>
    </g>
  </g>
  <g id="_0102.010b" data-name="0102.010b">
    <g id="LWPOLYLINE-54" data-name="LWPOLYLINE">
      <polygon points="1622.56 1641.08 1641.68 1563.24 1299.02 1563.24 1299.02 1641.08 1622.56 1641.08"/>
    </g>
  </g>
  <g id="_0102.010" data-name="0102.010">
    <g id="LWPOLYLINE-55" data-name="LWPOLYLINE">
      <polygon points="1641.68 1563.24 1705.68 1302.57 1654.45 1302.57 1650.43 1318.96 1647.25 1318.18 1651.09 1302.57 1575.16 1302.57 1575.16 1304.48 1575.16 1332 1591.91 1332 1563.77 1446.62 1510.17 1446.62 1510.17 1432.59 1469.69 1432.59 1469.69 1444.58 1469.69 1501.3 1500.05 1501.3 1500.05 1477.45 1503.32 1477.45 1503.32 1503.69 1503.32 1512.31 1500.05 1512.31 1500.05 1506.08 1467.47 1506.08 1391.39 1506.08 1390.82 1504.75 1388 1504.75 1356.43 1504.75 1353.04 1504.75 1353.04 1505.73 1284.83 1505.73 1284.83 1561.78 1298.42 1561.78 1298.42 1563.24 1641.68 1563.24"/>
    </g>
  </g>
  <g id="_0102.012" data-name="0102.012">
    <g id="LWPOLYLINE-56" data-name="LWPOLYLINE">
      <polygon points="1431.45 1302.57 1392.3 1302.57 1392.3 1351.87 1467.47 1351.87 1468.7 1351.87 1469.72 1351.87 1491.83 1351.87 1491.83 1332 1506.76 1332 1532.57 1332 1575.16 1332 1575.16 1302.57 1503.25 1302.57 1431.45 1302.57"/>
    </g>
  </g>
  <g id="_0102.011" data-name="0102.011">
    <g id="LWPOLYLINE-57" data-name="LWPOLYLINE">
      <polygon points="1389.35 1304.33 1345.84 1304.33 1345.84 1342.39 1345.84 1350.39 1355.08 1350.39 1355.08 1428.06 1355.08 1504.75 1389.35 1504.75 1389.35 1428.06 1389.35 1354.08 1389.35 1351.83 1389.35 1304.33"/>
    </g>
  </g>
  <g id="_0102.013" data-name="0102.013">
    <g id="LWPOLYLINE-58" data-name="LWPOLYLINE">
      <rect x="1433.56" y="1231.58" width="67.48" height="68.04"/>
    </g>
  </g>
  <g id="_0015.001" data-name="0015.001">
    <g id="LWPOLYLINE-59" data-name="LWPOLYLINE">
      <polygon points="1394.21 1298.49 1427.37 1298.49 1427.37 1231.58 1346.96 1231.58 1346.96 1260.77 1346.96 1285.51 1346.96 1298.49 1394.21 1298.49"/>
    </g>
  </g>
  <g id="_0102.019" data-name="0102.019">
    <g id="LWPOLYLINE-60" data-name="LWPOLYLINE">
      <polygon points="1279.77 1324.54 1291.72 1324.54 1291.72 1350.39 1331.01 1350.39 1331.01 1341.51 1342.89 1341.51 1342.89 1303.45 1342.89 1302.57 1344.36 1302.57 1342.93 1231.58 1307.71 1231.58 1294.98 1231.58 1279.77 1231.58 1279.77 1271.29 1279.77 1272.56 1279.77 1324.54"/>
    </g>
  </g>
  <g id="_0103.065c" data-name="0103.065c">
    <g id="LWPOLYLINE-61" data-name="LWPOLYLINE">
      <polygon points="1244.62 1380.03 1244.62 1370.23 1272.6 1370.23 1272.6 1353.94 1272.6 1325.42 1272.6 1273.33 1207.93 1273.33 1207.93 1380.03 1244.62 1380.03"/>
    </g>
  </g>
  <g id="_0103.065b" data-name="0103.065b">
    <g id="LWPOLYLINE-62" data-name="LWPOLYLINE">
      <polygon points="1274.99 1269.25 1274.99 1229.54 1274.99 1182.8 1207.93 1182.8 1207.93 1269.25 1272.56 1269.25 1274.99 1269.25"/>
    </g>
  </g>
  <g id="_0103.065" data-name="0103.065">
    <g id="LWPOLYLINE-63" data-name="LWPOLYLINE">
      <polygon points="1199.36 1444.09 1199.36 1388.88 1203.85 1388.88 1203.85 1380.9 1203.85 1271.29 1203.85 1180.76 1203.85 1111.39 1203.85 1111.35 1161.54 1111.35 1161.54 1025.91 1084.64 1025.91 1084.64 1109.45 1084.64 1135.75 1084.64 1240.52 1119.72 1240.52 1121.76 1240.52 1121.79 1240.52 1147.62 1240.52 1147.62 1316.52 1121.79 1316.52 1121.76 1316.52 1119.72 1316.52 1085.35 1316.52 1085.35 1322.34 1084.71 1322.34 1084.71 1323.87 1084.71 1354.67 1084.71 1467.78 1100.95 1467.78 1103.03 1467.78 1111.71 1467.78 1111.71 1493.75 1155.71 1493.75 1157.74 1493.75 1157.78 1493.75 1199.36 1493.75 1199.36 1447.12 1199.36 1444.09"/>
    </g>
  </g>
  <g id="_0103.065a" data-name="0103.065a">
    <g id="LWPOLYLINE-64" data-name="LWPOLYLINE">
      <polygon points="1274.99 1178.72 1274.99 1174.4 1274.99 1147.37 1274.99 1144.94 1274.99 1111.35 1210.22 1111.35 1207.93 1111.35 1207.93 1178.72 1274.99 1178.72"/>
    </g>
  </g>
  <g id="_0103.069a" data-name="0103.069a">
    <g id="LWPOLYLINE-65" data-name="LWPOLYLINE">
      <polygon points="1118.52 981.91 1118.52 973.69 1084.64 973.69 1084.64 1021.83 1161.51 1021.83 1161.54 1021.83 1161.54 981.91 1118.52 981.91"/>
    </g>
  </g>
  <g id="_0103.061" data-name="0103.061">
    <g id="LWPOLYLINE-66" data-name="LWPOLYLINE">
      <polygon points="1206.1 981.94 1206.1 977.83 1165.62 977.83 1165.62 1023.87 1165.62 1024.43 1165.62 1025.95 1165.62 1107.28 1206.1 1107.28 1206.1 981.94"/>
    </g>
  </g>
  <g id="_0103.063" data-name="0103.063">
    <g id="LWPOLYLINE-67" data-name="LWPOLYLINE">
      <polygon points="1291.39 1107.28 1291.39 981.91 1258.26 981.91 1258.22 981.91 1210.18 981.91 1210.18 1105.93 1210.18 1107.28 1276.29 1107.28 1291.39 1107.28"/>
    </g>
  </g>
  <g id="_0103.003a" data-name="0103.003a">
    <g id="LWPOLYLINE-68" data-name="LWPOLYLINE">
      <polygon points="1129.63 914.5 1122.6 914.5 1122.6 971.65 1122.6 977.83 1163.58 977.83 1163.75 977.83 1166.97 977.83 1206.07 977.83 1206.81 977.83 1210.18 977.83 1210.22 977.83 1258.26 977.83 1258.26 914.5 1222.69 914.5 1222.69 906.14 1129.63 906.14 1129.63 906.95 1129.63 914.5"/>
    </g>
  </g>
  <g id="_0102.014" data-name="0102.014">
    <g id="LWPOLYLINE-69" data-name="LWPOLYLINE">
      <polygon points="1572.94 1231.58 1505.46 1231.58 1505.46 1299.62 1572.11 1299.62 1572.94 1299.62 1572.94 1231.58"/>
    </g>
  </g>
  <g id="_0102.006" data-name="0102.006">
    <g id="LWPOLYLINE-70" data-name="LWPOLYLINE">
      <polygon points="1364.21 1021.28 1405.61 1021.28 1421.57 1021.28 1421.57 980.81 1364.21 980.81 1364.21 1021.28"/>
    </g>
  </g>
  <g id="_0102.005" data-name="0102.005">
    <g id="LWPOLYLINE-71" data-name="LWPOLYLINE">
      <polygon points="1403.01 1122.64 1403.01 1025.36 1360.13 1025.36 1360.13 980.81 1301.02 980.81 1301.02 1057.33 1334.76 1057.33 1334.76 1060.28 1299.72 1060.28 1298.77 1060.28 1298.77 1122.64 1403.01 1122.64"/>
    </g>
  </g>
  <g id="_0102.007" data-name="0102.007">
    <g id="LWPOLYLINE-72" data-name="LWPOLYLINE">
      <polygon points="1491.41 980.81 1425.64 980.81 1425.64 1022.41 1444.76 1022.41 1444.76 1025.36 1425.68 1025.36 1423.61 1025.36 1408.21 1025.36 1408.21 1122.64 1489.19 1122.64 1489.19 1052.35 1467.82 1052.35 1467.82 1049.4 1491.05 1049.4 1491.41 1049.4 1491.41 980.81"/>
    </g>
  </g>
  <g id="_0032.001" data-name="0032.001">
    <g id="LWPOLYLINE-73" data-name="LWPOLYLINE">
      <polygon points="1505.75 1134.06 1495.84 1134.06 1495.84 1168.53 1574.63 1168.53 1595.4 1168.53 1595.4 1134.06 1574.63 1134.06 1507.57 1134.06 1505.75 1134.06"/>
    </g>
  </g>
  <g id="_0102.008" data-name="0102.008">
    <polygon points="1497.24 980.81 1585.03 980.81 1585.03 959.65 1691.48 959.65 1745.74 1123.19 1703.3 1298.49 1578.43 1299.62 1576.7 1229.22 1279.77 1228.52 1279.77 1151.29 1296.7 1151.29 1297.04 1126.96 1491.41 1129.63 1491.41 1173.22 1600 1173.22 1600 1129.63 1508.52 1129.23 1508.52 1115.48 1497.24 1115.48 1497.24 980.81"/>
  </g>
  <g id="_102.4" data-name="102.4">
    <polygon points="1693.42 952.7 1694.76 956.75 1702.83 981.17 1700.89 981.81 1738.95 1097.08 1740.91 1096.51 1749.72 1123.19 1706.18 1300.53 1705.17 1304.64 1641.68 1563.24 1622.56 1641.08 1301.81 1641.08 1298.42 1641.08 1298.42 1641.56 1198.75 1641.56 1195.36 1641.56 1154.44 1641.56 1148.58 1641.56 999.1 1641.56 999.1 1664.41 996.01 1664.41 996.01 1774.63 999.31 1774.63 999.31 1772.87 1189.87 1772.87 1189.87 1790.28 1226.14 1787.65 1226.14 1774.09 1226.09 1774.09 1226.09 1773.75 1245.85 1776.88 1245.9 1776.61 1480.02 1813.69 1480.02 1832.04 1475.38 1832.04 1475.38 1835.15 1533.02 1835.15 1533.02 1832.04 1528.38 1832.04 1528.38 1821.65 1548.6 1820.24 1548.58 1819.96 1731.6 1807.16 1731.7 1808.49 1752.17 1807.06 1752.08 1805.73 1903.16 1795.16 1953.84 1811.63 1953.84 1829.86 1976.96 1829.86 1976.96 1679.03 1976.96 952.7 1693.42 952.7"/>
  </g>
  <g id="_0020.001B" data-name="0020.001B">
    <g id="LWPOLYLINE-74" data-name="LWPOLYLINE">
      <polygon points="2219.81 742.29 2219.81 805.63 2168.06 805.63 2168.06 855.74 2256.78 855.74 2256.78 742.29 2241.66 742.29 2219.81 742.29"/>
    </g>
  </g>
  <g id="_0016.001" data-name="0016.001">
    <g id="LWPOLYLINE-75" data-name="LWPOLYLINE">
      <polyline points="2168.06 802.25 2216.44 802.25 2216.44 742.33 2216.44 737.02 2168.06 737.02"/>
    </g>
  </g>
  <g id="_0020.001" data-name="0020.001">
    <polyline points="1992 742.29 2044.96 742.29 2044.96 732.26 2070.52 732.26 2070.52 698.35 2168.06 698.35 2168.06 732 2158.96 732 2158.96 855.74 1993.83 855.74"/>
  </g>
  <g id="_0038.001a" data-name="0038.001a">
    <rect x="1919.13" y="384.17" width="25.04" height="80.35"/>
  </g>
  <g id="_0038.001" data-name="0038.001">
    <g id="LWPOLYLINE-76" data-name="LWPOLYLINE">
      <polygon points="1875.62 518.5 1875.62 516.63 1866.62 516.63 1866.62 518.5 1861.06 518.5 1861.06 533.33 1914.05 533.33 1914.05 518.5 1902.61 518.5 1902.61 516.63 1893.62 516.63 1893.62 518.5 1875.62 518.5"/>
    </g>
  </g>
  <g id="_0039.001" data-name="0039.001">
    <g id="LWPOLYLINE-77" data-name="LWPOLYLINE">
      <polygon points="1755.42 518.5 1755.42 514.77 1746.43 514.77 1746.43 518.5 1733.41 518.5 1733.41 533.33 1787.96 533.33 1787.96 518.5 1782.39 518.5 1782.39 514.77 1773.42 514.77 1773.42 518.5 1755.42 518.5"/>
    </g>
  </g>
  <g id="_0003.001" data-name="0003.001">
    <g id="LWPOLYLINE-78" data-name="LWPOLYLINE">
      <polygon points="1914.05 438.73 1861.06 438.73 1861.06 458.96 1861.06 490.47 1861.06 514.77 1866.62 514.77 1866.62 516.63 1875.62 516.63 1875.62 514.77 1893.62 514.77 1893.62 516.63 1902.61 516.63 1902.61 514.77 1914.05 514.77 1914.05 469.82 1914.05 438.73"/>
    </g>
  </g>
  <g id="_0001.001" data-name="0001.001">
    <polygon points="1861.06 438.73 1914.05 438.73 1914.05 381.47 1914.05 354.09 1888.28 354.09 1861.06 354.09 1861.06 389.23 1861.06 420.74 1861.06 438.73"/>
  </g>
  <g id="_0004.001" data-name="0004.001">
    <g id="LWPOLYLINE-79" data-name="LWPOLYLINE">
      <polygon points="1787.96 438.73 1733.41 438.73 1733.41 514.77 1746.43 514.77 1755.42 514.77 1773.42 514.77 1782.39 514.77 1787.96 514.77 1787.96 490.47 1787.96 458.96 1787.96 438.73"/>
    </g>
  </g>
  <g id="_0101" data-name="0101">
    <g id="LWPOLYLINE-80" data-name="LWPOLYLINE">
      <polygon points="1857.26 490.47 1858.1 490.47 1858.1 458.96 1857.26 458.96 1857.26 420.74 1858.1 420.74 1858.1 389.23 1857.26 389.23 1857.26 342.49 1791.75 342.49 1791.75 389.23 1790.91 389.23 1790.91 420.74 1791.75 420.74 1791.75 458.96 1790.91 458.96 1790.91 490.47 1791.75 490.47 1791.75 566.96 1857.26 566.96 1857.26 490.47"/>
    </g>
  </g>
  <g id="_0002.001" data-name="0002.001">
    <g id="LWPOLYLINE-81" data-name="LWPOLYLINE">
      <polygon points="1733.41 438.73 1787.96 438.73 1787.96 420.74 1787.96 389.23 1787.96 354.09 1733.41 354.09 1733.41 438.73"/>
    </g>
  </g>
  <g id="_102.1" data-name="102.1">
    <polygon points="1209.9 407.93 1318.85 407.93 1318.99 409.9 1467.44 409.9 1467.58 407.93 1513.55 407.93 1541.13 491.45 1539.34 492.04 1573.19 594.56 1574.98 593.97 1584.5 622.8 1584.72 623.49 1585.47 625.77 1677.2 903.55 1680.43 913.33 1693.33 952.4 1694.09 954.71 1976.96 954.71 1976.96 882.41 1962.26 882.41 1962.26 735.05 1933.73 735.05 1933.73 713.12 1941.61 713.12 1941.61 705.74 1923.96 705.74 1923.96 674.68 1941.61 674.68 1941.61 559.45 1898.75 559.45 1898.75 566.96 1891.67 566.96 1859.4 566.96 1857.68 566.96 1791.33 566.96 1789.61 566.96 1757.35 566.96 1750.26 566.96 1750.26 559.45 1699.27 559.45 1699.27 395 1695.95 395 1695.95 395.07 1691.73 395.07 1691.73 395 1691.8 395 1691.8 388.07 1691.8 344.11 1691.73 344.11 1691.73 342.74 1693.1 342.74 1693.1 342.81 1783.84 342.81 1783.84 342.49 1794.72 342.49 1854.3 342.49 1859.77 342.49 1859.77 342.81 1891.67 342.81 1898.75 342.81 1898.75 348.8 1945.96 348.8 1945.96 257.23 1927.41 257.23 1927.41 245.42 1505.11 245.42 1505.11 261.52 1507.43 261.52 1507.43 272.91 1492.67 272.91 1492.67 261.59 1414.58 261.59 1414.58 249.78 1367.14 249.78 1367.14 268.81 1223.84 268.81 1223.84 263.84 1168.1 263.84 1167.48 264.62 1164.18 268.81 1149.31 268.81 1149.31 407.93 1148.61 407.93 1148.61 435.62 1209.9 435.62 1209.9 407.93"/>
  </g>
  <g id="_0102.002b" data-name="0102.002b">
    <g id="LWPOLYLINE-82" data-name="LWPOLYLINE">
      <polygon class="cls-1" points="1505.68 867.3 1505.68 833.56 1494.25 833.56 1493.34 833.56 1488.81 833.56 1488.81 833.59 1488.81 867.3 1505.68 867.3"/>
    </g>
  </g>
  <g id="_0102.002" data-name="0102.002">
    <g id="LWPOLYLINE-83" data-name="LWPOLYLINE">
      <polygon class="cls-1" points="1505.68 899.94 1505.68 869.4 1486.7 869.4 1486.7 833.56 1430.33 833.56 1430.33 834.97 1430.33 835.53 1430.33 837.4 1430.33 866.39 1430.33 893.38 1430.33 914.53 1359.83 914.53 1327.23 914.53 1325.93 914.5 1325.72 914.5 1315.07 914.5 1313.15 914.5 1311.68 914.5 1263.04 914.5 1263.04 976.36 1293.78 976.36 1293.78 976.38 1299.72 976.38 1362.17 976.38 1423.61 976.38 1494.18 976.38 1496.99 976.38 1550.97 976.38 1550.97 966.78 1550.97 956.01 1553.92 956.01 1553.92 965.48 1580.91 965.48 1580.91 954.71 1694.09 954.71 1680.84 914.57 1612.85 914.57 1585.07 914.57 1583.73 914.57 1508.42 914.57 1506.38 914.57 1505.03 914.57 1492.46 914.57 1492.46 899.94 1505.68 899.94"/>
    </g>
  </g>
  <g id="_0040.001" data-name="0040.001">
    <g id="LWPOLYLINE-84" data-name="LWPOLYLINE">
      <rect class="cls-1" x="1585.03" y="869.45" width="25.78" height="41.05"/>
    </g>
  </g>
  <g id="_0017.001" data-name="0017.001">
    <g id="LWPOLYLINE-85" data-name="LWPOLYLINE">
      <polygon class="cls-1" points="1510.45 748.41 1510.45 831.76 1510.45 833.59 1510.45 867.26 1510.45 869.44 1510.45 897.43 1510.45 899.81 1510.45 901.73 1510.45 909.79 1582.43 909.79 1582.43 869.48 1582.43 867.41 1582.43 748.41 1510.45 748.41"/>
    </g>
  </g>
  <g id="_0084.001" data-name="0084.001">
    <g id="LWPOLYLINE-86" data-name="LWPOLYLINE">
      <polygon points="1509.89 736.32 1587.21 736.32 1587.21 747.11 1587.21 865.37 1614.89 865.37 1614.89 909.79 1674.22 909.79 1672.66 905.05 1581.48 628.9 1580.59 628.9 1497.24 628.9 1497.24 628.94 1497.24 681.68 1509.89 681.68 1509.89 736.32"/>
    </g>
  </g>
  <g id="_0102.002A" data-name="0102.002A">
    <g id="LWPOLYLINE-87" data-name="LWPOLYLINE">
      <polygon points="1430.33 684.01 1430.33 686.41 1430.33 830.61 1486.66 830.61 1486.7 830.61 1487.75 830.61 1492.46 830.61 1492.46 687.11 1492.46 685.76 1492.46 683.72 1492.46 628.9 1430.33 628.9 1430.33 683.99 1430.33 684.01"/>
    </g>
  </g>
  <g id="_0102.004" data-name="0102.004">
    <g id="LWPOLYLINE-88" data-name="LWPOLYLINE">
      <rect x="1378.66" y="628.55" width="47.23" height="55.47"/>
    </g>
  </g>
  <g id="_0102.001" data-name="0102.001">
    <g id="LWPOLYLINE-89" data-name="LWPOLYLINE">
      <polygon points="1326.59 684.01 1328.07 684.02 1374.23 684.02 1374.23 624.12 1428.11 624.12 1492.43 624.12 1492.46 624.12 1494.85 624.12 1580.64 624.12 1571.1 595.25 1573.19 594.56 1539.34 492.04 1537.25 492.73 1510.6 412.01 1467.58 412.01 1467.44 409.9 1318.99 409.9 1318.85 412.01 1213.98 412.01 1213.98 435.59 1213.98 435.83 1213.98 438.01 1213.98 598.57 1213.98 684.01 1224.7 684.01 1224.73 684.01 1311.68 684.01 1313.15 684.01 1315.07 684.01 1324.68 684.01 1326.59 684.01"/>
    </g>
  </g>
  <g id="_0085.001" data-name="0085.001">
    <g id="LWPOLYLINE-90" data-name="LWPOLYLINE">
      <polygon class="cls-1" points="1426.25 839.79 1425.51 839.79 1368.08 839.79 1368.08 887.55 1361.3 887.55 1361.3 910.45 1426.25 910.45 1426.25 894.68 1416.62 894.68 1416.62 865.09 1426.25 865.09 1426.25 839.79"/>
    </g>
  </g>
  <g id="_0042.001" data-name="0042.001">
    <g id="LWPOLYLINE-91" data-name="LWPOLYLINE">
      <polygon points="1364 839.08 1314.28 839.08 1314.28 883.47 1327.23 883.47 1359.83 883.47 1364 883.47 1364 839.82 1364 839.08"/>
    </g>
  </g>
  <g id="_0086.001" data-name="0086.001">
    <g id="LWPOLYLINE-92" data-name="LWPOLYLINE">
      <polygon points="1329.55 688.8 1329.55 698.49 1329.55 699.97 1329.55 700 1329.55 798.53 1314.28 798.53 1314.28 834.87 1314.28 835.01 1366.04 835.01 1368.08 835.01 1368.11 835.01 1425.55 835.01 1425.55 833.59 1425.55 830.57 1425.55 688.8 1378.7 688.8 1374.2 688.8 1329.55 688.8"/>
    </g>
  </g>
  <g id="_0043.001" data-name="0043.001">
    <g id="LWPOLYLINE-93" data-name="LWPOLYLINE">
      <polygon points="1325.47 794.45 1325.47 699.97 1312.8 699.97 1312.8 763.98 1312.8 794.45 1325.47 794.45"/>
    </g>
  </g>
  <g id="_0009.001" data-name="0009.001">
    <g id="LWPOLYLINE-94" data-name="LWPOLYLINE">
      <polygon points="1310.2 903.19 1310.2 887.58 1310.2 887.55 1310.2 885.51 1310.2 837.04 1310.2 834.87 1298.96 834.87 1298.96 835.01 1280.96 835.01 1280.96 834.87 1226.77 834.87 1226.77 903.19 1261.63 903.19 1270.63 903.19 1271.99 903.19 1280.96 903.19 1298.96 903.19 1307.92 903.19 1310.2 903.19"/>
    </g>
  </g>
  <g id="_0007.001" data-name="0007.001">
    <g id="LWPOLYLINE-95" data-name="LWPOLYLINE">
      <polygon points="1226.77 834.87 1280.96 834.87 1280.96 834.72 1298.96 834.72 1298.96 834.87 1310.2 834.87 1310.2 796.49 1310.2 794.45 1310.2 794.41 1310.2 763.98 1226.77 763.98 1226.77 834.87"/>
    </g>
  </g>
  <g id="_0005.001" data-name="0005.001">
    <g id="LWPOLYLINE-96" data-name="LWPOLYLINE">
      <polygon points="1226.77 763.98 1310.2 763.98 1310.2 700 1310.2 695.41 1308.29 695.41 1307.92 695.41 1298.96 695.41 1280.96 695.41 1271.99 695.41 1270.63 695.41 1261.63 695.41 1226.77 695.41 1226.77 763.98"/>
    </g>
  </g>
  <g id="_0103" data-name="0103">
    <g id="LWPOLYLINE-97" data-name="LWPOLYLINE">
      <polygon points="1129.63 690.98 1129.63 695.45 1129.63 763.98 1129.63 830.77 1129.56 830.77 1129.56 837.52 1129.63 837.52 1129.63 903.15 1129.63 906.14 1222.69 906.14 1222.69 905.05 1222.69 834.87 1222.69 763.98 1222.69 695.45 1222.69 691.65 1222.69 690.98 1209.2 690.98 1209.2 684.01 1149.31 684.01 1149.31 690.98 1129.63 690.98"/>
    </g>
  </g>
  <g id="_0103.059" data-name="0103.059">
    <g id="LWPOLYLINE-98" data-name="LWPOLYLINE">
      <polygon points="984.62 850.08 984.62 897.28 984.62 899.67 984.62 899.71 984.62 910.07 1024.34 910.07 1024.34 897.7 1037.26 897.7 1038.04 897.7 1038.04 850.08 984.62 850.08"/>
    </g>
  </g>
  <g id="_0010.001" data-name="0010.001">
    <g id="LWPOLYLINE-99" data-name="LWPOLYLINE">
      <polygon points="1053.37 835.01 1053.37 834.86 1042.12 834.86 1042.12 837.22 1042.12 846.32 1042.12 850.12 1042.12 897.67 1042.12 903.19 1044.03 903.19 1044.4 903.19 1053.37 903.19 1071.36 903.19 1080.33 903.19 1081.69 903.19 1090.69 903.19 1125.55 903.19 1125.55 837.52 1125.55 834.86 1071.36 834.86 1071.36 835.01 1053.37 835.01"/>
    </g>
  </g>
  <g id="_0008.001" data-name="0008.001">
    <g id="LWPOLYLINE-100" data-name="LWPOLYLINE">
      <polygon points="1125.55 763.98 1042.12 763.98 1042.12 794.4 1042.12 794.44 1042.12 796.48 1042.12 834.86 1053.37 834.86 1053.37 834.72 1071.36 834.72 1071.36 834.86 1125.55 834.86 1125.55 830.77 1125.55 763.98"/>
    </g>
  </g>
  <g id="_0006.001" data-name="0006.001">
    <g id="LWPOLYLINE-101" data-name="LWPOLYLINE">
      <polygon points="1042.12 763.98 1125.55 763.98 1125.55 695.41 1090.69 695.41 1081.69 695.41 1080.33 695.41 1071.36 695.41 1053.37 695.41 1044.4 695.41 1042.12 695.41 1042.12 700 1042.12 763.98"/>
    </g>
  </g>
  <g id="_0047.001" data-name="0047.001">
    <g id="LWPOLYLINE-102" data-name="LWPOLYLINE">
      <polygon points="1028.27 699.97 1028.27 794.44 1039.52 794.44 1039.52 763.98 1039.52 699.97 1028.27 699.97"/>
    </g>
  </g>
  <g id="_0093.001" data-name="0093.001">
    <g id="LWPOLYLINE-103" data-name="LWPOLYLINE">
      <polygon points="979.84 834.83 1038.04 834.83 1038.04 798.52 1024.2 798.52 1024.2 700 1024.2 699.97 1024.2 698.49 1024.2 688.8 926.78 688.8 926.78 688.84 926.78 894.89 979.84 894.89 979.84 850.12 979.84 846.32 979.84 834.83"/>
    </g>
  </g>
  <g id="_0103.030" data-name="0103.030">
    <polygon points="1209.2 682.7 875.48 682.7 875.48 628.95 1149.31 628.95 1149.31 601.4 1209.2 601.4 1209.2 628.95 1209.2 682.7"/>
  </g>
  <g id="_0103.043" data-name="0103.043">
    <g id="LWPOLYLINE-104" data-name="LWPOLYLINE">
      <polygon points="1149.31 540.57 1149.31 542.04 1149.31 595.83 1209.2 595.83 1209.2 440.4 1149.31 440.4 1149.31 482.71 1149.31 484.57 1149.31 540.54 1149.31 540.57"/>
    </g>
  </g>
  <g id="_0103.037" data-name="0103.037">
    <g id="LWPOLYLINE-105" data-name="LWPOLYLINE">
      <polygon points="922 899.67 922 897.28 922 688.8 873.43 688.8 859.86 688.8 859.86 699.19 846.65 699.19 846.65 736.32 846.65 894.26 860.73 894.26 860.73 910.16 922 910.16 922 899.71 922 899.67"/>
    </g>
  </g>
  <g id="_0049.001" data-name="0049.001">
    <g id="LWPOLYLINE-106" data-name="LWPOLYLINE">
      <rect x="741.77" y="869.45" width="25.52" height="41.06"/>
    </g>
  </g>
  <g id="_0018.001" data-name="0018.001">
    <g id="LWPOLYLINE-107" data-name="LWPOLYLINE">
      <rect x="769.89" y="741.1" width="71.98" height="169.83"/>
    </g>
  </g>
  <g id="_0103.031a" data-name="0103.031a">
    <g id="LWPOLYLINE-108" data-name="LWPOLYLINE">
      <polygon points="779.87 730.93 779.87 733.72 842.57 733.72 842.57 698.31 842.57 693.65 810.24 693.65 810.24 686.98 779.87 686.98 779.87 730.93"/>
    </g>
  </g>
  <g id="_0094.001" data-name="0094.001">
    <g id="LWPOLYLINE-109" data-name="LWPOLYLINE">
      <polygon points="690.6 909.81 737.7 909.81 737.7 865.37 765.11 865.37 765.11 789.47 690.6 789.47 690.6 809.03 690.6 822.42 690.6 824.5 690.6 855.04 690.6 855.6 690.6 857.11 690.6 909.81"/>
    </g>
  </g>
  <g id="_0050.001" data-name="0050.001">
    <g id="LWPOLYLINE-110" data-name="LWPOLYLINE">
      <polygon points="686.49 909.81 686.53 909.81 686.53 857.16 645.68 857.16 645.68 909.81 686.49 909.81"/>
    </g>
  </g>
  <g id="_0051.001" data-name="0051.001">
    <g id="LWPOLYLINE-111" data-name="LWPOLYLINE">
      <polygon points="686.49 853 686.53 853 686.53 824.46 645.68 824.46 645.68 853 686.49 853"/>
    </g>
  </g>
  <g id="_0103.028" data-name="0103.028">
    <g id="LWPOLYLINE-112" data-name="LWPOLYLINE">
      <polygon points="553.75 852.3 499.41 852.3 499.41 891.48 499.41 891.52 501.45 891.52 501.45 893.56 501.45 910.51 553.75 910.51 553.75 910.47 553.75 852.3"/>
    </g>
  </g>
  <g id="_0103.053" data-name="0103.053">
    <g id="LWPOLYLINE-113" data-name="LWPOLYLINE">
      <polygon points="588.08 852.3 557.82 852.3 557.82 910.51 626.8 910.51 626.8 910.32 626.8 898.34 639.78 898.34 639.78 822.42 639.78 820.39 639.78 819.04 639.78 805.64 639.78 788.97 588.08 788.97 588.08 852.3"/>
    </g>
  </g>
  <g id="_0103.027" data-name="0103.027">
    <g id="LWPOLYLINE-114" data-name="LWPOLYLINE">
      <polygon points="501.8 770.76 501.8 848.22 502.46 848.22 555.78 848.22 584 848.22 584 789 584 788.97 584 786.91 584 770.76 501.8 770.76"/>
    </g>
  </g>
  <g id="_0103.031" data-name="0103.031">
    <g id="LWPOLYLINE-115" data-name="LWPOLYLINE">
      <polygon points="775.76 730.03 775.76 688.14 643.89 688.14 643.89 699.35 628.57 699.35 628.57 688.14 588.12 688.14 588.12 706.45 588.12 768.72 588.12 784.85 640.94 784.85 640.94 722.96 643.93 722.96 643.93 784.82 643.93 786.91 643.89 786.91 643.89 803.59 684.03 803.59 684.03 782.9 763.32 782.9 763.32 735.32 763.32 730.03 775.76 730.03"/>
    </g>
  </g>
  <g id="_0103.025" data-name="0103.025">
    <g id="LWPOLYLINE-116" data-name="LWPOLYLINE">
      <polygon points="501.8 688.1 501.8 766.68 584 766.68 584 707.92 547.31 707.92 547.31 688.1 501.8 688.1"/>
    </g>
  </g>
  <g id="_0103.030a" data-name="0103.030a">
    <g id="LWPOLYLINE-117" data-name="LWPOLYLINE">
      <rect x="497.72" y="628.92" width="372.54" height="53.78"/>
    </g>
  </g>
  <g id="_0103.017c" data-name="0103.017c">
    <g id="LWPOLYLINE-118" data-name="LWPOLYLINE">
      <polygon points="415.99 869.55 415.99 891.52 429.09 891.52 442.62 891.52 442.62 832.02 401.58 832.02 401.58 869.55 415.99 869.55"/>
    </g>
  </g>
  <g id="_0103.023b" data-name="0103.023b">
    <g id="LWPOLYLINE-119" data-name="LWPOLYLINE">
      <polygon points="275.48 854.05 275.76 854.05 275.76 878.06 281.03 878.06 281.03 869.55 398.62 869.55 398.62 869.52 398.62 830.72 398.62 829.38 398.62 808.82 275.76 808.82 275.76 825.52 275.48 825.52 275.48 854.05"/>
    </g>
  </g>
  <g id="_0103.023" data-name="0103.023">
    <g id="LWPOLYLINE-120" data-name="LWPOLYLINE">
      <polygon points="275.48 773.08 275.76 773.08 275.76 808.82 396.54 808.82 399.92 808.82 438.54 808.82 438.54 753.72 377.19 753.72 373.8 753.72 355.47 753.72 275.48 753.72 275.48 773.08"/>
    </g>
  </g>
  <g id="_0103.017b" data-name="0103.017b">
    <g id="LWPOLYLINE-121" data-name="LWPOLYLINE">
      <polygon points="407.97 675.59 428.88 675.59 438.54 675.59 438.54 631.91 378.66 631.91 378.66 632 378.66 652.15 375.71 652.15 375.71 628.95 355.47 628.95 355.47 691.33 355.47 753.72 375.71 753.72 375.71 730.52 378.66 730.52 378.66 750.67 378.66 750.76 438.54 750.76 438.54 707.08 428.88 707.08 407.97 707.08 407.97 675.59"/>
    </g>
  </g>
  <g id="_0103.23a" data-name="0103.23a">
    <g id="LWPOLYLINE-122" data-name="LWPOLYLINE">
      <polygon points="275.76 698.93 275.76 744.54 275.48 744.54 275.48 753.72 355.47 753.72 355.47 693.37 293.05 693.37 293.05 698.93 275.76 698.93"/>
    </g>
  </g>
  <g id="_0103.021a" data-name="0103.021a">
    <g id="LWPOLYLINE-123" data-name="LWPOLYLINE">
      <polygon points="275.48 638.13 275.76 638.13 275.76 683.74 293.05 683.74 293.05 689.3 355.47 689.3 355.47 628.95 275.48 628.95 275.48 638.13"/>
    </g>
  </g>
  <g id="_0103.021" data-name="0103.021">
    <g id="LWPOLYLINE-124" data-name="LWPOLYLINE">
      <polygon points="275.76 573.85 275.76 609.59 275.48 609.59 275.48 628.95 355.47 628.95 373.8 628.95 377.19 628.95 438.54 628.95 438.54 573.85 400.66 573.85 275.76 573.85"/>
    </g>
  </g>
  <g id="_0103.021b" data-name="0103.021b">
    <g id="LWPOLYLINE-125" data-name="LWPOLYLINE">
      <polygon points="275.76 504.79 275.76 528.62 275.48 528.62 275.48 557.15 275.76 557.15 275.76 573.85 398.62 573.85 398.62 572.37 398.62 504.93 398.62 504.79 275.76 504.79"/>
    </g>
  </g>
  <g id="_0103.022" data-name="0103.022">
    <g id="LWPOLYLINE-126" data-name="LWPOLYLINE">
      <polyline points="402.69 504.93 402.69 570.89 438.54 570.89 438.54 486.16 402.7 486.16 402.7 504.93"/>
    </g>
  </g>
  <g id="_0045.001" data-name="0045.001">
    <g id="LWPOLYLINE-127" data-name="LWPOLYLINE">
      <polygon points="1110.28 543.87 1110.28 624.83 1145.23 624.83 1145.23 600.82 1145.23 596.33 1145.23 543.87 1110.28 543.87"/>
    </g>
  </g>
  <g id="_0103.041" data-name="0103.041">
    <g id="LWPOLYLINE-128" data-name="LWPOLYLINE">
      <polygon points="1003.6 624.83 1104.26 624.83 1104.26 544.22 1094.66 544.22 1051.22 544.22 1049.29 544.22 1048.97 544.22 1003.6 544.22 1003.6 624.83"/>
    </g>
  </g>
  <g id="_0103.045" data-name="0103.045">
    <g id="LWPOLYLINE-129" data-name="LWPOLYLINE">
      <polygon points="1106.2 540.92 1108.24 540.92 1146.36 540.92 1146.36 484.69 1096.87 484.69 1096.87 540.92 1101.75 540.92 1106.2 540.92"/>
    </g>
  </g>
  <g id="_0103.041a" data-name="0103.041a">
    <g id="LWPOLYLINE-130" data-name="LWPOLYLINE">
      <polygon points="1092.45 541.27 1092.45 484.72 1092.45 484.69 1051.19 484.69 1051.19 541.27 1092.45 541.27"/>
    </g>
  </g>
  <g id="_0103.009" data-name="0103.009">
    <g id="LWPOLYLINE-131" data-name="LWPOLYLINE">
      <polygon points="999.88 488.06 999.88 539.79 1002.3 539.79 1046.76 539.79 1046.76 488.06 1042.01 488.06 1040.71 488.06 1040.68 488.06 999.88 488.06"/>
    </g>
  </g>
  <g id="_0103.007" data-name="0103.007">
    <g id="LWPOLYLINE-132" data-name="LWPOLYLINE">
      <polygon points="999.88 433.26 999.88 483.98 1040.71 483.98 1040.71 470.1 1040.71 468.59 1040.71 433.26 1033.79 433.26 999.88 433.26"/>
    </g>
  </g>
  <g id="_0103.006" data-name="0103.006">
    <g id="LWPOLYLINE-133" data-name="LWPOLYLINE">
      <polygon points="999.88 379.93 999.88 430.31 1032.49 430.31 1032.49 417.16 1040.71 417.16 1040.71 379.93 999.88 379.93"/>
    </g>
  </g>
  <g id="_0103.005" data-name="0103.005">
    <g id="LWPOLYLINE-134" data-name="LWPOLYLINE">
      <polygon points="999.88 326.96 999.88 376.98 1040.71 376.98 1040.71 326.96 1013.3 326.96 1012.04 326.96 1010.88 326.96 999.88 326.96"/>
    </g>
  </g>
  <g id="_0103.003" data-name="0103.003">
    <g id="LWPOLYLINE-135" data-name="LWPOLYLINE">
      <polygon points="956.09 322.18 956.09 495.2 956.09 628.92 996.92 628.92 996.92 544.56 996.92 542.01 996.92 486.02 996.92 431.78 996.92 378.46 996.92 322.18 956.09 322.18"/>
    </g>
  </g>
  <g id="_0103.001" data-name="0103.001">
    <g id="LWPOLYLINE-136" data-name="LWPOLYLINE">
      <polygon points="1060.61 249.78 1015.69 249.78 1015.69 322.14 1015.69 322.18 1045.49 322.18 1045.49 378.46 1045.49 418.46 1045.49 431.78 1045.49 467.11 1096.87 467.11 1096.87 481.03 1096.91 481.03 1145.66 481.03 1145.66 438.01 1145.66 435.62 1145.66 435.59 1145.66 407.93 1147.13 407.93 1147.13 294.18 1147.13 268.8 1149.31 268.8 1149.31 266.78 1144.53 266.78 1144.53 261.52 1075.82 261.52 1070.24 261.52 1070.24 258.65 1062.36 258.65 1062.36 267.06 1074.91 267.06 1074.91 268.81 1060.61 268.81 1060.61 258.65 1060.61 249.78"/>
    </g>
  </g>
  <g id="_0103.010" data-name="0103.010">
    <g id="LWPOLYLINE-137" data-name="LWPOLYLINE">
      <polygon points="1010.91 249.78 859.86 249.78 859.86 267.07 844.68 267.07 844.68 249.78 643.93 249.78 643.93 267.07 628.75 267.07 628.75 249.78 428.01 249.78 428.01 258 442.62 258 442.62 322.18 496.38 322.18 499.76 322.18 725.31 322.18 839.49 322.18 954.03 322.18 957.42 322.18 995.01 322.18 998.4 322.18 1010.91 322.18 1010.91 249.78"/>
    </g>
  </g>
  <g id="_0103.039" data-name="0103.039">
    <g id="LWPOLYLINE-138" data-name="LWPOLYLINE">
      <polygon points="951.31 624.84 951.31 497.25 914.12 497.25 914.12 483.76 872.86 483.76 872.86 485.06 872.86 523.27 872.86 624.84 873.43 624.84 876.31 624.84 876.81 624.84 951.31 624.84"/>
    </g>
  </g>
  <g id="_0103.035" data-name="0103.035">
    <g id="LWPOLYLINE-139" data-name="LWPOLYLINE">
      <rect x="789.99" y="524.75" width="78.44" height="100.09"/>
    </g>
  </g>
  <g id="_0103.035a" data-name="0103.035a">
    <g id="LWPOLYLINE-140" data-name="LWPOLYLINE">
      <rect x="789.99" y="486.36" width="78.44" height="35.44"/>
    </g>
  </g>
  <g id="_0103.011" data-name="0103.011">
    <g id="LWPOLYLINE-141" data-name="LWPOLYLINE">
      <polygon points="841.55 466.28 867.75 466.28 867.75 479.65 870.65 479.65 918.24 479.65 918.24 493.14 951.97 493.14 951.97 326.29 841.55 326.29 841.55 466.28"/>
    </g>
  </g>
  <g id="_0103.033" data-name="0103.033">
    <g id="LWPOLYLINE-142" data-name="LWPOLYLINE">
      <polygon points="706.45 497.25 706.45 624.84 785.57 624.84 785.57 523.27 785.57 485.06 785.57 483.76 765.22 483.76 765.22 497.25 725.31 497.25 706.45 497.25"/>
    </g>
  </g>
  <g id="_0103.013" data-name="0103.013">
    <g id="LWPOLYLINE-143" data-name="LWPOLYLINE">
      <polygon points="727.37 364.49 727.37 366.53 727.37 460.58 727.37 462.61 727.37 462.65 727.37 493.14 761.1 493.14 761.1 479.65 787.78 479.65 837.44 479.65 837.44 467.58 837.44 326.29 727.37 326.29 727.37 364.46 727.37 364.49"/>
    </g>
  </g>
  <g id="_0048.001" data-name="0048.001">
    <g id="LWPOLYLINE-144" data-name="LWPOLYLINE">
      <polygon points="723.22 368.57 692.92 368.57 692.92 458.54 702.31 458.54 706.49 458.54 723.22 458.54 723.29 458.54 723.29 368.57 723.22 368.57"/>
    </g>
  </g>
  <g id="_0103.015" data-name="0103.015">
    <g id="LWPOLYLINE-145" data-name="LWPOLYLINE">
      <polygon points="688.85 364.49 723.25 364.49 723.25 326.25 501.8 326.25 501.8 624.84 702.34 624.84 702.34 495.2 702.34 462.61 688.85 462.61 688.85 364.49"/>
    </g>
  </g>
  <g id="_0103.017" data-name="0103.017">
    <g id="LWPOLYLINE-146" data-name="LWPOLYLINE">
      <polygon points="442.62 467.78 442.62 483.03 442.62 484.86 442.62 572.37 442.62 630.43 442.62 676.89 442.62 705.78 442.62 752.24 442.62 810.12 442.62 834.11 442.62 889.43 442.62 891.52 499.41 891.52 499.41 853.65 499.41 850.26 497.72 850.26 497.72 768.72 497.72 686.06 497.72 685.5 497.72 682.68 497.72 630.27 497.72 626.88 497.72 322.18 442.62 322.18 442.62 467.78"/>
    </g>
  </g>
  <g id="_0103.019" data-name="0103.019">
    <g id="LWPOLYLINE-147" data-name="LWPOLYLINE">
      <polygon points="293.54 249.78 293.54 261.59 280.26 261.59 280.26 268.69 291.96 268.69 291.96 271.29 280.26 271.29 280.26 426.54 275.76 426.54 275.76 467.82 293.05 467.82 293.05 483 275.76 483 275.76 500.36 394.69 500.36 394.69 479.84 411.99 479.84 411.99 479.65 411.99 466.9 438.54 466.9 438.54 322.18 438.54 262.08 428.01 262.08 428.01 267.07 412.82 267.07 412.82 249.78 293.54 249.78"/>
    </g>
  </g>
</svg>