<?xml version="1.0" encoding="UTF-8"?>
<svg xmlns="http://www.w3.org/2000/svg" xmlns:xlink="http://www.w3.org/1999/xlink" viewBox="0 0 2185.04 2009.74">
  <defs>
    <style>
      .cls-1 {
        fill: none;
      }

      .cls-1, .cls-2 {
        stroke: #000;
        stroke-linecap: round;
        stroke-linejoin: round;
        stroke-width: .26px;
      }

      .cls-2, .cls-3 {
        opacity: .7;
      }
    </style>
  </defs>
  <g id="Level_E" data-name="Level E">
    <image width="5760" height="4320" transform="translate(-276.87 -101.57) scale(.6)" xlink:href="../PDF and PNG/RCP/Level E.jpg"/>
  </g>
  <g id="Room_boundaries" data-name="Room boundaries">
    <g class="cls-3">
      <g id="LWPOLYLINE">
        <rect class="cls-1" x="1066.57" y="720.74" width="1.37" height=".28"/>
      </g>
      <g id="LWPOLYLINE-2" data-name="LWPOLYLINE">
        <polygon class="cls-1" points="1025.7 725.41 1014.51 725.41 1014.51 820.2 1025.7 820.2 1025.7 789.73 1025.7 725.41"/>
      </g>
      <g id="LWPOLYLINE-3" data-name="LWPOLYLINE">
        <polygon class="cls-1" points="1014.51 823.16 1014.51 903.47 1025.35 903.47 1025.35 863.94 1025.35 857.15 1025.35 823.16 1014.51 823.16"/>
      </g>
      <g id="LWPOLYLINE-4" data-name="LWPOLYLINE">
        <rect class="cls-1" x="1473.4" y="1642.75" width="27.03" height="13.52"/>
      </g>
      <g id="LWPOLYLINE-5" data-name="LWPOLYLINE">
        <rect class="cls-1" x="1696.4" y="1852.24" width="13.52" height="13.52"/>
      </g>
      <g id="LWPOLYLINE-6" data-name="LWPOLYLINE">
        <rect class="cls-1" x="1912.65" y="1852.24" width="13.52" height="13.52"/>
      </g>
      <g id="LWPOLYLINE-7" data-name="LWPOLYLINE">
        <rect class="cls-1" x="1380.2" y="1042.2" width="2.96" height="23.65"/>
      </g>
      <g id="LWPOLYLINE-8" data-name="LWPOLYLINE">
        <rect class="cls-1" x="1445.1" y="1043.89" width="33.51" height="20.27"/>
      </g>
      <g id="LWPOLYLINE-9" data-name="LWPOLYLINE">
        <rect class="cls-1" x="511.85" y="1511.97" width="6.76" height="6.76"/>
      </g>
      <g id="LWPOLYLINE-10" data-name="LWPOLYLINE">
        <polyline class="cls-1" points="387.09 1394.97 387.09 1380.33 278.97 1380.33 262.07 1380.33 262.07 1357.24 278.97 1357.24 278.97 1364.56 387.09 1364.56 387.09 1336.4 424.26 1336.4 424.26 1394.97 402.3 1394.97 402.3 1424.12 612.77 1424.12 612.77 1455.79 619.25 1455.79 619.25 1462.26 622.3 1462.26 696.26 1462.26 696.26 1458.88 708.65 1458.88 708.65 1001.75 262.07 1001.75 262.07 1120.15 387.09 1120.15 424.26 1120.15 424.26 1178.72 387.09 1178.72 387.09 1135.92 278.97 1135.92 278.97 1140.99 278.97 1157.88 262.07 1157.88"/>
        <polyline class="cls-1" points="387.09 1539.13 387.09 1518.86 329.09 1518.86 329.09 1424.25"/>
        <polyline class="cls-1" points="402.3 1512.1 402.3 1539.13 424.26 1539.13 424.26 1597.7"/>
        <polyline class="cls-1" points="262.07 1157.88 262.07 1635.99 286.85 1635.99 286.85 1652.89"/>
      </g>
      <g id="LWPOLYLINE-11" data-name="LWPOLYLINE">
        <rect class="cls-1" x="398.92" y="493.94" width="27.03" height="13.52"/>
      </g>
      <g id="LWPOLYLINE-12" data-name="LWPOLYLINE">
        <rect class="cls-1" x="608.41" y="493.94" width="27.03" height="13.52"/>
      </g>
      <g id="LWPOLYLINE-13" data-name="LWPOLYLINE">
        <rect class="cls-1" x="824.66" y="493.94" width="27.03" height="13.52"/>
      </g>
      <g id="LWPOLYLINE-14" data-name="LWPOLYLINE">
        <rect class="cls-1" x="1257.15" y="493.94" width="27.03" height="13.52"/>
      </g>
      <g id="LWPOLYLINE-15" data-name="LWPOLYLINE">
        <rect class="cls-1" x="1473.4" y="493.94" width="27.03" height="13.52"/>
      </g>
      <g id="LWPOLYLINE-16" data-name="LWPOLYLINE">
        <rect class="cls-1" x="1689.65" y="493.94" width="27.03" height="13.52"/>
      </g>
      <g id="LWPOLYLINE-17" data-name="LWPOLYLINE">
        <rect class="cls-1" x="831.41" y="710.18" width="13.52" height="13.52"/>
      </g>
      <g id="LWPOLYLINE-18" data-name="LWPOLYLINE">
        <rect class="cls-1" x="1696.4" y="710.18" width="13.52" height="13.52"/>
      </g>
      <g id="LWPOLYLINE-19" data-name="LWPOLYLINE">
        <rect class="cls-1" x="831.41" y="926.43" width="13.52" height="13.52"/>
      </g>
      <g id="LWPOLYLINE-20" data-name="LWPOLYLINE">
        <rect class="cls-1" x="1696.4" y="926.43" width="13.52" height="13.52"/>
      </g>
      <g id="LWPOLYLINE-21" data-name="LWPOLYLINE">
        <rect class="cls-1" x="1912.65" y="919.67" width="13.52" height="27.03"/>
      </g>
      <g id="LWPOLYLINE-22" data-name="LWPOLYLINE">
        <rect class="cls-1" x="1912.65" y="1135.92" width="13.52" height="27.03"/>
      </g>
      <g id="LWPOLYLINE-23" data-name="LWPOLYLINE">
        <rect class="cls-1" x="1696.4" y="1142.68" width="13.52" height="13.52"/>
      </g>
      <g id="LWPOLYLINE-24" data-name="LWPOLYLINE">
        <rect class="cls-1" x="1047.66" y="1135.92" width="13.52" height="27.03"/>
      </g>
      <g id="LWPOLYLINE-25" data-name="LWPOLYLINE">
        <rect class="cls-1" x="831.41" y="1142.68" width="13.52" height="13.52"/>
      </g>
      <g id="LWPOLYLINE-26" data-name="LWPOLYLINE">
        <rect class="cls-1" x="1263.91" y="1352.17" width="13.52" height="27.03"/>
      </g>
      <g id="LWPOLYLINE-27" data-name="LWPOLYLINE">
        <rect class="cls-1" x="1912.65" y="1352.17" width="13.52" height="27.03"/>
      </g>
      <g id="LWPOLYLINE-28" data-name="LWPOLYLINE">
        <rect class="cls-1" x="1696.4" y="1358.93" width="13.52" height="13.52"/>
      </g>
      <g id="LWPOLYLINE-29" data-name="LWPOLYLINE">
        <rect class="cls-1" x="1047.66" y="1352.17" width="13.52" height="27.03"/>
      </g>
      <g id="LWPOLYLINE-30" data-name="LWPOLYLINE">
        <rect class="cls-1" x="831.41" y="1358.93" width="13.52" height="13.52"/>
      </g>
      <g id="LWPOLYLINE-31" data-name="LWPOLYLINE">
        <rect class="cls-1" x="1912.65" y="1554.9" width="13.52" height="27.03"/>
      </g>
      <g id="LWPOLYLINE-32" data-name="LWPOLYLINE">
        <rect class="cls-1" x="1899.13" y="1642.75" width="27.03" height="13.52"/>
      </g>
      <g id="LWPOLYLINE-33" data-name="LWPOLYLINE">
        <rect class="cls-1" x="1689.65" y="1642.75" width="27.03" height="13.52"/>
      </g>
    </g>
  </g>
  <g id="_0072.00E" data-name="0072.00E">
    <polyline class="cls-3" points="1181.22 1575.31 1181.22 1768.26 1281.04 1768.26 1281.04 1659.83 1253.91 1659.83 1253.91 1607.83 1236.52 1607.83 1236.52 1575.31"/>
  </g>
  <g id="_0019.00E" data-name="0019.00E">
    <polyline class="cls-3" points="1259.3 1575.31 1259.3 1641.91 1412.7 1641.04 1412.7 1575.31"/>
  </g>
  <g id="_0061.00E" data-name="0061.00E">
    <polyline class="cls-3" points="424.26 1597.7 424.26 1602.2 708.65 1602.2 708.65 1477.19 708.65 1472.4 696.26 1472.4 696.26 1469.02 619.25 1469.02 619.25 1475.5 599.54 1475.5 599.54 1455.79 606.01 1455.79 606.01 1430.87 424.26 1431.14"/>
  </g>
  <g id="E32">
    <g id="LWPOLYLINE-34" data-name="LWPOLYLINE" class="cls-3">
      <polyline points="387.09 1667.32 286.85 1667.32 266.37 1667.32 266.37 1768.26 708.23 1768.26 708.23 1653.03 708.23 1649.44 708.23 1608.96 424.26 1608.96 406.59 1608.96 406.59 1631.7 419.82 1631.7 419.82 1667.32 387.09 1667.32"/>
    </g>
  </g>
  <g id="E31">
    <g id="LWPOLYLINE-35" data-name="LWPOLYLINE" class="cls-3">
      <polygon points="711.18 1768.26 831.41 1768.26 846.76 1768.26 846.76 1659.08 822.4 1659.08 822.4 1653.03 715.41 1653.03 711.18 1653.03 711.18 1768.26"/>
    </g>
  </g>
  <g id="E30">
    <g id="LWPOLYLINE-36" data-name="LWPOLYLINE" class="cls-3">
      <polygon points="1010.88 1663.26 1010.84 1663.26 1010.84 1768.26 1076.74 1768.26 1177.82 1768.26 1177.82 1663.26 1010.88 1663.26"/>
    </g>
  </g>
  <g id="_0011.00E" data-name="0011.00E">
    <g id="LWPOLYLINE-37" data-name="LWPOLYLINE" class="cls-3">
      <polygon points="1069.9 1548.22 1072.16 1548.22 1072.16 1524.63 1009.09 1524.63 1009.09 1571.94 1069.9 1571.94 1069.9 1548.22"/>
    </g>
  </g>
  <g id="_0012.00E" data-name="0012.00E">
    <g id="LWPOLYLINE-38" data-name="LWPOLYLINE" class="cls-3">
      <polygon points="1072.16 1524.63 1072.16 1548.22 1074.41 1548.22 1074.41 1571.94 1135.23 1571.94 1135.23 1524.63 1072.16 1524.63"/>
    </g>
  </g>
  <g id="E04">
    <g id="LWPOLYLINE-39" data-name="LWPOLYLINE" class="cls-3">
      <polygon points="1141.78 1576.02 1010.84 1576.02 1010.84 1641.91 1040.66 1641.91 1068.18 1641.91 1176.01 1641.91 1176.06 1641.91 1176.06 1567.01 1176.06 1521.92 1141.78 1521.92 1141.78 1576.02"/>
      <polygon points="1141.78 1576.02 1010.84 1576.02 1010.84 1641.91 1040.66 1641.91 1068.18 1641.91 1176.01 1641.91 1176.06 1641.91 1176.06 1567.01 1176.06 1521.92 1141.78 1521.92 1141.78 1576.02"/>
    </g>
  </g>
  <g id="_0074.00E-2" data-name="0074.00E">
    <g id="LWPOLYLINE-40" data-name="LWPOLYLINE" class="cls-3">
      <polygon points="1567.98 1768.26 1567.98 1870.75 1931.45 1870.75 1931.45 1699.96 1935.74 1699.96 1935.74 1700.05 1556.62 1700.05 1556.62 1691.65 1556.62 1575.31 1417.72 1575.31 1417.72 1646.06 1364.09 1646.06 1364.09 1656.67 1364.09 1658.96 1364.09 1768.26 1567.98 1768.26"/>
    </g>
  </g>
  <g id="E13.2">
    <g id="LWPOLYLINE-41" data-name="LWPOLYLINE" class="cls-3">
      <polygon points="1061.18 1507.6 1061.18 1520.34 1176.06 1520.34 1180.21 1520.34 1184.36 1520.34 1184.36 1567.01 1560.78 1567.01 1564.93 1567.01 1564.93 1691.65 1935.74 1691.65 1935.74 994.55 1564.93 994.55 1564.93 1034.46 1564.93 1066.3 1564.93 1111.07 1564.93 1158.1 1564.93 1246.37 1564.93 1379.2 1494.55 1379.2 1494.52 1379.2 1493.64 1379.2 1480.19 1379.2 1479.31 1379.2 1479.28 1379.2 1416.66 1379.2 1330.89 1379.2 1329.3 1379.2 1329.27 1379.2 1277.99 1379.2 1277.99 1210.82 1165.62 1210.82 1165.62 1001.75 1096.9 1001.75 1093.31 1001.75 715.41 1001.75 715.41 1477.19 715.41 1608.96 715.41 1645.85 822.4 1645.85 822.4 1639.94 851.69 1639.94 853.94 1639.94 853.94 1656.27 851.69 1656.27 851.69 1771.44 1002.54 1771.44 1002.54 1661.11 1002.54 1658.96 1002.54 1520.34 1005.81 1520.34 1047.66 1520.34 1047.66 1507.6 1061.18 1507.6"/>
    </g>
  </g>
  <g id="E20.006">
    <g id="LWPOLYLINE-42" data-name="LWPOLYLINE" class="cls-3">
      <polygon points="1557.75 1247.85 1479.1 1247.85 1445.76 1247.85 1421.1 1247.85 1421.1 1252.32 1420.18 1252.32 1420.18 1324.51 1421.1 1324.51 1421.1 1327.21 1421.1 1329.36 1418.49 1329.36 1418.49 1329.4 1418.49 1372.02 1479.31 1372.02 1479.31 1358.08 1494.52 1358.08 1494.52 1372.02 1557.75 1372.02 1557.75 1247.85"/>
    </g>
  </g>
  <g id="E9.001">
    <g id="LWPOLYLINE-43" data-name="LWPOLYLINE" class="cls-3">
      <polygon points="1414.83 1329.36 1332.47 1329.36 1332.47 1371.98 1332.47 1372.02 1414.83 1372.02 1414.83 1329.36"/>
    </g>
  </g>
  <g id="_0015.00E" data-name="0015.00E">
    <g id="LWPOLYLINE-44" data-name="LWPOLYLINE" class="cls-3">
      <rect x="1333.53" y="1257.91" width="80.67" height="67.15"/>
    </g>
  </g>
  <g id="E20.001">
    <g id="LWPOLYLINE-45" data-name="LWPOLYLINE" class="cls-3">
      <polygon points="1418.14 1251.01 1418.14 1246.37 1418.14 1188.22 1332.89 1188.22 1332.89 1251.01 1418.14 1251.01"/>
    </g>
  </g>
  <g id="E20.005">
    <g id="LWPOLYLINE-46" data-name="LWPOLYLINE" class="cls-3">
      <polygon points="1557.75 1159.57 1494.41 1159.57 1494.41 1173.09 1480.58 1173.09 1480.58 1244.89 1557.75 1244.89 1557.75 1159.57"/>
    </g>
  </g>
  <g id="E20.004">
    <g id="LWPOLYLINE-47" data-name="LWPOLYLINE" class="cls-3">
      <polygon points="1494.41 1156.62 1557.75 1156.62 1557.75 1112.55 1510.09 1112.55 1494.41 1112.55 1494.41 1143.52 1494.41 1146.92 1494.41 1156.62"/>
    </g>
  </g>
  <g id="E20.007">
    <g id="LWPOLYLINE-48" data-name="LWPOLYLINE" class="cls-3">
      <rect x="1421.1" y="1188.22" width="24.66" height="56.67"/>
    </g>
  </g>
  <g id="E20">
    <g id="LWPOLYLINE-49" data-name="LWPOLYLINE" class="cls-3">
      <polygon points="1488.85 1112.55 1445.76 1112.55 1445.76 1151.48 1332.89 1151.48 1332.89 1185.27 1419.62 1185.27 1445.76 1185.27 1445.76 1244.89 1477.62 1244.89 1477.62 1171.61 1477.62 1170.1 1477.62 1142.64 1488.85 1142.64 1488.85 1112.55"/>
    </g>
  </g>
  <g id="E20.002">
    <g id="LWPOLYLINE-50" data-name="LWPOLYLINE" class="cls-3">
      <polygon points="1442.8 1112.55 1442.18 1112.55 1342.15 1112.55 1332.89 1112.55 1332.89 1151.48 1442.8 1151.48 1442.8 1112.55"/>
    </g>
  </g>
  <g id="E20.003c">
    <g id="LWPOLYLINE-51" data-name="LWPOLYLINE" class="cls-3">
      <rect x="1511.57" y="1067.78" width="46.18" height="41.81"/>
    </g>
  </g>
  <g id="E20.003b">
    <g id="LWPOLYLINE-52" data-name="LWPOLYLINE" class="cls-3">
      <rect x="1511.57" y="1035.94" width="46.18" height="28.88"/>
    </g>
  </g>
  <g id="E20.003a">
    <g id="LWPOLYLINE-53" data-name="LWPOLYLINE" class="cls-3">
      <rect x="1511.57" y="1001.73" width="46.18" height="31.25"/>
    </g>
  </g>
  <g id="E20.003">
    <g id="LWPOLYLINE-54" data-name="LWPOLYLINE" class="cls-3">
      <polygon points="1508.61 1034.46 1508.61 1001.73 1496.56 1001.73 1477.06 1001.73 1477.06 1008.77 1474.1 1008.77 1474.1 1000.43 1474.1 998.21 1415.04 998.21 1343.45 998.21 1343.45 1008.77 1332.89 1008.77 1332.89 1099.15 1343.45 1099.15 1343.45 1109.59 1440.88 1109.59 1440.88 1100.46 1443.27 1100.46 1443.27 1089.32 1446.23 1089.32 1446.23 1100.46 1446.23 1109.59 1491.63 1109.59 1508.61 1109.59 1508.61 1066.3 1508.61 1034.46"/>
    </g>
  </g>
  <g id="E09">
    <g id="LWPOLYLINE-55" data-name="LWPOLYLINE" class="cls-3">
      <polygon points="1329.3 1329.29 1329.23 1327.21 1329.23 1255.77 1329.23 1253.62 1329.23 1250.98 1329.23 1186.75 1329.23 1154.53 1329.23 1148.42 1329.23 1111.07 1329.23 1101.79 1329.23 1099.12 1329.23 1008.81 1329.23 1006.13 1329.23 1000.17 1285.17 1000.17 1285.17 1207.65 1285.17 1210.85 1285.17 1372.02 1329.3 1372.02 1329.3 1329.4 1329.3 1329.29"/>
    </g>
  </g>
  <g id="E21">
    <g id="LWPOLYLINE-56" data-name="LWPOLYLINE" class="cls-3">
      <polygon points="1277.99 1001.75 1172.8 1001.75 1172.8 1203.64 1277.95 1203.64 1277.99 1203.64 1277.99 1001.75"/>
    </g>
  </g>
  <g id="_0010.00E" data-name="0010.00E">
    <polygon class="cls-3" points="1076.94 860.83 1076.94 860.68 1067.93 860.68 1067.93 860.83 1066.6 860.83 1066.6 860.68 1057.59 860.68 1057.59 860.83 1039.57 860.83 1039.57 860.68 1030.58 860.68 1028.3 860.68 1028.3 903.47 1028.3 929.11 1030.58 929.11 1039.57 929.11 1057.59 929.11 1066.57 929.11 1067.93 929.11 1076.94 929.11 1111.86 929.11 1111.86 860.83 1076.94 860.83"/>
  </g>
  <g id="_0008.00E" data-name="0008.00E">
    <polygon class="cls-3" points="1111.86 789.73 1028.3 789.73 1028.3 820.16 1028.3 820.2 1028.3 821.68 1028.3 860.4 1030.58 860.4 1030.58 860.68 1039.57 860.68 1039.57 860.54 1057.59 860.54 1057.59 860.68 1066.6 860.68 1066.6 860.54 1067.93 860.54 1067.93 860.68 1076.94 860.68 1076.94 860.54 1111.86 860.54 1111.86 789.73"/>
  </g>
  <g id="_0006.00E" data-name="0006.00E">
    <polygon class="cls-3" points="1057.59 712.51 1057.59 721.02 1039.57 721.02 1039.57 712.51 1028.3 712.51 1028.3 720.74 1030.58 720.74 1030.58 721.02 1028.3 721.02 1028.3 789.73 1111.86 789.73 1111.86 724.45 1111.86 722.62 1111.86 721.02 1076.94 721.02 1076.94 712.51 1057.59 712.51"/>
  </g>
  <g id="E03">
    <polyline class="cls-3" points="1114.82 724.41 1114.82 789.73 1114.82 860.68 1114.82 929.07 1114.82 929.46 1210.27 929.46 1210.27 860.68 1210.27 789.73 1210.27 724.41"/>
  </g>
  <g id="E10">
    <polyline class="cls-3" points="1210.27 940.51 1210.27 930.97 1210.27 929.46 1114.82 929.46 1114.82 932.87 1114.82 942.2 1100.49 942.2 1100.49 994.57 1165.59 994.57 1168.79 994.57 1285.17 994.57 1285.17 1000.17 1329.23 1000.17 1329.23 994.55 1340.81 994.55 1343.49 994.55 1413 994.55 1413 940.51 1314.33 940.51 1312.54 940.51 1299.77 940.51 1299.74 940.51 1294.87 940.51"/>
  </g>
  <g id="_0085.00E" data-name="0085.00E">
    <polygon class="cls-3" points="1412.3 935.72 1412.3 865.61 1299.74 865.61 1299.74 925.7 1314.3 925.7 1314.3 935.72 1411.65 935.72 1412.3 935.72"/>
  </g>
  <g id="_0009.00E" data-name="0009.00E">
    <polyline class="cls-3" points="1257.15 929.11 1258.52 929.11 1267.5 929.11 1285.52 929.11 1294.5 929.11 1294.87 929.11 1296.57 929.11 1296.78 929.11 1296.78 925.66 1296.78 865.65 1296.78 860.68 1294.5 860.68 1285.52 860.68 1285.52 860.83 1267.5 860.83 1267.5 860.68 1258.49 860.68 1258.49 860.83 1257.15 860.83 1257.15 860.68 1248.14 860.68 1248.14 860.83 1213.22 860.83 1213.22 929.11"/>
  </g>
  <g id="_0007.00E" data-name="0007.00E">
    <polyline class="cls-3" points="1213.22 860.54 1248.14 860.54 1248.14 860.68 1257.15 860.68 1257.15 860.54 1258.49 860.54 1258.49 860.68 1267.5 860.68 1267.5 860.54 1285.52 860.54 1285.52 860.68 1294.5 860.68 1294.5 860.4 1296.78 860.4 1296.78 821.69 1296.78 820.21 1296.78 820.17 1296.78 789.73 1213.22 789.73"/>
  </g>
  <g id="_0005.00E" data-name="0005.00E">
    <polyline class="cls-3" points="1213.22 721.02 1213.22 722.62 1213.22 724.45 1213.22 789.73 1296.78 789.73 1296.78 725.62 1296.78 721.02 1294.5 721.02 1294.5 719.16 1285.52 719.16 1285.52 721.02 1267.5 721.02 1267.5 719.16 1258.52 719.16 1258.52 721.02 1257.15 721.02 1257.15 719.16 1248.14 719.16 1248.14 721.02"/>
  </g>
  <g id="_0043.00E" data-name="0043.00E">
    <polyline class="cls-3" points="1299.39 725.59 1299.39 789.73 1299.39 820.21 1312.07 820.21 1312.07 725.59"/>
  </g>
  <g id="_0086.00E" data-name="0086.00E">
    <polyline class="cls-3" points="1315.03 717.93 1315.03 724.11 1315.03 725.59 1315.03 725.62 1315.03 823.17 1299.74 823.17 1299.74 857.15 1299.74 861.95 1412.3 861.95 1412.3 717.93"/>
  </g>
  <g id="_0017.00E" data-name="0017.00E">
    <polyline class="cls-3" points="1497.33 786.21 1497.33 928.12 1569.41 928.12 1569.41 891.26 1569.41 887.11 1569.41 786.21"/>
  </g>
  <g id="E11">
    <polyline class="cls-3" points="1417.08 716.8 1417.08 863.78 1417.08 935.69 1417.08 940.51 1417.08 941.51 1417.08 994.55 1474.07 994.55 1493.04 994.55 1493.04 940.51 1492.54 940.51 1492.54 929.42 1492.54 782.06 1493.04 781.66 1493.04 778.66 1493.04 777.9 1493.04 725.95 1476.99 725.95 1476.99 716.8"/>
  </g>
  <g id="_0040.00E" data-name="0040.00E">
    <polyline class="cls-3" points="1572.02 891.26 1572.02 929.42 1572.02 932.2 1597.84 932.2 1597.84 891.26"/>
  </g>
  <g id="_0084.00E" data-name="0084.00E">
    <polyline class="cls-3" points="1600.79 890.18 1600.79 933.33 1654.7 933.33 1654.7 890.18"/>
  </g>
  <g id="E13.1">
    <path class="cls-3" d="M1926.17,705.12v25.34h-13.52v-27.03h15.2v-195.97h-15.2v-13.52h15.2v-86.16h-15.2v-13.52h15.2v-118.26h-109.81v15.2h-13.52v-15.2h-94.61v15.2h-13.52v-15.2h-94.61v15.2h-13.52v-15.2h-94.61v15.2h-13.52v-15.2h-202.73v15.2h-13.52v-15.2h-107.18v9.01h-10.14v-9.01h-327.01v16.89h-16.89v-16.89h-172.32v16.89h-16.89v-16.89h-199.35v16.89h-16.89v-16.89h-118.26v23.09h-16.89v193.16h16.89v16.89h-16.89v199.35h16.89v12.53h429.68v-213.57h6.76v494.3h377.91v-59.55h-85.35v-235.39h491.77v71.1h78v105.05h23.07v.04h53.91v-.04h7.18v57.55h-162.16v54.04h436.01v-289.43h-9.57ZM1173.88,548.53v72.12h-108.19v-69.94l2.46-2.15v-41.11h-27.24v-13.52h132.97v54.59Z"/>
  </g>
  <g id="E14">
    <polygon class="cls-2" points="1072.44 548.56 1075.17 548.56 1088.69 548.56 1152.8 548.56 1169.58 548.56 1169.58 498.23 1072.44 498.23 1072.44 507.45 1072.44 548.56"/>
  </g>
  <g id="_0078.00E" data-name="0078.00E">
    <polygon class="cls-3" points="1069.98 552.86 1069.98 602.34 1070.19 602.34 1092.71 602.34 1092.71 616.35 1147.9 616.35 1147.9 602.34 1169.58 602.34 1169.58 578.95 1152.8 578.95 1152.8 552.86 1088.69 552.86 1088.69 578.95 1075.17 578.95 1075.17 552.86 1072.47 552.86 1069.98 552.86"/>
  </g>
</svg>