<?xml version="1.0" encoding="UTF-8"?>
<svg xmlns="http://www.w3.org/2000/svg" xmlns:xlink="http://www.w3.org/1999/xlink" viewBox="0 0 1936.15 1929.55">
  <g id="Procore_Drawing" data-name="Procore Drawing">
    <image width="5760" height="4320" transform="translate(-287.4 -144.85) scale(.6)" xlink:href="../PDF and PNG/RCP/Levels 10-12.jpg"/>
  </g>
  <g id="_1210.005b" data-name="1210.005b">
    <rect x="820.19" y="855.01" width="17.02" height="28.12"/>
  </g>
  <g id="_1210.001b" data-name="1210.001b">
    <rect x="1392.62" y="731.45" width="17.72" height="28.12"/>
  </g>
  <g id="_1200-B.4" data-name="1200-B.4">
    <polygon points="1339.08 1121.23 1339.08 1204.76 1151.77 1204.76 1151.77 957.22 1262.44 957.22 1262.44 957.83 1292.96 957.83 1292.96 1121.23 1339.08 1121.23"/>
    <path d="M1641.76,954.38v112.63h-87.87v-112.63h-141.61v253.74h-261.37v412.5h770.34v-666.24h-279.49ZM1412.5,1330.95h-73.42v-82.91h73.42v82.91Z"/>
  </g>
  <g id="_1200-B.3" data-name="1200-B.3">
    <polygon points="1150.91 1208.12 1150.91 1620.62 937.72 1620.62 937.72 1330.71 963.42 1330.71 963.42 1208.12 1150.91 1208.12"/>
  </g>
  <g id="_1200-A.3" data-name="1200-A.3">
    <polygon points="1151.77 957.22 1151.77 1204.76 962.8 1204.76 962.8 1121.23 1008.93 1121.23 1008.93 957.69 890.24 957.69 890.24 1207.72 959.85 1207.72 959.85 1248.22 890.24 1248.22 890.24 1330.27 932.73 1330.27 932.73 1616.23 589.08 1616.23 589.08 1611.73 524.81 1611.73 524.81 1614.9 448.17 1614.9 448.17 1616.23 385.24 1616.23 385.24 1107.77 661 1107.77 661 957.22 661.15 957.22 661.15 1066.53 748.05 1066.53 748.05 957.22 1151.77 957.22"/>
  </g>
  <g id="_1200-A.2" data-name="1200-A.2">
    <path d="M1103.27,879.15v19.12h-89.37v-117.15h-15.25v-100.41h15.25v-12.99h89.37v18h46.2v-236.39H259.1v4.92h-17.72v153h17.72l4.5,4.92h126.14v61.98l-4.5,1.65v431.97h275.76v-150.55h.15v-2.7h86.9v2.7h403.72v-78.07h-48.5ZM839.32,885.25h-19.13v13.09h-159.19v-70.63h17.13v21.98h62.75v-121.22h79.31v124.44h19.13v32.34Z"/>
  </g>
  <g id="_1200-A.1" data-name="1200-A.1">
    <polygon points="1262.44 895.65 1262.44 957.22 1151.77 957.22 1151.77 879.15 1198.61 879.15 1198.61 898.27 1227.51 898.27 1227.51 895.65 1262.44 895.65"/>
  </g>
  <g id="_1200-B.1" data-name="1200-B.1">
    <path d="M1917.76,366.59v-27.03h3.49v-98.64h-17.24v-11.13h-425.45v11.56h-17.24v207.97h-308.21v236.19h45.5v-17.67h89.91v12.44h15.27v101.45h-15.82v37.96h124.26v79.09h-149.8v55.58h658.81v-438.98h-26.62v4.8h-61.52v-38.84h-67.22v38.84h-59.99v-187.64h59.99v24.87h67.22v-24.87h61.09v34.04h23.56ZM1411.46,761.93h-21.76v-32.83h21.76v32.83ZM1641.76,898.95h-160.69v-169.85h80.51v121.09h80.18v48.76Z"/>
  </g>
  <g id="_1201" data-name="1201">
    <polygon points="1833.11 422.34 1833.11 478.58 1765.9 478.58 1765.9 425.61 1765.9 418.86 1765.9 361.29 1833.11 361.29 1833.11 422.34"/>
  </g>
  <g id="_1203" data-name="1203">
    <polygon points="1103.27 821.26 1103.2 821.26 1103.2 814.51 1103.27 814.51 1103.27 747.73 1103.27 688.67 1150.94 688.67 1198.61 688.67 1198.61 747.73 1198.61 818.6 1198.61 876.19 1103.27 876.19 1103.27 821.26"/>
  </g>
  <g id="_0047.012" data-name="0047.012">
    <polygon points="1014.25 683.66 1014.25 747.73 1014.25 778.16 1001.6 778.16 1001.6 683.66 1014.25 683.66"/>
  </g>
  <g id="_0054.012" data-name="0054.012">
    <rect x="1559.95" y="853.2" width="16.88" height="42.19"/>
  </g>
  <g id="_0038.012" data-name="0038.012">
    <polygon points="1869.76 502.13 1869.76 498.4 1876.51 498.4 1876.51 502.13 1889.08 502.13 1889.08 511.65 1889.08 514.75 1889.08 516.96 1836.07 516.96 1836.07 502.13 1842.76 502.13 1842.76 498.4 1849.51 498.4 1849.51 502.13 1869.76 502.13"/>
  </g>
  <g id="_0039.012" data-name="0039.012">
    <polygon points="1749.5 502.13 1749.5 498.4 1756.25 498.4 1756.25 502.13 1762.94 502.13 1762.94 516.96 1708.38 516.96 1708.38 502.13 1722.5 502.13 1722.5 498.4 1729.25 498.4 1729.25 502.13 1749.5 502.13"/>
  </g>
  <g id="_0053.012" data-name="0053.012">
    <polygon points="1626.68 853.2 1637.93 853.2 1637.93 895.39 1579.78 895.39 1579.78 853.2 1626.68 853.2"/>
  </g>
  <g id="_0042.012" data-name="0042.012">
    <polygon points="1339.97 868.35 1334.67 868.35 1302.06 868.35 1287.98 868.35 1287.98 823.35 1339.97 823.35 1339.97 823.39 1339.97 868.35"/>
  </g>
  <g id="_0043.012" data-name="0043.012">
    <polygon points="1287.63 778.17 1287.63 747.73 1287.63 683.66 1300.3 683.66 1300.3 778.17 1287.63 778.17"/>
  </g>
  <g id="_0049.012" data-name="0049.012">
    <polygon points="741.93 893.12 741.93 895.39 725.06 895.39 725.06 895.35 725.06 852.64 741.93 852.64 741.93 893.12"/>
  </g>
  <g id="_0050.012" data-name="0050.012">
    <polygon points="663.96 830.66 675.17 830.66 675.17 852.64 722.11 852.64 722.11 895.39 663.96 895.39 663.96 830.66"/>
  </g>
  <g id="_0030.012" data-name="0030.012">
    <rect x="1342.04" y="1251.17" width="66.66" height="76.15"/>
  </g>
  <g id="_0031.012" data-name="0031.012">
    <polygon points="1342.04 1204.76 1342.04 1121.26 1342.04 1120.53 1408.69 1120.53 1408.69 1204.76 1342.04 1204.76"/>
  </g>
  <g id="_0026.012" data-name="0026.012">
    <polygon points="959.85 1327.31 937.19 1327.31 932.69 1327.31 893.19 1327.31 893.19 1251.17 959.85 1251.17 959.85 1327.31"/>
  </g>
  <g id="_0027.012" data-name="0027.012">
    <polygon points="959.85 1120.53 959.85 1121.26 959.85 1204.76 893.19 1204.76 893.19 1120.53 959.85 1120.53"/>
  </g>
  <g id="_0003.012" data-name="0003.012">
    <polygon points="1889.08 453.44 1889.08 498.4 1876.51 498.4 1869.76 498.4 1849.51 498.4 1842.76 498.4 1836.07 498.4 1836.07 480.06 1836.07 422.34 1889.08 422.34 1889.08 453.44"/>
  </g>
  <g id="_0001.012" data-name="0001.012">
    <polygon points="1836.07 361.33 1836.07 357.6 1836.07 335.7 1889.08 335.7 1889.08 337.63 1889.08 340.3 1889.08 365.05 1889.08 422.34 1836.07 422.34 1836.07 361.33"/>
  </g>
  <g id="_0002.012" data-name="0002.012">
    <polygon points="1708.38 335.7 1762.94 335.7 1762.94 357.6 1762.94 361.33 1762.94 418.86 1762.94 422.34 1708.38 422.34 1708.38 335.7"/>
  </g>
  <g id="_0009.012" data-name="0009.012">
    <polygon points="1274.9 818.74 1274.9 818.6 1285.03 818.6 1285.03 821.87 1285.03 869.83 1285.03 886.95 1281.65 886.95 1274.9 886.95 1254.65 886.95 1247.9 886.95 1244.32 886.95 1237.57 886.95 1227.51 886.95 1201.57 886.95 1201.57 879.18 1201.57 876.15 1201.57 818.6 1254.65 818.6 1254.65 818.74 1274.9 818.74"/>
  </g>
  <g id="_0004.012" data-name="0004.012">
    <polygon points="1762.94 425.61 1762.94 480.06 1762.94 498.4 1756.25 498.4 1749.5 498.4 1729.25 498.4 1722.5 498.4 1708.38 498.4 1708.38 422.34 1762.94 422.34 1762.94 425.61"/>
    <polygon points="1201.57 747.73 1285.03 747.73 1285.03 778.14 1285.03 778.17 1285.03 779.65 1285.03 818.6 1274.9 818.6 1274.9 818.46 1254.65 818.46 1254.65 818.6 1201.57 818.6 1201.57 747.73"/>
  </g>
  <g id="_0005.012" data-name="0005.012">
    <polygon points="1201.57 688.7 1201.57 685.68 1201.57 679.1 1236.44 679.1 1237.57 679.1 1244.32 679.1 1247.9 679.1 1254.65 679.1 1274.9 679.1 1281.65 679.1 1283.12 679.1 1285.03 679.1 1285.03 683.7 1285.03 747.73 1201.57 747.73 1201.57 688.7"/>
  </g>
  <g id="_0010.012" data-name="0010.012">
    <polygon points="1047.23 818.74 1047.23 818.6 1100.32 818.6 1100.32 821.26 1100.32 876.15 1100.32 879.18 1100.32 886.95 1064.32 886.95 1057.57 886.95 1053.98 886.95 1047.23 886.95 1026.98 886.95 1020.23 886.95 1016.86 886.95 1016.86 818.6 1026.98 818.6 1026.98 818.74 1047.23 818.74"/>
  </g>
  <g id="_0008.012" data-name="0008.012">
    <polygon points="1100.32 814.51 1100.32 818.6 1047.23 818.6 1047.23 818.46 1026.98 818.46 1026.98 818.6 1016.86 818.6 1016.86 779.64 1016.86 778.16 1016.86 778.13 1016.86 747.73 1100.32 747.73 1100.32 814.51"/>
  </g>
  <g id="_0006.012" data-name="0006.012">
    <polygon points="1016.86 683.7 1016.86 679.1 1018.77 679.1 1020.23 679.1 1026.98 679.1 1047.23 679.1 1053.98 679.1 1057.57 679.1 1064.32 679.1 1065.44 679.1 1100.32 679.1 1100.32 685.68 1100.32 688.7 1100.32 747.73 1016.86 747.73 1016.86 683.7"/>
  </g>
  <g id="_0017.012" data-name="0017.012">
    <polygon points="1557.35 851.72 1557.35 853.2 1557.35 853.23 1557.35 894.68 1485.35 894.68 1485.35 732.12 1557.35 732.12 1557.35 851.72"/>
  </g>
  <g id="_0018.012" data-name="0018.012">
    <polygon points="816.54 852.87 816.54 855.05 816.54 883.1 816.54 885.28 816.54 891.59 816.54 894.68 744.54 894.68 744.54 852.67 744.54 852.64 744.54 851.16 744.54 732.12 816.54 732.12 816.54 852.87"/>
  </g>
  <g id="_0085.012" data-name="0085.012">
    <polygon points="1336.15 871.3 1342.92 871.3 1342.92 823.35 1408.69 823.35 1408.69 856.92 1400.62 856.92 1400.62 878.44 1408.69 878.44 1408.69 895.39 1336.15 895.39 1336.15 871.3"/>
  </g>
  <g id="_0084.012" data-name="0084.012">
    <rect x="1557.49" y="958.17" width="79.59" height="104.68"/>
  </g>
  <g id="_0086.012" data-name="0086.012">
    <polygon points="1407.99 1117.57 1340.56 1117.57 1339.08 1117.57 1339.05 1117.57 1296.62 1117.57 1296.62 958.17 1407.99 958.17 1407.99 1117.57"/>
  </g>
  <g id="_0093.012" data-name="0093.012">
    <polygon points="1005.27 1117.57 962.84 1117.57 962.8 1117.57 961.32 1117.57 893.89 1117.57 893.89 961.34 1005.27 961.34 1005.27 1117.57"/>
  </g>
  <g id="_0094.012" data-name="0094.012">
    <rect x="664.8" y="958.17" width="79.59" height="104.7"/>
  </g>
</svg>