<?xml version="1.0" encoding="UTF-8"?>
<svg xmlns="http://www.w3.org/2000/svg" xmlns:xlink="http://www.w3.org/1999/xlink" viewBox="0 0 1934.18 1910.62">
  <defs>
    <style>
      .cls-1 {
        fill-rule: evenodd;
      }
    </style>
  </defs>
  <g id="Layer_1" data-name="Layer 1">
    <image width="5760" height="4320" transform="translate(-295.9 -158.32) scale(.6)" xlink:href="../PDF and PNG/RCP/Level 9.jpg"/>
  </g>
  <g id="_0047.009" data-name="0047.009">
    <g id="HATCH">
      <polygon class="cls-1" points="993.75 765.02 1006.41 765.02 1006.41 734.58 1006.41 670.51 993.75 670.51 993.75 765.02"/>
    </g>
  </g>
  <g id="_0908.005" data-name="0908.005">
    <polyline class="cls-1" points="1223.33 1530.98 1223.33 1585.05 1265.78 1585.05 1265.78 1603.08 1451.45 1603.08 1451.45 1584.95 1481.35 1584.95 1481.35 1603.08 1667.56 1603.08 1667.56 1584.95 1697.55 1584.95 1697.55 1603.08 1876.8 1603.08 1876.8 1585.16 1907.78 1585.16 1907.78 1527.56 1889.67 1527.56 1889.67 1497.35 1907.78 1497.35 1907.78 1325.31 1890 1325.31 1890 1295.09 1907.78 1295.09 1907.78 1108.87 1889.78 1108.87 1889.78 1078.87 1907.78 1078.87 1907.78 1015.16 1836.76 1015.16 1836.76 1087.82 1804.03 1087.82 1804.03 1151.53 1835.53 1151.53 1835.53 1353.24 1807.53 1353.24 1807.53 1407.78 1835.53 1407.78 1835.53 1532.04 1223.33 1530.98"/>
  </g>
  <g id="_0043.009" data-name="0043.009">
    <g id="HATCH-2" data-name="HATCH">
      <polygon class="cls-1" points="1292.45 765.03 1292.45 670.51 1279.78 670.51 1279.78 734.58 1279.78 765.03 1292.45 765.03"/>
    </g>
  </g>
  <g id="_0039.009" data-name="0039.009">
    <g id="HATCH-3" data-name="HATCH">
      <polygon class="cls-1" points="1721.4 488.98 1721.4 485.26 1714.65 485.26 1714.65 488.98 1700.53 488.98 1700.53 503.68 1755.1 503.68 1755.1 488.98 1748.4 488.98 1748.4 485.26 1741.65 485.26 1741.65 488.98 1721.4 488.98"/>
    </g>
  </g>
  <g id="_0038.009" data-name="0038.009">
    <g id="HATCH-4" data-name="HATCH">
      <polygon class="cls-1" points="1841.67 488.98 1841.67 485.26 1834.92 485.26 1834.92 488.98 1828.22 488.98 1828.22 503.68 1881.24 503.68 1881.24 488.98 1868.67 488.98 1868.67 485.26 1861.92 485.26 1861.92 488.98 1841.67 488.98"/>
    </g>
  </g>
  <g id="_0908.019" data-name="0908.019">
    <g id="HATCH-5" data-name="HATCH">
      <polygon class="cls-1" points="1285.13 1108.08 1285.13 1082.21 1259.53 1082.21 1259.53 1108.08 1243.99 1108.08 1204.65 1108.08 1204.65 1135.08 1204.65 1143.45 1230.56 1143.45 1230.56 1151.96 1400.67 1151.96 1402.2 1151.96 1460.91 1151.96 1460.91 1261.93 1404.06 1261.93 1402.16 1261.93 1402.16 1296.8 1460.03 1296.8 1460.94 1296.8 1475.53 1296.8 1475.53 1318.32 1462.45 1318.32 1462.45 1349.5 1462.45 1351.01 1462.45 1493.11 1402.13 1493.11 1402.13 1526.86 1496.2 1526.86 1496.2 1473.85 1501.86 1473.85 1545.28 1473.85 1545.28 1387.36 1604.17 1387.36 1604.17 1352.49 1545.28 1352.49 1545.28 1327.39 1545.28 1282.67 1545.28 1259.04 1545.28 1132.33 1603.82 1132.33 1603.82 1094.68 1545.42 1094.68 1545.42 1108.08 1478.04 1108.08 1474.65 1108.08 1459.54 1108.08 1456.15 1108.08 1403.85 1108.08 1403.81 1108.08 1400.16 1108.08 1400.12 1108.08 1285.13 1108.08"/>
    </g>
  </g>
  <g id="_0908.005a" data-name="0908.005a">
    <g id="HATCH-6" data-name="HATCH">
      <polygon class="cls-1" points="1835.53 1202.55 1835.53 1155.55 1809.27 1155.55 1809.27 1201.54 1826.2 1201.54 1826.2 1202.55 1835.53 1202.55"/>
    </g>
  </g>
  <g id="_0908.005c" data-name="0908.005c">
    <g id="HATCH-7" data-name="HATCH">
      <polygon class="cls-1" points="1807.02 1257.57 1835.53 1257.57 1835.53 1202.55 1826.2 1202.55 1826.2 1204.49 1807.02 1204.49 1807.02 1257.57"/>
    </g>
  </g>
  <g id="_0908.005c-2" data-name="0908.005c">
    <g id="HATCH-8" data-name="HATCH">
      <polygon class="cls-1" points="1835.53 1459.15 1835.53 1411.69 1809.82 1411.69 1809.82 1457.68 1826.69 1457.68 1826.69 1459.15 1835.53 1459.15"/>
    </g>
  </g>
  <g id="_0908.005d" data-name="0908.005d">
    <g id="HATCH-9" data-name="HATCH">
      <polygon class="cls-1" points="1835.53 1526.86 1835.53 1459.15 1826.69 1459.15 1826.69 1460.63 1807.57 1460.63 1807.57 1526.86 1835.53 1526.86"/>
    </g>
  </g>
  <g id="_0908.041" data-name="0908.041">
    <g id="HATCH-10" data-name="HATCH">
      <polygon class="cls-1" points="1677.33 1352.52 1607.16 1352.52 1607.16 1388.84 1607.16 1513.19 1607.16 1516.58 1607.16 1526.86 1804.58 1526.86 1804.58 1460.66 1804.58 1459.15 1804.58 1409.65 1804.58 1407.61 1804.58 1407.58 1804.58 1361.03 1778.65 1361.03 1778.65 1352.52 1757.56 1352.52 1721.98 1352.52 1677.33 1352.52"/>
    </g>
  </g>
  <g id="_0908.041a" data-name="0908.041a">
    <g id="HATCH-11" data-name="HATCH">
      <polygon class="cls-1" points="1603.08 1390.32 1548.24 1390.32 1548.24 1475.32 1548.24 1527.99 1592.11 1527.99 1592.11 1511.89 1602.89 1511.89 1603.08 1511.89 1603.08 1390.32"/>
    </g>
  </g>
  <g id="_0908.043" data-name="0908.043">
    <g id="HATCH-12" data-name="HATCH">
      <rect x="1503.16" y="1476.8" width="41.77" height="51.19"/>
    </g>
  </g>
  <g id="_0908.025" data-name="0908.025">
    <g id="HATCH-13" data-name="HATCH">
      <polygon class="cls-1" points="1402.13 1490.16 1458.38 1490.16 1458.38 1352.49 1415.87 1352.49 1415.87 1367.47 1402.13 1367.47 1402.13 1479.12 1402.13 1490.16"/>
    </g>
  </g>
  <g id="_0908.025-2" data-name="0908.025">
    <g id="HATCH-14" data-name="HATCH">
      <polygon class="cls-1" points="1399.14 1526.86 1399.14 1491.64 1399.14 1479.12 1399.14 1366.16 1399.14 1364.83 1399.14 1352.52 1258.06 1352.52 1203.95 1352.52 1203.95 1420.97 1203.95 1470.4 1203.95 1518.36 1229.33 1518.36 1229.33 1525.51 1229.33 1526.86 1399.14 1526.86"/>
    </g>
  </g>
  <g id="_0908.021" data-name="0908.021">
    <g id="HATCH-15" data-name="HATCH">
      <polygon class="cls-1" points="1243.54 1295.68 1258.23 1295.68 1373.91 1295.68 1375.44 1295.68 1399.17 1295.68 1399.17 1294.91 1399.17 1260.45 1399.17 1258.9 1399.17 1257.06 1399.17 1154.95 1229.07 1154.95 1227.54 1154.95 1203.95 1154.95 1203.95 1190.7 1203.95 1240.38 1203.95 1289.28 1203.95 1295.68 1243.54 1295.68"/>
    </g>
  </g>
  <g id="_0908.023" data-name="0908.023">
    <g id="HATCH-16" data-name="HATCH">
      <polygon class="cls-1" points="1175.58 1298.66 1175.58 1349.54 1202.46 1349.54 1203.99 1349.54 1256.58 1349.54 1256.58 1324.5 1242.66 1324.5 1242.66 1298.66 1202.46 1298.66 1175.58 1298.66"/>
    </g>
  </g>
  <g id="_0908.019f" data-name="0908.019f">
    <g id="HATCH-17" data-name="HATCH">
      <polygon class="cls-1" points="1259.53 1298.66 1259.53 1323.63 1259.53 1349.54 1400.02 1349.54 1400.93 1349.54 1414.57 1349.54 1459.15 1349.54 1459.15 1317.44 1459.15 1316.56 1459.15 1316.52 1459.15 1299.79 1404.06 1299.79 1401.85 1299.79 1401.85 1307.17 1372.42 1307.17 1372.42 1298.66 1259.53 1298.66"/>
    </g>
  </g>
  <g id="_0908.037" data-name="0908.037">
    <g id="HATCH-18" data-name="HATCH">
      <polygon class="cls-1" points="1674.66 1101.75 1674.66 1089.59 1606.81 1089.59 1606.81 1094.68 1606.81 1133.81 1606.81 1147.67 1606.81 1243.86 1607.16 1243.86 1607.16 1247.24 1607.16 1257.53 1674.59 1257.53 1721.98 1257.53 1804.03 1257.53 1804.03 1204.53 1804.03 1204.49 1804.03 1203.01 1804.03 1153.51 1804.03 1151.47 1804.03 1151.44 1804.03 1113.36 1804.03 1105.16 1778.65 1105.16 1778.65 1090.29 1691.53 1090.29 1691.53 1101.75 1674.66 1101.75"/>
    </g>
  </g>
  <g id="_0908.009i" data-name="0908.009i">
    <g id="HATCH-19" data-name="HATCH">
      <polygon class="cls-1" points="1831.63 1349.54 1831.63 1260.52 1805.53 1260.52 1723.63 1260.52 1723.63 1349.54 1757.56 1349.54 1779.53 1349.54 1806.07 1349.54 1831.63 1349.54"/>
    </g>
  </g>
  <g id="_0908.019d" data-name="0908.019d">
    <g id="HATCH-20" data-name="HATCH">
      <polygon class="cls-1" points="1605.66 1349.54 1677.33 1349.54 1720.33 1349.54 1720.33 1260.52 1674.59 1260.52 1606.28 1260.52 1591.72 1260.52 1548.24 1260.52 1548.24 1282.67 1545.28 1282.67 1545.28 1327.39 1548.24 1327.39 1548.24 1349.54 1605.66 1349.54"/>
    </g>
  </g>
  <g id="_0908.037a" data-name="0908.037a">
    <g id="HATCH-21" data-name="HATCH">
      <polygon class="cls-1" points="1603.82 1147.67 1603.82 1135.29 1548.24 1135.29 1548.24 1257.57 1590.42 1257.57 1590.42 1242.56 1602.89 1242.56 1603.82 1242.56 1603.82 1147.67"/>
    </g>
  </g>
  <g id="_0908.021a" data-name="0908.021a">
    <g id="HATCH-22" data-name="HATCH">
      <rect x="1402.16" y="1154.91" width="55.79" height="104.06"/>
    </g>
  </g>
  <g id="_0908.019a" data-name="0908.019a">
    <g id="HATCH-23" data-name="HATCH">
      <polygon class="cls-1" points="1403.81 1051.73 1403.81 1104.39 1403.81 1108.08 1458.66 1108.08 1458.66 1085.44 1475.53 1085.44 1475.53 1108.08 1545.42 1108.08 1545.42 1094.68 1603.82 1094.68 1603.82 1088.29 1603.82 1079.32 1603.82 1077.85 1603.82 1077.46 1603.82 1051.38 1584.48 1051.38 1459.54 1051.38 1459.54 1051.73 1403.81 1051.73"/>
    </g>
  </g>
  <g id="_0908.017" data-name="0908.017">
    <g id="HATCH-24" data-name="HATCH">
      <polygon class="cls-1" points="1242.66 1104.43 1242.66 1079.25 1258.65 1079.25 1283.37 1079.25 1283.37 1033.17 1175.58 1033.17 1175.58 1104.43 1198.71 1104.43 1202.83 1104.43 1242.66 1104.43"/>
    </g>
  </g>
  <g id="_0908.022" data-name="0908.022">
    <g id="HATCH-25" data-name="HATCH">
      <polygon class="cls-1" points="1112.72 1349.54 1112.72 1320.29 1112.62 1320.29 1083.65 1320.29 1083.65 1307.17 1058.53 1307.17 1043.53 1307.17 1043.53 1324.08 1029.61 1324.08 1029.61 1349.54 1059.14 1349.54 1085.14 1349.54 1111.91 1349.54 1112.72 1349.54"/>
    </g>
  </g>
  <g id="_0908.007" data-name="0908.007">
    <g id="HATCH-26" data-name="HATCH">
      <polygon class="cls-1" points="1115.67 1351.4 1115.67 1353.26 1115.67 1353.3 1115.67 1362.47 1086.63 1362.47 1086.63 1407.47 1115.67 1407.47 1115.67 1459.01 1115.67 1530.94 1171.92 1530.94 1171.92 1517.44 1200.96 1517.44 1200.96 1472.44 1195.71 1472.44 1171.92 1472.44 1171.92 1420.97 1171.92 1354.75 1171.92 1351.36 1171.92 1296.63 1171.92 1287.24 1200.96 1287.24 1200.96 1242.24 1195.71 1242.24 1174.97 1242.24 1171.92 1242.24 1171.92 1236.99 1171.92 1190.7 1171.92 1135.08 1201 1135.08 1201 1108.08 1198.71 1108.08 1171.92 1108.08 1171.92 1031.34 1171.92 1029.97 1171.92 1028.22 1171.92 976.37 1115.71 976.37 1115.67 976.37 1115.67 1026.84 1115.67 1029.62 1115.67 1108.08 1086.6 1108.08 1086.6 1151.96 1115.67 1151.96 1115.67 1165.46 1086.63 1165.46 1086.63 1210.46 1115.67 1210.46 1115.67 1262 1115.67 1315.42 1115.67 1318.81 1115.67 1351.4"/>
    </g>
  </g>
  <g id="_0908.007b" data-name="0908.007b">
    <g id="HATCH-27" data-name="HATCH">
      <polygon class="cls-1" points="1115.67 1262 1115.67 1214.54 1088.88 1214.54 1088.88 1260.52 1107.45 1260.52 1107.45 1262 1115.67 1262"/>
    </g>
  </g>
  <g id="_0908.007c" data-name="0908.007c">
    <g id="HATCH-28" data-name="HATCH">
      <polygon class="cls-1" points="1171.92 1238.51 1195.74 1238.51 1195.74 1192.18 1179.08 1192.18 1179.08 1190.7 1171.92 1190.7 1171.92 1238.51"/>
    </g>
  </g>
  <g id="_0908.007e" data-name="0908.007e">
    <g id="HATCH-29" data-name="HATCH">
      <polygon class="cls-1" points="1171.92 1353.19 1171.92 1420.97 1180.15 1420.97 1181.84 1419.5 1200.96 1419.5 1200.96 1353.19 1171.92 1353.19"/>
    </g>
  </g>
  <g id="_0908.007g" data-name="0908.007g">
    <g id="HATCH-30" data-name="HATCH">
      <polygon class="cls-1" points="1171.92 1420.97 1171.92 1468.36 1195.74 1468.36 1195.74 1422.45 1181.84 1422.45 1180.15 1420.97 1171.92 1420.97"/>
    </g>
  </g>
  <g id="_0908.007f" data-name="0908.007f">
    <g id="HATCH-31" data-name="HATCH">
      <polygon class="cls-1" points="1115.67 1459.01 1115.67 1411.55 1088.88 1411.55 1088.88 1457.54 1105.76 1457.54 1107.45 1459.01 1115.67 1459.01"/>
    </g>
  </g>
  <g id="_0908.007h" data-name="0908.007h">
    <g id="HATCH-32" data-name="HATCH">
      <polygon class="cls-1" points="1115.67 1526.86 1115.67 1459.01 1107.45 1459.01 1105.76 1460.49 1086.63 1460.49 1086.63 1526.86 1115.67 1526.86"/>
    </g>
  </g>
  <g id="_0908.006" data-name="0908.006">
    <g id="HATCH-33" data-name="HATCH">
      <polygon class="cls-1" points="516.96 1603.08 516.96 1598.58 521.32 1598.58 576.87 1598.58 581.23 1598.58 581.23 1603.08 588.47 1603.08 588.47 1584.94 617.72 1584.94 617.72 1603.08 630.87 1603.08 791.33 1603.08 804.47 1603.08 804.47 1584.94 833.72 1584.94 833.72 1603.08 846.87 1603.08 1007.33 1603.08 1020.47 1603.08 1020.47 1584.94 1049.72 1584.94 1049.72 1603.08 1062.87 1603.08 1223.33 1603.08 1223.33 1585.82 1223.33 1530.98 1223.33 1530.4 1202.46 1530.4 1202.46 1530.94 1173.79 1530.94 1170.4 1530.94 1118.72 1530.94 1115.67 1530.94 1085.14 1530.94 887.58 1530.94 872.98 1530.94 871.65 1530.94 826.44 1530.94 779.61 1530.94 775.99 1530.94 681.78 1530.94 680.25 1530.94 506.66 1530.94 480.12 1530.94 478.04 1530.94 450.66 1530.94 450.66 1603.08 516.96 1603.08"/>
    </g>
  </g>
  <g id="_0908.007a" data-name="0908.007a">
    <g id="HATCH-34" data-name="HATCH">
      <polygon class="cls-1" points="1200.96 1189.22 1200.96 1154.07 1200.96 1153.17 1201 1153.17 1201 1144.94 1201 1135.08 1171.92 1135.08 1171.92 1190.7 1179.08 1190.7 1179.08 1189.22 1195.71 1189.22 1200.96 1189.22"/>
    </g>
  </g>
  <g id="_0908.007d" data-name="0908.007d">
    <g id="HATCH-35" data-name="HATCH">
      <polygon class="cls-1" points="1115.67 1317.33 1115.67 1262 1107.45 1262 1107.45 1263.47 1086.63 1263.47 1086.63 1296.56 1086.63 1305.68 1086.63 1317.33 1115.67 1317.33"/>
    </g>
  </g>
  <g id="_0908.020" data-name="0908.020">
    <g id="HATCH-36" data-name="HATCH">
      <polygon class="cls-1" points="888.42 1154.95 888.42 1190.84 888.42 1192.95 888.42 1194.23 888.42 1295.68 1027.54 1295.68 1042.67 1295.68 1058.53 1295.68 1083.65 1295.68 1083.65 1263.51 1083.65 1262 1083.65 1212.5 1083.65 1210.46 1083.65 1210.42 1083.65 1163.59 1083.65 1154.95 913.86 1154.95 912.33 1154.95 888.42 1154.95"/>
    </g>
  </g>
  <g id="_0908.020a" data-name="0908.020a">
    <g id="HATCH-37" data-name="HATCH">
      <polygon class="cls-1" points="885.44 1192.88 828.1 1192.88 828.1 1295.68 830.01 1295.68 869.09 1295.68 885.44 1295.68 885.44 1295.64 885.44 1192.88"/>
    </g>
  </g>
  <g id="_0908.018h" data-name="0908.018h">
    <g id="HATCH-38" data-name="HATCH">
      <polygon class="cls-1" points="1026.66 1323.2 1026.66 1298.66 888.46 1298.66 887.97 1298.66 886.93 1298.66 870.74 1298.66 870.74 1349.54 886.96 1349.54 1026.66 1349.54 1026.66 1323.2"/>
    </g>
  </g>
  <g id="_0908.024" data-name="0908.024">
    <g id="HATCH-39" data-name="HATCH">
      <polygon class="cls-1" points="888.46 1352.52 888.46 1388 888.46 1402.76 888.46 1513.19 888.46 1526.86 1083.65 1526.86 1083.65 1460.52 1083.65 1460.49 1083.65 1459.01 1083.65 1409.51 1083.65 1407.47 1083.65 1407.44 1083.65 1361.03 1058.26 1361.03 1058.26 1352.52 1028.13 1352.52 888.46 1352.52"/>
    </g>
  </g>
  <g id="_0908.024a" data-name="0908.024a">
    <g id="HATCH-40" data-name="HATCH">
      <polygon class="cls-1" points="828.1 1476.84 828.1 1527.99 871.68 1527.99 871.68 1511.89 885.47 1511.89 885.47 1402.76 885.47 1389.47 828.1 1389.47 828.1 1475.32 828.1 1476.59 828.1 1476.84"/>
    </g>
  </g>
  <g id="_0908.044" data-name="0908.044">
    <g id="HATCH-41" data-name="HATCH">
      <rect x="781.48" y="1476.8" width="43.31" height="51.19"/>
    </g>
  </g>
  <g id="_0908.046" data-name="0908.046">
    <g id="HATCH-42" data-name="HATCH">
      <polygon class="cls-1" points="482.16 1366.02 482.16 1419.39 482.16 1419.43 482.16 1420.9 482.16 1470.4 482.16 1472.48 482.16 1518.36 507.54 1518.36 507.54 1526.86 678.75 1526.86 678.75 1491.64 678.75 1477.72 678.75 1379.7 678.75 1378.36 678.75 1366.02 629.99 1366.02 563.83 1366.02 524.7 1366.02 482.16 1366.02"/>
    </g>
  </g>
  <g id="_0908.046a" data-name="0908.046a">
    <g id="HATCH-43" data-name="HATCH">
      <polygon class="cls-1" points="681.74 1490.16 737.81 1490.16 737.81 1365.99 695.58 1365.99 695.49 1365.99 695.49 1381 681.74 1381 681.74 1477.72 681.74 1490.16"/>
    </g>
  </g>
  <g id="_0908.018f" data-name="0908.018f">
    <g id="HATCH-44" data-name="HATCH">
      <polygon class="cls-1" points="675.38 1318.32 675.38 1301.9 675.38 1284.04 565.48 1284.04 565.48 1363.04 629.99 1363.04 680.51 1363.04 680.51 1378.4 692.88 1378.4 692.88 1366.02 692.88 1364.53 692.53 1361.23 692.53 1361.12 692.53 1318.32 675.38 1318.32"/>
    </g>
  </g>
  <g id="_0908.018g" data-name="0908.018g">
    <g id="HATCH-45" data-name="HATCH">
      <polygon class="cls-1" points="454.74 1284.04 454.74 1363.04 480.12 1363.04 524.7 1363.04 562.17 1363.04 562.17 1284.04 524.73 1284.04 506.66 1284.04 482.19 1284.04 480.66 1284.04 454.74 1284.04"/>
    </g>
  </g>
  <g id="_0908.050" data-name="0908.050">
    <g id="HATCH-46" data-name="HATCH">
      <polygon class="cls-1" points="482.16 1139.34 482.16 1174.14 482.16 1174.18 482.16 1175.65 482.16 1225.15 482.16 1227.19 482.16 1227.23 482.16 1272.54 507.54 1272.54 507.54 1281.05 524.73 1281.05 563.83 1281.05 676.26 1281.05 678.75 1281.05 678.75 1245.54 678.75 1244.35 678.75 1244.03 678.75 1153.33 678.75 1151.99 678.75 1139.34 594.06 1139.34 482.16 1139.34"/>
    </g>
  </g>
  <g id="_0908.050a" data-name="0908.050a">
    <g id="HATCH-47" data-name="HATCH">
      <polygon class="cls-1" points="737.81 1244.07 737.81 1139.65 693.94 1139.65 693.94 1154.63 681.74 1154.63 681.74 1244.07 737.81 1244.07"/>
    </g>
  </g>
  <g id="_0908.018" data-name="0908.018">
    <g id="HATCH-48" data-name="HATCH">
      <polygon class="cls-1" points="1001.06 1082.17 1001.06 1108.08 886.07 1108.08 886.03 1108.08 882.38 1108.08 882.34 1108.08 766.29 1108.08 766.29 1051.38 739.29 1051.38 739.29 1050.67 681.74 1050.67 681.74 1087.27 740.42 1087.27 740.42 1138 740.77 1138 740.77 1247.02 681.78 1247.02 681.74 1247.02 681.74 1281.05 682.1 1281.05 740.77 1281.05 740.77 1318.32 737.81 1318.32 737.81 1284 680.19 1284 680.19 1301.02 692.53 1301.02 692.53 1317.44 692.53 1320.83 692.53 1363.04 740.77 1363.04 740.77 1493.11 681.74 1493.11 681.74 1527.99 774.52 1527.99 774.52 1473.85 779.61 1473.85 824.76 1473.85 825.14 1473.85 825.14 1386.52 885.47 1386.52 885.47 1352.52 867.44 1352.52 867.44 1298.63 828.1 1298.63 828.1 1300.65 828.1 1318.32 808.41 1318.32 808.41 1296.38 823.23 1296.38 825.14 1296.38 825.14 1188.8 883.54 1188.8 885.44 1188.8 885.44 1154.07 885.44 1143.45 915.35 1143.45 915.35 1151.96 1083.61 1151.96 1083.65 1151.96 1083.65 1151.92 1083.65 1108.08 1042.16 1108.08 1026.66 1108.08 1026.66 1082.17 1001.06 1082.17"/>
    </g>
  </g>
  <g id="_0908.018b" data-name="0908.018b">
    <g id="HATCH-49" data-name="HATCH">
      <polygon class="cls-1" points="882.38 1104.39 882.38 1051.38 823.81 1051.38 766.29 1051.38 766.29 1108.08 882.38 1108.08 882.38 1104.39"/>
    </g>
  </g>
  <g id="_0908.018d" data-name="0908.018d">
    <g id="HATCH-50" data-name="HATCH">
      <polygon class="cls-1" points="611.53 1090.26 611.53 1101.75 595.54 1101.75 595.54 1136.35 678.72 1136.35 679.63 1136.35 691.3 1136.35 693.97 1136.35 737.46 1136.35 737.46 1090.26 680.25 1090.26 611.53 1090.26"/>
    </g>
  </g>
  <g id="_0908.052" data-name="0908.052">
    <g id="HATCH-51" data-name="HATCH">
      <polygon class="cls-1" points="482.12 1091.35 482.12 1113.88 482.12 1136.35 592.58 1136.35 592.58 1100.88 592.58 1091.55 592.58 1091.35 506.66 1091.35 482.19 1091.35 482.12 1091.35"/>
    </g>
  </g>
  <g id="_0908.054" data-name="0908.054">
    <g id="HATCH-52" data-name="HATCH">
      <polygon class="cls-1" points="482.16 945.52 482.16 945.56 482.16 997.27 482.16 997.3 482.16 998.78 482.16 1029.72 482.16 1031.76 482.16 1031.79 482.16 1078.62 482.16 1078.76 507.54 1078.76 507.54 1087.27 594.06 1087.27 597.45 1087.27 610.65 1087.27 678.75 1087.27 678.75 1049.2 678.68 1049.2 678.68 959.69 664.62 959.69 664.62 945.52 482.16 945.52"/>
    </g>
  </g>
  <g id="_0908.054a" data-name="0908.054a">
    <g id="HATCH-53" data-name="HATCH">
      <polygon class="cls-1" points="737.64 1047.72 737.64 945.7 703.22 945.7 703.22 956.35 681.67 956.35 681.67 958.81 681.67 1047.72 737.64 1047.72"/>
    </g>
  </g>
  <g id="_0908.010" data-name="0908.010">
    <g id="HATCH-54" data-name="HATCH">
      <polygon class="cls-1" points="740.94 1048.42 766.29 1048.42 822.33 1048.42 822.33 948.54 809.53 948.54 805.95 948.54 805.95 945.52 740.94 945.52 740.94 1048.42"/>
    </g>
  </g>
  <g id="_0908.012" data-name="0908.012">
    <g id="HATCH-55" data-name="HATCH">
      <polygon class="cls-1" points="882.38 1048.42 882.38 945.52 842.65 945.52 842.65 948.54 825.28 948.54 825.28 1048.42 882.38 1048.42"/>
    </g>
  </g>
  <g id="_0093.009" data-name="0093.009">
    <g id="HATCH-56" data-name="HATCH">
      <rect x="886.03" y="948.19" width="111.37" height="156.23"/>
    </g>
  </g>
  <g id="_0908.016" data-name="0908.016">
    <g id="HATCH-57" data-name="HATCH">
      <polygon class="cls-1" points="1001.06 1030.92 1001.06 1079.22 1027.54 1079.22 1028.45 1079.22 1043.04 1079.22 1043.04 1105.13 1085.12 1105.13 1112.72 1105.13 1112.72 1030.92 1072.22 1030.92 1072.22 1035.42 1045.22 1035.42 1045.22 1030.92 1001.06 1030.92"/>
    </g>
  </g>
  <g id="_0908.014" data-name="0908.014">
    <g id="HATCH-58" data-name="HATCH">
      <polygon class="cls-1" points="1001.06 945.52 1001.06 1010.6 1024.55 1010.6 1024.55 1025.37 1046.52 1025.37 1067.53 1025.37 1111.6 1025.37 1111.6 974.33 1111.6 972.29 1111.6 972.26 1111.6 945.52 1001.06 945.52"/>
    </g>
  </g>
  <g id="_0908.002a.1" data-name="0908.002a.1">
    <polygon points="1220.42 883.43 1220.42 885.19 1192.24 885.19 1192.24 883.43 1190.78 883.43 1190.78 885.19 1187.72 885.19 1141.96 885.19 1141.96 972.29 1171.92 972.29 1171.92 941.44 1249.34 941.44 1249.34 944.54 1251.99 944.54 1251.99 883.43 1220.42 883.43"/>
  </g>
  <g id="_0908.002a.2" data-name="0908.002a.2">
    <polygon points="1095.42 885.19 1006.06 885.19 993.01 885.19 992.1 885.19 949.82 885.19 948.22 885.19 946.43 885.19 917.88 885.19 917.88 882.17 915.9 882.17 915.9 938.93 915.9 944.54 946.16 944.54 946.16 941.44 962.13 941.44 962.13 944.54 988 944.54 988 941.44 999.24 941.44 1001.06 941.44 1002.62 941.44 1115.67 941.44 1115.67 972.29 1141.96 972.29 1141.96 885.19 1095.42 885.19"/>
  </g>
  <g id="_0908.015" data-name="0908.015">
    <g id="HATCH-59" data-name="HATCH">
      <polygon class="cls-1" points="1285.13 1026.91 1285.13 948.61 1253.47 948.61 1249.34 948.61 1249.34 945.52 1174.88 945.52 1174.88 972.26 1174.88 976.37 1174.88 976.4 1174.88 1026.91 1285.13 1026.91"/>
    </g>
  </g>
  <g id="_0086.009" data-name="0086.009">
    <g id="HATCH-60" data-name="HATCH">
      <rect x="1288.78" y="946.22" width="111.37" height="158.2"/>
    </g>
  </g>
  <g id="_0908.027" data-name="0908.027">
    <g id="HATCH-61" data-name="HATCH">
      <rect x="1408.95" y="945.52" width="94.68" height="99.6"/>
    </g>
  </g>
  <g id="_0908.029" data-name="0908.029">
    <g id="HATCH-62" data-name="HATCH">
      <polygon class="cls-1" points="1604.17 945.52 1506.93 945.52 1506.93 1045.12 1583.01 1045.12 1583.01 1036.89 1604.17 1036.89 1604.17 945.52"/>
    </g>
  </g>
  <g id="_0908.031" data-name="0908.031">
    <g id="HATCH-63" data-name="HATCH">
      <polygon class="cls-1" points="1686.96 945.52 1607.47 945.52 1607.47 1038.37 1607.47 1047.68 1607.47 1049.55 1607.47 1077.5 1686.96 1077.5 1686.96 1042.76 1686.96 945.52"/>
    </g>
  </g>
  <g id="_0908.035a" data-name="0908.035a">
    <g id="HATCH-64" data-name="HATCH">
      <rect x="1763.08" y="1044.24" width="69.5" height="37.2"/>
    </g>
  </g>
  <g id="_0908.033a" data-name="0908.033a">
    <g id="HATCH-65" data-name="HATCH">
      <polygon class="cls-1" points="1690.27 1079.32 1690.27 1081.43 1759.77 1081.43 1759.77 1044.24 1690.27 1044.24 1690.27 1077.46 1690.27 1079.32"/>
    </g>
  </g>
  <g id="_0908.033" data-name="0908.033">
    <g id="HATCH-66" data-name="HATCH">
      <rect x="1690.27" y="945.52" width="69.5" height="95.77"/>
    </g>
  </g>
  <g id="_0908.035" data-name="0908.035">
    <g id="HATCH-67" data-name="HATCH">
      <polygon class="cls-1" points="1832.58 945.52 1763.08 945.52 1763.08 1041.29 1832.58 1041.29 1832.58 1012.88 1832.58 1011.02 1832.58 945.52"/>
    </g>
  </g>
  <g id="_0908.003" data-name="0908.003">
    <g id="HATCH-68" data-name="HATCH">
      <polygon class="cls-1" points="1550.8 885.19 1475.67 885.19 1473.85 885.19 1459.82 885.19 1456.43 885.19 1403.81 885.19 1402.34 885.19 1333.57 885.19 1294.86 885.19 1294.22 885.19 1292.71 885.19 1278.66 885.19 1257.12 885.19 1257.12 883.43 1254.94 883.43 1254.94 944.54 1285.09 944.54 1285.48 944.54 1286.95 941.44 1401.99 941.44 1403.81 941.44 1407.65 941.44 1505.28 941.44 1605.82 941.44 1688.61 941.44 1761.42 941.44 1835.88 941.44 1835.88 885.19 1840.31 885.19 1840.31 859.83 1787.1 859.83 1785.19 859.83 1785.19 870.36 1785.19 873.19 1785.19 873.74 1785.19 885.19 1695.79 885.19 1665.67 885.19 1662.28 885.19 1620.69 885.19 1620.66 885.19 1619.18 885.19 1571.02 885.19 1550.8 885.19"/>
    </g>
  </g>
  <g id="_0908.003a" data-name="0908.003a">
    <g id="HATCH-69" data-name="HATCH">
      <polygon class="cls-1" points="1782.24 871.83 1696.67 871.83 1696.67 884.31 1696.67 885.19 1782.24 885.19 1782.24 871.83"/>
    </g>
  </g>
  <g id="_0908.004" data-name="0908.004">
    <g id="HATCH-70" data-name="HATCH">
      <polygon class="cls-1" points="1908.8 905.65 1908.8 892.5 1890.66 892.5 1890.66 885.19 1864.54 885.19 1841.79 885.19 1838.4 885.19 1835.88 885.19 1835.88 940.09 1835.88 943.48 1835.88 1011.05 1908.8 1011.05 1908.8 905.65"/>
    </g>
  </g>
  <g id="_0908.003b" data-name="0908.003b">
    <g id="HATCH-71" data-name="HATCH">
      <polygon class="cls-1" points="1890.66 885.19 1890.66 852.74 1890.66 851.86 1890.66 851.41 1890.66 844.71 1843.27 844.71 1843.27 858.35 1843.27 882.14 1843.27 882.24 1864.54 882.24 1864.54 885.19 1890.66 885.19"/>
    </g>
  </g>
  <g id="_0904.008" data-name="0904.008">
    <g id="HATCH-72" data-name="HATCH">
      <polygon class="cls-1" points="1908.8 850.11 1908.8 798.36 1843.62 798.36 1843.62 838.81 1893.96 838.81 1893.96 850.11 1908.8 850.11"/>
    </g>
  </g>
  <g id="_0904.006" data-name="0904.006">
    <g id="HATCH-73" data-name="HATCH">
      <polygon class="cls-1" points="1782.24 795.4 1675.78 795.4 1664.32 836.36 1664.11 837.1 1664.11 868.88 1694.87 868.88 1696.7 868.88 1780.32 868.88 1782.24 868.88 1782.24 858.35 1782.24 856.56 1782.24 854.97 1782.24 795.4"/>
    </g>
  </g>
  <g id="_0904.002" data-name="0904.002">
    <g id="HATCH-74" data-name="HATCH">
      <polygon class="cls-1" points="1908.8 795.4 1908.8 728.47 1905.42 728.47 1888.41 728.47 1888.41 740.84 1857.33 740.84 1854.28 740.84 1825.49 740.84 1821.13 740.84 1747.51 740.84 1744.12 740.84 1675.78 740.84 1675.78 795.4 1785.19 795.4 1785.19 856.88 1840.31 856.88 1840.31 843.06 1840.31 840.11 1840.31 795.4 1908.8 795.4"/>
    </g>
  </g>
  <g id="_0904.005" data-name="0904.005">
    <g id="HATCH-75" data-name="HATCH">
      <polygon class="cls-1" points="1884.33 737.89 1884.33 724.39 1904.54 724.39 1904.54 677.78 1884.33 677.78 1884.33 647.7 1884.33 646.36 1884.33 636.92 1857.33 636.92 1857.33 637.16 1857.33 737.79 1857.33 737.89 1884.33 737.89"/>
    </g>
  </g>
  <g id="_0904.004" data-name="0904.004">
    <g id="HATCH-76" data-name="HATCH">
      <polygon class="cls-1" points="1748.99 654.28 1746.03 654.28 1746.03 654.57 1746.03 720.59 1748.99 720.59 1748.99 737.79 1748.99 737.89 1820.63 737.89 1820.63 737.79 1820.63 720.59 1823.58 720.59 1823.58 740.84 1857.33 740.84 1857.33 634.11 1823.58 634.11 1823.58 654.22 1820.63 654.22 1820.63 637.16 1820.63 636.92 1748.99 636.92 1748.99 651.52 1748.99 654.28"/>
    </g>
  </g>
  <g id="_0904.001" data-name="0904.001">
    <g id="HATCH-77" data-name="HATCH">
      <polygon class="cls-1" points="1746.03 720.59 1746.03 654.57 1744.12 654.57 1692.03 654.57 1692.03 669.19 1675.78 669.19 1675.78 740.84 1746.03 740.84 1746.03 720.59"/>
    </g>
  </g>
  <g id="_0904.007" data-name="0904.007">
    <g id="HATCH-78" data-name="HATCH">
      <polygon class="cls-1" points="1614.47 837.1 1617.67 837.1 1618.83 837.1 1620.66 837.1 1620.69 837.1 1664.11 837.1 1675.78 795.4 1675.78 740.84 1675.78 671.7 1675.78 657.52 1665.07 657.52 1665.01 657.52 1663.56 657.52 1614.47 657.52 1614.47 657.62 1614.47 717.14 1614.47 837.1"/>
    </g>
  </g>
  <g id="_0908.030" data-name="0908.030">
    <g id="HATCH-79" data-name="HATCH">
      <polygon class="cls-1" points="1620.66 840.75 1620.66 881.54 1660.45 881.54 1660.45 880.92 1660.45 870.36 1660.45 840.75 1620.66 840.75"/>
    </g>
  </g>
  <g id="_0037.009" data-name="0037.009">
    <g id="HATCH-80" data-name="HATCH">
      <rect x="1572.49" y="840.05" width="45.21" height="42.19"/>
    </g>
  </g>
  <g id="_0040.009" data-name="0040.009">
    <g id="HATCH-81" data-name="HATCH">
      <rect x="1552.1" y="840.05" width="17.44" height="42.19"/>
    </g>
  </g>
  <g id="_0904.010" data-name="0904.010">
    <g id="HATCH-82" data-name="HATCH">
      <polygon class="cls-1" points="1553.16 732.72 1553.16 837.1 1571.02 837.1 1608.21 837.1 1608.21 718.97 1577.07 718.97 1577.07 732.72 1553.16 732.72"/>
    </g>
  </g>
  <g id="_0905.000b" data-name="0905.000b">
    <g id="HATCH-83" data-name="HATCH">
      <rect x="1553.16" y="717.92" width="20.96" height="11.85"/>
    </g>
  </g>
  <g id="_0017.009" data-name="0017.009">
    <g id="HATCH-84" data-name="HATCH">
      <polygon class="cls-1" points="1549.5 718.97 1477.5 718.97 1477.5 881.54 1549.5 881.54 1549.5 840.09 1549.5 840.05 1549.5 838.57 1549.5 718.97"/>
    </g>
  </g>
  <g id="_0906.000b" data-name="0906.000b">
    <g id="HATCH-85" data-name="HATCH">
      <polygon class="cls-1" points="1458.38 870.57 1473.85 870.57 1473.85 840.26 1461.56 840.26 1458.49 840.26 1458.38 870.57"/>
    </g>
  </g>
  <g id="_0906.000a" data-name="0906.000a">
    <g id="HATCH-86" data-name="HATCH">
      <polygon class="cls-1" points="1459.5 719.39 1458.93 719.39 1458.5 837.31 1473.85 837.31 1473.85 719.39 1459.5 719.39"/>
    </g>
  </g>
  <g id="_0905.000a" data-name="0905.000a">
    <g id="HATCH-87" data-name="HATCH">
      <polygon class="cls-1" points="1473.85 715.32 1475.67 715.32 1551.33 715.32 1553.16 715.32 1553.19 715.32 1575.59 715.32 1610.04 715.32 1610.39 715.32 1610.39 654.57 1583.39 654.57 1583.39 657.52 1475.25 657.52 1475.25 671.56 1463.02 671.56 1463.02 683.82 1459.5 683.82 1459.5 715.32 1473.85 715.32"/>
    </g>
  </g>
  <g id="_0906.000" data-name="0906.000">
    <g id="HATCH-88" data-name="HATCH">
      <polygon class="cls-1" points="1403.81 804.52 1403.81 807.43 1403.81 807.57 1403.81 885.19 1458.94 885.19 1458.94 871.45 1458.38 871.45 1458.39 868.05 1458.48 842.16 1458.51 835.39 1458.94 717.36 1459.5 717.35 1459.5 683.82 1458.94 683.82 1458.94 670.68 1458.94 654.57 1403.81 654.57 1403.81 713.56 1403.81 751.21 1403.81 804.52"/>
    </g>
  </g>
  <g id="_0906.000c" data-name="0906.000c">
    <g id="HATCH-89" data-name="HATCH">
      <polygon class="cls-1" points="1400.86 810.38 1383.99 810.38 1383.99 839.07 1392.74 839.07 1394.08 839.07 1400.86 839.07 1400.86 810.38"/>
    </g>
  </g>
  <g id="_0908.002b" data-name="0908.002b">
    <g id="HATCH-90" data-name="HATCH">
      <rect x="1295.69" y="858.16" width="30.78" height="24.08"/>
    </g>
  </g>
  <g id="_0085.009" data-name="0085.009">
    <g id="HATCH-91" data-name="HATCH">
      <polygon class="cls-1" points="1381.88 810.38 1335.05 810.38 1335.05 858.16 1329.42 858.16 1329.42 882.24 1400.86 882.24 1400.86 865.29 1392.78 865.29 1392.78 841.18 1381.88 841.18 1381.88 810.38"/>
    </g>
  </g>
  <g id="_0906.001" data-name="0906.001">
    <g id="HATCH-92" data-name="HATCH">
      <polygon class="cls-1" points="1400.86 749.91 1400.86 715.04 1346.9 715.04 1295.13 715.04 1295.13 767.98 1279.57 767.98 1279.57 807.57 1393.76 807.57 1393.76 749.91 1400.86 749.91"/>
    </g>
  </g>
  <g id="_0042.009" data-name="0042.009">
    <g id="HATCH-93" data-name="HATCH">
      <polygon class="cls-1" points="1332.1 810.38 1280.13 810.38 1280.13 855.2 1294.22 855.2 1327.95 855.2 1332.1 855.2 1332.1 810.41 1332.1 810.38"/>
    </g>
  </g>
  <g id="_0906.000c-2" data-name="0906.000c">
    <g id="HATCH-94" data-name="HATCH">
      <polygon class="cls-1" points="1402.34 712.08 1403.81 712.08 1403.81 659.77 1401.95 659.77 1349.11 659.77 1349.11 707.36 1349.11 712.08 1402.34 712.08"/>
    </g>
  </g>
  <g id="_0905.005" data-name="0905.005">
    <g id="HATCH-95" data-name="HATCH">
      <polygon class="cls-1" points="1344.68 657.52 1298.01 657.52 1298.01 667.56 1298.01 709.87 1344.68 709.87 1344.68 657.52"/>
    </g>
  </g>
  <g id="_0009.009" data-name="0009.009">
    <g id="HATCH-96" data-name="HATCH">
      <polygon class="cls-1" points="1246.81 805.6 1246.81 805.46 1193.72 805.46 1193.72 873.8 1220.42 873.8 1229.72 873.8 1236.47 873.8 1240.06 873.8 1246.81 873.8 1267.06 873.8 1273.81 873.8 1277.18 873.8 1277.18 856.68 1277.18 808.9 1277.18 805.46 1267.06 805.46 1267.06 805.6 1246.81 805.6"/>
    </g>
  </g>
  <g id="_0007.009" data-name="0007.009">
    <g id="HATCH-97" data-name="HATCH">
      <polygon class="cls-1" points="1277.18 734.58 1193.72 734.58 1193.72 805.46 1246.81 805.46 1246.81 805.32 1267.06 805.32 1267.06 805.46 1277.18 805.46 1277.18 766.5 1277.18 765.03 1277.18 764.99 1277.18 734.58"/>
    </g>
  </g>
  <g id="_0005.009" data-name="0005.009">
    <g id="HATCH-98" data-name="HATCH">
      <polygon class="cls-1" points="1193.72 734.58 1277.18 734.58 1277.18 670.55 1277.18 665.96 1275.27 665.96 1273.81 665.96 1267.06 665.96 1246.81 665.96 1240.06 665.96 1236.47 665.96 1229.72 665.96 1228.6 665.96 1193.72 665.96 1193.72 734.58"/>
    </g>
  </g>
  <g id="_0905.000d" data-name="0905.000d">
    <g id="HATCH-99" data-name="HATCH">
      <rect x="1095.42" y="654.57" width="95.34" height="18.18"/>
    </g>
  </g>
  <g id="_0903" data-name="0903">
    <g id="HATCH-100" data-name="HATCH">
      <polygon class="cls-1" points="1095.42 680.02 1095.42 720.52 1095.42 748.64 1095.42 789.14 1095.42 819.52 1095.42 860.02 1095.42 885.19 1190.77 885.19 1190.77 860.02 1190.77 819.52 1190.77 789.14 1190.77 748.64 1190.77 720.52 1190.77 680.02 1190.77 675.7 1095.42 675.7 1095.42 680.02"/>
    </g>
  </g>
  <g id="_0006.009" data-name="0006.009">
    <g id="HATCH-101" data-name="HATCH">
      <polygon class="cls-1" points="1009.01 734.58 1092.47 734.58 1092.47 665.96 1057.6 665.96 1056.47 665.96 1049.72 665.96 1046.13 665.96 1039.38 665.96 1019.13 665.96 1012.38 665.96 1010.92 665.96 1009.01 665.96 1009.01 670.55 1009.01 734.58"/>
    </g>
  </g>
  <g id="_0008.009" data-name="0008.009">
    <g id="HATCH-102" data-name="HATCH">
      <polygon class="cls-1" points="1092.47 734.58 1009.01 734.58 1009.01 764.98 1009.01 765.02 1009.01 766.49 1009.01 805.46 1019.13 805.46 1019.13 805.32 1039.38 805.32 1039.38 805.46 1092.47 805.46 1092.47 734.58"/>
    </g>
  </g>
  <g id="_0010.009" data-name="0010.009">
    <g id="HATCH-103" data-name="HATCH">
      <polygon class="cls-1" points="1019.13 805.6 1019.13 805.46 1009.01 805.46 1009.01 873.8 1012.38 873.8 1019.13 873.8 1039.38 873.8 1046.13 873.8 1049.72 873.8 1056.47 873.8 1092.47 873.8 1092.47 805.46 1039.38 805.46 1039.38 805.6 1019.13 805.6"/>
    </g>
  </g>
  <g id="_0908.013" data-name="0908.013">
    <g id="HATCH-104" data-name="HATCH">
      <polygon class="cls-1" points="991.22 870.57 1006.06 870.57 1006.06 814.74 947.91 814.74 947.91 882.24 991.22 882.24 991.22 870.57"/>
    </g>
  </g>
  <g id="_0907.003" data-name="0907.003">
    <g id="HATCH-105" data-name="HATCH">
      <polygon class="cls-1" points="904.67 814.74 886.74 814.74 886.74 879.22 914.42 879.22 917.88 879.22 917.88 882.24 944.95 882.24 944.95 880.33 944.95 816.65 944.95 814.74 904.67 814.74"/>
    </g>
  </g>
  <g id="_0907.000d" data-name="0907.000d">
    <g id="HATCH-106" data-name="HATCH">
      <polygon class="cls-1" points="886.74 811.79 886.77 811.79 903.61 811.79 903.61 783.1 886.74 783.1 886.74 811.79"/>
    </g>
  </g>
  <g id="_0907.001" data-name="0907.001">
    <g id="HATCH-107" data-name="HATCH">
      <polygon class="cls-1" points="990.8 767.97 990.8 712.79 919.57 712.79 886.83 712.79 886.74 712.79 886.74 780.99 905.72 780.99 905.72 811.79 946.43 811.79 948.12 811.79 949.82 811.79 1006.06 811.79 1006.06 767.97 990.8 767.97"/>
    </g>
  </g>
  <g id="_0905.007" data-name="0905.007">
    <g id="HATCH-108" data-name="HATCH">
      <polygon class="cls-1" points="990.8 709.83 990.8 669.04 992.49 669.04 992.49 667.56 990.8 667.56 990.8 654.57 968.58 654.57 968.58 659.77 921.05 659.77 921.05 709.83 990.8 709.83"/>
    </g>
  </g>
  <g id="_0907.000c" data-name="0907.000c">
    <g id="HATCH-109" data-name="HATCH">
      <polygon class="cls-1" points="883.78 709.83 918.1 709.83 918.1 657.52 883.78 657.52 883.78 657.62 883.78 709.83"/>
    </g>
  </g>
  <g id="_0905.000.1" data-name="0905.000.1">
    <polygon points="1643.24 508.88 1641.29 508.88 1641.29 558.43 1588.22 558.43 1587.83 558.43 1587.83 598.89 1528.94 598.89 1528.94 584.29 1469.31 584.29 1469.31 598.88 1389.05 598.88 1389.05 599.23 1384.46 599.23 1333.73 599.23 1262.25 599.23 1262.25 598.88 1251.1 598.88 1229.02 598.88 1229.02 599.23 1168.46 599.23 1141.96 599.23 1142.66 654.57 1190.77 654.57 1280.13 654.57 1295.37 654.57 1295.41 654.57 1296.71 654.57 1344.65 654.57 1346.9 654.57 1401.95 654.57 1406.87 654.57 1456.43 654.57 1459.82 654.57 1474.37 654.57 1583.39 654.57 1609.04 654.57 1610.39 654.57 1612.43 654.57 1662.08 654.57 1662.08 654.53 1662.08 598.88 1636.56 598.88 1636.56 595.93 1662.04 595.93 1662.18 595.93 1663.56 595.93 1675.61 595.93 1675.61 579.54 1675.61 508.88 1643.24 508.88"/>
  </g>
  <g id="_0905.000.2" data-name="0905.000.2">
    <polygon points="1141.27 599.23 1141.27 598.88 1117.73 598.88 1114.34 598.88 1090.92 598.88 1090.92 599.23 952.46 599.23 950.19 599.23 950.19 598.88 904 598.88 904 599.3 901.73 599.3 736.46 599.3 710.08 599.3 710.08 598.88 685.73 598.88 682.34 598.88 603.1 598.88 523.85 598.88 520.46 598.88 469.55 598.88 466.16 598.88 417.86 598.88 416.2 597.89 414.47 597.89 381.89 597.89 381.89 607.88 381.89 608.58 381.89 610.93 381.89 647.25 395.53 647.25 395.53 676.32 395.53 678.05 449.53 678.05 449.53 654.57 452.52 654.57 523.28 654.57 526.21 654.57 526.67 654.57 595.67 654.57 595.71 654.57 596.58 654.57 619.14 654.57 620.9 654.57 673.18 654.57 676.56 654.57 702.14 654.57 810.43 654.57 826.65 654.57 830.04 654.57 880.73 654.57 883.78 654.57 919.57 654.57 968.58 654.57 988.29 654.57 993.08 654.57 1006.06 654.57 1095.42 654.57 1142.66 654.57 1141.96 599.23 1141.27 599.23"/>
  </g>
  <g id="_0905.000f" data-name="0905.000f">
    <g id="HATCH-110" data-name="HATCH">
      <polygon class="cls-1" points="733.03 733.32 733.03 731.24 733.03 717.92 713.13 717.92 713.13 733.32 733.03 733.32"/>
    </g>
  </g>
  <g id="_0904.008-2" data-name="0904.008">
    <g id="HATCH-111" data-name="HATCH">
      <polygon class="cls-1" points="680.72 836.54 733.03 836.54 733.03 736.97 709.48 736.97 709.48 718.97 680.72 718.97 680.72 724.25 680.72 805.88 680.72 815.44 680.72 836.54"/>
    </g>
  </g>
  <g id="_0049.009" data-name="0049.009">
    <g id="HATCH-112" data-name="HATCH">
      <polygon class="cls-1" points="734.09 839.49 716.65 839.49 716.65 882.24 734.09 882.24 734.09 878.41 734.09 839.49"/>
    </g>
  </g>
  <g id="_0050.009" data-name="0050.009">
    <g id="HATCH-113" data-name="HATCH">
      <polygon class="cls-1" points="656.11 882.24 713.7 882.24 713.7 839.52 713.7 839.49 667.33 839.49 667.33 817.52 656.11 817.52 656.11 882.24"/>
    </g>
  </g>
  <g id="_0018.009" data-name="0018.009">
    <g id="HATCH-114" data-name="HATCH">
      <polygon class="cls-1" points="808.69 718.97 736.69 718.97 736.69 838.01 736.69 839.49 736.69 839.52 736.69 878.44 808.69 878.44 808.69 718.97"/>
    </g>
  </g>
  <g id="_0907.000b" data-name="0907.000b">
    <g id="HATCH-115" data-name="HATCH">
      <polygon class="cls-1" points="812.95 866.63 826.97 866.63 826.97 840.26 812.84 840.26 812.95 866.63"/>
    </g>
  </g>
  <g id="_0907.000a" data-name="0907.000a">
    <g id="HATCH-116" data-name="HATCH">
      <polygon class="cls-1" points="826.97 837.31 826.97 719.39 812.36 719.39 812.83 837.31 826.97 837.31"/>
    </g>
  </g>
  <g id="_0907.000" data-name="0907.000">
    <g id="HATCH-117" data-name="HATCH">
      <polygon class="cls-1" points="827.53 654.57 827.53 672.25 827.53 683.82 826.97 683.82 826.97 715.28 826.97 716.79 826.97 717.36 826.97 838.79 826.97 840.26 827.53 840.26 827.53 867.51 827.53 884.64 813.01 884.64 811.01 884.64 811.01 944.47 823.81 944.47 842.65 944.47 842.65 941.44 880.82 941.44 883.85 941.44 884.2 941.44 912.94 941.44 912.94 882.17 883.78 882.17 883.78 814.77 883.78 814.53 883.78 813.26 883.78 782.04 883.78 711.31 883.78 707.92 883.78 654.57 827.53 654.57"/>
    </g>
  </g>
  <g id="_0908.002" data-name="0908.002">
    <g id="HATCH-118" data-name="HATCH">
      <polygon class="cls-1" points="715.17 885.19 653.16 885.19 653.16 864.94 611.53 864.94 611.53 885.19 595.54 885.19 496.11 885.19 481.03 885.19 481.03 941.44 665.5 941.44 680.23 941.44 701.74 941.44 701.74 941.62 739.29 941.62 739.29 941.44 740.98 941.44 805.95 941.44 805.95 944.47 808.06 944.47 808.06 883.76 808.06 882.1 737.04 882.1 737.04 885.19 735.39 885.19 715.17 885.19"/>
    </g>
  </g>
  <g id="_0908.001f" data-name="0908.001f">
    <g id="HATCH-119" data-name="HATCH">
      <polygon class="cls-1" points="450.66 1420.9 450.66 1468.36 476.92 1468.36 476.92 1422.38 459.03 1422.38 459.03 1420.9 450.66 1420.9"/>
    </g>
  </g>
  <g id="_0908.001e" data-name="0908.001e">
    <g id="HATCH-120" data-name="HATCH">
      <polygon class="cls-1" points="450.66 1367.11 450.66 1420.9 459.03 1420.9 459.03 1419.43 478.08 1419.43 478.08 1367.11 450.66 1367.11"/>
    </g>
  </g>
  <g id="_0908.001d" data-name="0908.001d">
    <g id="HATCH-121" data-name="HATCH">
      <polygon class="cls-1" points="450.66 1175.65 450.66 1223.11 476.92 1223.11 476.92 1177.13 459.99 1177.13 459.99 1175.65 450.66 1175.65"/>
    </g>
  </g>
  <g id="_0908.001c" data-name="0908.001c">
    <g id="HATCH-122" data-name="HATCH">
      <polygon class="cls-1" points="450.66 1113.88 450.66 1175.65 459.99 1175.65 459.99 1174.18 479.17 1174.18 479.17 1137.84 479.17 1136.59 479.17 1136.31 479.17 1113.88 450.66 1113.88"/>
    </g>
  </g>
  <g id="_0908.001b" data-name="0908.001b">
    <g id="HATCH-123" data-name="HATCH">
      <polygon class="cls-1" points="476.92 1027.68 476.92 1000.26 460.03 1000.26 460.03 998.78 450.66 998.78 450.66 1027.68 476.92 1027.68"/>
    </g>
  </g>
  <g id="_0908.001a" data-name="0908.001a">
    <g id="HATCH-124" data-name="HATCH">
      <polygon class="cls-1" points="478.04 945.52 450.66 945.52 450.66 998.78 460.03 998.78 460.03 997.31 479.17 997.31 479.17 945.52 478.04 945.52"/>
    </g>
  </g>
  <g id="_0908.001.2" data-name="0908.001.2">
    <polygon points="478.08 885.19 463.28 885.19 449.53 885.19 449.53 873.56 449.53 866.63 449.53 747.4 469.78 747.4 469.78 713.65 449.53 713.65 449.53 689.14 449.53 689.11 449.53 687.63 449.53 681 449.5 681 394.65 681 393.39 681 391.27 681 377.39 681 377.39 689.72 377.39 850.04 377.39 863.25 395.53 863.25 395.53 892.5 377.39 892.5 377.39 905.72 377.39 913.61 478.08 913.61 478.08 885.19"/>
  </g>
  <g id="_0908.001.3" data-name="0908.001.3">
    <polygon points="450.66 1031.76 450.66 1026.33 450.66 998.78 450.66 941.44 478.08 941.44 478.08 941.41 478.08 913.61 377.39 913.61 377.39 1066.11 377.39 1079.25 395.53 1079.25 395.53 1108.5 377.39 1108.5 377.39 1121.65 377.39 1282.11 377.39 1295.25 395.53 1295.25 395.53 1324.5 377.39 1324.5 377.39 1364.65 377.39 1444.11 377.39 1497.75 395.53 1497.75 395.53 1527 377.39 1527 377.39 1584.94 395.53 1584.94 395.53 1603.08 440.32 1603.08 450.66 1603.08 450.66 1532.47 450.66 1529.08 450.66 1517.44 478.08 1517.44 478.08 1472.44 450.66 1472.44 450.66 1420.9 450.66 1368.46 450.66 1365.07 450.66 1282 450.66 1279.96 450.66 1279.93 450.66 1272.19 479.17 1272.19 479.17 1227.19 450.66 1227.19 450.66 1175.65 450.66 1113.88 479.17 1113.88 479.17 1090.26 450.66 1090.26 450.66 1076.76 479.17 1076.76 479.17 1031.76 453.71 1031.76 450.66 1031.76"/>
  </g>
  <g id="_0908.009" data-name="0908.009">
    <path class="cls-1" d="M672.52,716.7v-3.76h-200.29l-.16,37.64h-19.15v131.67h140.89v-21.38h58.58v-46.8h23.24v-97.36h-3.11ZM628.5,838.34h-133.53v-89.67h133.53v89.67Z"/>
  </g>
  <g id="_0908.009c" data-name="0908.009c">
    <g id="HATCH-125" data-name="HATCH">
      <rect x="572.02" y="752.05" width="54" height="40.5"/>
    </g>
  </g>
  <g id="_0908.009f" data-name="0908.009f">
    <g id="HATCH-126" data-name="HATCH">
      <rect x="605.2" y="796.98" width="20.81" height="37.86"/>
    </g>
  </g>
  <g id="_0908.009e" data-name="0908.009e">
    <g id="HATCH-127" data-name="HATCH">
      <rect x="581.44" y="796.98" width="20.81" height="37.86"/>
    </g>
  </g>
  <g id="_0908.009d" data-name="0908.009d">
    <g id="HATCH-128" data-name="HATCH">
      <polygon class="cls-1" points="578.49 796.98 522.52 796.98 522.52 799.07 522.52 834.85 578.49 834.85 578.49 796.98"/>
    </g>
  </g>
  <g id="_0908.009g" data-name="0908.009g">
    <g id="HATCH-129" data-name="HATCH">
      <rect x="499.31" y="797.16" width="20.25" height="37.69"/>
    </g>
  </g>
  <g id="_0908.009b" data-name="0908.009b">
    <g id="HATCH-130" data-name="HATCH">
      <rect x="499.31" y="752.05" width="20.25" height="42.15"/>
    </g>
  </g>
  <g id="_0908.009h" data-name="0908.009h">
    <g id="HATCH-131" data-name="HATCH">
      <polygon class="cls-1" points="452.49 709.57 471.26 709.57 472.77 709.57 493.41 709.57 493.41 689.11 452.49 689.11 452.49 709.57"/>
    </g>
  </g>
  <g id="_0908.009h-2" data-name="0908.009h">
    <g id="HATCH-132" data-name="HATCH">
      <rect x="496.36" y="689.11" width="28.83" height="24.54"/>
    </g>
  </g>
  <g id="_0908.009a" data-name="0908.009a">
    <g id="HATCH-133" data-name="HATCH">
      <polygon class="cls-1" points="522.52 752.05 522.52 792.3 522.52 792.55 569.06 792.55 569.06 752.05 522.52 752.05"/>
    </g>
  </g>
  <g id="_0905.000e" data-name="0905.000e">
    <g id="HATCH-134" data-name="HATCH">
      <polygon class="cls-1" points="823.45 673.13 809.55 673.13 809.55 657.52 702.14 657.52 702.14 654.57 675.21 654.57 675.21 710.45 675.21 710.48 675.21 711.96 675.21 715.32 682.28 715.32 711.31 715.32 713.17 715.32 733.03 715.32 733.03 715.6 812.35 715.6 812.35 715.32 826.97 715.32 826.97 683.82 823.45 683.82 823.45 673.13"/>
    </g>
  </g>
  <g id="_0905.011" data-name="0905.011">
    <g id="HATCH-135" data-name="HATCH">
      <polygon class="cls-1" points="671.14 710.48 671.14 657.62 671.14 657.52 621.78 657.52 621.78 710.48 668.38 710.48 671.14 710.48"/>
    </g>
  </g>
  <g id="_0905.013" data-name="0905.013">
    <g id="HATCH-136" data-name="HATCH">
      <polygon class="cls-1" points="595.71 657.52 528.14 657.52 528.14 657.62 528.14 687.63 528.14 690.36 528.14 691.02 528.14 710.48 617.07 710.48 617.07 672.53 595.71 672.53 595.71 657.52"/>
    </g>
  </g>
  <g id="_0905.000g" data-name="0905.000g">
    <g id="HATCH-137" data-name="HATCH">
      <polygon class="cls-1" points="525.19 686.16 525.19 654.57 452.49 654.57 452.49 678.02 452.49 678.21 452.49 679.53 452.49 686.16 452.52 686.16 494.88 686.16 523.28 686.16 525.19 686.16"/>
    </g>
  </g>
  <g id="_0905.016" data-name="0905.016">
    <g id="HATCH-138" data-name="HATCH">
      <polygon class="cls-1" points="251.25 436.18 251.25 441.1 233.53 441.1 233.53 594.1 251.25 594.1 255.75 599.02 372.33 599.02 372.33 595.93 379.11 595.93 379.11 597.89 379.71 597.89 416.2 597.89 416.2 522.77 387.66 522.77 387.66 554.44 366.23 554.44 366.23 551.49 384.7 551.49 384.7 522.8 384.7 521.47 384.7 520.55 384.7 454.92 379.07 454.92 379.07 436.18 359.32 436.18 359.25 436.18 251.25 436.18"/>
    </g>
  </g>
  <g id="_0905.012b" data-name="0905.012b">
    <g id="HATCH-139" data-name="HATCH">
      <polygon class="cls-1" points="464.86 436.18 414.87 436.18 408.47 436.18 408.47 453.75 389.13 453.75 389.13 454.04 389.13 518.34 417.86 518.34 464.86 518.34 464.86 436.18"/>
    </g>
  </g>
  <g id="_0905.014" data-name="0905.014">
    <g id="HATCH-140" data-name="HATCH">
      <polygon class="cls-1" points="419.51 595.93 464.51 595.93 464.51 595.83 464.51 522.77 419.51 522.77 419.51 594.84 419.51 595.93"/>
    </g>
  </g>
  <g id="_0905.012" data-name="0905.012">
    <g id="HATCH-141" data-name="HATCH">
      <polygon class="cls-1" points="522.38 436.18 467.81 436.18 467.81 520.55 467.81 598.88 522.38 598.88 522.38 519.81 522.38 436.18"/>
    </g>
  </g>
  <g id="_0905.012c" data-name="0905.012c">
    <g id="HATCH-142" data-name="HATCH">
      <polygon class="cls-1" points="575.32 436.18 525.33 436.18 525.33 517.6 600.88 517.6 600.88 453.79 600.88 453.75 588.47 453.75 588.47 436.18 575.32 436.18"/>
    </g>
  </g>
  <g id="_0905.010d" data-name="0905.010d">
    <g id="HATCH-143" data-name="HATCH">
      <polygon class="cls-1" points="680.86 436.18 630.87 436.18 617.72 436.18 617.72 453.75 605.31 453.75 605.31 517.6 680.86 517.6 680.86 436.18"/>
    </g>
  </g>
  <g id="_0905.010b" data-name="0905.010b">
    <g id="HATCH-144" data-name="HATCH">
      <rect x="605.31" y="522.03" width="75.55" height="73.55"/>
    </g>
  </g>
  <g id="_0905.012a" data-name="0905.012a">
    <g id="HATCH-145" data-name="HATCH">
      <rect x="525.33" y="522.03" width="75.55" height="73.55"/>
    </g>
  </g>
  <g id="_0905.010" data-name="0905.010">
    <g id="HATCH-146" data-name="HATCH">
      <polygon class="cls-1" points="710.08 598.88 710.08 598.95 738.38 598.95 738.38 519.81 738.38 436.18 683.81 436.18 683.81 519.81 683.81 598.88 710.08 598.88"/>
    </g>
  </g>
  <g id="_0905.010a" data-name="0905.010a">
    <g id="HATCH-147" data-name="HATCH">
      <rect x="741.33" y="522.03" width="75.55" height="73.55"/>
    </g>
  </g>
  <g id="_0905.010c" data-name="0905.010c">
    <g id="HATCH-148" data-name="HATCH">
      <polygon class="cls-1" points="791.32 436.18 741.33 436.18 741.33 517.6 816.88 517.6 816.88 453.79 816.88 453.75 804.47 453.75 804.47 436.18 791.32 436.18"/>
    </g>
  </g>
  <g id="_0905.008d" data-name="0905.008d">
    <g id="HATCH-149" data-name="HATCH">
      <polygon class="cls-1" points="896.86 436.18 846.87 436.18 833.72 436.18 833.72 453.75 821.31 453.75 821.31 517.6 896.86 517.6 896.86 436.18"/>
    </g>
  </g>
  <g id="_0905.008b" data-name="0905.008b">
    <g id="HATCH-150" data-name="HATCH">
      <rect x="821.31" y="522.03" width="75.55" height="73.55"/>
    </g>
  </g>
  <g id="_0905.008" data-name="0905.008">
    <g id="HATCH-151" data-name="HATCH">
      <polygon class="cls-1" points="899.81 598.95 904 598.95 904 598.88 950.19 598.88 954.38 598.88 954.38 519.81 954.38 436.18 899.81 436.18 899.81 519.81 899.81 598.95"/>
    </g>
  </g>
  <g id="_0905.008a" data-name="0905.008a">
    <g id="HATCH-152" data-name="HATCH">
      <rect x="957.33" y="522.03" width="75.55" height="73.55"/>
    </g>
  </g>
  <g id="_0905.008c" data-name="0905.008c">
    <g id="HATCH-153" data-name="HATCH">
      <polygon class="cls-1" points="1007.32 436.18 957.33 436.18 957.33 517.6 1032.88 517.6 1032.88 453.79 1032.88 453.75 1020.47 453.75 1020.47 436.18 1007.32 436.18"/>
    </g>
  </g>
  <g id="_0905.006d" data-name="0905.006d">
    <g id="HATCH-154" data-name="HATCH">
      <polygon class="cls-1" points="1090.92 517.6 1090.92 471.47 1091.28 471.47 1091.28 517.6 1112.86 517.6 1112.86 436.18 1062.87 436.18 1049.72 436.18 1049.72 453.75 1037.31 453.75 1037.31 517.6 1090.92 517.6"/>
    </g>
  </g>
  <g id="_0905.006b" data-name="0905.006b">
    <g id="HATCH-155" data-name="HATCH">
      <polygon class="cls-1" points="1091.28 561.19 1090.92 561.19 1090.92 522.03 1037.31 522.03 1037.31 595.57 1090.92 595.57 1112.86 595.57 1112.86 522.03 1091.28 522.03 1091.28 561.19"/>
    </g>
  </g>
  <g id="_0905.006b-2" data-name="0905.006b">
    <g id="HATCH-156" data-name="HATCH">
      <polygon class="cls-1" points="1141.27 598.88 1170.38 598.88 1170.38 519.81 1170.38 436.18 1115.81 436.18 1115.81 519.81 1115.81 598.88 1141.27 598.88"/>
    </g>
  </g>
  <g id="_0905.004" data-name="0905.004">
    <g id="HATCH-157" data-name="HATCH">
      <polygon class="cls-1" points="1331.81 598.88 1386.38 598.88 1386.38 519.81 1386.38 436.18 1331.81 436.18 1331.81 519.81 1331.81 598.88"/>
    </g>
  </g>
  <g id="_0905.006c" data-name="0905.006c">
    <g id="HATCH-158" data-name="HATCH">
      <polygon class="cls-1" points="1223.32 436.18 1173.33 436.18 1173.33 517.6 1248.88 517.6 1248.88 456.26 1248.88 453.75 1236.47 453.75 1236.47 436.18 1223.32 436.18"/>
    </g>
  </g>
  <g id="_0905.006a" data-name="0905.006a">
    <g id="HATCH-159" data-name="HATCH">
      <polygon class="cls-1" points="1248.88 595.57 1248.88 522.03 1173.33 522.03 1173.33 595.57 1229.02 595.57 1248.88 595.57"/>
    </g>
  </g>
  <g id="_0905.004b" data-name="0905.004b">
    <g id="HATCH-160" data-name="HATCH">
      <polygon class="cls-1" points="1253.31 522.03 1253.31 595.57 1262.25 595.57 1328.86 595.57 1328.86 522.03 1253.31 522.03"/>
    </g>
  </g>
  <g id="_0905.004d" data-name="0905.004d">
    <g id="HATCH-161" data-name="HATCH">
      <polygon class="cls-1" points="1328.86 436.18 1278.87 436.18 1265.72 436.18 1265.72 453.75 1253.31 453.75 1253.31 517.6 1328.86 517.6 1328.86 436.18"/>
    </g>
  </g>
  <g id="_0905.004c" data-name="0905.004c">
    <g id="HATCH-162" data-name="HATCH">
      <polygon class="cls-1" points="1432.54 438.08 1432.54 436.18 1431.66 436.18 1389.33 436.18 1389.33 517.6 1464.88 517.6 1464.88 453.79 1464.88 453.75 1451.28 453.75 1451.28 438.08 1448.53 438.08 1432.54 438.08"/>
    </g>
  </g>
  <g id="_0905.004a" data-name="0905.004a">
    <g id="HATCH-163" data-name="HATCH">
      <polygon class="cls-1" points="1389.33 595.57 1464.88 595.57 1464.88 584.29 1464.88 522.03 1389.33 522.03 1389.33 595.57"/>
    </g>
  </g>
  <g id="_0905.001" data-name="0905.001">
    <g id="HATCH-164" data-name="HATCH">
      <polygon class="cls-1" points="1533.36 595.58 1584.88 595.58 1584.88 556.95 1584.88 555.47 1584.88 555.44 1584.88 540.8 1533.36 540.8 1533.36 584.29 1533.36 595.58"/>
    </g>
  </g>
  <g id="_0902.001" data-name="0902.001">
    <g id="HATCH-165" data-name="HATCH">
      <polygon class="cls-1" points="1584.88 484.04 1531.89 484.04 1531.89 537.5 1584.88 537.5 1584.88 504.35 1584.88 484.04"/>
    </g>
  </g>
  <g id="_0902.003" data-name="0902.003">
    <g id="HATCH-166" data-name="HATCH">
      <polygon class="cls-1" points="1531.89 403.18 1531.89 480.73 1584.52 480.73 1584.52 451.34 1584.52 403.18 1531.89 403.18"/>
    </g>
  </g>
  <g id="_0904.009" data-name="0904.009">
    <g id="HATCH-167" data-name="HATCH">
      <polygon class="cls-1" points="1636.86 555.47 1636.86 506 1588.18 506 1588.18 539.15 1588.18 555.47 1636.86 555.47"/>
    </g>
  </g>
  <g id="_0902.007" data-name="0902.007">
    <g id="HATCH-168" data-name="HATCH">
      <polygon class="cls-1" points="1638.38 502.69 1638.38 454.12 1588.18 454.12 1588.18 482.38 1588.18 484.07 1588.18 502.69 1635.69 502.69 1638.38 502.69"/>
    </g>
  </g>
  <g id="_0902.005" data-name="0902.005">
    <g id="HATCH-169" data-name="HATCH">
      <rect x="1588.18" y="404.3" width="50.2" height="44.26"/>
    </g>
  </g>
  <g id="_0904" data-name="0904">
    <g id="HATCH-170" data-name="HATCH">
      <polygon class="cls-1" points="1908.8 645.06 1908.8 634.11 1908.8 579.54 1680.81 579.54 1680.81 598.88 1665.03 598.88 1665.03 598.91 1665.03 654.57 1675.78 654.57 1676.66 654.57 1677.58 654.57 1690.17 654.57 1693.56 654.57 1746.03 654.57 1746.03 633.97 1822.1 633.97 1822.1 634.11 1825.49 634.11 1854.28 634.11 1857.33 634.11 1857.33 633.97 1887.28 633.97 1887.28 645.06 1908.8 645.06"/>
    </g>
  </g>
  <g id="_0904.003" data-name="0904.003">
    <g id="HATCH-171" data-name="HATCH">
      <polygon class="cls-1" points="1908.8 579.54 1908.8 509.23 1884.75 509.23 1692.9 509.23 1680.99 509.23 1680.81 509.23 1680.81 579.54 1908.8 579.54"/>
    </g>
  </g>
  <g id="_0003.009" data-name="0003.009">
    <g id="HATCH-172" data-name="HATCH">
      <polygon class="cls-1" points="1881.24 409.19 1828.22 409.19 1828.22 466.91 1828.22 485.26 1834.92 485.26 1841.67 485.26 1861.92 485.26 1868.67 485.26 1881.24 485.26 1881.24 440.29 1881.24 409.19"/>
    </g>
  </g>
  <g id="_0001.009" data-name="0001.009">
    <g id="HATCH-173" data-name="HATCH">
      <polygon class="cls-1" points="1828.22 409.19 1881.24 409.19 1881.24 351.91 1881.24 327.16 1881.24 324.48 1881.24 322.55 1828.22 322.55 1828.22 409.19"/>
    </g>
  </g>
  <g id="_0004.009" data-name="0004.009">
    <g id="HATCH-174" data-name="HATCH">
      <polygon class="cls-1" points="1755.1 409.19 1700.53 409.19 1700.53 485.26 1714.65 485.26 1721.4 485.26 1741.65 485.26 1748.4 485.26 1755.1 485.26 1755.1 466.91 1755.1 409.19"/>
    </g>
  </g>
  <g id="_0002.009" data-name="0002.009">
    <g id="HATCH-175" data-name="HATCH">
      <rect x="1700.53" y="322.55" width="54.56" height="86.64"/>
    </g>
  </g>
  <g id="_0901" data-name="0901">
    <g id="HATCH-176" data-name="HATCH">
      <polygon class="cls-1" points="1825.27 320.44 1758.05 320.44 1758.05 405.72 1758.05 412.47 1758.05 465.44 1825.27 465.44 1825.27 320.44"/>
    </g>
  </g>
  <g id="_0902" data-name="0902">
    <g id="HATCH-177" data-name="HATCH">
      <polygon class="cls-1" points="1899.94 211.32 1465.97 211.32 1465.97 223.13 1448.53 223.13 1448.53 431.82 1448.53 436.32 1452.15 436.32 1453.03 431.11 1481.12 431.11 1481.12 453.75 1469.31 453.75 1469.31 519.81 1469.31 584.29 1528.94 584.29 1528.94 539.15 1528.94 537.5 1528.94 537.46 1528.94 482.38 1528.94 399.87 1586.35 399.87 1588.18 399.87 1641.33 399.87 1641.33 451.34 1641.33 505.93 1678.21 505.93 1680.99 505.93 1691.6 505.93 1691.6 454.74 1668.89 454.74 1668.89 399.87 1689.86 399.87 1689.86 340.69 1668.89 340.69 1668.89 319.6 1697.58 319.6 1697.58 320.44 1758.05 320.44 1825.27 320.44 1884.75 320.44 1884.75 324.52 1905.81 324.52 1909.22 324.52 1911.01 324.52 1911.99 324.52 1917.66 324.52 1917.66 223.13 1899.94 223.13 1899.94 211.32"/>
    </g>
  </g>
</svg>