<?xml version="1.0" encoding="UTF-8"?>
<svg xmlns="http://www.w3.org/2000/svg" xmlns:xlink="http://www.w3.org/1999/xlink" viewBox="0 0 1962.78 1867.3">
  <g id="Layer_1" data-name="Layer 1">
    <image width="5760" height="4320" transform="translate(-296.17 -156.87) scale(.6)" xlink:href="../PDF and PNG/RCP/Level 3.jpg"/>
  </g>
  <g id="_0054.003" data-name="0054.003">
    <polyline points="811.55 887.88 811.48 845.74 945.26 845.22 945.13 739.96 990.52 739.96 990.52 771.06 1005.56 771.06 1005.56 873.55 991.36 873.55 991.36 887.88 974.09 887.88 974.09 1107.85 825.39 1107.85 825.39 1089.39 811.48 1089.39 811.48 1107.85 656.49 1107.85 656.49 887.88"/>
  </g>
  <g id="_0056.003" data-name="0056.003">
    <g id="LWPOLYLINE">
      <polygon points="1040.44 1101.01 1109.92 1101.01 1109.92 979.91 978.56 979.91 978.56 1107.76 1026.66 1107.76 1026.84 1108.46 1040.44 1108.46 1040.44 1101.01"/>
    </g>
  </g>
  <g id="_0055.003" data-name="0055.003">
    <g id="LWPOLYLINE-2" data-name="LWPOLYLINE">
      <polygon points="1109.92 867.57 1094.59 867.57 1094.59 875.1 1094.59 882.87 1008.17 882.87 1008.17 888.5 992.46 888.5 990.67 888.5 990.63 888.5 978.56 888.5 978.56 976.26 1109.92 976.26 1109.92 886.58 1109.92 867.57"/>
    </g>
  </g>
  <g id="_0311.1" data-name="0311.1">
    <polygon points="1170.96 1102.93 1170.96 990.18 1170.96 921.42 1172.93 921.42 1172.93 887.88 1164.46 887.88 1164.46 867.57 1120.08 867.57 1120.08 887.88 1113.58 887.88 1113.58 978.09 1113.58 1102.84 1113.58 1144.17 1170.96 1144.17 1170.96 1102.93"/>
  </g>
  <g id="_0311.4" data-name="0311.4">
    <polygon points="1113.58 1144.17 1113.58 1144.19 1084.89 1144.19 1084.89 1203.82 1113.58 1203.82 1113.58 1489.19 1170.96 1489.19 1170.96 1364.01 1170.96 1362.18 1170.96 1362.15 1170.96 1203.82 1199.65 1203.82 1199.65 1144.19 1170.96 1144.19 1170.96 1144.17 1113.58 1144.17"/>
  </g>
  <g id="_0360" data-name="0360">
    <g id="LWPOLYLINE-3" data-name="LWPOLYLINE">
      <polygon points="1170.96 1576.99 1170.96 1492.84 1113.58 1492.84 1113.58 1565.34 1113.58 1592.53 1123.79 1592.53 1123.79 1613.85 1118.96 1613.85 1118.96 1742.28 1140.38 1742.28 1140.38 1759.36 1154.37 1759.36 1154.37 1797.34 1195.33 1797.34 1195.37 1797.34 1195.37 1787.77 1215.97 1787.77 1215.97 1629.41 1211.47 1629.41 1211.47 1604.37 1210.34 1602.12 1210.34 1600.98 1210.34 1576.99 1170.96 1576.99"/>
    </g>
  </g>
  <g id="_0069.003" data-name="0069.003">
    <g id="LWPOLYLINE-4" data-name="LWPOLYLINE">
      <polygon points="1174.62 992.01 1174.62 1101.1 1244.1 1101.1 1244.1 1108.56 1257.88 1108.56 1257.88 1107.85 1305.98 1107.85 1305.98 992.01 1174.62 992.01"/>
    </g>
  </g>
  <g id="_0068.003" data-name="0068.003">
    <g id="LWPOLYLINE-5" data-name="LWPOLYLINE">
      <rect x="1174.62" y="923.25" width="131.36" height="65.1"/>
    </g>
  </g>
  <g id="_0310" data-name="0310">
    <g id="LWPOLYLINE-6" data-name="LWPOLYLINE">
      <polygon points="1293.41 887.88 1291.9 887.88 1279.36 887.88 1277.85 887.88 1191.42 887.88 1189.95 887.88 1189.91 887.88 1172.93 887.88 1172.93 919.59 1307.81 919.59 1323.14 919.59 1323.84 919.59 1323.84 887.88 1293.41 887.88"/>
    </g>
  </g>
  <g id="_0019.003" data-name="0019.003">
    <g id="LWPOLYLINE-7" data-name="LWPOLYLINE">
      <polygon points="1174.62 1365.84 1174.62 1491.01 1174.62 1573.33 1211.22 1573.33 1221.42 1573.33 1225.14 1573.33 1241.14 1573.33 1241.14 1365.84 1212.91 1365.84 1211.4 1365.84 1174.65 1365.84 1174.62 1365.84"/>
    </g>
  </g>
  <g id="_0065.003" data-name="0065.003">
    <g id="LWPOLYLINE-8" data-name="LWPOLYLINE">
      <polygon points="1174.62 1104.76 1174.62 1140.53 1203.31 1140.53 1203.31 1207.48 1174.62 1207.48 1174.62 1362.18 1209.92 1362.18 1209.92 1342.4 1244.8 1342.4 1244.8 1363.2 1244.8 1364.54 1244.8 1576.99 1225.11 1576.99 1225.11 1601.56 1263.72 1601.56 1286.64 1601.56 1908.79 1601.56 1910.47 1601.56 1910.47 798.2 1910.47 665.57 1905.37 665.57 1891.37 665.57 1756.95 665.57 1687.92 665.57 1687.92 663.18 1677.08 663.18 1677.08 665.57 1670.11 665.57 1670.11 659.53 1637.48 659.53 1637.48 838.43 1676.6 838.43 1676.6 894.28 1637.48 894.28 1637.48 1102.84 1536.21 1102.84 1536.21 1139.83 1474.33 1139.83 1474.33 1102.84 1473.94 1102.84 1472.15 1102.84 1469.64 1102.84 1467.37 1102.84 1467.37 1111.51 1458.82 1111.51 1457.91 1111.51 1307.81 1111.51 1257.88 1111.51 1241.14 1111.51 1241.14 1104.76 1174.62 1104.76"/>
    </g>
  </g>
  <g id="_0015.003" data-name="0015.003">
    <g id="LWPOLYLINE-9" data-name="LWPOLYLINE">
      <polygon points="1313.15 1270.63 1393.6 1270.63 1393.6 1203.68 1313.15 1203.68 1313.15 1232.88 1313.15 1257.64 1313.15 1270.63"/>
    </g>
  </g>
  <g id="_0037.003" data-name="0037.003">
    <g id="LWPOLYLINE-10" data-name="LWPOLYLINE">
      <polygon points="1636.77 891.32 1673.65 891.32 1673.65 841.38 1636.77 841.38 1636.77 884.42 1636.77 891.32"/>
    </g>
  </g>
  <g id="_0084.003" data-name="0084.003">
    <g id="LWPOLYLINE-11" data-name="LWPOLYLINE">
      <polygon points="1633.82 839.9 1633.82 659.53 1552.39 659.53 1552.39 706.64 1552.39 838.43 1580.08 838.43 1580.08 882.59 1633.82 882.59 1633.82 839.9"/>
    </g>
  </g>
  <g id="_0040.003" data-name="0040.003">
    <g id="LWPOLYLINE-12" data-name="LWPOLYLINE">
      <polygon points="1577.13 841.38 1551.33 841.38 1551.33 875.45 1551.33 883.29 1577.13 883.29 1577.13 841.38"/>
    </g>
  </g>
  <g id="_0017.003" data-name="0017.003">
    <g id="LWPOLYLINE-13" data-name="LWPOLYLINE">
      <polygon points="1518.28 708.47 1476.72 708.47 1476.72 763.74 1476.72 872.5 1476.72 874.15 1548.73 874.15 1548.73 841.41 1548.73 841.38 1548.73 839.9 1548.73 708.47 1518.28 708.47"/>
    </g>
  </g>
  <g id="_03207.002" data-name="03207.002">
    <rect x="1476.72" y="688.01" width="40.51" height="16.81"/>
  </g>
  <g id="_0067.003" data-name="0067.003">
    <g id="LWPOLYLINE-14" data-name="LWPOLYLINE">
      <polygon points="1279.33 803.41 1279.33 808.75 1332.8 808.75 1334.28 808.75 1334.31 808.75 1396.55 808.75 1396.55 838.32 1396.55 865.32 1396.55 923.25 1325.67 923.25 1323.14 923.25 1309.64 923.25 1309.64 990.18 1309.64 1107.85 1457.03 1107.85 1457.03 1087.65 1473.91 1087.65 1473.91 1098.39 1473.91 1099.18 1475.46 1099.18 1535.09 1099.18 1633.82 1099.18 1633.82 892.8 1633.82 886.25 1578.6 886.25 1551.37 886.25 1550.03 886.25 1474.89 886.25 1471.5 886.25 1458.44 886.25 1458.44 871.62 1473.06 871.62 1473.06 765.57 1346.53 765.57 1346.53 748.09 1294.6 748.09 1294.6 769.3 1281.06 769.3 1279.33 769.3 1279.33 803.41"/>
    </g>
  </g>
  <g id="_0085.003" data-name="0085.003">
    <polygon points="1392.9 812.41 1334.28 812.41 1334.28 859.49 1327.5 859.49 1327.5 886.41 1327.5 919.59 1392.9 919.59 1392.9 866.63 1382.84 866.63 1382.84 837.02 1392.9 837.02 1392.9 812.41"/>
  </g>
  <g id="_0042.003" data-name="0042.003">
    <g id="LWPOLYLINE-15" data-name="LWPOLYLINE">
      <polygon points="1279.33 811.7 1279.33 856.54 1293.41 856.54 1326.02 856.54 1331.32 856.54 1331.32 812.44 1331.32 811.7 1279.33 811.7"/>
    </g>
  </g>
  <g id="_0086.003" data-name="0086.003">
    <g id="LWPOLYLINE-16" data-name="LWPOLYLINE">
      <polygon points="1473.06 761.92 1473.06 706.64 1473.06 686.95 1473.06 670.51 1458.44 670.51 1458.44 659.53 1294.6 659.53 1294.6 668.83 1294.6 670.34 1294.6 744.43 1350.19 744.43 1350.19 761.92 1473.06 761.92"/>
    </g>
  </g>
  <g id="_0043.003" data-name="0043.003">
    <g id="LWPOLYLINE-17" data-name="LWPOLYLINE">
      <polygon points="1291.65 744.4 1291.65 671.82 1278.98 671.82 1278.98 735.86 1278.98 766.35 1291.65 766.35 1291.65 748.13 1291.65 744.4"/>
    </g>
  </g>
  <g id="_0009.003" data-name="0009.003">
    <g id="LWPOLYLINE-18" data-name="LWPOLYLINE">
      <polygon points="1245.99 806.92 1245.99 803.41 1192.9 803.41 1192.9 865.75 1192.9 875.13 1228.91 875.13 1235.66 875.13 1239.24 875.13 1245.99 875.13 1266.25 875.13 1273 875.13 1276.37 875.13 1276.37 858.01 1276.37 810.23 1276.37 803.41 1266.25 803.41 1266.25 806.92 1245.99 806.92"/>
    </g>
  </g>
  <g id="_0007.003" data-name="0007.003">
    <g id="LWPOLYLINE-19" data-name="LWPOLYLINE">
      <polygon points="1276.37 735.86 1192.9 735.86 1192.9 803.41 1245.99 803.41 1266.25 803.41 1276.37 803.41 1276.37 769.33 1276.37 766.35 1276.37 764.43 1276.37 735.86"/>
    </g>
  </g>
  <g id="_0005.003" data-name="0005.003">
    <g id="LWPOLYLINE-20" data-name="LWPOLYLINE">
      <polygon points="1192.9 735.86 1276.37 735.86 1276.37 671.85 1276.37 667.26 1274.46 667.26 1273 667.26 1266.25 667.26 1245.99 667.26 1239.24 667.26 1235.66 667.26 1228.91 667.26 1227.78 667.26 1192.9 667.26 1192.9 678.16 1192.9 735.86"/>
    </g>
  </g>
  <g id="_0303" data-name="0303">
    <g id="LWPOLYLINE-21" data-name="LWPOLYLINE">
      <polygon points="1118.78 679.99 1094.59 679.99 1094.59 735.86 1094.59 803.97 1094.59 863.92 1111.75 863.92 1118.78 863.92 1165.76 863.92 1189.95 863.92 1189.95 803.41 1189.95 735.86 1189.95 679.99 1165.76 679.99 1118.78 679.99"/>
    </g>
  </g>
  <g id="_0010.003" data-name="0010.003">
    <g id="LWPOLYLINE-22" data-name="LWPOLYLINE">
      <polygon points="1018.29 806.92 1018.29 803.97 1008.17 803.97 1008.17 871.6 1008.17 875.13 1011.54 875.13 1045.3 875.13 1048.88 875.13 1055.63 875.13 1091.64 875.13 1091.64 865.75 1091.64 803.97 1038.54 803.97 1038.54 806.92 1018.29 806.92"/>
    </g>
  </g>
  <g id="_0008.003" data-name="0008.003">
    <g id="LWPOLYLINE-23" data-name="LWPOLYLINE">
      <polygon points="1091.64 735.86 1008.17 735.86 1008.17 766.31 1008.17 766.34 1008.17 767.82 1008.17 803.97 1018.29 803.97 1038.54 803.97 1091.64 803.97 1091.64 735.86"/>
    </g>
  </g>
  <g id="_0006.003" data-name="0006.003">
    <g id="LWPOLYLINE-24" data-name="LWPOLYLINE">
      <polygon points="1008.17 735.86 1091.64 735.86 1091.64 678.16 1091.64 667.26 1056.76 667.26 1055.63 667.26 1048.88 667.26 1045.3 667.26 1038.54 667.26 1018.29 667.26 1011.54 667.26 1010.08 667.26 1008.17 667.26 1008.17 671.85 1008.17 735.86"/>
    </g>
  </g>
  <g id="_0047.003" data-name="0047.003">
    <g id="LWPOLYLINE-25" data-name="LWPOLYLINE">
      <polygon points="994.31 671.82 994.31 737.58 994.31 766.35 1005.56 766.35 1005.56 735.86 1005.56 671.82 994.31 671.82"/>
    </g>
  </g>
  <g id="_0093.003" data-name="0093.003">
    <g id="LWPOLYLINE-26" data-name="LWPOLYLINE">
      <polygon points="811.48 700.45 811.48 840.68 940.59 840.68 940.59 735.76 991.36 735.76 991.36 671.85 991.36 671.82 990.8 670.34 990.8 660.56 990.8 659.53 826.27 659.53 826.27 670.98 811.48 670.98 811.48 680.76 811.48 700.45"/>
    </g>
  </g>
  <g id="_0049.003" data-name="0049.003">
    <g id="LWPOLYLINE-27" data-name="LWPOLYLINE">
      <polygon points="733.21 843.07 732.12 843.07 707.68 843.07 707.68 883.57 733.21 883.57 733.21 882.85 733.21 875.45 733.21 843.07"/>
    </g>
  </g>
  <g id="_0018.003" data-name="0018.003">
    <g id="LWPOLYLINE-28" data-name="LWPOLYLINE">
      <polygon points="807.82 702.28 766.26 702.28 735.81 702.28 735.81 840.08 735.81 841.38 735.81 841.59 735.81 874.15 807.82 874.15 807.82 872.79 807.82 842.5 807.82 702.28"/>
    </g>
  </g>
  <g id="_0327.001" data-name="0327.001">
    <rect x="767.31" y="681.82" width="40.51" height="16.81"/>
  </g>
  <g id="_0094.003" data-name="0094.003">
    <g id="LWPOLYLINE-29" data-name="LWPOLYLINE">
      <polygon points="656.49 659.53 656.49 663.18 656.49 827.53 656.49 882.88 704.72 882.88 704.72 840.11 732.15 840.11 732.15 700.45 732.15 659.53 656.49 659.53"/>
    </g>
  </g>
  <g id="_0050.003" data-name="0050.003">
    <g id="LWPOLYLINE-30" data-name="LWPOLYLINE">
      <polygon points="652.41 882.85 652.41 829 611.54 829 611.54 883.59 652.41 883.59 652.41 882.85"/>
    </g>
  </g>
  <g id="_0052.003" data-name="0052.003">
    <g id="LWPOLYLINE-31" data-name="LWPOLYLINE">
      <polygon points="1109.92 1104.67 1043.4 1104.67 1043.4 1111.42 1026.84 1111.42 1026.66 1111.42 976.73 1111.42 824.94 1111.42 811.51 1111.42 708.95 1111.42 708.95 1134.9 663.38 1134.9 663.38 1111.42 652.83 1111.42 652.83 973.3 625.12 973.3 625.12 953.05 652.83 953.05 652.83 886.54 652.37 886.54 608.58 886.54 608.58 826.05 652.83 826.05 652.83 665.57 610.14 665.57 610.14 677.46 594.22 677.46 594.22 665.57 525.94 665.57 392.74 665.57 376.64 665.57 255.31 665.57 246.93 665.57 241.41 665.57 239.05 665.57 239.05 1579.9 251.15 1579.9 251.15 1606.91 954.02 1606.91 954.02 1603.95 961.12 1603.95 1050.01 1603.95 1050.01 1563.3 1109.92 1563.3 1109.92 1491.01 1109.92 1207.48 1081.23 1207.48 1081.23 1140.53 1109.92 1140.53 1109.92 1104.67"/>
    </g>
  </g>
  <g id="_0327.1" data-name="0327.1">
    <g id="LWPOLYLINE-32" data-name="LWPOLYLINE">
      <polyline points="1142.27 676.33 1164.46 676.33 1164.46 655.87 1189.91 655.87 1191.42 655.87 1192.9 655.87 1279.36 655.87 1292.46 655.87 1292.49 655.87 1293.55 655.87 1459.32 655.87 1460.23 655.87 1476.72 655.87 1476.72 668.72 1476.72 668.75 1476.72 669.63 1476.72 685.9 1519.34 685.9 1519.34 704.81 1548.73 704.81 1548.73 655.87 1635.65 655.87 1671.93 655.87 1755.48 655.87 1755.48 617.16 1755.48 614.56 1755.48 600.18 1629 600.18 1629 549.68 1565.89 549.68 1565.89 600.18 1506.61 600.18 1503.22 600.18 1463.3 600.18 1459.91 600.18 1400.49 600.18 1400.49 588.36 1353.38 588.36 1353.38 597.12 1353.38 600.18 1348.51 600.18 1318.23 600.18 1314.84 600.18 1248.25 600.18 1160.18 600.18 1142.27 600.18"/>
    </g>
  </g>
  <g id="_0327.2" data-name="0327.2">
    <polygon points="1073.59 600.18 987.03 600.18 987 600.18 985.52 600.18 872.13 600.18 868.44 600.18 866.01 600.18 768.93 600.18 765.54 600.18 729.07 600.18 725.68 600.18 610.14 600.18 610.14 654.22 610.14 657.56 610.14 660.79 652.83 660.79 652.83 655.87 735.81 655.87 735.81 698.63 765.2 698.63 765.2 679.71 807.82 679.71 807.82 671.01 807.82 670.98 807.82 669.92 807.82 655.87 825.22 655.87 826.27 655.87 826.31 655.87 991.85 655.87 993.47 655.87 995.24 655.87 1005.18 655.87 1006.69 655.87 1093.11 655.87 1094.63 655.87 1120.08 655.87 1120.08 676.33 1142.27 676.33 1142.27 600.18 1073.59 600.18"/>
  </g>
  <g id="_0301.017" data-name="0301.017">
    <g id="LWPOLYLINE-33" data-name="LWPOLYLINE">
      <polyline points="1884.59 508.05 1826.01 508.05 1758.43 508.05 1758.43 597.96 1758.43 613.68 1777 613.68 1777 618.04 1758.43 618.04 1758.43 656.75 1758.43 660.79 1890.5 660.79 1890.5 649.54 1910.47 649.54 1910.47 508.43"/>
    </g>
  </g>
  <g id="_0038.003" data-name="0038.003">
    <g id="LWPOLYLINE-34" data-name="LWPOLYLINE">
      <polygon points="1834.18 490.26 1827.49 490.26 1827.49 505.1 1880.51 505.1 1880.51 490.26 1867.94 490.26 1861.19 490.26 1840.93 490.26 1834.18 490.26"/>
    </g>
  </g>
  <g id="_0003.003" data-name="0003.003">
    <g id="LWPOLYLINE-35" data-name="LWPOLYLINE">
      <polygon points="1880.51 410.47 1827.49 410.47 1827.49 486.54 1834.18 486.54 1834.18 490.26 1840.93 490.26 1840.93 486.54 1861.19 486.54 1861.19 490.26 1867.94 490.26 1867.94 486.54 1880.51 486.54 1880.51 410.47"/>
    </g>
  </g>
  <g id="_0001.003" data-name="0001.003">
    <g id="LWPOLYLINE-36" data-name="LWPOLYLINE">
      <polygon points="1827.49 410.47 1880.51 410.47 1880.51 334.64 1880.51 323.53 1827.49 323.53 1827.49 344.19 1827.49 350.97 1827.49 410.47"/>
    </g>
  </g>
  <g id="_0039.003" data-name="0039.003">
    <g id="LWPOLYLINE-37" data-name="LWPOLYLINE">
      <polygon points="1720.65 490.26 1720.65 486.54 1713.9 486.54 1713.9 490.26 1699.78 490.26 1699.78 505.1 1753.61 505.1 1754.35 505.1 1754.35 490.26 1747.66 490.26 1747.66 486.54 1740.91 486.54 1740.91 490.26 1720.65 490.26"/>
    </g>
  </g>
  <g id="_0301" data-name="0301">
    <g id="LWPOLYLINE-38" data-name="LWPOLYLINE">
      <polygon points="1824.53 487.05 1824.53 486.5 1824.53 410.47 1824.53 349.41 1757.31 349.41 1757.31 410.47 1757.31 486.54 1757.31 487.64 1757.31 490.3 1757.31 504.4 1758.47 504.4 1824.53 504.4 1824.53 490.26 1824.53 487.05"/>
    </g>
  </g>
  <g id="_0004.003" data-name="0004.003">
    <g id="LWPOLYLINE-39" data-name="LWPOLYLINE">
      <polygon points="1754.35 410.47 1699.78 410.47 1699.78 486.54 1713.9 486.54 1720.65 486.54 1740.91 486.54 1747.66 486.54 1754.35 486.54 1754.35 410.47"/>
    </g>
  </g>
  <g id="_0002.003" data-name="0002.003">
    <g id="LWPOLYLINE-40" data-name="LWPOLYLINE">
      <polygon points="1699.78 410.47 1754.35 410.47 1754.35 347.58 1754.35 323.53 1699.78 323.53 1699.78 410.47"/>
    </g>
  </g>
  <g id="_0328" data-name="0328">
    <polygon points="1461.39 600.18 1505.13 600.18 1505.13 454.75 1480.48 454.75 1480.26 454.75 1479.57 454.75 1461.32 454.75 1461.32 465.26 1454.13 465.26 1454.13 488.93 1461.39 488.93 1461.39 500.28 1461.39 501.97 1461.39 550.53 1461.39 600.18"/>
  </g>
  <g id="_0330" data-name="0330">
    <g id="LWPOLYLINE-41" data-name="LWPOLYLINE">
      <polygon points="1403.45 553.13 1403.45 579.18 1403.45 587.06 1403.45 596.87 1458.44 596.87 1458.44 553.13 1403.45 553.13"/>
    </g>
  </g>
  <g id="_0332" data-name="0332">
    <g id="LWPOLYLINE-42" data-name="LWPOLYLINE">
      <polygon points="1403.45 503.62 1403.45 530.06 1403.45 547.93 1458.44 547.93 1458.44 503.62 1453.25 503.62 1410.99 503.62 1403.45 503.62"/>
    </g>
  </g>
  <g id="_0338" data-name="0338">
    <g id="LWPOLYLINE-43" data-name="LWPOLYLINE">
      <polygon points="1400.49 547.14 1400.49 531.54 1353.38 531.54 1353.38 577.88 1353.41 577.88 1400.49 577.88 1400.49 553.92 1400.49 547.14"/>
    </g>
  </g>
  <g id="_0340" data-name="0340">
    <g id="LWPOLYLINE-44" data-name="LWPOLYLINE">
      <polygon points="1400.49 501.97 1400.49 500.04 1389.49 500.04 1360.72 500.04 1353.38 500.04 1353.38 528.59 1400.49 528.59 1400.49 501.97"/>
    </g>
  </g>
  <g id="_0336" data-name="0336">
    <g id="LWPOLYLINE-45" data-name="LWPOLYLINE">
      <polygon points="1350.42 530.06 1350.42 499.69 1316.67 499.69 1316.67 501.37 1316.67 600.18 1350.42 600.18 1350.42 587.06 1350.42 580.52 1350.42 579.71 1350.42 579.18 1350.42 530.06"/>
    </g>
  </g>
  <g id="_0334" data-name="0334">
    <g id="LWPOLYLINE-46" data-name="LWPOLYLINE">
      <polygon points="1411.87 500.32 1452.38 500.32 1452.38 489.81 1452.38 464.38 1452.38 453.87 1452.38 443.83 1452.38 442.83 1451.43 442.83 1441.56 442.83 1441.56 431.26 1326.51 431.26 1326.51 442.65 1316.67 442.65 1316.67 496.73 1350.39 496.73 1351.9 496.73 1359.85 496.73 1359.85 462.91 1361.6 462.91 1361.6 496.73 1388.61 496.73 1388.61 483.16 1398.86 483.16 1398.86 462.91 1400.62 462.91 1400.62 484.04 1400.62 487.24 1411.87 487.24 1411.87 500.32"/>
    </g>
  </g>
  <g id="_0344" data-name="0344">
    <g id="LWPOLYLINE-47" data-name="LWPOLYLINE">
      <rect x="1249.72" y="502.85" width="63.29" height="93.67"/>
    </g>
  </g>
  <g id="_0342.1" data-name="0342.1">
    <g id="LWPOLYLINE-48" data-name="LWPOLYLINE">
      <polyline points="1142.27 596.52 1158.14 596.52 1158.14 544.34 1162.22 544.34 1162.22 596.52 1246.77 596.52 1246.77 499.9 1313.01 499.9 1313.01 498.21 1313.01 441.78 1313.01 431.97 1264.35 431.97 1264.35 454.75 1236.22 454.75 1236.22 431.97 1142.27 431.97"/>
    </g>
  </g>
  <g id="_0342.2" data-name="0342.2">
    <g id="LWPOLYLINE-49" data-name="LWPOLYLINE">
      <polyline points="1142.27 431.97 1048.32 431.97 1048.32 457.28 1020.12 457.28 1020.12 431.97 987.35 431.97 987.35 490.61 873.43 490.61 873.43 596.52 984.05 596.52 984.05 596.48 984.05 531.12 987 531.12 987 596.52 1071.55 596.52 1071.55 544.34 1075.63 544.34 1075.63 596.52 1142.27 596.52"/>
    </g>
  </g>
  <g id="_0342.001" data-name="0342.001">
    <g id="LWPOLYLINE-50" data-name="LWPOLYLINE">
      <polygon points="870.83 397.93 870.83 487.66 872.13 487.66 984.4 487.66 984.4 432 984.4 430.14 984.4 397.93 870.83 397.93"/>
    </g>
  </g>
  <g id="_0051.003c" data-name="0051.003c">
    <rect x="633.91" y="519.16" width="21.52" height="23.63"/>
  </g>
  <g id="_0051.003b" data-name="0051.003b">
    <g id="LWPOLYLINE-51" data-name="LWPOLYLINE">
      <rect x="611.55" y="519.16" width="20.93" height="23.63"/>
    </g>
  </g>
  <g id="_0051.003a" data-name="0051.003a">
    <g id="LWPOLYLINE-52" data-name="LWPOLYLINE">
      <polygon points="593.8 519.16 551.18 519.16 551.18 539.15 591.37 539.15 593.8 539.15 593.8 519.16"/>
    </g>
  </g>
  <g id="_0301.009" data-name="0301.009">
    <g id="LWPOLYLINE-53" data-name="LWPOLYLINE">
      <polygon points="611.55 545.75 610.14 545.75 610.14 547.05 610.14 596.1 723.64 596.1 723.64 520.29 658.38 520.29 658.38 545.75 638.55 545.75 626.39 545.75 611.55 545.75"/>
    </g>
  </g>
  <g id="_0301.008" data-name="0301.008">
    <polygon points="527.98 660.79 594.22 660.79 594.22 656.73 606.06 656.73 606.06 598.14 606.06 548.35 527.98 548.35 527.98 589.98 527.98 593.32 527.98 660.79"/>
  </g>
  <g id="_0301.007" data-name="0301.007">
    <g id="LWPOLYLINE-54" data-name="LWPOLYLINE">
      <polygon points="394.04 660.79 523.9 660.79 523.9 594.62 442.89 594.62 442.89 592.02 375.34 592.02 375.34 647.29 394.04 647.29 394.04 660.79"/>
    </g>
  </g>
  <g id="_0301.006" data-name="0301.006">
    <g id="LWPOLYLINE-55" data-name="LWPOLYLINE">
      <polygon points="437.5 519.16 378.29 519.16 378.29 587.94 378.39 587.94 442.89 587.94 523.9 587.94 523.9 550.44 523.9 543.88 523.9 519.16 437.5 519.16"/>
    </g>
  </g>
  <g id="_0301.012" data-name="0301.012">
    <g id="LWPOLYLINE-56" data-name="LWPOLYLINE">
      <polygon points="483.56 406.37 483.56 471.63 600.9 471.63 600.9 454.75 587.5 454.75 587.5 440.86 587.5 439.56 587.5 439.52 587.5 406.37 552.55 406.37 483.56 406.37"/>
    </g>
  </g>
  <g id="_0301.010" data-name="0301.010">
    <g id="LWPOLYLINE-57" data-name="LWPOLYLINE">
      <polygon points="656.91 346.6 554.03 346.6 554.03 403.41 590.45 403.41 590.45 439.56 616.88 439.56 616.88 454.75 603.5 454.75 603.5 471.63 650.61 471.63 650.61 454.75 677.61 454.75 677.61 471.63 767.1 471.63 767.1 346.6 656.91 346.6"/>
    </g>
  </g>
  <g id="_0301.011" data-name="0301.011">
    <g id="LWPOLYLINE-58" data-name="LWPOLYLINE">
      <rect x="483.56" y="346.6" width="67.51" height="56.82"/>
    </g>
  </g>
  <g id="_0300.003" data-name="0300.003">
    <g id="LWPOLYLINE-59" data-name="LWPOLYLINE">
      <polygon points="549.71 516.21 611.55 516.21 626.39 516.21 638.55 516.21 656.91 516.21 727.72 516.21 727.72 600.18 767.45 600.18 767.45 475.71 676.31 475.71 651.91 475.71 602.2 475.71 479.49 475.71 479.49 404.89 479.49 344.56 479.49 341.17 479.49 326.76 467.18 326.76 438.98 326.76 438.98 395.26 438.98 516.21 525.76 516.21 549.71 516.21"/>
    </g>
  </g>
  <g id="_0301.005" data-name="0301.005">
    <path d="M343.25,395.26h-101.84v44.02h17.62v15.75h-17.62v205.76h133.93v-144.58h60.69v-120.95h-92.78ZM407.09,454.57h-31.75v-14.66h31.75v14.66Z"/>
  </g>
  <g id="_0301.004" data-name="0301.004">
    <polygon points="250.66 340.24 242.96 340.26 242.87 391.04 338.51 391.04 338.51 324.44 250.61 324.44 250.66 340.24"/>
  </g>
  <g id="_0301.018" data-name="0301.018">
    <polygon points="341.51 324.44 341.51 395.26 436.03 395.26 436.03 326.76 436.03 324.44 341.51 324.44"/>
  </g>
  <g id="_0350.1" data-name="0350.1">
    <g id="LWPOLYLINE-60" data-name="LWPOLYLINE">
      <polyline points="1142.27 426.9 1237.1 428.31 1263.47 428.31 1314.84 428.31 1316.67 428.31 1316.7 428.31 1325.63 428.31 1442.44 428.31 1455.69 428.31 1455.69 438.56 1455.69 439.56 1456.64 439.56 1480.45 439.56 1480.45 451.8 1508.08 451.8 1508.08 597.12 1508.08 597.22 1562.94 597.22 1562.94 546.73 1633.43 546.73 1633.43 595.75 1753.65 595.75 1753.65 508.05 1696.83 508.05 1696.83 490.3 1696.83 487.64 1696.83 486.54 1696.83 410.47 1696.83 320.58 1757.31 320.58 1757.31 345.75 1824.53 345.75 1824.53 320.58 1884.59 320.58 1884.59 334.64 1910.47 334.64 1910.47 230 1893.52 230 1893.52 218.19 1473.03 218.19 1473.03 230.84 1381.65 230.84 1381.65 219.03 1142.27 219.03"/>
    </g>
  </g>
  <g id="_0350.2" data-name="0350.2">
    <g id="LWPOLYLINE-61" data-name="LWPOLYLINE">
      <polyline points="1142.27 221.56 658.38 219.03 658.38 342.52 771.18 342.52 771.18 473.67 770.41 473.67 770.41 597.12 770.41 597.22 866.05 597.22 866.05 489.14 866.05 393.15 989.18 393.15 989.18 428.31 1021 428.31 1047.44 428.31 1142.27 428.31"/>
    </g>
  </g>
  <g id="_0300.003b" data-name="0300.003b">
    <g id="LWPOLYLINE-62" data-name="LWPOLYLINE">
      <polygon points="320.31 286.61 243.99 286.61 243.99 321.49 246.28 321.49 252.03 321.49 339.86 321.49 438.98 321.49 438.98 326.76 467.18 326.76 467.18 286.61 398.51 286.61 394.5 286.61 320.31 286.61"/>
    </g>
  </g>
  <g id="_0300.003a" data-name="0300.003a">
    <g id="LWPOLYLINE-63" data-name="LWPOLYLINE">
      <polygon points="655.43 222.08 655.43 221.42 609.79 221.42 609.79 238.72 594.6 238.72 594.6 221.42 467.18 221.42 467.18 288.52 467.18 326.76 479.49 326.76 479.49 342.52 552.55 342.52 655.43 342.52 655.43 222.08"/>
    </g>
  </g>
  <g id="_0301.003" data-name="0301.003">
    <rect x="396.52" y="221.56" width="68.17" height="62.09"/>
  </g>
  <g id="_0301.002" data-name="0301.002">
    <g id="LWPOLYLINE-64" data-name="LWPOLYLINE">
      <polygon points="321.96 221.56 321.96 283.66 392.85 283.66 392.85 238.72 378.57 238.72 378.57 221.56 321.96 221.56"/>
    </g>
  </g>
  <g id="_0301.001" data-name="0301.001">
    <g id="LWPOLYLINE-65" data-name="LWPOLYLINE">
      <polygon points="243.99 240.34 256.35 240.34 256.35 232.96 258.96 232.96 258.96 242.94 243.99 242.94 243.99 283.66 318.66 283.66 318.66 221.56 243.99 221.56 243.99 240.34"/>
    </g>
  </g>
</svg>