<?xml version="1.0" encoding="UTF-8"?>
<svg xmlns="http://www.w3.org/2000/svg" xmlns:xlink="http://www.w3.org/1999/xlink" viewBox="0 0 1947.93 1907.35">
  <defs>
    <style>
      .cls-1 {
        fill-rule: evenodd;
      }
    </style>
  </defs>
  <g id="Layer_1" data-name="Layer 1">
    <image width="5760" height="4320" transform="translate(-298.45 -159.4) scale(.6)" xlink:href="../PDF and PNG/RCP/Level 8.jpg"/>
  </g>
  <g id="_0002.008" data-name="0002.008">
    <g id="HATCH">
      <polygon class="cls-1" points="1696.83 409.57 1751.39 409.57 1751.39 346.7 1751.39 324.95 1751.39 321.53 1696.83 321.53 1696.83 409.57"/>
    </g>
  </g>
  <g id="_0066.008" data-name="0066.008">
    <g id="HATCH-2" data-name="HATCH">
      <polygon class="cls-1" points="1172.58 1543.7 1218.99 1543.7 1218.99 1466.07 1209.14 1466.07 1209.14 1500.53 1176.52 1500.53 1176.52 1466.07 1172.58 1466.07 1172.58 1512.76 1172.58 1543.7"/>
    </g>
  </g>
  <g id="_0050.008" data-name="0050.008">
    <g id="HATCH-3" data-name="HATCH">
      <rect x="608.08" y="813.19" width="41.51" height="69.45"/>
    </g>
  </g>
  <g id="_0049.008" data-name="0049.008">
    <g id="HATCH-4" data-name="HATCH">
      <polygon class="cls-1" points="730.38 840.43 706.83 840.43 706.83 882.63 730.38 882.63 730.38 881.89 730.38 874.5 730.38 840.43"/>
    </g>
  </g>
  <g id="_0094.008" data-name="0094.008">
    <g id="HATCH-5" data-name="HATCH">
      <polygon class="cls-1" points="652.55 658.04 652.55 811.71 652.55 881.93 652.58 881.93 703.88 881.93 703.88 837.48 729.33 837.48 729.33 707.54 718.5 707.54 718.5 658.04 652.55 658.04"/>
    </g>
  </g>
  <g id="_0048.008" data-name="0048.008">
    <g id="HATCH-6" data-name="HATCH">
      <polygon class="cls-1" points="767.16 657.34 721.46 657.34 721.46 658.08 721.46 704.59 729.29 704.59 733.02 704.59 767.16 704.59 767.16 658.08 767.16 657.34"/>
    </g>
  </g>
  <g id="_0018.008" data-name="0018.008">
    <g id="HATCH-7" data-name="HATCH">
      <polygon class="cls-1" points="804.99 658.04 770.11 658.04 770.11 707.54 732.99 707.54 732.99 838.95 732.99 840.45 732.99 840.47 732.99 873.2 804.99 873.2 804.99 869 804.99 766.52 804.99 668.71 804.99 658.04"/>
    </g>
  </g>
  <g id="_0092.008" data-name="0092.008">
    <g id="HATCH-8" data-name="HATCH">
      <polygon class="cls-1" points="900.02 658.04 822.69 658.04 822.69 669.59 808.64 669.59 808.64 764.7 988.5 764.7 988.5 719.56 900.02 719.56 900.02 658.04"/>
    </g>
  </g>
  <g id="_0047.008" data-name="0047.008">
    <g id="HATCH-9" data-name="HATCH">
      <polygon class="cls-1" points="991.46 670.89 991.46 717.74 991.46 765.4 1002.71 765.4 1002.71 734.96 1002.71 670.89 991.46 670.89"/>
    </g>
  </g>
  <g id="_0093.008" data-name="0093.008">
    <g id="HATCH-10" data-name="HATCH">
      <polygon class="cls-1" points="988.5 658.04 903.67 658.04 903.67 715.91 988.5 715.91 988.5 670.93 988.5 670.89 988.5 669.42 988.5 658.04"/>
    </g>
  </g>
  <g id="_0054.008" data-name="0054.008">
    <g id="HATCH-11" data-name="HATCH">
      <polygon class="cls-1" points="972.61 1104.54 972.61 976.98 972.61 883.83 988.46 883.83 988.46 870.88 1002.35 870.88 1002.35 805.84 1002.35 768.35 991.49 768.35 989.98 768.35 808.64 768.35 808.64 868.12 822.78 868.12 822.78 885.59 810.2 885.59 806.81 885.59 733.02 885.59 732.99 885.59 731.69 885.59 705.35 885.59 652.55 885.59 652.55 914.26 652.55 1104.54 807.8 1104.54 807.8 1086.67 822.99 1086.67 822.99 1104.54 972.61 1104.54"/>
    </g>
  </g>
  <g id="_0056.008.2" data-name="0056.008.2">
    <g id="HATCH-12" data-name="HATCH">
      <polygon class="cls-1" points="1038.99 1104.54 1110.14 1104.54 1110.14 978.81 976.27 978.81 976.27 1104.54 1023.8 1104.54 1023.8 1079.63 1038.99 1079.63 1038.99 1104.54"/>
    </g>
  </g>
  <g id="_0056.008.1" data-name="0056.008.1">
    <g id="HATCH-13" data-name="HATCH">
      <polygon class="cls-1" points="1328.42 810.76 1276.43 810.76 1276.43 855.58 1290.52 855.58 1323.12 855.58 1328.42 855.58 1328.42 811.5 1328.42 810.76"/>
    </g>
  </g>
  <g id="_0055.008" data-name="0055.008">
    <g id="HATCH-14" data-name="HATCH">
      <polygon class="cls-1" points="1110.14 866.48 1091.72 866.48 1091.72 874.15 1091.72 881.92 1005.31 881.92 1005.31 887.48 989.34 887.48 988.5 887.48 988.42 887.48 976.27 887.48 976.27 975.15 1110.14 975.15 1110.14 885.63 1110.14 866.48"/>
    </g>
  </g>
  <g id="_0010.008" data-name="0010.008">
    <g id="HATCH-15" data-name="HATCH">
      <polygon class="cls-1" points="1015.43 805.98 1015.43 805.84 1005.31 805.84 1005.31 870.84 1005.31 870.88 1005.31 874.18 1008.68 874.18 1042.43 874.18 1046.02 874.18 1052.77 874.18 1088.77 874.18 1088.77 864.65 1088.77 805.84 1035.68 805.84 1035.68 805.98 1015.43 805.98"/>
    </g>
  </g>
  <g id="_0008.008" data-name="0008.008">
    <g id="HATCH-16" data-name="HATCH">
      <polygon class="cls-1" points="1088.77 734.96 1005.31 734.96 1005.31 765.36 1005.31 765.4 1005.31 766.88 1005.31 805.84 1015.43 805.84 1015.43 805.7 1035.68 805.7 1035.68 805.84 1088.77 805.84 1088.77 734.96"/>
    </g>
  </g>
  <g id="_0006.008" data-name="0006.008">
    <g id="HATCH-17" data-name="HATCH">
      <polygon class="cls-1" points="1005.31 734.96 1088.77 734.96 1088.77 676.46 1088.77 666.34 1052.77 666.34 1046.02 666.34 1042.43 666.34 1035.68 666.34 1015.43 666.34 1008.68 666.34 1007.22 666.34 1005.31 666.34 1005.31 670.93 1005.31 734.96"/>
    </g>
  </g>
  <g id="_0005.008" data-name="0005.008">
    <g id="HATCH-18" data-name="HATCH">
      <polygon class="cls-1" points="1190.02 734.96 1273.48 734.96 1273.48 670.93 1273.48 666.34 1271.57 666.34 1270.1 666.34 1263.35 666.34 1243.1 666.34 1236.35 666.34 1232.77 666.34 1226.02 666.34 1224.89 666.34 1190.02 666.34 1190.02 676.46 1190.02 734.96"/>
    </g>
  </g>
  <g id="_0007.008" data-name="0007.008">
    <g id="HATCH-19" data-name="HATCH">
      <polygon class="cls-1" points="1190.02 805.84 1243.1 805.84 1243.1 805.7 1263.35 805.7 1263.35 805.84 1273.48 805.84 1273.48 766.88 1273.48 765.41 1273.48 765.37 1273.48 734.96 1190.02 734.96 1190.02 805.84"/>
    </g>
  </g>
  <g id="_0009.008" data-name="0009.008">
    <g id="HATCH-20" data-name="HATCH">
      <polygon class="cls-1" points="1243.1 805.98 1243.1 805.84 1190.02 805.84 1190.02 862.79 1190.02 866.52 1190.02 874.18 1226.02 874.18 1232.77 874.18 1236.35 874.18 1243.1 874.18 1263.35 874.18 1270.1 874.18 1273.48 874.18 1273.48 857.06 1273.48 809.28 1273.48 805.84 1263.35 805.84 1263.35 805.98 1243.1 805.98"/>
    </g>
  </g>
  <g id="_0043.008" data-name="0043.008">
    <g id="HATCH-21" data-name="HATCH">
      <polygon class="cls-1" points="1288.75 717.74 1288.75 670.89 1276.08 670.89 1276.08 734.96 1276.08 765.41 1288.75 765.41 1288.75 717.74"/>
    </g>
  </g>
  <g id="_0810" data-name="0810">
    <g id="HATCH-22" data-name="HATCH">
      <polygon class="cls-1" points="1168.92 918.63 1320.94 918.63 1320.94 886.93 1290.52 886.93 1289 886.93 1276.47 886.93 1274.96 886.93 1188.54 886.93 1187.06 886.93 1187.03 886.93 1168.92 886.93 1168.92 918.63"/>
    </g>
  </g>
  <g id="_0068.008" data-name="0068.008">
    <g id="HATCH-23" data-name="HATCH">
      <polygon class="cls-1" points="1308.46 975.15 1339.54 975.15 1339.54 922.32 1339.54 922.29 1322.77 922.29 1172.58 922.29 1172.58 975.15 1304.73 975.15 1308.46 975.15"/>
    </g>
  </g>
  <g id="_0069.008" data-name="0069.008">
    <g id="HATCH-24" data-name="HATCH">
      <polygon class="cls-1" points="1172.58 1104.54 1239.8 1104.54 1239.8 1079.63 1254.99 1079.63 1254.99 1104.54 1304.77 1104.54 1304.77 978.81 1172.58 978.81 1172.58 1104.54"/>
    </g>
  </g>
  <g id="_0803" data-name="0803">
    <g id="HATCH-25" data-name="HATCH">
      <polygon class="cls-1" points="1187.06 678.29 1091.72 678.29 1091.72 734.96 1091.72 805.84 1091.72 862.83 1111.97 862.83 1115.91 862.83 1163.23 862.83 1187.06 862.83 1187.06 805.84 1187.06 734.96 1187.06 678.29"/>
    </g>
  </g>
  <g id="_0098.008" data-name="0098.008">
    <g id="HATCH-26" data-name="HATCH">
      <polygon class="cls-1" points="1324.6 918.63 1341.37 918.63 1343.19 918.63 1343.23 918.63 1389.99 918.63 1389.99 865.67 1379.93 865.67 1379.93 836.07 1389.99 836.07 1389.99 820.81 1379.51 820.81 1379.51 811.46 1331.37 811.46 1331.37 858.54 1324.6 858.54 1324.6 885.45 1324.6 918.63"/>
    </g>
  </g>
  <g id="_0086.008" data-name="0086.008">
    <g id="HATCH-27" data-name="HATCH">
      <polygon class="cls-1" points="1291.7 658.04 1291.7 669.42 1291.7 670.89 1291.7 670.93 1291.7 715.91 1348.45 715.91 1375.12 715.91 1375.12 658.04 1291.7 658.04"/>
    </g>
  </g>
  <g id="_0087.008" data-name="0087.008">
    <g id="HATCH-28" data-name="HATCH">
      <polygon class="cls-1" points="1470.14 766.56 1470.14 669.59 1456.09 669.59 1456.09 658.04 1378.77 658.04 1378.77 719.56 1350.27 719.56 1350.27 766.56 1470.14 766.56"/>
    </g>
  </g>
  <g id="_0812.001" data-name="0812.001">
    <g id="HATCH-29" data-name="HATCH">
      <polygon class="cls-1" points="955.46 596.31 995.96 596.31 995.96 596.05 995.96 579.43 955.46 579.43 955.46 596.05 955.46 596.31"/>
    </g>
  </g>
  <g id="_0812.002" data-name="0812.002">
    <g id="HATCH-30" data-name="HATCH">
      <rect x="1543.88" y="579.43" width="40.5" height="16.88"/>
    </g>
  </g>
  <g id="_0812.1" data-name="0812.1">
    <polygon class="cls-1" points="1693.81 608.94 1693.81 654.32 1187.06 654.32 1187.06 674.39 1091.72 674.39 1091.72 608.94 1693.81 608.94"/>
  </g>
  <g id="_0812.2" data-name="0812.2">
    <rect x="611.52" y="608.94" width="480.2" height="46.42"/>
  </g>
  <g id="_0041.008" data-name="0041.008">
    <g id="HATCH-31" data-name="HATCH">
      <polygon class="cls-1" points="1557.33 657.34 1511.28 657.34 1511.28 658.08 1511.28 704.59 1547.63 704.59 1557.33 704.59 1557.33 657.34"/>
    </g>
  </g>
  <g id="_0017.008" data-name="0017.008">
    <g id="HATCH-32" data-name="HATCH">
      <polygon class="cls-1" points="1545.8 840.43 1545.8 838.95 1545.8 707.54 1508.32 707.54 1508.32 658.04 1473.8 658.04 1473.8 667.79 1473.8 668.71 1473.8 768.39 1473.8 871.54 1473.8 873.2 1545.8 873.2 1545.8 840.47 1545.8 840.43"/>
    </g>
  </g>
  <g id="_0040.008" data-name="0040.008">
    <g id="HATCH-33" data-name="HATCH">
      <polygon class="cls-1" points="1549.46 707.54 1549.46 837.48 1574.91 837.48 1574.91 881.93 1630.84 881.93 1630.88 881.93 1630.88 838.95 1630.88 658.04 1560.28 658.04 1560.28 707.54 1549.46 707.54"/>
    </g>
  </g>
  <g id="_0037.008" data-name="0037.008">
    <g id="HATCH-34" data-name="HATCH">
      <rect x="1633.83" y="840.43" width="36.87" height="42.2"/>
    </g>
  </g>
  <g id="_0040.008-2" data-name="0040.008">
    <g id="HATCH-35" data-name="HATCH">
      <polygon class="cls-1" points="1571.96 840.43 1548.4 840.43 1548.4 874.5 1548.4 882.63 1571.96 882.63 1571.96 881.89 1571.96 840.43"/>
    </g>
  </g>
  <g id="_0067.008" data-name="0067.008">
    <g id="HATCH-36" data-name="HATCH">
      <polygon class="cls-1" points="1308.42 978.81 1308.42 1104.54 1455.8 1104.54 1455.8 1086.67 1470.99 1086.67 1470.99 1104.54 1630.88 1104.54 1630.88 995.24 1630.88 885.59 1574.94 885.59 1574.91 885.59 1573.43 885.59 1550.49 885.59 1548.4 885.59 1480.55 885.59 1471.97 885.59 1468.58 885.59 1455.8 885.59 1455.8 870.67 1470.14 870.67 1470.14 770.22 1346.62 770.22 1346.62 719.56 1291.7 719.56 1291.7 768.36 1276.43 768.36 1276.43 805.84 1276.43 807.81 1329.9 807.81 1331.37 807.81 1331.41 807.81 1380.81 807.81 1393.64 807.81 1393.64 819.51 1393.64 837.37 1393.64 864.37 1393.64 922.29 1343.19 922.29 1343.19 978.81 1308.42 978.81"/>
    </g>
  </g>
  <g id="_0811.2" data-name="0811.2">
    <g id="HATCH-37" data-name="HATCH">
      <polygon class="cls-1" points="1187.06 866.48 1117.21 866.48 1117.21 886.93 1113.8 886.93 1113.8 976.98 1113.8 1106.37 1168.92 1106.37 1168.92 976.98 1168.92 920.46 1168.92 917.07 1168.92 886.93 1187.03 886.93 1187.06 866.48"/>
    </g>
  </g>
  <g id="_0811.4" data-name="0811.4">
    <g id="HATCH-38" data-name="HATCH">
      <polygon class="cls-1" points="1168.92 1255.98 1168.92 1106.37 1113.8 1106.37 1113.8 1255.98 1085.11 1255.98 1085.11 1315.6 1113.8 1315.6 1113.8 1512.76 1168.92 1512.76 1168.92 1464.24 1168.92 1315.6 1197.61 1315.6 1197.61 1255.98 1194.27 1255.98 1177.04 1255.98 1168.92 1255.98"/>
    </g>
  </g>
  <g id="_0811.001" data-name="0811.001">
    <polygon class="cls-1" points="1114.62 1515.76 1168.29 1515.76 1168.29 1548.94 1218.94 1548.94 1218.94 1599.22 1208.6 1599.22 1208.6 1749.7 1191.87 1749.83 1191.87 1814.58 1140.4 1814.58 1140.4 1750.09 1124.65 1750.09 1124.65 1599.55 1114.62 1599.55 1114.62 1515.76"/>
  </g>
  <g id="_0065.008.4" data-name="0065.008.4">
    <g id="HATCH-39" data-name="HATCH">
      <polygon class="cls-1" points="1221.24 1612.32 1913.96 1612.32 1913.96 995.24 1634.53 995.24 1634.53 1108.2 1471.02 1108.2 1469.19 1108.2 1457.59 1108.2 1455.76 1108.2 1306.6 1108.2 1255.02 1108.2 1254.99 1108.2 1254.11 1108.2 1240.68 1108.2 1239.8 1108.2 1239.76 1108.2 1172.58 1108.2 1172.58 1253.03 1177.08 1253.03 1177.08 1220.15 1177.08 1219.24 1177.08 1203.21 1189.74 1203.21 1189.74 1205.46 1238.67 1205.46 1238.67 1221.14 1239.8 1221.14 1239.8 1251.65 1223.77 1251.65 1223.77 1218.12 1194.24 1218.12 1194.24 1253.03 1201.27 1253.03 1201.27 1319.26 1172.58 1319.26 1172.58 1462.42 1177.64 1462.42 1208.02 1462.42 1222.64 1462.42 1222.64 1545.53 1222.64 1599.1 1302.17 1599.1 1302.17 1602.76 1220.81 1602.76 1218.99 1602.76 1218.99 1607.76 1214.36 1607.76 1218.92 1612.32 1221.24 1612.32"/>
    </g>
  </g>
  <g id="_0065.008.1" data-name="0065.008.1">
    <g id="HATCH-40" data-name="HATCH">
      <polygon class="cls-1" points="1913.96 959.26 1905.1 959.26 1905.1 688.49 1905.1 676.88 1887.8 676.88 1887.8 647.63 1905.1 647.63 1905.1 610.51 1697.53 610.51 1697.53 658.04 1686.88 658.04 1686.88 669.08 1671.9 669.08 1671.9 658.04 1634.53 658.04 1634.53 837.48 1673.66 837.48 1673.66 885.59 1634.53 885.59 1634.53 885.62 1634.53 995.24 1913.96 995.24 1913.96 959.26"/>
    </g>
  </g>
  <g id="_0052.008.3" data-name="0052.008.3">
    <g id="HATCH-41" data-name="HATCH">
      <polygon class="cls-1" points="369.33 914.26 369.33 1596.85 374.96 1596.85 374.96 1603.32 1030.62 1603.32 1030.62 1599.1 1110.14 1599.1 1110.14 1512.76 1110.14 1319.26 1081.46 1319.26 1081.46 1252.32 1110.14 1252.32 1110.14 1108.2 1039.02 1108.2 1038.99 1108.2 1038.11 1108.2 1024.68 1108.2 1023.8 1108.2 1023.76 1108.2 974.44 1108.2 823.02 1108.2 821.19 1108.2 809.59 1108.2 808.09 1108.2 807.76 1108.2 648.89 1108.2 648.89 914.26 369.33 914.26"/>
    </g>
  </g>
  <g id="_0052.008.2" data-name="0052.008.2">
    <polygon points="373.94 611.07 606.74 611.07 606.74 658.93 647.87 658.93 647.87 810.24 605 810.24 605 886.38 647.87 886.38 647.87 914.26 373.94 914.26 373.94 611.07"/>
  </g>
  <g id="_0801" data-name="0801">
    <g id="HATCH-42" data-name="HATCH">
      <polygon class="cls-1" points="1821.57 486.15 1821.57 485.64 1821.57 409.57 1821.57 348.53 1754.35 348.53 1754.35 409.57 1754.35 485.64 1754.35 485.97 1754.35 489.4 1754.35 503.49 1821.57 503.49 1821.57 489.4 1821.57 486.15"/>
    </g>
  </g>
  <g id="_0001.008" data-name="0001.008">
    <g id="HATCH-43" data-name="HATCH">
      <polygon class="cls-1" points="1824.52 409.57 1877.53 409.57 1877.53 352.29 1877.53 327.54 1877.53 324.86 1877.53 322.65 1824.52 322.65 1824.52 328 1824.52 346.7 1824.52 409.57"/>
    </g>
  </g>
  <g id="_0003.008" data-name="0003.008">
    <g id="HATCH-44" data-name="HATCH">
      <polygon class="cls-1" points="1877.53 409.57 1824.52 409.57 1824.52 485.64 1831.21 485.64 1837.96 485.64 1858.21 485.64 1864.96 485.64 1877.53 485.64 1877.53 440.67 1877.53 409.57"/>
    </g>
  </g>
  <g id="_0038.008" data-name="0038.008">
    <g id="HATCH-45" data-name="HATCH">
      <polygon class="cls-1" points="1837.96 489.34 1837.96 485.64 1831.21 485.64 1831.21 489.36 1824.52 489.36 1824.52 504.2 1877.53 504.2 1877.53 501.56 1877.53 498.89 1877.53 489.36 1864.96 489.36 1864.96 485.64 1858.21 485.64 1858.21 489.34 1837.96 489.34"/>
    </g>
  </g>
  <g id="_0039.008" data-name="0039.008">
    <g id="HATCH-46" data-name="HATCH">
      <polygon class="cls-1" points="1717.7 489.36 1717.7 485.64 1710.95 485.64 1710.95 489.36 1696.83 489.36 1696.83 504.2 1715.18 504.2 1751.39 504.2 1751.39 489.36 1744.7 489.36 1744.7 485.64 1737.95 485.64 1737.95 489.36 1717.7 489.36"/>
    </g>
  </g>
  <g id="_0004.008" data-name="0004.008">
    <g id="HATCH-47" data-name="HATCH">
      <polygon class="cls-1" points="1751.39 409.57 1696.83 409.57 1696.83 485.64 1710.95 485.64 1717.7 485.64 1737.95 485.64 1744.7 485.64 1751.39 485.64 1751.39 409.57"/>
    </g>
  </g>
  <g id="_0804.2" data-name="0804.2">
    <polygon class="cls-1" points="373.94 605.97 373.94 438.78 1139.49 438.78 1139.49 605.97 998.27 605.97 998.27 577.06 953.43 577.06 953.43 605.97 373.94 605.97"/>
  </g>
  <g id="_0804.1" data-name="0804.1">
    <polygon class="cls-1" points="1139.49 605.97 1139.49 438.78 1449.8 438.78 1449.8 228.95 1469.22 228.95 1469.22 218.15 1891.78 218.15 1891.78 229.82 1907.71 229.82 1907.71 325.17 1882.4 325.17 1882.4 319.06 1822.4 319.06 1822.4 345.02 1754.98 345.02 1754.98 318.84 1693.45 318.84 1693.88 507.78 1881.85 507.78 1881.85 502.11 1905.09 502.11 1905.09 605.97 1587.09 605.97 1587.09 577.17 1541.92 577.17 1541.92 605.97 1139.49 605.97"/>
  </g>
</svg>