<?xml version="1.0" encoding="UTF-8"?>
<svg xmlns="http://www.w3.org/2000/svg" xmlns:xlink="http://www.w3.org/1999/xlink" viewBox="0 0 1930.25 1653.38">
  <defs>
    <style>
      .cls-1 {
        opacity: .49;
      }
    </style>
  </defs>
  <g id="Procore_Drawing" data-name="Procore Drawing">
    <image width="5760" height="4320" transform="translate(-294.95 -153.56) scale(.6)" xlink:href="../PDF and PNG/RCP/Level 17.jpg"/>
  </g>
  <g id="_1703" data-name="1703">
    <polygon class="cls-1" points="1171.35 654.56 1171.36 809.67 1171.38 898.96 1171.38 902.37 1171.38 927.16 1171.38 948.53 1114.29 948.53 1114.29 929.41 1114.29 902.37 1114.29 898.96 1114.29 809.67 1114.29 804.82 1114.29 654.56 1171.35 654.56"/>
  </g>
  <g id="_0091.017" data-name="0091.017">
    <polygon class="cls-1" points="1006.71 792.3 1006.71 654.56 1110.63 654.56 1110.63 806.29 1006.71 806.29 1006.71 792.3"/>
  </g>
  <g id="_0009.017" data-name="0009.017">
    <polygon class="cls-1" points="1293.02 813.04 1293.02 895.59 1178.13 895.59 1178.13 813.04 1280.44 813.04 1293.02 813.04"/>
  </g>
  <g id="_0018.017" data-name="0018.017">
    <polygon class="cls-1" points="809.41 723.32 809.41 858.67 809.41 884.55 809.41 887.15 709.15 887.15 709.15 832.45 734.46 832.45 734.46 723.32 809.41 723.32"/>
  </g>
  <g id="_0017.017" data-name="0017.017">
    <polygon class="cls-1" points="1575.96 832.45 1575.96 887.15 1476.26 887.15 1476.26 884.55 1476.26 858.67 1476.26 723.32 1551.21 723.32 1551.21 832.45 1575.96 832.45"/>
  </g>
  <g id="_0010.017" data-name="0010.017">
    <path class="cls-1" d="M1107.54,813.04v82.55h-114.89v-82.55h114.89ZM1056.21,879.14v3.73h36v-3.73h-36Z"/>
  </g>
  <g id="_0092.017" data-name="0092.017">
    <polygon class="cls-1" points="1175 654.56 1278.96 654.56 1278.96 792.3 1278.96 806.29 1175 806.29 1175 654.56"/>
  </g>
</svg>