<?xml version="1.0" encoding="UTF-8"?>
<svg xmlns="http://www.w3.org/2000/svg" xmlns:xlink="http://www.w3.org/1999/xlink" viewBox="0 0 1936.7 1810.43">
  <defs>
    <style>
      .cls-1 {
        stroke: #fff;
        stroke-miterlimit: 10;
      }

      .cls-1, .cls-2 {
        fill-rule: evenodd;
      }
    </style>
  </defs>
  <g id="Layer_1" data-name="Layer 1">
    <image width="5760" height="4320" transform="translate(-305.04 -199.65) scale(.6)" xlink:href="../PDF and PNG/RCP/Level 7.jpg"/>
  </g>
  <g id="_0710.003" data-name="0710.003">
    <g id="HATCH">
      <polygon class="cls-2" points="1162.97 1485.61 1162.97 1320.27 1162.97 1318.46 1162.97 1318.4 1162.97 1309.82 1163.11 1309.82 1163.11 1306.44 1163.11 1256.58 1163.11 1253.6 1190.11 1253.6 1190.11 1212.41 1163.11 1212.41 1163.11 1160.31 1163.11 1158.83 1163.11 1154.93 1163.11 1064.68 1163.11 967.8 1163.11 907.19 1106.86 907.19 1106.86 960.76 1106.86 1038.65 1106.86 1040.14 1106.86 1040.16 1106.86 1161.08 1079.16 1161.08 1079.16 1202.28 1106.86 1202.28 1106.86 1273.52 1106.86 1291.91 1106.86 1454.71 1106.86 1458.54 1106.86 1472.39 1106.86 1485.61 1162.97 1485.61"/>
    </g>
  </g>
  <g id="_0710.003b" data-name="0710.003b">
    <g id="HATCH-2" data-name="HATCH">
      <polygon class="cls-2" points="1227.66 1487.19 1164.8 1487.19 1162.76 1485.61 1161.41 1485.61 1105.56 1485.61 1105.56 1487.09 1101.37 1487.09 1101.37 1543.44 1105.49 1543.44 1108.13 1543.44 1108.13 1546.43 1108.13 1556.94 1103.98 1556.94 1103.98 1560.17 1218.59 1560.17 1218.59 1556.94 1214.44 1556.94 1214.44 1543.44 1227.62 1543.44 1227.66 1543.44 1227.66 1540.93 1227.66 1487.19"/>
    </g>
  </g>
  <g id="_0710.006" data-name="0710.006">
    <g id="HATCH-3" data-name="HATCH">
      <polygon class="cls-2" points="1227.66 1543.44 1256.91 1543.44 1256.91 1557.75 1256.91 1558.63 1256.91 1560.17 1297.13 1560.17 1297.13 1563.13 1443.66 1563.13 1443.66 1558.63 1443.66 1557.75 1443.66 1543.44 1472.91 1543.44 1472.91 1557.75 1472.91 1558.63 1472.91 1563.13 1659.66 1563.13 1659.66 1558.63 1659.66 1557.75 1659.66 1543.44 1688.91 1543.44 1688.91 1557.75 1688.91 1558.63 1688.91 1563.13 1868.91 1563.13 1868.91 1558.63 1868.91 1543.44 1898.16 1543.44 1902.37 1543.44 1902.37 1487.09 1824.86 1487.09 1824.86 1487.19 1823.29 1487.19 1790.58 1487.19 1790.58 1460.02 1737.7 1460.02 1737.7 1487.09 1722.11 1487.09 1682.23 1487.09 1615.82 1487.09 1606.56 1487.09 1606.56 1460.02 1553.68 1460.02 1553.68 1487.09 1538.1 1487.09 1498.21 1487.09 1431.2 1487.09 1427.81 1487.09 1427.81 1487.19 1421.94 1487.19 1421.94 1460.02 1369.07 1460.02 1369.07 1487.09 1353.48 1487.09 1313.59 1487.09 1236.8 1487.09 1236.8 1487.19 1227.66 1487.19 1227.66 1543.44"/>
    </g>
  </g>
  <g id="_0710.001" data-name="0710.001">
    <g id="HATCH-4" data-name="HATCH">
      <polygon class="cls-2" points="1826.34 1160.31 1826.29 1160.31 1826.29 1178.66 1794.3 1178.66 1794.3 1252.91 1804.96 1252.91 1823.29 1252.91 1826.34 1252.91 1826.34 1257.77 1826.34 1482.32 1826.34 1485.61 1882.69 1485.61 1882.69 1455.41 1897 1455.41 1897.87 1455.41 1902.37 1455.41 1902.37 1282.16 1897.87 1282.16 1897 1282.16 1882.69 1282.16 1882.69 1252.91 1897 1252.91 1897.87 1252.91 1902.37 1252.91 1902.37 1066.16 1897.87 1066.16 1897 1066.16 1882.69 1066.16 1882.69 1036.91 1897 1036.91 1897.87 1036.91 1902.37 1036.91 1902.37 907.19 1826.34 907.19 1826.34 964.21 1826.34 1021.22 1826.34 1158.79 1826.34 1160.31"/>
    </g>
  </g>
  <g id="_0710.040" data-name="0710.040">
    <g id="HATCH-5" data-name="HATCH">
      <polygon class="cls-2" points="1529.3 1180.06 1529.3 1161.78 1463.08 1161.78 1451.02 1161.78 1451.02 1157 1388.53 1157 1388.53 1229.85 1302.19 1229.85 1302.19 1157 1239.87 1157 1234.98 1157 1234.98 1178.66 1207.69 1178.66 1207.69 1212.41 1193.06 1212.41 1193.06 1253.6 1224.67 1253.6 1233.81 1253.6 1233.84 1253.6 1234.9 1253.6 1250.72 1253.6 1250.72 1271.91 1423.42 1271.91 1434.84 1271.91 1447.31 1271.91 1447.31 1259.94 1465.87 1259.94 1465.87 1271.91 1608.03 1271.91 1619.46 1271.91 1666.69 1271.91 1666.69 1259.94 1681.87 1259.94 1681.87 1271.91 1791.35 1271.91 1791.35 1254.38 1791.35 1178.66 1746.42 1178.66 1746.42 1163.54 1711.42 1163.54 1711.42 1161.78 1675.3 1161.78 1675.26 1161.78 1673.79 1161.78 1658.46 1161.78 1656.98 1161.78 1656.95 1161.78 1644.78 1161.78 1629.59 1161.78 1629.59 1180.06 1529.3 1180.06"/>
    </g>
  </g>
  <g id="_0710.008" data-name="0710.008">
    <g id="HATCH-6" data-name="HATCH">
      <polygon class="cls-2" points="370.69 1543.44 385.87 1543.44 385.87 1563.13 579.66 1563.13 579.66 1558.63 579.66 1557.75 579.66 1543.44 608.91 1543.44 608.91 1557.75 608.91 1558.63 608.91 1563.13 795.66 1563.13 795.66 1558.63 795.66 1557.75 795.66 1543.44 824.91 1543.44 824.91 1557.75 824.91 1558.63 824.91 1563.13 1011.66 1563.13 1011.66 1558.63 1011.66 1557.75 1011.66 1543.44 1040.91 1543.44 1040.91 1557.75 1040.91 1558.63 1040.91 1560.17 1092.94 1560.17 1092.94 1543.44 1098.42 1543.44 1098.42 1487.09 1097.63 1487.09 1088.61 1487.09 1088.74 1461 1040.35 1460.8 1040.67 1487.09 1024.47 1487.09 980.93 1487.09 931.53 1487.09 928.14 1487.09 928.14 1487.19 922.27 1487.19 922.27 1460.02 869.4 1460.02 869.4 1487.09 853.81 1487.09 813.92 1487.09 749.25 1487.09 745.86 1487.09 745.86 1487.19 739.99 1487.19 739.99 1460.02 687.11 1460.02 687.11 1487.4 671.53 1487.4 567.75 1487.4 558.49 1487.4 558.49 1460.02 505.62 1460.02 505.62 1487.09 490.03 1487.09 450.14 1487.09 388.67 1487.09 385.28 1487.09 385.28 1487.19 371.47 1487.19 370.59 1487.19 370.55 1487.19 309.52 1487.19 306.83 1487.19 306.83 1485.71 306.47 1485.71 231.19 1485.71 231.19 1532.61 243 1532.61 243 1543.44 256.85 1543.44 256.85 1558.63 353.74 1558.63 353.74 1563.13 370.69 1563.13 370.69 1543.44"/>
    </g>
  </g>
  <g id="_0710.008a" data-name="0710.008a">
    <g id="HATCH-7" data-name="HATCH">
      <polygon class="cls-2" points="386.16 1487.09 500 1487.09 500 1460.02 393.52 1460.02 386.16 1460.02 386.16 1487.09"/>
    </g>
  </g>
  <g id="_0710.008b" data-name="0710.008b">
    <g id="HATCH-8" data-name="HATCH">
      <polygon class="cls-2" points="565.24 1487.4 673.61 1487.4 673.61 1480.45 682.09 1479.83 682.09 1462.27 633.11 1462.27 633.11 1479.14 630.16 1479.14 630.16 1460.02 571.62 1460.02 565.24 1460.02 565.24 1487.4"/>
    </g>
  </g>
  <g id="_0710.008c" data-name="0710.008c">
    <g id="HATCH-9" data-name="HATCH">
      <polygon class="cls-2" points="753.12 1460.02 746.74 1460.02 746.74 1487.09 863.83 1487.09 863.83 1460.02 753.12 1460.02"/>
    </g>
  </g>
  <g id="_0710.008d" data-name="0710.008d">
    <g id="HATCH-10" data-name="HATCH">
      <polygon class="cls-2" points="929.02 1487.09 1034.78 1487.09 1034.78 1460.02 934.61 1460.02 929.02 1460.02 929.02 1487.09"/>
    </g>
  </g>
  <g id="_0710.038" data-name="0710.038">
    <g id="HATCH-11" data-name="HATCH">
      <polygon class="cls-2" points="1103.2 1453.41 1103.2 1292.79 1092.87 1292.79 1092.87 1275 1036.44 1275 1036.41 1275 1036.41 1282.16 1011.09 1282.16 1011.09 1275 1008.58 1275 935.49 1275 935.49 1292.44 925.36 1292.44 925.36 1439.63 935.49 1439.63 935.49 1457.07 979.42 1457.07 980.07 1457.07 980.93 1457.07 1034.19 1457.07 1039.96 1457.07 1040.1 1457.07 1089.21 1457.07 1089.21 1453.41 1103.2 1453.41"/>
    </g>
  </g>
  <g id="_0710.036" data-name="0710.036">
    <g id="HATCH-12" data-name="HATCH">
      <polygon class="cls-2" points="921.71 1290.64 921.71 1275 817 1275 798.22 1275 754 1275 754 1292.44 743.87 1292.44 743.87 1439.63 754 1439.63 754 1457.07 812.41 1457.07 812.92 1457.07 813.92 1457.07 863.52 1457.07 869.26 1457.07 869.43 1457.07 921.71 1457.07 921.71 1455.15 921.71 1440.51 921.71 1439.8 921.71 1439.59 921.71 1291.56 921.71 1290.64"/>
    </g>
  </g>
  <g id="_0710.034" data-name="0710.034">
    <g id="HATCH-13" data-name="HATCH">
      <polygon class="cls-2" points="740.21 1290.64 740.21 1275 681.7 1275 668.57 1275 572.5 1275 572.5 1292.44 562.38 1292.44 562.38 1439.63 572.5 1439.63 572.5 1457.07 628.25 1457.07 630.1 1457.07 631.64 1457.07 671.85 1457.07 681.24 1457.07 686.92 1457.07 687.15 1457.07 739.95 1457.07 740.21 1457.07 740.21 1440.51 740.21 1291.56 740.21 1290.75 740.21 1290.64"/>
    </g>
  </g>
  <g id="_0710.032" data-name="0710.032">
    <g id="HATCH-14" data-name="HATCH">
      <polygon class="cls-2" points="558.14 1291.79 558.14 1276.14 499.63 1276.14 486.49 1276.14 386.13 1276.14 386.17 1283.17 380.3 1283.13 380.3 1440.77 390.43 1440.77 390.43 1458.21 446.18 1458.21 448.03 1458.21 449.56 1458.21 489.78 1458.21 499.17 1458.21 504.84 1458.21 505.08 1458.21 557.88 1458.21 558.14 1458.21 558.14 1441.65 558.14 1292.7 558.14 1291.89 558.14 1291.79"/>
    </g>
  </g>
  <g id="_0710.005a" data-name="0710.005a">
    <g id="HATCH-15" data-name="HATCH">
      <polygon class="cls-2" points="370.59 1484.23 370.59 1455.39 377.23 1455.39 377.23 1452.88 377.23 1440.51 377.23 1438.31 377.23 1282.17 369.65 1282.17 369.65 1273.86 369.61 1273.86 306.47 1273.86 306.47 1291.47 306.83 1291.47 306.83 1468.31 306.47 1468.31 306.47 1484.23 370.59 1484.23"/>
    </g>
  </g>
  <g id="_0710.030" data-name="0710.030">
    <g id="HATCH-16" data-name="HATCH">
      <polygon class="cls-2" points="798.43 1161.75 798.43 1180.06 691 1180.06 691 1161.75 599.59 1161.75 595.76 1161.75 595.76 1180.06 479.36 1180.06 479.36 1161.75 379.34 1161.75 376.21 1161.75 371.3 1161.75 337.51 1161.75 337.51 1206.78 309.78 1206.78 309.78 1269.78 369.65 1269.78 369.65 1253.89 385.87 1253.89 385.87 1272.05 560.2 1272.05 571.62 1272.05 667.69 1272.05 667.69 1259.94 682.58 1259.94 682.58 1272.05 741.69 1272.05 753.12 1272.05 797.34 1272.05 797.34 1256.56 817.87 1256.56 817.87 1272.05 923.19 1272.05 934.61 1272.05 1011.09 1272.05 1011.09 1252.91 1036.41 1252.91 1036.41 1272.05 1093.75 1272.05 1103.2 1272.05 1103.2 1205.94 1075.5 1205.94 1075.5 1161.78 1027.79 1161.78 1012.98 1161.78 1012.94 1161.78 1011.47 1161.78 991.93 1161.78 990.46 1161.75 990.42 1161.75 983.7 1161.75 983.7 1180.06 881.3 1180.06 881.3 1161.75 815.59 1161.75 804.16 1161.75 798.43 1161.75"/>
    </g>
  </g>
  <g id="_0710.003c" data-name="0710.003c">
    <g id="HATCH-17" data-name="HATCH">
      <polygon class="cls-2" points="1201.92 1298.65 1223.37 1298.65 1223.37 1256.55 1191.59 1256.55 1163.11 1256.55 1163.11 1308.52 1201.92 1308.52 1201.92 1298.65"/>
    </g>
  </g>
  <g id="_0019.007" data-name="0019.007">
    <g id="HATCH-18" data-name="HATCH">
      <polygon class="cls-2" points="1166.62 1322.09 1166.62 1483.53 1233.14 1483.53 1233.14 1322.09 1230.75 1322.09 1228.84 1322.09 1204.91 1322.09 1204.87 1322.09 1203.4 1322.09 1166.62 1322.09"/>
    </g>
  </g>
  <g id="_0710.042" data-name="0710.042">
    <g id="HATCH-19" data-name="HATCH">
      <polygon class="cls-2" points="1250.72 1281.61 1239.75 1281.61 1239.75 1439.63 1249.87 1439.63 1249.87 1457.07 1310.92 1457.07 1312.52 1457.07 1313.59 1457.07 1363.19 1457.07 1368.85 1457.07 1369.1 1457.07 1421.91 1457.07 1421.94 1457.07 1421.94 1441.42 1421.94 1440.51 1421.94 1291.42 1421.94 1290.5 1421.94 1274.86 1250.72 1274.86 1250.72 1281.61"/>
    </g>
  </g>
  <g id="_0710.044" data-name="0710.044">
    <g id="HATCH-20" data-name="HATCH">
      <polygon class="cls-2" points="1606.56 1291.42 1606.56 1274.86 1465 1274.86 1448.19 1274.86 1435.72 1274.86 1435.72 1292.3 1425.6 1292.3 1425.6 1439.63 1435.72 1439.63 1435.72 1457.07 1496.69 1457.07 1497.1 1457.07 1498.21 1457.07 1547.81 1457.07 1553.47 1457.07 1553.72 1457.07 1606.52 1457.07 1606.56 1457.07 1606.56 1441.42 1606.56 1440.51 1606.56 1292.33 1606.56 1292.3 1606.56 1291.42"/>
    </g>
  </g>
  <g id="_0710.046" data-name="0710.046">
    <g id="HATCH-21" data-name="HATCH">
      <polygon class="cls-2" points="1791.35 1457.07 1791.35 1292.54 1791.35 1290.85 1791.35 1274.86 1681 1274.86 1667.57 1274.86 1620.34 1274.86 1620.34 1292.3 1610.21 1292.3 1610.21 1439.63 1620.34 1439.63 1620.34 1457.07 1680.71 1457.07 1681.16 1457.07 1682.23 1457.07 1731.83 1457.07 1737.41 1457.07 1737.74 1457.07 1791.35 1457.07"/>
    </g>
  </g>
  <g id="_0710.006a" data-name="0710.006a">
    <g id="HATCH-22" data-name="HATCH">
      <polyline class="cls-2" points="1363.96 1460.02 1249 1460.02 1240.52 1460.02 1240.52 1485.36 1240.52 1487.09 1363.96 1487.09 1363.96 1477.67"/>
    </g>
  </g>
  <g id="_0710.006b" data-name="0710.006b">
    <g id="HATCH-23" data-name="HATCH">
      <polygon class="cls-2" points="1434.84 1460.02 1428.69 1460.02 1428.69 1487.09 1548.87 1487.09 1548.87 1460.02 1434.84 1460.02"/>
    </g>
  </g>
  <g id="_0720.083" data-name="0720.083">
    <g id="HATCH-24" data-name="HATCH">
      <polygon class="cls-2" points="1613.31 1487.09 1731.13 1487.09 1731.13 1460.02 1619.46 1460.02 1613.31 1460.02 1613.31 1487.09"/>
    </g>
  </g>
  <g id="_0710.001b" data-name="0710.001b">
    <g id="HATCH-25" data-name="HATCH">
      <polygon class="cls-2" points="1794.66 1294.19 1794.66 1457.03 1794.66 1458.54 1794.66 1484.23 1826.34 1484.23 1826.34 1255.86 1806.43 1255.86 1806.43 1273.38 1806.49 1273.38 1806.49 1294.19 1794.66 1294.19"/>
    </g>
  </g>
  <g id="_0035.007" data-name="0035.007">
    <g id="HATCH-26" data-name="HATCH">
      <rect x="1749.38" y="1161.78" width="73.96" height="13.92"/>
    </g>
  </g>
  <g id="_0710.011" data-name="0710.011">
    <g id="HATCH-27" data-name="HATCH">
      <polygon class="cls-2" points="1732.78 1051.53 1682.77 1051.53 1682.77 1060.05 1675.26 1060.05 1675.26 1158.83 1711.42 1158.83 1746.42 1158.83 1747.9 1158.83 1823.39 1158.83 1823.39 1022.7 1740.91 1022.7 1732.78 1022.7 1732.78 1051.53"/>
    </g>
  </g>
  <g id="_0032.007" data-name="0032.007">
    <g id="HATCH-28" data-name="HATCH">
      <rect x="1532.25" y="1164.74" width="94.39" height="12.38"/>
    </g>
  </g>
  <g id="_0015.007" data-name="0015.007">
    <g id="HATCH-29" data-name="HATCH">
      <rect x="1305.14" y="1159.95" width="80.44" height="66.94"/>
    </g>
  </g>
  <g id="_0031.007" data-name="0031.007">
    <g id="HATCH-30" data-name="HATCH">
      <polygon class="cls-2" points="1166.06 1161.78 1166.06 1177.18 1166.06 1209.45 1204.73 1209.45 1204.73 1175.7 1232.03 1175.7 1232.03 1161.78 1166.06 1161.78"/>
    </g>
  </g>
  <g id="_0710.017" data-name="0710.017">
    <g id="HATCH-31" data-name="HATCH">
      <polygon class="cls-2" points="1166.06 1066.16 1166.06 1154.05 1231.68 1154.05 1231.68 1154.01 1231.68 1068.39 1231.68 1066.16 1166.06 1066.16"/>
    </g>
  </g>
  <g id="_0710.016" data-name="0710.016">
    <g id="HATCH-32" data-name="HATCH">
      <polygon class="cls-2" points="1166.06 1063.2 1232.56 1063.2 1234.03 1063.2 1234.03 1036.91 1238.55 1036.91 1238.55 1036.87 1238.55 978.79 1238.55 977.88 1238.55 969.28 1166.06 969.28 1166.06 1063.2"/>
    </g>
  </g>
  <g id="_0710.014" data-name="0710.014">
    <g id="HATCH-33" data-name="HATCH">
      <polygon class="cls-2" points="1241.52 1066.16 1241.52 1154.05 1300.28 1154.05 1302.19 1154.05 1302.19 1154.01 1388.53 1154.01 1388.53 1154.05 1390.44 1154.05 1450.98 1154.05 1450.98 1154.01 1450.98 1138.37 1450.98 1137.45 1450.98 1058.25 1450.98 1044.82 1450.98 979.18 1450.98 962.24 1330.91 962.24 1327.36 962.24 1251.79 962.24 1251.79 979.67 1241.86 979.67 1241.86 1036.91 1249.87 1036.91 1249.87 1066.16 1241.52 1066.16"/>
    </g>
  </g>
  <g id="_0710.012" data-name="0710.012">
    <g id="HATCH-34" data-name="HATCH">
      <polygon class="cls-2" points="1454.64 1043.94 1465.87 1043.94 1465.87 1059.13 1454.64 1059.13 1454.64 1136.58 1463.95 1136.58 1463.95 1158.83 1527.39 1158.83 1529.2 1158.83 1629.42 1158.83 1631.5 1158.83 1643.9 1158.83 1643.9 1141.36 1654.03 1141.36 1654.03 962.62 1630.96 962.62 1542.46 962.62 1540.81 962.62 1539.82 962.62 1465.59 962.62 1465.59 980.06 1454.64 980.06 1454.64 1043.94"/>
    </g>
  </g>
  <g id="_0034.007" data-name="0034.007">
    <g id="HATCH-35" data-name="HATCH">
      <polygon class="cls-2" points="1679.82 1048.58 1729.83 1048.58 1729.83 1026.78 1659.94 1026.78 1659.94 1158.83 1672.31 1158.83 1672.31 1057.1 1679.82 1057.1 1679.82 1048.58"/>
    </g>
  </g>
  <g id="_0710.051" data-name="0710.051">
    <g id="HATCH-36" data-name="HATCH">
      <rect x="1742.39" y="965.69" width="81" height="54.06"/>
    </g>
  </g>
  <g id="_0710.010" data-name="0710.010">
    <g id="HATCH-37" data-name="HATCH">
      <polygon class="cls-2" points="1742.39 962.73 1823.39 962.73 1823.39 908.67 1742.39 908.67 1742.39 911.15 1742.39 962.73"/>
    </g>
  </g>
  <g id="_0710.049" data-name="0710.049">
    <g id="HATCH-38" data-name="HATCH">
      <polygon class="cls-2" points="1659.93 1023.83 1729.83 1023.83 1729.83 1019.75 1739.43 1019.75 1739.43 964.21 1739.43 909.8 1659.93 909.8 1659.93 959.32 1659.93 961.15 1659.93 1023.83"/>
    </g>
  </g>
  <g id="_0710.012b" data-name="0710.012b">
    <g id="HATCH-39" data-name="HATCH">
      <polygon class="cls-2" points="1656.98 959.32 1656.98 909.8 1640.11 909.8 1640.11 907.19 1604.11 907.19 1604.11 909.8 1585.97 909.8 1542.42 909.8 1542.42 959.67 1630.96 959.67 1630.96 959.32 1656.98 959.32"/>
    </g>
  </g>
  <g id="_0710.012a" data-name="0710.012a">
    <g id="HATCH-40" data-name="HATCH">
      <polygon class="cls-2" points="1453.97 908.24 1453.97 959.67 1464.71 959.67 1537.22 959.67 1537.22 959.63 1537.22 908.67 1520.35 908.67 1513.76 907.19 1453.97 907.19 1453.97 908.24"/>
    </g>
  </g>
  <g id="_0710.013" data-name="0710.013">
    <g id="HATCH-41" data-name="HATCH">
      <polygon class="cls-2" points="1449.89 959.28 1449.89 910.27 1433.02 910.27 1433.02 906.2 1392.52 906.2 1392.52 909.8 1329.96 909.8 1329.96 959.28 1330.91 959.28 1449.89 959.28"/>
    </g>
  </g>
  <g id="_0710.014a" data-name="0710.014a">
    <g id="HATCH-42" data-name="HATCH">
      <polygon class="cls-2" points="1241.51 907.19 1241.51 959.28 1250.91 959.28 1324.76 959.28 1324.76 908.67 1307.88 908.67 1307.88 907.19 1241.51 907.19"/>
    </g>
  </g>
  <g id="_0710.015" data-name="0710.015">
    <g id="HATCH-43" data-name="HATCH">
      <polygon class="cls-2" points="1206.44 911.76 1206.44 908.67 1166.06 908.67 1166.06 966.33 1238.55 966.33 1238.55 960.76 1238.55 911.76 1206.44 911.76"/>
    </g>
  </g>
  <g id="_0710.002" data-name="0710.002">
    <g id="HATCH-44" data-name="HATCH">
      <polygon class="cls-2" points="1898.56 850.59 1897.69 850.59 1810.62 850.59 1809.14 850.59 1809.11 850.59 1781.66 850.59 1777.18 850.59 1750.6 850.59 1722.54 850.59 1722.54 830.89 1720.63 830.89 1682.04 830.89 1682.04 850.59 1668.58 850.59 1668.54 850.59 1667.07 850.59 1627.24 850.59 1625.77 850.59 1625.73 850.59 1570.38 850.59 1568.73 850.59 1566.99 850.59 1450.69 850.59 1450.69 827.23 1450.69 825.84 1388.53 825.84 1388.53 850.58 1318.01 850.58 1285.4 850.58 1283.93 850.58 1283.89 850.58 1271.36 850.58 1271.32 850.58 1269.84 850.58 1217.18 850.58 1217.18 847.48 1214.23 847.48 1214.23 907.97 1240.03 907.76 1240.02 908.83 1240.8 907.19 1307.88 907.19 1307.88 905.72 1327.36 905.72 1327.36 906.2 1392.52 906.2 1433.02 906.2 1451.93 906.2 1451.93 907.19 1452.49 907.19 1452.49 905.72 1513.76 905.72 1520.35 905.72 1537.19 905.72 1539.82 905.72 1585.97 905.72 1658.46 905.72 1737.52 905.72 1739.36 905.72 1740.91 905.72 1824.86 905.72 1824.86 907.19 1902.37 907.19 1902.37 850.59 1898.56 850.59"/>
    </g>
  </g>
  <g id="_0710.003a" data-name="0710.003a">
    <g id="HATCH-45" data-name="HATCH">
      <polygon class="cls-2" points="1086.61 823.24 1086.61 831.42 1086.61 835.22 1086.61 850.59 1035.42 850.59 1035.42 847.5 1032.61 847.5 1032.61 908.81 1062.76 908.81 1062.76 905.72 1105.38 905.72 1105.38 907.19 1164.59 907.19 1164.59 905.72 1206.44 905.72 1206.46 908.03 1211.27 907.99 1211.27 847.48 1181.95 847.48 1181.95 833.32 1181.95 823.24 1086.61 823.24"/>
    </g>
  </g>
  <g id="_0710.005" data-name="0710.005">
    <g id="HATCH-46" data-name="HATCH">
      <polygon class="cls-2" points="235.69 1043.94 236.57 1043.94 250.87 1043.94 250.87 1059.13 236.57 1059.13 235.69 1059.13 231.19 1059.13 231.19 1259.94 235.69 1259.94 236.57 1259.94 250.87 1259.94 250.87 1275.13 231.19 1275.13 231.19 1485.71 306.47 1485.71 306.47 1482.32 306.47 1468.31 306.47 1291.47 306.47 1275.21 306.47 1272.56 306.83 1272.56 306.83 1203.83 308.59 1203.83 309.82 1203.83 334.56 1203.83 334.56 1161.78 334.56 1161.75 306.83 1161.75 306.83 1153.42 306.83 1076.25 306.83 1002.15 306.83 991.33 306.83 907.19 306.83 903.81 306.83 850.59 250.61 850.59 248.79 850.59 231.19 850.59 231.19 1043.94 235.69 1043.94"/>
    </g>
  </g>
  <g id="_0026.007" data-name="0026.007">
    <g id="HATCH-47" data-name="HATCH">
      <rect x="884.25" y="1164.74" width="96.49" height="12.38"/>
    </g>
  </g>
  <g id="_0025.007" data-name="0025.007">
    <g id="HATCH-48" data-name="HATCH">
      <rect x="693.96" y="1164.74" width="101.52" height="12.38"/>
    </g>
  </g>
  <g id="_0024.007" data-name="0024.007">
    <g id="HATCH-49" data-name="HATCH">
      <rect x="482.31" y="1164.74" width="110.49" height="12.38"/>
    </g>
  </g>
  <g id="_0710.029" data-name="0710.029">
    <g id="HATCH-50" data-name="HATCH">
      <polygon class="cls-2" points="371.3 1158.79 374.55 1158.79 374.55 1077.73 371.78 1077.73 356.8 1077.73 309.78 1077.73 309.78 1152.54 337.49 1152.54 337.49 1158.79 337.55 1158.79 371.3 1158.79"/>
    </g>
  </g>
  <g id="_0710.027" data-name="0710.027">
    <g id="HATCH-51" data-name="HATCH">
      <polygon class="cls-2" points="355.5 1039.35 355.5 1037.88 355.5 1002.15 355.5 1000.67 355.5 1000.64 355.5 992.8 309.78 992.8 309.78 1002.15 309.78 1074.77 355.5 1074.77 355.5 1039.39 355.5 1039.35"/>
    </g>
  </g>
  <g id="_0023.007" data-name="0023.007">
    <g id="HATCH-52" data-name="HATCH">
      <polyline class="cls-2" points="358.45 1036.4 371.6 1036.4 371.6 1003.63 358.45 1003.63"/>
    </g>
  </g>
  <g id="_0710.026" data-name="0710.026">
    <g id="HATCH-53" data-name="HATCH">
      <polygon class="cls-2" points="385.73 1037.31 385.73 1065.75 380.81 1065.75 380.81 1158.79 477.45 1158.79 586.41 1158.79 586.41 1142.24 586.41 1141.71 586.44 1141.71 586.44 1141.32 586.44 1059.4 586.44 1059.36 586.41 1058.49 586.41 1044.82 586.42 1043.94 586.42 1043.9 586.42 979.71 586.42 979.67 586.42 978.79 586.42 962.24 463.36 962.24 387.91 962.24 387.91 979.67 380.81 979.67 380.81 1037.31 385.73 1037.31"/>
    </g>
  </g>
  <g id="_0710.024" data-name="0710.024">
    <g id="HATCH-54" data-name="HATCH">
      <polygon class="cls-2" points="590.08 1043.94 601.87 1043.94 601.87 1059.36 590.1 1059.36 590.1 1141.36 600.47 1141.36 600.47 1158.79 689.09 1158.79 800.34 1158.79 802.69 1158.79 802.69 1142.24 802.69 1141.72 802.69 1141.32 802.69 1059.4 802.69 1059.36 802.69 1058.49 802.69 1044.82 802.69 1043.94 802.69 1043.9 802.69 978.79 802.69 977.92 802.69 977.88 802.69 962.24 678.62 962.24 677.38 962.24 675.98 962.24 600.47 962.24 600.47 979.67 590.08 979.67 590.08 1043.94"/>
    </g>
  </g>
  <g id="_0710.022" data-name="0710.022">
    <g id="HATCH-55" data-name="HATCH">
      <polygon class="cls-2" points="806.34 1043.94 817.87 1043.94 817.87 1059.36 806.34 1059.36 806.34 1141.36 816.47 1141.36 816.47 1158.79 879.39 1158.79 980.72 1158.79 980.72 1135.45 987.5 1135.45 987.5 989.01 987.5 987.27 987.5 962.24 891.63 962.24 816.47 962.24 816.47 979.67 806.34 979.67 806.34 1043.94"/>
    </g>
  </g>
  <g id="_0027.007" data-name="0027.007">
    <g id="HATCH-56" data-name="HATCH">
      <rect x="993.41" y="993.88" width="16.58" height="164.95"/>
    </g>
  </g>
  <g id="_0710.018" data-name="0710.018">
    <g id="HATCH-57" data-name="HATCH">
      <polygon class="cls-2" points="1077.33 1158.13 1103.91 1158.13 1103.91 1040.13 1035.13 1040.13 1035.13 1067 1015.55 1067 1015.55 1135.89 1029.09 1135.89 1029.09 1158.13 1077.33 1158.13"/>
    </g>
  </g>
  <g id="_0710.019" data-name="0710.019">
    <g id="HATCH-58" data-name="HATCH">
      <polygon class="cls-2" points="1012.94 990.92 1012.94 1037.17 1033.97 1037.17 1103.87 1037.17 1103.91 1037.17 1103.91 960.76 1103.91 908.67 1062.76 908.67 1062.76 911.76 1032.64 911.76 1032.59 911.76 1031.13 911.76 1026.06 911.76 1026.06 909.37 994.11 909.37 994.11 960.76 994.11 987.27 990.46 987.27 990.46 990.92 1012.94 990.92"/>
    </g>
  </g>
  <g id="_0710.021" data-name="0710.021">
    <g id="HATCH-59" data-name="HATCH">
      <polygon class="cls-2" points="990.46 959.28 990.46 905.72 956.88 905.72 956.88 909.8 920.5 909.8 894.23 909.8 894.23 959.28 988.98 959.28 990.46 959.28"/>
    </g>
  </g>
  <g id="_0710.022a" data-name="0710.022a">
    <g id="HATCH-60" data-name="HATCH">
      <polygon class="cls-2" points="805.78 905.72 805.78 907.76 805.78 959.28 815.59 959.28 889.03 959.28 889.03 908.67 875.88 908.67 872.16 908.67 872.16 905.72 805.78 905.72"/>
    </g>
  </g>
  <g id="_0710.023" data-name="0710.023">
    <g id="HATCH-61" data-name="HATCH">
      <polygon class="cls-2" points="784.83 909.8 784.83 907.19 744.33 907.19 744.33 909.8 678.59 909.8 678.59 959.28 801.7 959.28 801.7 959.25 801.7 909.8 784.83 909.8"/>
    </g>
  </g>
  <g id="_0710.24a" data-name="0710.24a">
    <g id="HATCH-62" data-name="HATCH">
      <polygon class="cls-2" points="652.33 908.67 652.33 907.19 589.73 907.19 589.73 959.28 599.59 959.28 673.38 959.28 673.38 959.25 673.38 908.67 652.33 908.67"/>
    </g>
  </g>
  <g id="_0710.025" data-name="0710.025">
    <g id="HATCH-63" data-name="HATCH">
      <polygon class="cls-2" points="528.27 908.32 514.41 908.32 514.41 909.8 465.96 909.8 465.96 959.28 584.51 959.28 585.65 959.28 585.65 910.25 585.65 908.32 568.77 908.32 528.27 908.32"/>
    </g>
  </g>
  <g id="_0710.026a" data-name="0710.026a">
    <g id="HATCH-64" data-name="HATCH">
      <polygon class="cls-2" points="377.51 905.72 377.51 959.28 387.03 959.28 460.76 959.28 460.76 908.67 443.88 908.67 436.92 905.72 377.51 905.72"/>
    </g>
  </g>
  <g id="_0710.028" data-name="0710.028">
    <g id="HATCH-65" data-name="HATCH">
      <polygon class="cls-2" points="309.78 908.67 309.78 989.85 356.8 989.85 358.14 989.85 374.55 989.85 374.55 977.93 374.55 977.88 374.55 962.27 374.55 961.67 374.55 960.76 374.55 908.77 374.55 908.67 309.88 908.67 309.78 908.67"/>
    </g>
  </g>
  <g id="_0710.004" data-name="0710.004">
    <g id="HATCH-66" data-name="HATCH">
      <polygon class="cls-2" points="454.18 824.07 454.18 850.59 370.87 850.59 369.39 850.59 369.36 850.59 314.13 850.59 306.83 850.59 306.83 905.72 376.03 905.72 379.42 905.72 436.92 905.72 443.88 905.72 463.36 905.72 514.41 905.72 528.27 905.72 528.27 908.32 568.77 908.32 568.77 905.72 587.69 905.72 587.69 907.19 591.08 907.19 652.33 907.19 652.33 905.72 673.35 905.72 673.38 905.72 673.38 907.19 733.08 907.19 733.08 905.72 803.74 905.72 804.3 905.72 872.16 905.72 875.88 905.72 889 905.72 891.63 905.72 920.5 905.72 956.88 905.72 988.9 905.72 994.11 905.72 1026.06 905.72 1026.06 908.81 1029.66 908.81 1029.66 908.78 1029.66 847.5 1000.19 847.5 1000.19 850.24 881.09 850.24 881.09 842.86 881.09 826.55 817.87 826.55 817.87 850.59 699.78 850.59 698.45 850.59 698.27 850.59 648.6 850.59 648.56 850.59 646.52 850.59 602.14 850.59 600.67 850.94 600.63 850.94 586.79 850.94 508.64 850.94 508.64 824.07 454.18 824.07"/>
    </g>
  </g>
  <g id="_0050.007" data-name="0050.007">
    <g id="HATCH-67" data-name="HATCH">
      <polygon class="cls-2" points="644.48 781.95 603.62 781.95 603.62 839.91 603.62 847.64 644.48 847.64 644.48 840.82 644.48 785.33 644.48 781.95"/>
    </g>
  </g>
  <g id="_0710.007" data-name="0710.007">
    <g id="HATCH-68" data-name="HATCH">
      <polygon class="cls-2" points="648.56 799.53 648.56 840.82 648.56 847.64 696.79 847.64 696.79 842.89 696.79 842.86 696.79 841.38 696.79 799.53 670.08 799.53 648.56 799.53"/>
    </g>
  </g>
  <g id="_0059.007" data-name="0059.007">
    <g id="HATCH-69" data-name="HATCH">
      <polygon class="cls-2" points="725.27 797.7 699.75 797.7 699.75 839.91 725.27 839.91 725.27 831.77 725.27 797.7"/>
    </g>
  </g>
  <g id="_0717" data-name="0717">
    <g id="HATCH-70" data-name="HATCH">
      <polygon class="cls-2" points="1626.64 794.75 1627.24 794.75 1668.54 794.75 1668.54 827.94 1680.88 827.94 1722.54 827.94 1722.54 803.99 1750.6 803.99 1777.18 803.99 1803.4 803.99 1803.4 766.26 1766.89 766.26 1766.89 731.46 1766.89 698.13 1766.89 675.28 1766.89 653.83 1760.2 653.83 1760.2 641.59 1738.48 641.59 1680.89 641.59 1680.89 628.46 1665.91 628.46 1665.91 600.96 1610.72 600.96 1610.72 602.7 1610.72 611.09 1600.31 611.09 1600.31 794.75 1625.73 794.75 1626.64 794.75"/>
    </g>
  </g>
  <g id="_0040.007" data-name="0040.007">
    <g id="HATCH-71" data-name="HATCH">
      <polygon class="cls-2" points="1569.08 797.7 1543.29 797.7 1543.29 831.77 1543.29 839.17 1543.29 839.91 1569.08 839.91 1569.08 797.7"/>
    </g>
  </g>
  <g id="_0717.013" data-name="0717.013">
    <g id="HATCH-72" data-name="HATCH">
      <polygon class="cls-2" points="1625.77 847.64 1625.77 797.7 1600.35 797.7 1600.21 797.7 1600.21 798.41 1598.48 798.41 1572.03 798.41 1572.03 841.38 1571.86 842.86 1571.86 842.89 1571.86 846.33 1571.86 847.64 1625.77 847.64"/>
    </g>
  </g>
  <g id="_0037.007" data-name="0037.007">
    <g id="HATCH-73" data-name="HATCH">
      <rect x="1628.72" y="797.7" width="36.87" height="49.94"/>
    </g>
  </g>
  <g id="_0717.010" data-name="0717.010">
    <g id="HATCH-74" data-name="HATCH">
      <polygon class="cls-2" points="1725.5 806.94 1725.5 826.03 1725.5 827.75 1725.5 829.41 1725.5 847.64 1749.12 847.64 1749.12 806.94 1725.5 806.94"/>
    </g>
  </g>
  <g id="_0717.008" data-name="0717.008">
    <g id="HATCH-75" data-name="HATCH">
      <polygon class="cls-2" points="1809.14 847.64 1809.14 823.21 1803.4 823.21 1803.4 818.96 1803.4 806.94 1778.65 806.94 1778.65 847.64 1781.66 847.64 1809.14 847.64"/>
    </g>
  </g>
  <g id="_0036.007" data-name="0036.007">
    <g id="HATCH-76" data-name="HATCH">
      <rect x="1812.1" y="823.21" width="84.12" height="24.43"/>
    </g>
  </g>
  <g id="_0717.007" data-name="0717.007">
    <g id="HATCH-77" data-name="HATCH">
      <polygon class="cls-2" points="1841.23 817.66 1841.23 766.26 1809.76 766.26 1806.36 766.26 1806.36 766.3 1806.36 805.47 1806.36 817.66 1841.23 817.66"/>
    </g>
  </g>
  <g id="_0718.001" data-name="0718.001">
    <g id="HATCH-78" data-name="HATCH">
      <polygon class="cls-2" points="1844.54 766.26 1844.54 766.3 1844.54 817.66 1902.37 817.66 1902.37 766.26 1844.54 766.26"/>
    </g>
  </g>
  <g id="_0717.009" data-name="0717.009">
    <g id="HATCH-79" data-name="HATCH">
      <rect x="1752.07" y="806.94" width="23.62" height="40.7"/>
    </g>
  </g>
  <g id="_0717.001" data-name="0717.001">
    <g id="HATCH-80" data-name="HATCH">
      <polygon class="cls-2" points="1683.84 600.96 1683.84 627.58 1683.84 638.64 1737 638.64 1737 600.96 1683.84 600.96"/>
    </g>
  </g>
  <g id="_0717.006" data-name="0717.006">
    <g id="HATCH-81" data-name="HATCH">
      <polygon class="cls-2" points="1806.38 763.31 1806.38 732.93 1769.84 732.93 1769.84 763.31 1803.37 763.31 1803.75 763.31 1804.88 763.31 1806.38 763.31"/>
    </g>
  </g>
  <g id="_0717.005" data-name="0717.005">
    <g id="HATCH-82" data-name="HATCH">
      <rect x="1769.84" y="699.6" width="36.54" height="30.38"/>
    </g>
  </g>
  <g id="_0717.004" data-name="0717.004">
    <g id="HATCH-83" data-name="HATCH">
      <rect x="1769.84" y="676.75" width="36.54" height="19.9"/>
    </g>
  </g>
  <g id="_0717.003" data-name="0717.003">
    <g id="HATCH-84" data-name="HATCH">
      <polygon class="cls-2" points="1806.38 673.8 1806.38 653.87 1806.38 653.83 1769.84 653.83 1769.84 653.87 1769.84 673.8 1806.38 673.8"/>
    </g>
  </g>
  <g id="_0717.002" data-name="0717.002">
    <g id="HATCH-85" data-name="HATCH">
      <rect x="1739.95" y="600.96" width="20.25" height="37.68"/>
    </g>
  </g>
  <g id="_0717.006-2" data-name="0717.006">
    <g id="HATCH-86" data-name="HATCH">
      <polygon class="cls-2" points="1544.34 669.31 1544.34 794.75 1570.56 794.75 1572.03 794.75 1572.07 794.75 1596.66 794.75 1596.66 794.72 1596.66 610.22 1596.66 601.66 1555.17 601.66 1555.17 612.17 1555.17 612.21 1555.17 613.68 1555.17 669.31 1544.34 669.31"/>
    </g>
  </g>
  <g id="_0017.007" data-name="0017.007">
    <g id="HATCH-87" data-name="HATCH">
      <polygon class="cls-2" points="1468.69 669.31 1468.69 830.47 1540.69 830.47 1540.69 797.74 1540.69 797.72 1540.69 796.23 1540.69 669.31 1504.69 669.31 1468.69 669.31"/>
    </g>
  </g>
  <g id="_0041.007" data-name="0041.007">
    <g id="HATCH-88" data-name="HATCH">
      <polygon class="cls-2" points="1552.22 615.16 1506.16 615.16 1506.16 666.36 1540.65 666.36 1544.38 666.36 1552.22 666.36 1552.22 615.16"/>
    </g>
  </g>
  <g id="_0706" data-name="0706">
    <g id="HATCH-89" data-name="HATCH">
      <polygon class="cls-2" points="1503.21 665.66 1503.21 613.68 1503.21 612.21 1503.21 612.17 1503.21 604.34 1486.9 604.34 1486.9 618.34 1465.87 618.34 1465.87 627.13 1449.65 627.13 1447.73 627.13 1447.73 665.66 1465 665.66 1465.03 665.66 1466.86 665.66 1503.21 665.66"/>
    </g>
  </g>
  <g id="_0707" data-name="0707">
    <g id="HATCH-90" data-name="HATCH">
      <polygon class="cls-2" points="1388.53 613.68 1388.53 762.82 1388.53 764.09 1388.53 766.2 1388.53 794.65 1388.53 821.65 1388.53 822.54 1451.57 822.54 1452.52 822.54 1454.95 822.54 1465.03 822.54 1465.03 704.47 1444.78 704.47 1444.78 668.65 1444.78 667.13 1444.78 626.25 1444.78 624.78 1444.78 622.86 1444.78 613.68 1388.53 613.68"/>
    </g>
  </g>
  <g id="_0085.007" data-name="0085.007">
    <g id="HATCH-91" data-name="HATCH">
      <polygon class="cls-2" points="1385.58 768.03 1383.31 768.03 1326.26 768.03 1326.26 815.81 1319.48 815.81 1319.48 847.63 1385.58 847.63 1385.58 822.95 1374.82 822.95 1374.82 793.34 1385.58 793.34 1385.58 768.03"/>
    </g>
    <g id="HATCH-92" data-name="HATCH">
      <rect x="1286.88" y="815.81" width="29.65" height="31.82"/>
    </g>
  </g>
  <g id="_0707.001" data-name="0707.001">
    <g id="HATCH-93" data-name="HATCH">
      <rect x="1446.89" y="668.61" width="18.14" height="33.75"/>
    </g>
  </g>
  <g id="_0086.007" data-name="0086.007">
    <g id="HATCH-94" data-name="HATCH">
      <polygon class="cls-2" points="1384.87 615.88 1286.59 615.88 1286.59 625.18 1286.59 626.69 1286.59 725.63 1273.06 725.63 1271.32 725.63 1271.32 763.11 1271.32 764.38 1324.79 764.38 1326.26 764.38 1326.3 764.38 1384.87 764.38 1384.87 615.88"/>
    </g>
  </g>
  <g id="_0042.007" data-name="0042.007">
    <g id="HATCH-95" data-name="HATCH">
      <polygon class="cls-2" points="1323.31 767.33 1271.32 767.33 1271.32 812.86 1285.4 812.86 1318.01 812.86 1323.31 812.86 1323.31 768.07 1323.31 767.33"/>
    </g>
  </g>
  <g id="_0043.007" data-name="0043.007">
    <g id="HATCH-96" data-name="HATCH">
      <polygon class="cls-2" points="1283.64 722.68 1283.64 628.17 1270.97 628.17 1270.97 692.23 1270.97 722.68 1283.64 722.68"/>
    </g>
  </g>
  <g id="_0009.007" data-name="0009.007">
    <g id="HATCH-97" data-name="HATCH">
      <polygon class="cls-2" points="1237.99 763.25 1237.99 763.11 1184.91 763.11 1184.91 831.45 1220.91 831.45 1227.66 831.45 1231.24 831.45 1237.99 831.45 1258.24 831.45 1264.99 831.45 1268.37 831.45 1268.37 815.85 1268.37 815.81 1268.37 814.33 1268.37 812.82 1268.37 765.85 1268.37 763.11 1258.24 763.11 1258.24 763.25 1237.99 763.25"/>
    </g>
  </g>
  <g id="_0007.007" data-name="0007.007">
    <g id="HATCH-98" data-name="HATCH">
      <polygon class="cls-2" points="1268.37 692.23 1184.91 692.23 1184.91 763.11 1237.99 763.11 1237.99 762.97 1258.24 762.97 1258.24 763.11 1268.37 763.11 1268.37 725.67 1268.37 722.68 1268.37 720.77 1268.37 692.23"/>
    </g>
  </g>
  <g id="_0005.007" data-name="0005.007">
    <g id="HATCH-99" data-name="HATCH">
      <polygon class="cls-2" points="1184.91 692.23 1268.37 692.23 1268.37 628.2 1268.37 628.17 1269.84 628.17 1269.84 623.61 1266.45 623.61 1264.99 623.61 1258.24 623.61 1237.99 623.61 1231.24 623.61 1227.66 623.61 1220.91 623.61 1219.78 623.61 1184.91 623.61 1184.91 692.23"/>
    </g>
  </g>
  <g id="_0703" data-name="0703">
    <g id="HATCH-100" data-name="HATCH">
      <polygon class="cls-2" points="1086.61 612.21 1086.61 619.85 1086.61 623.65 1086.61 692.23 1086.61 763.11 1086.61 819.93 1181.95 819.93 1181.95 763.11 1181.95 692.23 1181.95 623.65 1181.95 619.85 1181.95 612.21 1086.61 612.21"/>
    </g>
  </g>
  <g id="_0704" data-name="0704">
    <g id="HATCH-101" data-name="HATCH">
      <polygon class="cls-2" points="936.56 768.56 884.04 768.56 884.04 824.72 884.04 825.84 884.04 826.58 884.04 842.86 983.25 842.86 983.25 827.94 997.24 827.94 997.24 768.56 962.79 768.56 962.79 786.28 936.56 786.28 936.56 768.56"/>
    </g>
    <g id="HATCH-102" data-name="HATCH">
      <rect x="939.16" y="768.56" width="21.02" height="15.12"/>
    </g>
  </g>
  <g id="_0010.007" data-name="0010.007">
    <g id="HATCH-103" data-name="HATCH">
      <polygon class="cls-2" points="1010.32 763.25 1010.32 763.11 1000.19 763.11 1000.19 766.73 1000.19 827.94 1000.19 831.45 1003.57 831.45 1010.32 831.45 1030.57 831.45 1037.32 831.45 1040.91 831.45 1047.66 831.45 1083.66 831.45 1083.66 763.11 1030.57 763.11 1030.57 763.25 1010.32 763.25"/>
    </g>
  </g>
  <g id="_0008.007" data-name="0008.007">
    <g id="HATCH-104" data-name="HATCH">
      <polygon class="cls-2" points="1083.66 692.23 1000.19 692.23 1000.19 722.64 1000.19 722.67 998.72 722.67 998.72 724.15 1000.19 724.16 1000.19 763.11 1010.32 763.11 1010.32 762.97 1030.57 762.97 1030.57 763.11 1083.66 763.11 1083.66 692.23"/>
    </g>
  </g>
  <g id="_0006.007" data-name="0006.007">
    <g id="HATCH-105" data-name="HATCH">
      <polygon class="cls-2" points="1000.19 692.23 1083.66 692.23 1083.66 623.61 1048.78 623.61 1047.66 623.61 1040.91 623.61 1037.32 623.61 1030.57 623.61 1010.32 623.61 1003.57 623.61 1002.11 623.61 998.72 623.61 998.72 628.17 1000.19 628.17 1000.19 628.2 1000.19 692.23"/>
    </g>
  </g>
  <g id="_0093.007" data-name="0093.007">
    <g id="HATCH-106" data-name="HATCH">
      <polygon class="cls-2" points="883.69 764.9 997.24 764.9 997.24 763.11 997.24 725.63 983.39 725.63 983.39 628.2 983.39 628.17 983.39 626.69 983.39 615.88 883.69 615.88 883.69 764.9"/>
    </g>
  </g>
  <g id="_0047.007" data-name="0047.007">
    <g id="HATCH-107" data-name="HATCH">
      <polygon class="cls-2" points="986.34 628.17 986.34 722.68 997.59 722.68 997.59 692.23 997.59 628.17 986.34 628.17"/>
    </g>
  </g>
  <g id="_0705" data-name="0705">
    <g id="HATCH-108" data-name="HATCH">
      <polygon class="cls-2" points="880.38 768.56 880.03 766.73 880.03 613.68 823.78 613.68 823.78 625.61 823.78 625.98 823.78 626.53 823.78 660.42 823.78 667.31 823.78 669 823.78 704.82 803.53 704.82 803.53 797.16 803.53 809.53 803.53 822.89 817 822.89 880.38 822.89 880.38 768.6 880.38 768.56"/>
    </g>
  </g>
  <g id="_0705.001" data-name="0705.001">
    <g id="HATCH-109" data-name="HATCH">
      <rect x="803.53" y="668.96" width="18.14" height="33.75"/>
    </g>
  </g>
  <g id="_0018.007" data-name="0018.007">
    <g id="HATCH-110" data-name="HATCH">
      <polygon class="cls-2" points="799.87 830.47 799.87 669.31 763.52 669.31 727.87 669.31 727.87 796.23 727.87 797.74 727.87 830.47 799.87 830.47"/>
    </g>
  </g>
  <g id="_0720.085" data-name="0720.085">
    <g id="HATCH-111" data-name="HATCH">
      <polygon class="cls-2" points="765 615.52 765 659.12 820.48 659.12 820.48 627.41 802.69 627.41 802.69 615.52 793.03 615.52 765 615.52"/>
    </g>
  </g>
  <g id="_0048.007" data-name="0048.007">
    <g id="HATCH-112" data-name="HATCH">
      <polygon class="cls-2" points="762.05 615.17 716.69 615.17 716.69 666.36 726.05 666.36 762.05 666.36 762.05 615.17"/>
    </g>
  </g>
  <g id="_0720.084" data-name="0720.084">
    <g id="HATCH-113" data-name="HATCH">
      <polygon class="cls-2" points="724.22 794.75 724.22 669.31 713.74 669.31 713.74 615.88 671.91 615.88 671.91 794.75 696.76 794.75 697.15 794.75 698.27 794.75 724.22 794.75"/>
    </g>
  </g>
  <g id="_0718" data-name="0718">
    <g id="HATCH-114" data-name="HATCH">
      <polygon class="cls-2" points="1902.37 567.01 1845.36 567.01 1845.36 557.16 1763.16 557.16 1763.16 590.49 1783.83 590.49 1783.83 593.45 1763.16 593.45 1763.16 599.48 1763.16 640.12 1763.16 650.88 1766.86 650.88 1766.89 650.88 1768.37 650.88 1809.76 650.88 1812.57 650.88 1813.17 650.88 1831.38 650.88 1831.38 653.83 1813.13 653.83 1813.13 673.76 1813.13 676.79 1813.13 696.62 1813.13 699.64 1813.13 729.94 1813.13 732.97 1813.13 763.31 1841.2 763.31 1842.57 763.31 1842.88 763.31 1896.89 763.31 1896.89 753.06 1902.37 753.06 1902.37 634.16 1898.56 634.16 1897.68 634.16 1882 634.16 1882 604.91 1897.68 604.91 1898.56 604.91 1902.37 604.91 1902.37 567.01"/>
    </g>
  </g>
  <g id="_0720.009" data-name="0720.009">
    <g id="HATCH-115" data-name="HATCH">
      <polygon class="cls-2" points="510.76 414.54 510.76 411.15 509.54 411.15 509.54 368.05 509.54 324.15 539.42 324.15 539.42 323.94 559.64 323.94 561.15 323.94 561.71 323.94 597.85 323.94 626.11 323.94 626.14 323.94 627.44 323.94 650.02 323.94 655.31 323.94 655.31 268.89 651.67 268.89 647.54 268.89 587.28 268.89 514.16 268.89 452.7 268.89 452.7 324.01 452.7 392.07 452.7 423.64 452.7 514 452.7 607.72 452.7 638.98 452.7 708.51 452.7 755.76 454.5 755.76 454.5 820.41 509.34 820.41 509.34 756.94 509.34 670.34 509.34 668.19 509.34 666.95 509.34 613.87 509.29 613.87 509.29 610.48 509.29 559.02 509.29 554.48 509.34 554.48 509.34 542.86 509.34 542.76 509.17 542.76 509.17 541.17 509.17 482.63 509.17 481.04 509.34 481.04 509.34 480.94 509.34 467.47 510.76 467.47 510.76 464.42 510.76 414.54"/>
    </g>
    <g id="HATCH-116" data-name="HATCH">
      <rect x="509.29" y="555.97" width="36.41" height="56.25"/>
    </g>
  </g>
  <g id="_0720.004.2" data-name="0720.004.2">
    <polygon points="1093.86 412.84 1071.37 412.84 1071.37 411.36 1050.16 412.56 1043.06 412.95 1043.06 412.84 1013.05 412.84 1013.05 412.35 878.27 412.35 827.85 412.35 824.46 412.35 824.46 412.84 796.1 412.84 794.8 411.69 792.71 411.69 757.51 411.69 757.51 402.05 708.41 402.05 705.03 402.05 655.75 402.05 655.75 412.84 621.62 412.84 616.38 412.84 616.38 467.47 629.93 467.47 633.32 467.47 670.42 467.47 673.8 467.47 748.05 467.47 822.3 467.47 822.3 468.95 881.51 468.95 881.51 467.47 885.87 467.47 959.69 467.47 1032.26 467.47 1104.98 467.47 1104.98 468.95 1112.91 468.95 1112.91 412.84 1093.86 412.84"/>
    <g id="HATCH-117" data-name="HATCH">
      <polygon class="cls-2" points="510.76 412.63 510.76 467.47 551.53 467.47 585.01 467.47 613.43 467.47 613.43 412.84 560.97 412.84 557.59 412.84 539.42 412.84 539.42 412.63 510.76 412.63"/>
    </g>
  </g>
  <g id="_0720.004.1" data-name="0720.004.1">
    <polygon points="1281.74 412.42 1281.74 412.84 1260.2 412.84 1256.64 412.84 1224.71 412.84 1154.01 412.84 1150.62 412.84 1133.57 412.84 1113.32 412.84 1112.91 412.84 1112.91 468.95 1163.48 468.95 1163.48 467.47 1237.73 467.47 1311.98 467.47 1342.41 467.47 1342.41 412.42 1281.74 412.42"/>
  </g>
  <g id="_0720.002.2" data-name="0720.002.2">
    <polygon points="1111.25 268.81 1037.57 268.81 963.32 268.81 889.63 268.81 815.94 268.81 740.53 268.81 735.61 268.81 665.46 268.81 664.85 268.81 664.85 268.89 658.27 268.89 658.27 323.94 672.63 323.94 749.29 323.94 758.99 323.94 758.99 325.2 824.29 325.2 824.29 323.94 878.27 323.94 881.66 323.94 881.66 324.36 992.75 324.36 992.75 325.41 996.14 325.41 1020.66 325.41 1020.66 323.94 1037.65 323.94 1043.06 323.94 1052.08 323.94 1072.13 323.94 1093.86 323.94 1112.91 323.94 1112.91 268.81 1111.25 268.81"/>
  </g>
  <g id="_0720.002.1" data-name="0720.002.1">
    <polygon points="1333.34 268.81 1259.09 268.81 1184.94 268.81 1111.25 268.81 1109.6 268.81 1109.6 323.94 1114.09 323.94 1134.34 323.94 1152.1 323.94 1152.1 334.06 1203.28 334.06 1254.81 334.06 1254.81 323.94 1281.74 323.94 1281.74 324.36 1342.41 324.36 1342.41 268.81 1333.34 268.81"/>
  </g>
  <g id="_0720.004b" data-name="0720.004b">
    <g id="HATCH-118" data-name="HATCH">
      <polygon class="cls-2" points="1203.28 392.1 1152.1 392.1 1152.1 412.84 1226.8 412.84 1226.8 392.1 1203.28 392.1"/>
    </g>
  </g>
  <g id="_0720.004c" data-name="0720.004c">
    <g id="HATCH-119" data-name="HATCH">
      <polygon class="cls-2" points="549.88 468.95 549.88 467.47 513.81 467.47 512.3 467.47 512.3 480.97 549.88 480.97 549.88 468.95"/>
    </g>
  </g>
  <g id="_0710.084" data-name="0710.084">
    <g id="HATCH-120" data-name="HATCH">
      <rect x="670.12" y="323.94" width="81.68" height="14.06"/>
    </g>
  </g>
  <g id="_0720.002a" data-name="0720.002a">
    <g id="HATCH-121" data-name="HATCH">
      <polygon class="cls-2" points="564.2 337.44 596.38 337.44 596.38 326.54 596.38 323.94 563.75 323.94 563.75 337.44 564.2 337.44"/>
    </g>
  </g>
  <g id="_0720.006" data-name="0720.006">
    <g id="HATCH-122" data-name="HATCH">
      <polygon class="cls-2" points="713.74 612.22 715.21 612.22 763.52 612.22 765.05 612.22 766.91 612.22 796.08 612.22 796.08 555.93 748.05 555.93 672.15 555.93 672.15 520.33 631.41 520.33 631.41 555.93 551.53 555.93 548.65 555.93 548.65 612.22 564.38 612.22 567.15 612.22 601.91 612.22 602.79 612.22 602.82 612.22 642.02 612.22 670.08 612.22 713.7 612.22 713.74 612.22"/>
    </g>
  </g>
  <g id="_0720.087" data-name="0720.087">
    <g id="HATCH-123" data-name="HATCH">
      <polygon class="cls-2" points="512.3 668.86 563.08 668.86 563.08 615.52 547.17 615.52 512.34 615.52 512.3 615.52 512.3 668.86"/>
    </g>
  </g>
  <g id="_0720.089" data-name="0720.089">
    <polygon class="cls-2" points="569.04 615.88 668.24 615.88 668.24 794.75 648.56 794.75 648.56 778.78 603.62 778.78 603.62 669.31 569.04 669.31 569.04 615.88"/>
  </g>
  <g id="_0720.081" data-name="0720.081">
    <g id="HATCH-124" data-name="HATCH">
      <polygon class="cls-2" points="599.51 755.46 600.81 755.46 600.81 671.82 567.15 671.82 564.38 671.82 514.21 671.82 512.3 671.82 512.3 755.46 599.51 755.46"/>
    </g>
  </g>
  <g id="_0720.082" data-name="0720.082">
    <g id="HATCH-125" data-name="HATCH">
      <polygon class="cls-2" points="585.91 827.94 591.25 827.94 591.25 805.57 598.21 805.57 598.21 758.41 512.3 758.41 512.3 820.38 512.3 822.24 512.3 847.29 585.91 847.29 585.91 827.94"/>
    </g>
  </g>
  <g id="_0051.007" data-name="0051.007">
    <g id="HATCH-126" data-name="HATCH">
      <rect x="372.35" y="823.37" width="78.88" height="24.27"/>
    </g>
  </g>
  <g id="_0720.054" data-name="0720.054">
    <g id="HATCH-127" data-name="HATCH">
      <rect x="393.33" y="757.24" width="57.87" height="59.45"/>
    </g>
  </g>
  <g id="_0720.053" data-name="0720.053">
    <g id="HATCH-128" data-name="HATCH">
      <polygon class="cls-2" points="369.39 820.41 385.52 820.41 385.52 755.27 318.03 755.27 318.03 758.33 315.78 758.33 315.78 846.94 369.39 846.94 369.39 820.41"/>
    </g>
  </g>
  <g id="_0720.051" data-name="0720.051">
    <g id="HATCH-129" data-name="HATCH">
      <polygon class="cls-2" points="235.98 827.94 236.86 827.94 250.58 827.94 250.58 846.94 306.83 846.94 312.48 846.94 312.48 758.33 310.58 758.33 310.58 755.27 231.19 755.27 231.19 827.94 235.98 827.94"/>
    </g>
  </g>
  <g id="_0720.008" data-name="0720.008">
    <g id="HATCH-130" data-name="HATCH">
      <polygon class="cls-2" points="452.7 754.29 452.7 708.51 377.8 708.51 303.78 708.51 231.19 708.51 231.19 755.27 310.58 755.27 312.48 755.27 312.48 755.38 314.13 755.38 315.78 755.38 315.78 755.27 318.03 755.27 383.61 755.27 385.52 755.27 387 754.29 392.03 754.29 452.7 754.29"/>
    </g>
  </g>
  <g id="_0720.006A" data-name="0720.006A">
    <g id="HATCH-131" data-name="HATCH">
      <polygon class="cls-2" points="512.3 554.48 512.3 555.97 512.34 555.97 545.52 555.97 545.52 542.82 512.3 542.82 512.3 554.48"/>
    </g>
  </g>
  <g id="_0720.052f" data-name="0720.052f">
    <g id="HATCH-132" data-name="HATCH">
      <polygon class="cls-2" points="452.7 708.51 452.7 638.98 449.08 638.98 419.31 638.98 377.8 638.98 377.8 708.51 452.7 708.51"/>
    </g>
  </g>
  <g id="_0720.052e" data-name="0720.052e">
    <g id="HATCH-133" data-name="HATCH">
      <polygon class="cls-2" points="303.78 708.51 377.8 708.51 377.8 638.98 350.84 638.98 321.07 638.98 303.78 638.98 303.78 708.51"/>
    </g>
  </g>
  <g id="_0720.052d" data-name="0720.052d">
    <g id="HATCH-134" data-name="HATCH">
      <polygon class="cls-2" points="231.19 708.51 303.78 708.51 303.78 638.98 298.31 638.98 268.54 638.98 231.19 638.98 231.19 708.51"/>
    </g>
  </g>
  <g id="_0720.052c" data-name="0720.052c">
    <g id="HATCH-135" data-name="HATCH">
      <polygon class="cls-2" points="377.8 604.91 385 604.91 385 607.72 422.7 607.72 449.08 607.72 452.7 607.72 452.7 514 377.8 514 377.8 604.91"/>
    </g>
  </g>
  <g id="_0720.052b" data-name="0720.052b">
    <g id="HATCH-136" data-name="HATCH">
      <polygon class="cls-2" points="371.57 607.72 371.57 604.91 377.8 604.91 377.8 514 303.78 514 303.78 607.72 324.46 607.72 350.84 607.72 371.57 607.72"/>
    </g>
  </g>
  <g id="_0720.052a" data-name="0720.052a">
    <g id="HATCH-137" data-name="HATCH">
      <polygon class="cls-2" points="298.31 607.72 303.78 607.72 303.78 514 231.19 514 231.19 607.72 235.69 607.72 236.57 607.72 250 607.72 271.93 607.72 298.31 607.72"/>
    </g>
  </g>
  <g id="_0720.052" data-name="0720.052">
    <g id="HATCH-138" data-name="HATCH">
      <polygon class="cls-2" points="250.87 627.13 236.57 627.13 235.69 627.13 231.19 627.13 231.19 638.98 271.05 638.98 271.05 635.04 282.47 635.04 282.65 632.79 295.8 632.79 295.8 638.98 303.78 638.98 323.58 638.98 323.58 635.04 335 635.04 335.18 632.79 348.33 632.79 348.33 638.98 377.8 638.98 421.82 638.98 421.82 635.04 433.24 635.04 433.42 632.79 446.57 632.79 446.57 638.98 452.7 638.98 452.7 607.72 446.57 607.72 446.57 613.66 433.42 613.66 433.24 611.41 422.7 611.41 422.7 607.72 385.87 607.72 385.87 613.68 384.12 613.68 384.12 607.72 371.57 607.72 348.33 607.72 348.33 613.66 335.18 613.66 335 611.41 324.46 611.41 324.46 607.72 303.78 607.72 295.8 607.72 295.8 613.66 282.65 613.66 282.47 611.41 271.93 611.41 271.93 607.72 250.87 607.72 250.87 627.13"/>
    </g>
  </g>
  <g id="_0720.050" data-name="0720.050">
    <g id="HATCH-139" data-name="HATCH">
      <polygon class="cls-2" points="250.87 411.13 236.57 411.13 235.69 411.13 231.19 411.13 231.19 423.64 271.93 423.64 271.93 419.92 282.47 419.92 282.65 417.67 295.8 417.67 295.8 423.64 303.78 423.64 324.46 423.64 324.46 419.92 335 419.92 335.18 417.67 348.33 417.67 348.33 423.64 377.8 423.64 422.7 423.64 422.7 419.92 433.24 419.92 433.42 417.67 446.57 417.67 446.57 423.64 452.7 423.64 452.7 392.07 446.57 392.07 446.57 398.54 433.42 398.54 433.24 396.29 421.82 396.29 421.82 392.07 399.66 392.07 399.66 411.13 370.41 411.13 370.41 392.07 348.33 392.07 348.33 398.54 335.18 398.54 335 396.29 323.58 396.29 323.58 392.07 303.78 392.07 295.8 392.07 295.8 398.54 282.65 398.54 282.47 396.29 271.05 396.29 271.05 392.07 250.87 392.07 250.87 411.13"/>
    </g>
  </g>
  <g id="_0720.050f" data-name="0720.050f">
    <g id="HATCH-140" data-name="HATCH">
      <polygon class="cls-2" points="452.7 514 452.7 423.64 449.08 423.64 422.7 423.64 377.8 423.64 377.8 514 452.7 514"/>
    </g>
  </g>
  <g id="_0720.050e" data-name="0720.050e">
    <g id="HATCH-141" data-name="HATCH">
      <polygon class="cls-2" points="377.8 423.64 350.84 423.64 324.46 423.64 303.78 423.64 303.78 514 377.8 514 377.8 423.64"/>
    </g>
  </g>
  <g id="_0720.050d" data-name="0720.050d">
    <g id="HATCH-142" data-name="HATCH">
      <polygon class="cls-2" points="303.78 423.64 298.31 423.64 271.93 423.64 231.19 423.64 231.19 514 303.78 514 303.78 423.64"/>
    </g>
  </g>
  <g id="_0720.050a" data-name="0720.050a">
    <g id="HATCH-143" data-name="HATCH">
      <polygon class="cls-2" points="303.78 324.01 235.69 324.01 235.69 353.05 231.19 353.05 231.19 392.07 235.69 392.07 236.57 392.07 250 392.07 268.54 392.07 298.31 392.07 303.78 392.07 303.78 324.01"/>
    </g>
  </g>
  <g id="_0720.050b" data-name="0720.050b">
    <g id="HATCH-144" data-name="HATCH">
      <polygon class="cls-2" points="381.03 324.01 303.78 324.01 303.78 392.07 321.07 392.07 350.84 392.07 371.28 392.07 381.03 392.07 381.03 324.01"/>
    </g>
  </g>
  <g id="_0720.050c" data-name="0720.050c">
    <g id="HATCH-145" data-name="HATCH">
      <polygon class="cls-2" points="452.7 324.01 381.03 324.01 381.03 392.07 398.78 392.07 419.31 392.07 449.08 392.07 452.7 392.07 452.7 324.01"/>
    </g>
  </g>
  <g id="_702.002" data-name="702.002">
    <g id="HATCH-146" data-name="HATCH">
      <polygon class="cls-2" points="290.57 268.89 290.57 268.81 235.69 268.81 235.69 324.01 303.78 324.01 381.03 324.01 452.7 324.01 452.7 268.89 439.07 268.89 364.78 268.89 290.57 268.89"/>
    </g>
  </g>
  <g id="_0720.056a" data-name="0720.056a">
    <g id="HATCH-147" data-name="HATCH">
      <polygon class="cls-2" points="550.05 539.52 550.05 484.28 512.47 484.28 512.47 539.52 547.17 539.52 550.05 539.52"/>
    </g>
  </g>
  <g id="_0720.056" data-name="0720.056">
    <g id="HATCH-148" data-name="HATCH">
      <polygon class="cls-2" points="628.1 552.63 628.1 518.85 628.1 517.3 628.28 517.3 628.28 473.31 610.55 473.31 610.55 470.43 585.01 470.43 553.18 470.43 553.18 482.63 553.01 484.28 553.01 484.31 553.01 541.17 553.01 552.63 628.1 552.63"/>
    </g>
  </g>
  <g id="_0720.007" data-name="0720.007">
    <g id="HATCH-149" data-name="HATCH">
      <polygon class="cls-2" points="672.15 517.37 672.15 467.47 631.58 467.47 631.58 473.35 631.58 517.3 631.58 517.37 672.15 517.37"/>
    </g>
  </g>
  <g id="_0720.058" data-name="0720.058">
    <g id="HATCH-150" data-name="HATCH">
      <polygon class="cls-2" points="675.46 552.63 746.4 552.63 746.4 470.43 675.46 470.43 675.46 470.52 675.46 518.85 675.46 552.63"/>
    </g>
  </g>
  <g id="_0720.060" data-name="0720.060">
    <g id="HATCH-151" data-name="HATCH">
      <polygon class="cls-2" points="820.65 529.18 820.65 470.43 749.71 470.43 749.71 552.63 796.08 552.63 800.23 552.63 820.65 552.63 820.65 529.18"/>
    </g>
  </g>
  <g id="_0720.005b" data-name="0720.005b">
    <g id="HATCH-152" data-name="HATCH">
      <rect x="823.96" y="468.95" width="55.9" height="58.75"/>
    </g>
  </g>
  <g id="_0720.062" data-name="0720.062">
    <g id="HATCH-153" data-name="HATCH">
      <rect x="887.17" y="470.43" width="70.87" height="82.2"/>
    </g>
  </g>
  <g id="_0720.064" data-name="0720.064">
    <g id="HATCH-154" data-name="HATCH">
      <rect x="961.35" y="470.43" width="69.26" height="82.2"/>
    </g>
  </g>
  <g id="_0720.066" data-name="0720.066">
    <g id="HATCH-155" data-name="HATCH">
      <polygon class="cls-2" points="1103.33 470.43 1033.91 470.43 1033.91 552.63 1103.33 552.63 1103.33 529.17 1103.33 470.43"/>
    </g>
  </g>
  <g id="_0720.003" data-name="0720.003">
    <g id="HATCH-156" data-name="HATCH">
      <rect x="1106.64" y="468.95" width="55.2" height="58.74"/>
    </g>
  </g>
  <g id="_0720.068" data-name="0720.068">
    <g id="HATCH-157" data-name="HATCH">
      <polygon class="cls-2" points="1236.08 552.98 1236.08 470.43 1165.14 470.43 1165.14 529.17 1165.14 552.98 1236.08 552.98"/>
    </g>
  </g>
  <g id="_0720.009a" data-name="0720.009a">
    <g id="HATCH-158" data-name="HATCH">
      <polygon class="cls-2" points="512.49 368.05 512.49 409.68 513.81 409.68 539.42 409.68 539.42 412.84 559.67 412.84 559.67 395.71 559.67 374.16 561.15 374.16 561.15 342.3 561.15 338.91 559.67 338.91 559.67 323.94 539.42 323.94 539.42 327.1 512.49 327.1 512.49 368.05"/>
    </g>
  </g>
  <g id="_0720..055" data-name="0720..055">
    <g id="HATCH-159" data-name="HATCH">
      <polygon class="cls-2" points="562.63 394.41 609.11 394.41 619.27 394.41 620.43 394.41 652.76 394.41 652.79 394.41 652.79 347.16 626.14 347.16 626.14 329.14 599.33 329.14 599.33 340.39 561.15 340.39 561.15 374.16 562.63 374.16 562.63 394.41"/>
    </g>
  </g>
  <g id="_0720.057" data-name="0720.057">
    <g id="HATCH-160" data-name="HATCH">
      <polygon class="cls-2" points="656.1 347.13 656.1 349.24 656.1 395.71 656.1 397.01 655.75 397.01 655.75 397.04 655.75 399.1 705.07 399.1 705.07 347.13 663.77 347.13 663.73 347.13 662.57 347.13 656.1 347.13"/>
    </g>
  </g>
  <g id="_0720.059" data-name="0720.059">
    <g id="HATCH-161" data-name="HATCH">
      <polygon class="cls-2" points="708.37 347.13 708.37 399.1 757.48 399.1 757.51 399.1 757.51 347.13 755.6 347.13 708.37 347.13"/>
    </g>
  </g>
  <g id="_0720.035" data-name="0720.035">
    <g id="HATCH-162" data-name="HATCH">
      <polygon class="cls-2" points="760.47 402.08 760.47 411.69 794.8 411.69 794.8 394.41 824.5 394.41 824.5 359.38 822.81 359.38 822.81 325.2 760.47 325.2 760.47 338.88 760.47 342.44 760.47 343.8 760.82 343.8 760.82 345.83 760.82 400.57 760.82 401.91 760.47 401.91 760.47 402.08"/>
    </g>
  </g>
  <g id="_0720.005" data-name="0720.005">
    <g id="HATCH-163" data-name="HATCH">
      <polygon class="cls-2" points="825.76 412.35 880.18 412.35 880.18 391.54 879.76 391.54 879.76 381.41 879.76 354.41 879.76 345.31 880.18 345.31 880.18 323.94 825.76 323.94 825.76 325.2 825.76 359.38 824.5 359.38 824.5 392.32 824.5 395.71 825.76 395.71 825.76 412.35"/>
    </g>
  </g>
  <g id="_0720.005a" data-name="0720.005a">
    <g id="HATCH-164" data-name="HATCH">
      <polygon class="cls-2" points="990.85 391.26 990.85 381.41 992.75 381.41 992.75 354.41 991.27 354.41 991.27 328.47 991.27 327.31 883.14 327.31 883.14 345.31 883.14 354.41 879.76 354.41 879.76 381.41 883.14 381.41 883.14 391.54 883.14 409.3 883.14 409.89 990.85 409.89 990.85 392.56 990.85 391.26"/>
    </g>
  </g>
  <g id="_0720.031" data-name="0720.031">
    <g id="HATCH-165" data-name="HATCH">
      <polygon class="cls-2" points="994.23 325.41 994.23 354.41 992.75 354.41 992.75 381.41 992.75 391.26 1036.77 391.26 1036.77 326.89 1020.66 326.89 1020.66 325.41 994.23 325.41"/>
    </g>
  </g>
  <g id="_0720.029" data-name="0720.029">
    <g id="HATCH-166" data-name="HATCH">
      <polygon class="cls-2" points="1044.37 332.94 1044.37 391.26 1044.37 392.56 1044.37 409.89 1049.99 409.89 1050.16 412.56 1071.37 411.36 1071.37 409.89 1091.82 409.89 1091.82 326.89 1072.13 326.89 1072.13 323.94 1049.99 323.94 1049.99 332.94 1044.37 332.94"/>
    </g>
  </g>
  <g id="_0720.027" data-name="0720.027">
    <g id="HATCH-167" data-name="HATCH">
      <polygon class="cls-2" points="1149.15 332.71 1149.15 326.89 1134.34 326.89 1134.34 323.94 1114.09 323.94 1114.09 326.89 1095.9 326.89 1095.9 409.89 1113.32 409.89 1113.32 412.84 1133.57 412.84 1133.57 409.89 1149.15 409.89 1149.15 409.79 1149.15 392.13 1149.15 391.77 1149.15 390.45 1149.15 336.1 1149.15 332.99 1149.15 332.71"/>
    </g>
  </g>
  <g id="_0720.025" data-name="0720.025">
    <g id="HATCH-168" data-name="HATCH">
      <polygon class="cls-2" points="1152.45 388.79 1201.8 388.79 1201.8 338.14 1154.01 338.14 1152.45 338.14 1152.45 388.79"/>
    </g>
  </g>
  <g id="_0720.023" data-name="0720.023">
    <g id="HATCH-169" data-name="HATCH">
      <polygon class="cls-2" points="1204.75 388.79 1228.1 388.79 1253.43 388.79 1254.81 388.79 1254.81 338.14 1254.78 338.14 1204.75 338.14 1204.75 388.79"/>
    </g>
  </g>
  <g id="_0710.096" data-name="0710.096">
    <g id="HATCH-170" data-name="HATCH">
      <polygon class="cls-2" points="1342.41 327.31 1281.74 327.31 1281.74 323.94 1258.12 323.94 1258.12 334.03 1258.12 334.21 1258.12 336.1 1258.12 390.45 1258.12 392.1 1258.12 392.14 1258.12 393.84 1258.12 412.84 1281.74 412.84 1281.74 409.47 1342.41 409.47 1343.74 409.47 1343.74 327.31 1342.41 327.31"/>
    </g>
  </g>
  <g id="_0720.070" data-name="0720.070">
    <g id="HATCH-171" data-name="HATCH">
      <rect x="1239.39" y="470.43" width="70.95" height="82.55"/>
    </g>
  </g>
  <g id="_0720.072a" data-name="0720.072a">
    <g id="HATCH-172" data-name="HATCH">
      <polygon class="cls-2" points="1446.68 495.61 1405.02 495.61 1405.02 552.81 1446.68 552.81 1446.68 551.15 1446.68 497.35 1446.68 495.61"/>
    </g>
  </g>
  <g id="_0720.072" data-name="0720.072">
    <polygon class="cls-2" points="1314.09 470.43 1376 470.43 1376 484.28 1402.24 484.28 1402.24 552.98 1314.09 552.98 1314.09 470.43"/>
  </g>
  <g id="_0720.001" data-name="0720.001">
    <g id="HATCH-173" data-name="HATCH">
      <polygon class="cls-2" points="1402.24 396.82 1402.24 324.04 1405.83 324.04 1405.83 268.81 1342.41 268.81 1342.41 325.84 1346.69 325.84 1346.69 410.94 1342.41 410.94 1342.41 467.47 1378.41 467.47 1381.79 467.47 1402.24 467.47 1402.24 402.47 1402.24 396.82"/>
    </g>
  </g>
  <g id="_0720.004a" data-name="0720.004a">
    <g id="HATCH-174" data-name="HATCH">
      <rect x="1379.88" y="467.47" width="22.36" height="13.43"/>
    </g>
  </g>
  <g id="_0720.074" data-name="0720.074">
    <g id="HATCH-175" data-name="HATCH">
      <polygon class="cls-2" points="1472.03 411.3 1472.03 411.13 1443.66 411.13 1443.66 403.77 1405.19 403.77 1405.19 467.47 1405.19 482.38 1405.37 482.38 1405.37 492.31 1449.28 492.31 1452.47 492.31 1452.67 492.31 1492.66 492.31 1492.66 439.53 1492.66 411.3 1472.03 411.3"/>
    </g>
  </g>
  <g id="_0720.074a" data-name="0720.074a">
    <g id="HATCH-176" data-name="HATCH">
      <rect x="1451.88" y="495.61" width="40.78" height="54.24"/>
    </g>
  </g>
  <g id="_0712.1" data-name="0712.1">
    <polyline class="cls-2" points="1610.89 597.97 1610.89 574.96 1607.94 574.96 1607.94 556.5 1161.83 556.5 1161.83 531 1106.64 531 1106.64 556.5 1115.83 556.5 1115.83 612.21 1444.17 612.21 1444.17 598.01 1610.89 598.01"/>
  </g>
  <g id="_0712.2" data-name="0712.2">
    <polygon class="cls-2" points="1115.83 556.5 1115.83 612.21 801.65 612.21 801.65 556.5 823.96 556.5 823.96 531.52 879.13 531.52 878.61 556.5 1115.83 556.5"/>
  </g>
  <g id="_0716" data-name="0716">
    <g id="HATCH-177" data-name="HATCH">
      <polygon class="cls-2" points="1724.35 557.16 1687.64 557.16 1635.22 557.16 1610.89 557.16 1610.89 597.97 1610.89 598.01 1666.79 598.01 1682.37 598.01 1683.93 598.01 1685.76 598.01 1738.48 598.01 1760.2 598.01 1760.2 591.97 1760.2 557.2 1760.2 557.16 1724.35 557.16"/>
    </g>
  </g>
  <g id="_0716.001" data-name="0716.001">
    <g id="HATCH-178" data-name="HATCH">
      <polygon class="cls-2" points="1635.22 557.16 1686.16 557.16 1686.16 555.69 1686.16 538.46 1635.22 538.46 1635.22 557.16"/>
    </g>
  </g>
  <g id="_0712.001" data-name="0712.001">
    <g id="HATCH-179" data-name="HATCH">
      <polygon class="cls-2" points="1564.87 511.88 1564.87 556.13 1607.94 556.13 1607.94 538.5 1607.94 538.45 1607.94 536.98 1607.94 511.88 1564.87 511.88"/>
    </g>
  </g>
  <g id="_0714" data-name="0714">
    <g id="HATCH-180" data-name="HATCH">
      <polygon class="cls-2" points="1561.22 508.19 1561.22 441.01 1503.18 441.01 1496.32 441.01 1496.32 493.96 1496.32 551.15 1496.32 552.81 1561.22 552.81 1561.22 510.06 1561.22 508.55 1561.22 508.19"/>
    </g>
  </g>
  <g id="_0720.076" data-name="0720.076">
    <g id="HATCH-181" data-name="HATCH">
      <polygon class="cls-2" points="1472.91 395.94 1472.91 407.65 1492.84 407.65 1492.84 387.32 1492.84 385.99 1492.84 327.35 1409.17 327.35 1405.8 327.35 1405.19 327.35 1405.19 395.94 1444.53 395.94 1472.91 395.94"/>
    </g>
  </g>
  <g id="_0702.004" data-name="0702.004">
    <g id="HATCH-182" data-name="HATCH">
      <rect x="1504.48" y="389.12" width="56.74" height="47.46"/>
    </g>
  </g>
  <g id="_0713" data-name="0713">
    <g id="HATCH-183" data-name="HATCH">
      <polygon class="cls-2" points="1564.17 384.69 1564.17 438.79 1564.17 508.23 1608.64 508.23 1608.64 445.09 1608.64 384.69 1564.17 384.69"/>
    </g>
  </g>
  <g id="_0702.003" data-name="0702.003">
    <g id="HATCH-184" data-name="HATCH">
      <polygon class="cls-2" points="1611.6 389.12 1611.6 442.88 1658.8 442.88 1658.8 393.27 1658.8 389.12 1611.6 389.12"/>
    </g>
  </g>
  <g id="_0715" data-name="0715">
    <g id="HATCH-185" data-name="HATCH">
      <polygon class="cls-2" points="1685.47 464.42 1685.65 464.42 1685.65 447.31 1661.43 447.31 1660.1 447.31 1611.6 447.31 1611.6 508.19 1611.6 510.06 1611.6 535.51 1635.22 535.51 1685.47 535.51 1685.47 466.34 1685.47 464.42"/>
    </g>
  </g>
  <g id="_0052.007" data-name="0052.007">
    <g id="HATCH-186" data-name="HATCH">
      <polygon class="cls-1" points="1712.59 446.63 1712.59 442.91 1705.84 442.91 1705.84 446.63 1691.72 446.63 1691.72 461.47 1746.28 461.47 1746.28 446.63 1739.59 446.63 1739.59 442.91 1732.84 442.91 1732.84 446.63 1712.59 446.63"/>
    </g>
  </g>
  <g id="_0719" data-name="0719">
    <polygon class="cls-1" points="1689.65 467.47 1899.39 465.39 1899.39 563.48 1848.78 563.48 1849.57 554.35 1689.65 554.61 1689.65 467.47"/>
  </g>
  <g id="_0004.007" data-name="0004.007">
    <g id="HATCH-187" data-name="HATCH">
      <polygon class="cls-2" points="1746.28 366.85 1691.72 366.85 1691.72 442.91 1705.84 442.91 1712.59 442.91 1732.84 442.91 1739.59 442.91 1746.28 442.91 1746.28 366.85"/>
    </g>
  </g>
  <g id="_0051.007-2" data-name="0051.007">
    <g id="HATCH-188" data-name="HATCH">
      <polygon class="cls-2" points="1832.85 446.63 1832.85 444.77 1826.1 444.77 1826.1 446.63 1819.41 446.63 1819.41 461.47 1872.42 461.47 1872.42 446.63 1859.85 446.63 1859.85 444.77 1853.1 444.77 1853.1 446.63 1832.85 446.63"/>
    </g>
  </g>
  <g id="_0003.007" data-name="0003.007">
    <g id="HATCH-189" data-name="HATCH">
      <polygon class="cls-2" points="1872.42 366.85 1819.41 366.85 1819.41 442.91 1826.1 442.91 1826.1 444.77 1832.85 444.77 1832.85 442.91 1853.1 442.91 1853.1 444.77 1859.85 444.77 1859.85 442.91 1872.39 442.91 1872.42 442.91 1872.42 366.85"/>
    </g>
  </g>
  <g id="_0001.007" data-name="0001.007">
    <g id="HATCH-190" data-name="HATCH">
      <rect x="1819.41" y="279.92" width="53.01" height="86.92"/>
    </g>
  </g>
  <g id="_0701" data-name="0701">
    <g id="HATCH-191" data-name="HATCH">
      <polygon class="cls-2" points="1749.55 428.3 1749.23 428.3 1749.23 444.42 1816.45 444.42 1816.45 428.3 1816.13 428.3 1816.13 416.33 1816.45 416.33 1816.45 387.08 1816.13 387.08 1816.13 346.58 1816.45 346.58 1816.45 317.33 1816.13 317.33 1816.13 297.94 1749.55 297.94 1749.55 317.33 1749.23 317.33 1749.23 346.58 1749.55 346.58 1749.55 387.08 1749.23 387.08 1749.23 416.33 1749.55 416.33 1749.55 428.3"/>
    </g>
  </g>
  <g id="_0002.007" data-name="0002.007">
    <g id="HATCH-192" data-name="HATCH">
      <rect x="1691.72" y="280.2" width="54.56" height="86.64"/>
    </g>
  </g>
  <g id="_0702.002" data-name="0702.002">
    <g id="HATCH-193" data-name="HATCH">
      <rect x="1660.7" y="300.03" width="19.79" height="47.25"/>
    </g>
  </g>
  <g id="_0702" data-name="0702">
    <g id="HATCH-194" data-name="HATCH">
      <polygon class="cls-2" points="1749.55 297.94 1816.13 297.94 1816.13 276.65 1876.82 276.65 1876.82 281.75 1877.85 281.75 1902.37 281.75 1902.37 187.25 1884.66 187.25 1884.66 175.46 1466.24 175.46 1466.24 190.3 1466.24 193.98 1466.24 241.23 1466.24 259.53 1409.14 259.53 1409.14 267.34 1409.14 324.04 1496.14 324.04 1496.14 384.69 1503.18 384.69 1504.58 384.69 1506.56 384.69 1562.69 384.69 1566.08 384.69 1606.73 384.69 1610.12 384.69 1660.1 384.69 1660.7 384.69 1660.7 383.16 1660.7 352.53 1660.7 345.76 1660.7 302.12 1660.7 298.73 1660.22 298.73 1660.22 278.1 1688.73 278.1 1688.77 278.1 1688.84 276.93 1749.55 276.93 1749.55 297.94"/>
    </g>
  </g>
  <g id="_0702.001" data-name="0702.001">
    <g id="HATCH-195" data-name="HATCH">
      <polygon class="cls-2" points="1466.24 241.23 1464.7 241.23 1464.7 193.98 1466.24 193.98 1466.24 187.25 1406.19 187.25 1406.19 191.26 1409.14 191.26 1409.14 259.53 1466.24 259.53 1466.24 241.23"/>
    </g>
  </g>
  <g id="_0720.020" data-name="0720.020">
    <g id="HATCH-196" data-name="HATCH">
      <polygon class="cls-2" points="1405.83 191.26 1402.88 191.26 1402.88 187.25 1373.62 187.25 1373.62 175.44 1324.05 175.44 1324.05 185.35 1334.99 185.35 1334.99 265.86 1342.41 265.86 1405.83 265.86 1405.83 259.53 1405.83 191.26"/>
    </g>
  </g>
  <g id="_0720.022" data-name="0720.022">
    <g id="HATCH-197" data-name="HATCH">
      <polygon class="cls-2" points="1260.74 190.98 1260.74 265.86 1331.68 265.86 1331.68 188.66 1320.75 188.66 1320.75 175.44 1249.58 175.44 1249.58 181.66 1249.58 190.98 1260.74 190.98"/>
    </g>
  </g>
  <g id="_0720.024" data-name="0720.024">
    <g id="HATCH-198" data-name="HATCH">
      <polygon class="cls-2" points="1234.9 180.22 1186.59 180.22 1186.59 265.86 1257.43 265.86 1257.43 194.28 1248.7 194.28 1234.9 194.28 1234.9 180.22"/>
    </g>
  </g>
  <g id="_0720.026" data-name="0720.026">
    <g id="HATCH-199" data-name="HATCH">
      <rect x="1112.91" y="180.22" width="70.38" height="85.64"/>
    </g>
  </g>
  <g id="_0720.028" data-name="0720.028">
    <g id="HATCH-200" data-name="HATCH">
      <polygon class="cls-2" points="1109.6 180.22 1039.22 180.22 1039.22 193.4 1039.22 265.86 1109.6 265.86 1109.6 180.22"/>
    </g>
  </g>
  <g id="_0720.030" data-name="0720.030">
    <g id="HATCH-201" data-name="HATCH">
      <polygon class="cls-2" points="1018.69 180.22 964.97 180.22 964.97 265.86 1035.91 265.86 1035.91 194.28 1018.69 194.28 1018.69 180.22"/>
    </g>
  </g>
  <g id="_0720.032" data-name="0720.032">
    <g id="HATCH-202" data-name="HATCH">
      <rect x="891.28" y="180.22" width="70.38" height="85.64"/>
    </g>
  </g>
  <g id="_0720.034" data-name="0720.034">
    <g id="HATCH-203" data-name="HATCH">
      <polygon class="cls-2" points="887.98 180.22 817.59 180.22 817.59 193.4 817.59 265.86 887.98 265.86 887.98 180.22"/>
    </g>
  </g>
  <g id="_0720.036" data-name="0720.036">
    <g id="HATCH-204" data-name="HATCH">
      <polygon class="cls-2" points="742.18 175.44 742.18 180.22 742.18 265.86 814.29 265.86 814.29 194.28 802.98 194.28 802.98 181.08 802.98 180.21 802.98 175.44 742.18 175.44"/>
    </g>
  </g>
  <g id="_0720.038" data-name="0720.038">
    <g id="HATCH-205" data-name="HATCH">
      <polygon points="663.22 180.22 662.41 180.22 662.41 265.86 735.61 265.86 735.61 180.22 738.88 180.22 738.88 175.44 663.22 175.44 663.22 180.22"/>
    </g>
  </g>
  <g id="_0720.040" data-name="0720.040">
    <g id="HATCH-206" data-name="HATCH">
      <polygon points="659.92 180.22 659.92 175.44 601.58 175.44 601.58 181.08 601.58 194.28 588.94 194.28 588.94 265.93 647.54 265.93 647.54 263.61 650.78 263.61 659.92 263.61 659.92 180.22"/>
    </g>
  </g>
  <g id="_0720.042" data-name="0720.042">
    <g id="HATCH-207" data-name="HATCH">
      <polygon class="cls-2" points="585.63 193.4 585.63 181.08 585.63 175.44 515.81 175.44 515.81 265.93 585.63 265.93 585.63 193.4"/>
    </g>
  </g>
  <g id="_0720.044" data-name="0720.044">
    <g id="HATCH-208" data-name="HATCH">
      <polygon class="cls-2" points="440.72 175.44 440.72 265.93 452.7 265.93 512.51 265.93 512.51 175.44 440.72 175.44"/>
    </g>
  </g>
  <g id="_0720.046" data-name="0720.046">
    <g id="HATCH-209" data-name="HATCH">
      <polygon class="cls-2" points="366.43 194.28 366.43 265.93 437.41 265.93 437.41 175.44 385.58 175.44 385.58 181.66 385.58 194.28 371.86 194.28 370.98 194.28 370.95 194.28 366.43 194.28"/>
    </g>
  </g>
  <g id="_0720.049" data-name="0720.049">
    <g id="HATCH-210" data-name="HATCH">
      <polygon class="cls-2" points="251.09 199.34 235.69 199.34 235.69 265.86 288.91 265.86 288.91 184.58 296.51 184.58 296.51 175.44 248.98 175.44 248.98 187.25 251.09 189.36 251.09 190.3 251.09 199.34"/>
    </g>
  </g>
  <g id="_0720.048" data-name="0720.048">
    <g id="HATCH-211" data-name="HATCH">
      <polygon class="cls-2" points="363.13 265.93 363.13 190.98 370.98 190.98 370.98 181.66 370.98 175.44 299.81 175.44 299.81 187.88 292.22 187.88 292.22 265.93 363.13 265.93"/>
    </g>
  </g>
</svg>