<?xml version="1.0" encoding="UTF-8"?>
<svg id="Layer_1" data-name="Layer 1" xmlns="http://www.w3.org/2000/svg" xmlns:xlink="http://www.w3.org/1999/xlink" viewBox="0 0 2268 1903.5">
  <defs>
    <style>
      .cls-1, .cls-2 {
        stroke: red;
        stroke-linecap: round;
        stroke-linejoin: round;
        stroke-width: .26px;
      }

      .cls-1, .cls-3 {
        fill: none;
      }

      .cls-4 {
        isolation: isolate;
      }
    </style>
  </defs>
  <g id="Layer_1-2" data-name="Layer 1">
    <image class="cls-4" width="5760" height="4320" transform="translate(-299.5 -147.62) scale(.6)" xlink:href="../PDF and PNG/RCP/Level C.jpg"/>
  </g>
  <g id="room_boundaries" data-name="room boundaries">
    <g>
      <g id="LWPOLYLINE">
        <rect class="cls-1" x="859.14" y="479.79" width="94.54" height="67.53"/>
      </g>
      <g id="LWPOLYLINE-2">
        <polygon class="cls-1" points="1978.41 237.25 1920.45 237.25 1920.45 325.04 1920.45 646.92 1978.41 646.92 1978.41 237.25"/>
      </g>
      <g id="LWPOLYLINE-3">
        <rect class="cls-1" x="1479.65" y="882.67" width="54.02" height="40.52"/>
      </g>
      <g id="LWPOLYLINE-4">
        <rect class="cls-1" x="813.61" y="625.07" width="54.02" height="40.52"/>
      </g>
      <g id="LWPOLYLINE-5">
        <rect class="cls-1" x="513.06" y="509.61" width="4.5" height="41.08"/>
      </g>
      <g id="LWPOLYLINE-6">
        <rect class="cls-1" x="375.75" y="449.4" width="27.01" height="13.51"/>
      </g>
      <g id="LWPOLYLINE-7">
        <polyline class="cls-1" points="245.78 879.89 255.89 879.89 255.89 896.78 239.01 896.78 239.01 879.89"/>
      </g>
      <g id="LWPOLYLINE-8">
        <polygon class="cls-1" points="259.34 1315.94 360.49 1315.94 360.49 1287.8 393.9 1287.8 393.9 1137.13 360.49 1137.13 360.49 1094.36 259.41 1094.36 259.41 1095.98 259.41 1116.31 243.3 1116.31 243.3 1308.62 259.34 1308.62 259.34 1315.94"/>
      </g>
      <g id="LWPOLYLINE-9">
        <polygon class="cls-1" points="1470.45 246.82 1455.64 246.82 1455.64 231.63 1467.4 231.63 1470.45 231.63 1470.45 246.82"/>
      </g>
      <g id="LWPOLYLINE-10">
        <rect class="cls-1" x="1448.38" y="448.28" width="29.26" height="15.76"/>
      </g>
      <g id="LWPOLYLINE-11">
        <polyline class="cls-1" points="1419.89 243.16 1416.84 243.16 1412.1 243.16 1412.1 231.63 1419.89 231.63 1419.89 233.6 1432.35 233.6 1439.58 233.6 1439.58 243.16 1432.35 243.16 1419.89 243.16"/>
      </g>
      <g id="LWPOLYLINE-12">
        <polygon class="cls-1" points="1254.36 231.63 1194.71 231.63 1194.71 232.75 1137.97 232.75 1137.97 244.06 1179.34 244.06 1179.34 274.44 1138.01 274.44 1136.5 274.44 1135.83 276.64 1127.56 276.64 1127.56 575.08 1194.71 575.08 1194.71 577.16 1469.68 577.16 1469.68 573.08 1473.76 573.08 1473.76 577.16 1473.76 662.42 1473.76 664.93 1507.48 664.93 1507.48 675.17 1507.48 676.15 1507.48 676.32 1507.48 676.97 1565.93 676.97 1565.93 244.85 1568.61 235.56 1568.61 231.63 1254.36 231.63"/>
      </g>
      <g id="LWPOLYLINE-13">
        <rect class="cls-1" x="1664.41" y="448.28" width="29.26" height="15.76"/>
      </g>
      <g id="LWPOLYLINE-14">
        <polygon class="cls-1" points="1920.45 466.18 1903.57 466.18 1903.57 466.53 1903.57 510.18 1882.97 510.18 1882.97 467.9 1869.49 467.9 1869.49 465.16 1882.97 465.16 1882.97 348.11 1888.38 348.11 1903.57 348.11 1903.57 325.04 1920.45 325.04 1920.45 237.25 1912.01 237.25 1903.57 237.25 1903.57 231.63 1868.96 231.63 1573.39 231.63 1573.39 235.56 1576.06 244.85 1576.06 675.06 1886.51 675.06 1889.62 675.06 1889.62 686.3 1911.45 686.3 1911.45 660.43 1903.57 660.43 1903.57 646.92 1912.01 646.92 1920.45 646.92 1920.45 466.18"/>
      </g>
      <g id="LWPOLYLINE-15">
        <polygon class="cls-1" points="1024.02 232.75 1003.83 232.75 1003.83 272.35 1127.56 272.35 1133.68 272.35 1133.68 271.1 1133.68 247.4 1133.68 244.02 1133.68 232.75 1037.53 232.75 1037.53 246.82 1024.02 246.82 1024.02 232.75"/>
      </g>
      <g id="LWPOLYLINE-16">
        <rect class="cls-1" x="859.14" y="479.79" width="94.54" height="67.53"/>
      </g>
      <g id="LWPOLYLINE-17">
        <rect class="cls-1" x="801.18" y="449.4" width="27.01" height="13.51"/>
      </g>
      <g id="LWPOLYLINE-18">
        <rect class="cls-1" x="1017.27" y="449.4" width="27.01" height="13.51"/>
      </g>
      <g id="LWPOLYLINE-19">
        <rect class="cls-1" x="807.93" y="665.49" width="13.51" height="13.51"/>
      </g>
      <g id="LWPOLYLINE-20">
        <rect class="cls-1" x="807.93" y="881.58" width="13.51" height="13.51"/>
      </g>
      <g id="LWPOLYLINE-21">
        <rect class="cls-1" x="1024.02" y="1090.92" width="13.51" height="27.01"/>
      </g>
      <g id="LWPOLYLINE-22">
        <rect class="cls-1" x="807.93" y="1097.67" width="13.51" height="13.51"/>
      </g>
      <g id="LWPOLYLINE-23">
        <rect class="cls-1" x="807.93" y="1313.76" width="13.51" height="13.51"/>
      </g>
      <g id="LWPOLYLINE-24">
        <rect class="cls-1" x="1024.02" y="1306.96" width="13.51" height="27.01"/>
      </g>
      <g id="LWPOLYLINE-25">
        <polygon class="cls-1" points="1907.16 1085.69 1907.16 955.58 1767.74 955.58 1767.74 1123.86 1782.94 1123.86 1782.94 1131.68 1782.94 1133.19 1782.94 1165.76 1817.61 1165.76 1817.61 1143.25 1820.57 1143.25 1820.57 1165.76 1888.03 1165.76 1888.03 1143.56 1907.16 1143.56 1907.16 1123.86 1881.84 1123.86 1881.84 1085.69 1907.16 1085.69"/>
      </g>
      <g id="LWPOLYLINE-26">
        <rect class="cls-1" x="1447.69" y="1587.53" width="2.95" height="23.63"/>
      </g>
      <g id="LWPOLYLINE-27">
        <rect class="cls-1" x="1434.18" y="1645.82" width="2.95" height="19.98"/>
      </g>
      <g id="LWPOLYLINE-28">
        <rect class="cls-1" x="1434.18" y="1687.87" width="2.95" height="19.98"/>
      </g>
      <g id="LWPOLYLINE-29">
        <rect class="cls-1" x="1484.41" y="1687.87" width="2.95" height="19.98"/>
      </g>
      <g id="LWPOLYLINE-30">
        <rect class="cls-1" x="1484.41" y="1645.82" width="2.95" height="19.98"/>
      </g>
      <g id="LWPOLYLINE-31">
        <rect class="cls-1" x="1434.18" y="1534.35" width="2.95" height="19.98"/>
      </g>
      <g id="LWPOLYLINE-32">
        <rect class="cls-1" x="1484.41" y="1534.35" width="2.95" height="19.98"/>
      </g>
      <g id="LWPOLYLINE-33">
        <rect class="cls-1" x="1452.96" y="1379.32" width="2.95" height="27.01"/>
      </g>
      <g id="LWPOLYLINE-34">
        <rect class="cls-1" x="1328.46" y="1379.32" width="2.95" height="27.01"/>
      </g>
      <g id="LWPOLYLINE-35">
        <polygon class="cls-1" points="1455.92 1312.35 1470.83 1312.35 1470.83 1328.67 1455.92 1328.67 1455.92 1355.68 1452.96 1355.68 1452.96 1331.18 1452.96 1324.4 1452.96 1316.62 1452.96 1309.84 1452.96 1292.09 1455.92 1292.09 1455.92 1312.35"/>
      </g>
      <g id="LWPOLYLINE-36">
        <rect class="cls-1" x="1328.46" y="1323.44" width="2.95" height="27.03"/>
      </g>
    </g>
  </g>
  <g id="E13">
    <polyline points="246.38 239.06 999 239.06 999 276.75 1127.56 276.75 1127.56 663.38 984.75 663.38 984.75 898.88 1066.02 898.88 1066.02 987.38 1153.12 987.38 1153.12 1474.88 979.88 1474.88 979.88 1597.38 574.88 1597.38 574.88 1664.73 409.5 1664.73 409.5 1199.25 312.76 1199.25 312.76 1148.38 239.01 1148.38"/>
  </g>
  <g id="_0060.00C" data-name=" 0060.00C">
    <rect x="312.76" y="1287" width="88.87" height="92.81"/>
  </g>
  <g id="_0021.00C" data-name=" 0021.00C">
    <g id="LWPOLYLINE-37">
      <rect x="312.73" y="1385.65" width="59.65" height="81.03"/>
    </g>
  </g>
  <g id="_0061.00C" data-name=" 0061.00C">
    <g id="LWPOLYLINE-38">
      <polygon points="401.22 1385.65 380.68 1385.65 380.68 1385.69 380.68 1474.99 312.73 1474.99 312.73 1563.61 316.53 1563.61 316.53 1659.7 401.22 1659.7 401.22 1597.64 401.22 1385.65"/>
    </g>
  </g>
  <g id="C17">
    <g id="LWPOLYLINE-39">
      <polygon points="239.01 1611.73 239.01 1727.09 312.76 1727.09 312.76 1663.85 308.23 1663.85 308.23 1563.61 308.23 1475.02 308.23 1466.65 308.23 1385.69 308.23 1377.32 308.23 1302.79 308.23 1283.45 308.23 1282.6 308.23 1155.35 239.01 1155.35 239.01 1221.08 239.01 1312.92 255.05 1312.92 255.05 1328.11 239.01 1328.11 239.01 1596.53 262.93 1596.53 262.93 1611.73 239.01 1611.73"/>
    </g>
  </g>
  <g id="C15">
    <g id="LWPOLYLINE-40">
      <polygon points="931.03 1604.55 835.37 1604.55 835.37 1618.06 814.69 1618.06 794 1618.06 794 1604.55 619.28 1604.55 619.28 1618.06 582.14 1618.06 582.14 1660.82 585.09 1660.82 814.69 1660.82 931.03 1660.82 931.03 1604.55"/>
    </g>
  </g>
  <g id="C16">
    <g id="LWPOLYLINE-41">
      <polyline points="844.59 1727.09 927.93 1727.09 927.93 1668 814.69 1668 814.69 1667.77 585.09 1667.77 585.09 1668 578.55 1668 574.96 1668 531.07 1668 409.52 1668 405.37 1668 312.76 1668 312.76 1727.09 807.93 1727.09 844.59 1727.09"/>
    </g>
  </g>
  <g id="C14">
    <g id="LWPOLYLINE-42">
      <polygon points="935.11 1727.09 1053.08 1727.09 1053.08 1722.76 1053.08 1614.92 979.42 1614.92 979.42 1605.68 978.93 1605.68 978.93 1602.37 935.11 1602.37 935.11 1660.82 935.11 1664.41 935.11 1727.09"/>
    </g>
  </g>
  <g id="_0011.00C" data-name=" 0011.00C">
    <g id="LWPOLYLINE-43">
      <polygon points="1048.5 1526.61 1048.5 1479.28 985.47 1479.28 985.47 1526.61 987.27 1526.61 1048.5 1526.61"/>
    </g>
  </g>
  <g id="_0012.00C" data-name=" 0012.00C">
    <g id="LWPOLYLINE-44">
      <rect x="1048.5" y="1479.28" width="63.03" height="47.34"/>
    </g>
  </g>
  <g id="C04">
    <g id="LWPOLYLINE-45">
      <polygon points="1017.83 1596.53 1017.83 1597.38 1044.54 1597.38 1044.54 1596.53 1055.47 1596.53 1130.92 1596.53 1151.97 1596.53 1151.97 1525.91 1151.97 1482.23 1118.07 1482.23 1118.07 1530.69 1108.47 1530.69 1048.5 1530.69 987.23 1530.69 987.23 1596.53 1017.83 1596.53"/>
    </g>
  </g>
  <g id="C23">
    <polyline points="1738.69 1316.25 1779.75 1316.25 1779.75 1377 1907.16 1377 1907.16 1507.5 1884.94 1507.5 1884.38 1549.68 1738.69 1549.68"/>
  </g>
  <g id="C59">
    <rect x="1625.31" y="1494.96" width="109.16" height="54.73"/>
  </g>
  <g id="C37">
    <rect x="1625.31" y="1377" width="109.16" height="115.29"/>
  </g>
  <g id="C43">
    <rect x="1625.31" y="1316.25" width="109.16" height="57.38"/>
  </g>
  <g id="C63">
    <g id="LWPOLYLINE-46">
      <polygon points="1907.16 1805.47 1907.16 1654.54 1907.16 1612.53 1873.75 1612.53 1873.75 1595.73 1907.16 1595.73 1907.16 1552.64 1885.78 1552.64 1855.74 1552.64 1783.67 1552.64 1782.16 1552.64 1693.69 1552.64 1693.69 1590.13 1693.69 1607.69 1693.69 1611.08 1693.69 1662.25 1693.69 1804.8 1693.69 1805.72 1693.69 1806.32 1693.69 1827.74 1886.98 1827.74 1886.98 1805.47 1907.16 1805.47"/>
    </g>
  </g>
  <g id="C31">
    <rect x="1625.31" y="1171.69" width="154.44" height="142.21"/>
  </g>
  <g id="C31.002">
    <rect x="1847.81" y="1171.69" width="59.35" height="91.69"/>
  </g>
  <g id="C30">
    <rect x="1783.69" y="1265.62" width="123.47" height="108"/>
  </g>
  <g id="C31.001">
    <rect x="1779.75" y="1171.69" width="64.12" height="91.69"/>
  </g>
  <g id="C61">
    <g id="LWPOLYLINE-47">
      <polygon points="1663.55 1612.38 1663.55 1591.61 1567.86 1591.61 1567.41 1591.61 1567.41 1660.77 1687.22 1660.77 1687.22 1612.38 1663.55 1612.38"/>
    </g>
  </g>
  <g id="C55">
    <g id="LWPOLYLINE-48">
      <polygon points="1558.45 1797.5 1558.45 1812.48 1558.45 1813.96 1558.45 1813.99 1558.45 1827.74 1670.26 1827.74 1670.26 1804.84 1687.22 1804.84 1687.22 1663.72 1567.41 1663.72 1567.41 1763.28 1567.41 1797.5 1558.45 1797.5"/>
    </g>
  </g>
  <g id="C35">
    <g id="LWPOLYLINE-49">
      <rect x="1512.89" y="1280.98" width="60.93" height="65.84"/>
    </g>
  </g>
  <g id="C39">
    <rect x="1512.89" y="1349.77" width="60.93" height="64.57"/>
  </g>
  <g id="C41">
    <g id="LWPOLYLINE-50">
      <polygon points="1513.12 1480.61 1573.82 1479.28 1573.82 1417.3 1512.89 1417.3 1513.12 1428.35 1513.12 1480.61"/>
    </g>
  </g>
  <g id="C65">
    <g id="LWPOLYLINE-51">
      <polygon points="1573.82 1483.56 1512.89 1483.56 1512.89 1549.68 1523.59 1549.68 1564.81 1549.68 1573.82 1549.68 1573.82 1483.56"/>
    </g>
  </g>
  <g id="C51.002">
    <g id="LWPOLYLINE-52">
      <polygon points="1564.46 1763.28 1564.46 1662.25 1564.46 1590.13 1564.81 1590.13 1564.81 1586.74 1564.81 1552.64 1525.06 1552.64 1525.06 1750.33 1525.06 1763.28 1564.46 1763.28"/>
    </g>
  </g>
  <g id="C51.003">
    <g id="LWPOLYLINE-53">
      <polygon points="1664.85 1588.65 1690.73 1588.65 1690.73 1552.64 1689.99 1552.64 1622.22 1552.64 1622.22 1522.74 1622.22 1494.96 1576.78 1494.96 1576.78 1552.64 1564.81 1552.64 1564.81 1588.65 1664.85 1588.65"/>
    </g>
  </g>
  <g id="C51">
    <g id="LWPOLYLINE-54">
      <polygon points="1535.69 1794.54 1556.97 1794.54 1558.45 1794.54 1558.48 1794.54 1564.46 1794.54 1564.46 1763.28 1526.98 1763.28 1523.59 1763.28 1512.86 1763.28 1426.94 1763.28 1426.94 1741.47 1393.17 1741.47 1393.17 1763.28 1340.33 1763.28 1335.64 1763.28 1335.72 1737 1228.12 1733.87 1228.12 1763.28 1247.44 1763.28 1247.44 1804.92 1420.66 1804.92 1428.71 1804.92 1526.12 1804.92 1535.69 1804.92 1535.69 1794.54"/>
    </g>
  </g>
  <g id="C05A">
    <g id="LWPOLYLINE-55">
      <polygon points="1143.46 1771 1143.46 1775.27 1143.46 1776.92 1143.46 1782.73 1143.46 1793.98 1143.46 1808.19 1192 1808.19 1192 1800.18 1192 1727.19 1143.46 1727.19 1143.46 1768.02 1143.46 1771"/>
    </g>
  </g>
  <g id="C07">
    <rect x="1069.6" y="1727.19" width="70.02" height="46.93"/>
  </g>
  <g id="C53">
    <g id="LWPOLYLINE-56">
      <polygon points="1341.21 1759.2 1389.09 1759.2 1389.09 1739.99 1389.09 1708.55 1389.06 1708.55 1341.21 1708.55 1341.21 1732.57 1341.21 1759.2"/>
    </g>
  </g>
  <g id="C49.009">
    <g id="LWPOLYLINE-57">
      <polygon points="1389.09 1666.41 1389.09 1656.31 1341.21 1656.31 1341.21 1704.47 1389.09 1704.47 1389.09 1666.41"/>
    </g>
  </g>
  <g id="C49.011">
    <g id="LWPOLYLINE-58">
      <polygon points="1389.09 1643.2 1389.09 1604.06 1341.21 1604.06 1341.21 1652.23 1389.09 1652.23 1389.09 1643.2"/>
    </g>
  </g>
  <g id="_0014.00C" data-name=" 0014.00C">
    <g id="LWPOLYLINE-59">
      <polygon points="1333.56 1728.78 1335.72 1728.78 1335.72 1668.39 1262 1668.39 1262 1728.78 1333.56 1728.78"/>
    </g>
  </g>
  <g id="_0013.00C" data-name=" 0013.00C">
    <g id="LWPOLYLINE-60">
      <polygon points="1335.72 1600.05 1262.07 1600.05 1262.07 1612.22 1295.76 1612.22 1295.76 1615.95 1262.11 1615.95 1262 1615.95 1262 1668.39 1335.72 1668.39 1335.72 1615.95 1304.77 1615.95 1304.77 1612.22 1335.72 1612.22 1335.72 1600.05"/>
    </g>
  </g>
  <g id="C05">
    <g id="LWPOLYLINE-61">
      <polygon points="1057.86 1722.8 1058.91 1722.8 1058.91 1724.24 1062.85 1724.24 1067.46 1724.24 1069.29 1724.24 1093.87 1724.24 1141.98 1724.24 1194.95 1724.24 1194.95 1802.69 1197.37 1802.69 1203.03 1802.69 1205.96 1802.69 1205.96 1804.92 1243.78 1804.92 1243.78 1767.74 1223.88 1767.74 1223.88 1729.2 1257.92 1729.2 1257.92 1668.39 1257.92 1614.57 1232.92 1614.57 1232.92 1597.45 1232.92 1596.39 1232.92 1596.36 1232.92 1560.1 1214 1560.1 1214 1529.99 1160.91 1529.99 1160.91 1596.67 1160.94 1598.92 1160.94 1614.92 1057.86 1614.92 1057.86 1722.8"/>
    </g>
  </g>
  <g id="_0019.00C" data-name=" 0019.00C">
    <g id="LWPOLYLINE-62">
      <polygon points="1236.58 1529.99 1236.58 1557.11 1236.58 1558.62 1236.58 1596.39 1261.02 1596.39 1262 1596.39 1262.11 1596.39 1337.2 1596.39 1389.52 1596.39 1389.52 1529.99 1312.18 1529.99 1309.15 1529.99 1236.58 1529.99"/>
    </g>
  </g>
  <g id="C49">
    <g id="LWPOLYLINE-63">
      <polygon points="1393.17 1526.33 1393.17 1597.8 1404.43 1597.8 1404.43 1600.75 1393.21 1600.75 1393.17 1600.75 1393.17 1603.18 1393.17 1641.72 1404.43 1641.72 1404.43 1644.67 1393.17 1644.67 1393.17 1654.27 1393.17 1664.93 1404.43 1664.93 1404.43 1667.89 1393.17 1667.89 1393.17 1704.44 1393.17 1704.79 1393.17 1706.51 1393.17 1738.52 1429.89 1738.52 1429.89 1760.32 1511.98 1760.32 1511.98 1749.45 1522.11 1749.45 1522.11 1552.64 1509.94 1552.64 1509.94 1495.24 1509.91 1495.24 1466.45 1495.24 1466.45 1483.56 1431.21 1483.56 1387.03 1483.56 1357.3 1483.56 1312.41 1483.56 1218.78 1483.56 1218.78 1526.33 1233.94 1526.33 1235.28 1526.33 1309.19 1526.33 1309.19 1511.84 1312.14 1511.84 1312.14 1526.33 1393.17 1526.33"/>
    </g>
  </g>
  <g id="C49.007">
    <g id="LWPOLYLINE-64">
      <polygon points="1469.4 1492.29 1509.94 1492.29 1509.94 1434.89 1469.4 1434.89 1469.4 1482.09 1469.4 1492.29"/>
    </g>
  </g>
  <g id="C49.005">
    <g id="LWPOLYLINE-65">
      <rect x="1432.68" y="1434.89" width="33.76" height="45.72"/>
    </g>
  </g>
  <g id="C49.003">
    <g id="LWPOLYLINE-66">
      <polygon points="1388.51 1434.89 1388.51 1480.61 1429.73 1480.61 1429.73 1434.92 1429.73 1434.89 1388.51 1434.89"/>
    </g>
  </g>
  <g id="C49.001">
    <g id="LWPOLYLINE-67">
      <polygon points="1385.55 1480.61 1385.55 1436.8 1385.55 1434.89 1358.77 1434.89 1358.77 1436.8 1358.77 1480.61 1385.55 1480.61"/>
    </g>
  </g>
  <g id="C47.009">
    <g id="LWPOLYLINE-68">
      <rect x="1313.88" y="1434.89" width="41.94" height="45.72"/>
    </g>
  </g>
  <g id="C47">
    <g id="LWPOLYLINE-69">
      <polygon points="1306.79 1282.81 1306.79 1271.91 1273.42 1271.91 1273.42 1307.15 1256.78 1307.15 1256.78 1333.83 1273.31 1333.83 1273.31 1389.18 1273.31 1445.65 1218.78 1445.65 1218.78 1480.61 1310.93 1480.61 1310.93 1431.93 1353.91 1431.93 1355.76 1431.93 1357.3 1431.93 1387.03 1431.93 1388.96 1431.93 1390.42 1431.93 1431.21 1431.93 1432.29 1431.93 1432.72 1431.93 1467.92 1431.93 1509.94 1431.93 1509.94 1415.83 1509.94 1348.3 1509.94 1279.5 1509.94 1233.57 1508.03 1233.57 1470.25 1233.57 1470.25 1262.83 1418.64 1262.83 1418.64 1267.55 1408.51 1267.55 1408.51 1281.02 1408.51 1281.05 1418.64 1281.05 1418.64 1293.5 1415.68 1293.5 1415.68 1282.81 1407.63 1282.81 1406.95 1282.81 1406.71 1282.81 1393.21 1282.81 1393.17 1282.81 1391.7 1282.81 1306.79 1282.81"/>
    </g>
  </g>
  <g id="C47.001">
    <g id="LWPOLYLINE-70">
      <polygon points="1218.78 1391.96 1218.78 1440.09 1269.23 1440.09 1269.23 1391.96 1219.78 1391.96 1218.78 1391.96"/>
    </g>
  </g>
  <g id="C09.002">
    <g id="LWPOLYLINE-71">
      <polygon points="1255.48 1336.79 1218.78 1336.79 1218.78 1386.4 1269.23 1386.4 1269.23 1336.79 1255.48 1336.79"/>
    </g>
  </g>
  <g id="C47.005">
    <g id="LWPOLYLINE-72">
      <polygon points="1218.78 1304.19 1218.82 1304.19 1254.14 1304.19 1254.78 1304.19 1255.48 1304.19 1269.34 1304.19 1269.34 1271.94 1269.34 1271.91 1267.82 1271.91 1218.82 1271.91 1218.78 1271.91 1218.78 1304.19"/>
    </g>
  </g>
  <g id="C47.007">
    <g id="LWPOLYLINE-73">
      <polygon points="1393.17 1213.59 1393.17 1259.17 1407.63 1259.17 1417.76 1259.17 1466.6 1259.17 1466.6 1232.09 1466.6 1213.59 1393.17 1213.59"/>
    </g>
  </g>
  <g id="_0015.00C" data-name=" 0015.00C">
    <g id="LWPOLYLINE-74">
      <polygon class="cls-2" points="1309.75 1271.94 1309.75 1279.86 1390.22 1279.86 1390.22 1262.87 1390.22 1259.14 1390.22 1213.63 1390.22 1212.89 1309.75 1212.89 1309.75 1212.93 1309.75 1242.1 1309.75 1266.86 1309.75 1268.92 1309.75 1271.94"/>
    </g>
  </g>
  <g id="Layer_39" data-name="Layer 39">
    <g id="LWPOLYLINE-75">
      <polygon class="cls-3" points="1306.79 1268.95 1306.79 1266.86 1306.79 1242.1 1306.79 1212.89 1273.64 1212.89 1271.94 1212.89 1271.94 1267.44 1271.94 1268.95 1273.45 1268.95 1306.79 1268.95"/>
    </g>
  </g>
  <g id="C09.001">
    <g id="LWPOLYLINE-76">
      <polygon points="1218.78 1267.48 1267.86 1267.48 1267.86 1214.72 1266.86 1214.72 1218.78 1214.72 1218.78 1267.48"/>
    </g>
  </g>
  <g id="C25.001">
    <g id="LWPOLYLINE-77">
      <polygon points="1622.22 1436.51 1622.36 1436.51 1622.36 1326.07 1622.36 1209.94 1576.78 1209.94 1576.78 1279.5 1576.78 1279.75 1576.78 1281.02 1576.78 1348.3 1576.78 1415.83 1576.78 1492 1622.22 1492 1622.22 1469.83 1622.22 1439.9 1622.22 1436.51"/>
    </g>
  </g>
  <g id="C33">
    <g id="LWPOLYLINE-78">
      <polygon points="1573.82 1212.89 1512.89 1212.89 1512.89 1228.7 1512.89 1230.55 1512.89 1232.09 1512.89 1278.03 1573.79 1278.03 1573.82 1278.03 1573.82 1212.99 1573.82 1212.89"/>
    </g>
  </g>
  <g id="C25">
    <g id="LWPOLYLINE-79">
      <polyline points="1622.36 1170.76 1622.36 953.62 1578.38 955.58 1576.78 1170.76 1539.1 1170.76 1539.06 1170.76 1537.58 1170.76 1456.7 1170.76 1456.14 1170.76 1454.62 1170.76 1272.64 1170.76 1272.64 1173.02 1272.64 1209.94 1306.76 1209.94 1306.79 1209.94 1308.27 1209.94 1391.7 1209.94 1393.17 1209.94 1393.21 1209.94 1470.25 1209.94 1470.25 1230.62 1509.94 1230.62 1509.94 1209.94 1575.3 1209.94 1622.36 1209.94"/>
    </g>
  </g>
  <g id="C22">
    <polyline points="1881.84 1085.69 1907.16 1085.69 1907.16 955.58 1625.31 956.71 1625.31 1167.8 1907.16 1168.72 1907.16 1123.86 1881.84 1123.86 1881.84 1085.69"/>
  </g>
  <g id="_0032.00C" data-name=" 0032.00C">
    <g id="LWPOLYLINE-80">
      <polygon points="1469.56 1115.3 1458.74 1115.3 1458.74 1149.79 1458.74 1151.83 1458.74 1166.68 1536.11 1166.68 1536.11 1151.83 1536.11 1115.3 1469.56 1115.3"/>
    </g>
  </g>
  <g id="C21">
    <polyline points="1458.74 956.71 1573.74 956.71 1573.74 1166.68 1539.06 1167.8 1539.06 1111.22 1470.44 1111.22 1470.44 1096.89 1458.74 1096.89"/>
  </g>
  <g id="C29">
    <g id="LWPOLYLINE-81">
      <polyline points="1452.96 956.71 1243.77 956.71 1243.77 964.55 1243.77 965.78 1245.6 965.78 1245.6 967.94 1245.6 1036.82 1220.84 1036.82 1220.84 1167.8 1266.86 1167.8 1267.68 1167.8 1267.86 1167.8 1270.25 1167.8 1454.66 1167.8 1454.66 1151.83 1454.66 1149.79"/>
    </g>
  </g>
  <g id="C09">
    <g id="LWPOLYLINE-82">
      <polygon points="1214 1526.33 1214 1482.09 1214 1442.87 1214 1389.18 1214 1386.07 1214 1385.79 1214 1335.49 1214 1306.83 1214 1306.16 1214 1305.49 1214 1269.69 1214 1269.02 1214 1267.44 1214 1209.94 1267.86 1209.94 1267.86 1208.02 1267.86 1171.46 1216.05 1171.46 1216.05 1032.04 1240.81 1032.04 1240.81 965.43 1216.05 965.43 1216.05 951.92 1160.91 951.92 1160.91 979.83 1160.91 983.22 1160.91 1474.98 1160.91 1526.33 1214 1526.33"/>
    </g>
  </g>
  <g id="C11">
    <g id="LWPOLYLINE-83">
      <polyline points="1546.69 895.65 1471.89 895.65 1470.41 895.65 1468.5 895.65 1457.15 895.65 1457.11 895.65 1456.23 895.65 1397.22 895.65 1397.18 895.65 1397.18 894.1 1392.82 894.1 1392.82 895.65 1322.62 895.65 1290.19 895.65 1288.7 895.65 1286.8 895.65 1277.83 895.65 1275.91 895.65 1272.92 895.65 1191.38 895.65 1186.51 895.65 1184.6 895.65 1162.82 895.65 1160.91 895.65 1160.91 951.92 1213.54 951.92 1242.29 951.92 1242.47 951.92 1751.07 951.92 1751.07 895.65 1695.45 895.65 1688.35 895.65 1686.2 895.65 1684.04 895.65 1675.24 895.65 1673.08 895.65 1670.93 895.65 1645.42 895.65 1576.94 895.65 1576.81 895.65 1575.43 895.65 1548.03 895.65 1546.69 895.65"/>
    </g>
  </g>
  <g id="C03A">
    <g id="LWPOLYLINE-84">
      <polygon points="1066.02 982.83 1154.15 982.83 1154.15 979.64 1157.95 979.64 1157.95 951.92 1157.95 894.17 1157.95 892.31 1157.95 890.78 1157.95 876.34 1091.13 876.34 1091.13 884.22 1091.13 888.02 1091.13 892.73 1091.13 898.46 1088.14 898.46 1066.02 898.46 1066.02 982.83"/>
    </g>
  </g>
  <g id="C03">
    <g id="LWPOLYLINE-85">
      <polygon points="1186.51 744.94 1186.51 679.07 1091.13 679.07 1091.13 744.94 1091.13 815.88 1091.13 873.39 1159.43 873.39 1186.51 873.39 1186.51 815.88 1186.51 744.94"/>
    </g>
  </g>
  <g id="_0035.00C" data-name=" 0035.00C">
    <polygon points="1885.65 900.67 1885.65 894.95 1882.66 894.95 1850.52 894.95 1850.52 900.67 1885.65 900.67"/>
  </g>
  <g id="C13">
    <g id="LWPOLYLINE-86">
      <polygon points="1847.57 891.99 1882.69 891.99 1882.69 872.86 1907.16 872.86 1907.16 844.44 1907.16 786.62 1907.16 692.84 1889.62 692.84 1879.94 692.84 1879.94 683.51 1795.25 683.51 1795.25 776.91 1754.73 776.91 1754.73 893.82 1754.73 895.44 1754.73 895.68 1754.73 951.92 1766.09 951.92 1907.16 951.92 1907.16 903.63 1888.64 903.63 1888.6 903.63 1887.13 903.63 1847.57 903.63 1847.57 891.99"/>
    </g>
  </g>
  <g id="_0082.00C" data-name=" 0082.00C">
    <g id="LWPOLYLINE-87">
      <polygon points="1670.97 876.7 1685.36 876.7 1685.36 839.14 1696.33 839.14 1696.33 877.87 1696.33 878.71 1696.33 879.38 1696.33 891.99 1751.04 891.99 1751.07 891.99 1751.07 776.91 1647.25 776.91 1647.25 891.99 1670.97 891.99 1670.97 891.2 1670.97 876.7"/>
    </g>
  </g>
  <g id="_0037.00C" data-name=" 0037.00C">
    <g id="LWPOLYLINE-88">
      <polyline points="1693.38 842.09 1688.31 842.09 1688.31 874.19 1688.31 876.39 1693.38 876.39"/>
    </g>
  </g>
  <g id="_0083.001" data-name=" 0083.001">
    <g id="LWPOLYLINE-89">
      <polygon points="1791.59 773.26 1791.59 683.51 1647.25 683.51 1647.25 773.26 1751.04 773.26 1754.76 773.26 1791.59 773.26"/>
    </g>
  </g>
  <g id="_0084.00C" data-name=" 0084.00C">
    <g id="LWPOLYLINE-90">
      <polygon points="1549.05 737.8 1549.05 847.54 1576.91 847.54 1576.91 891.99 1643.59 891.99 1643.59 775.08 1643.59 773.26 1643.59 683.51 1565.93 683.51 1565.93 681.97 1503.89 681.97 1503.89 737.8 1549.05 737.8"/>
    </g>
  </g>
  <g id="_0040.00C" data-name=" 0040.00C">
    <g id="LWPOLYLINE-91">
      <polygon points="1573.95 850.49 1548 850.49 1548 884.57 1548 892.7 1573.95 892.7 1573.95 891.96 1573.95 850.49"/>
    </g>
  </g>
  <g id="_0017.00C" data-name=" 0017.00C">
    <g id="LWPOLYLINE-92">
      <polygon points="1545.39 849.01 1545.39 741.46 1503.89 741.46 1500.94 741.46 1473.36 741.46 1473.36 880.7 1473.36 883.27 1545.39 883.27 1545.39 850.53 1545.39 850.45 1545.39 849.01"/>
    </g>
  </g>
  <g id="_0041.00C" data-name=" 0041.00C">
    <g id="LWPOLYLINE-93">
      <polygon points="1473.36 737.8 1500.94 737.8 1501.12 671.82 1473.36 671.82 1473.36 680.47 1473.36 737.8"/>
    </g>
  </g>
  <g id="C10">
    <rect x="1398" y="671.82" width="69.75" height="220.18"/>
  </g>
  <g id="_0086.00C" data-name=" 0086.00C">
    <g id="LWPOLYLINE-94">
      <polygon points="1388.67 673.23 1291.19 673.23 1291.19 679.41 1291.19 680.88 1291.19 680.92 1291.19 778.39 1275.91 778.39 1275.91 815.88 1275.91 817.15 1329.4 817.15 1330.88 817.15 1330.91 817.15 1388.67 817.15 1388.67 766.78 1392.4 766.78 1392.4 744.27 1388.67 744.27 1388.67 673.23"/>
    </g>
  </g>
  <g id="_0085.00C" data-name=" 0085.00C">
    <g id="LWPOLYLINE-95">
      <polygon points="1392.4 890.87 1392.4 820.81 1390.54 820.81 1330.88 820.81 1330.88 868.6 1324.1 868.6 1324.1 890.87 1392.4 890.87"/>
    </g>
  </g>
  <g id="_0042.00C" data-name=" 0042.00C">
    <g id="LWPOLYLINE-96">
      <polygon points="1327.92 820.1 1275.91 820.1 1275.91 865.65 1288.68 865.65 1291.71 865.65 1321.11 865.65 1324.13 865.65 1327.92 865.65 1327.92 820.84 1327.92 820.1"/>
    </g>
  </g>
  <g id="_0043.00C" data-name=" 0043.00C">
    <g id="LWPOLYLINE-97">
      <polygon points="1288.24 775.44 1288.24 680.88 1275.56 680.88 1275.56 744.94 1275.56 775.44 1288.24 775.44"/>
    </g>
  </g>
  <g id="_0009.00C" data-name=" 0009.00C">
    <g id="LWPOLYLINE-98">
      <polygon points="1243.7 816.02 1243.7 815.88 1189.46 815.88 1189.46 873.35 1189.46 876.38 1189.46 884.25 1224.35 884.25 1233.36 884.25 1234.72 884.25 1243.7 884.25 1261.71 884.25 1270.68 884.25 1272.96 884.25 1272.96 880.85 1272.96 867.13 1272.96 818.63 1272.96 815.88 1261.71 815.88 1261.71 816.02 1243.7 816.02"/>
    </g>
  </g>
  <g id="_0007.00C" data-name=" 0007.00C">
    <g id="LWPOLYLINE-99">
      <polygon points="1272.96 744.94 1189.46 744.94 1189.46 815.88 1243.7 815.88 1243.7 815.74 1261.71 815.74 1261.71 815.88 1272.96 815.88 1272.96 776.91 1272.96 775.44 1272.96 775.4 1272.96 744.94"/>
    </g>
  </g>
  <g id="_0005.00C" data-name=" 0005.00C">
    <g id="LWPOLYLINE-100">
      <polygon points="1189.46 744.94 1272.96 744.94 1272.96 680.92 1272.96 676.32 1271.05 676.32 1270.68 676.32 1261.71 676.32 1243.7 676.32 1234.72 676.32 1233.36 676.32 1224.35 676.32 1189.46 676.32 1189.46 677.27 1189.46 679.1 1189.46 744.94"/>
    </g>
  </g>
  <g id="_0010.00C" data-name=" 0010.00C">
    <g id="LWPOLYLINE-101">
      <polygon points="1015.93 816.02 1015.93 815.88 1004.68 815.88 1004.68 884.25 1006.96 884.25 1015.93 884.25 1033.94 884.25 1042.92 884.25 1044.28 884.25 1053.28 884.25 1088.17 884.25 1088.17 876.38 1088.17 873.35 1088.17 815.88 1033.94 815.88 1033.94 816.02 1015.93 816.02"/>
    </g>
  </g>
  <g id="_0008.00C" data-name=" 0008.00C">
    <g id="LWPOLYLINE-102">
      <polygon points="1088.17 744.94 1004.68 744.94 1004.68 775.39 1004.68 775.43 1004.68 776.9 1004.68 815.88 1015.93 815.88 1015.93 815.74 1033.94 815.74 1033.94 815.88 1088.17 815.88 1088.17 744.94"/>
    </g>
  </g>
  <g id="_0006.00C" data-name=" 0006.00C">
    <g id="LWPOLYLINE-103">
      <polygon points="1004.68 744.94 1088.17 744.94 1088.17 679.1 1088.17 677.27 1088.17 676.32 1053.28 676.32 1044.28 676.32 1042.92 676.32 1033.94 676.32 1015.93 676.32 1006.96 676.32 1004.68 676.32 1004.68 680.01 1004.68 744.94"/>
    </g>
  </g>
  <g id="_0046.00A" data-name=" 0046.00A">
    <g id="LWPOLYLINE-104">
      <polygon points="990.89 778.38 990.89 882.84 1001.72 882.75 1001.72 819.13 1001.72 812.35 1001.72 778.38 990.89 778.38"/>
    </g>
  </g>
  <g id="_0047.00C" data-name=" 0047.00C">
    <g id="LWPOLYLINE-105">
      <polygon points="1002.07 680.01 990.89 680.01 990.89 775.43 1002.07 775.43 1002.07 744.94 1002.07 680.01"/>
    </g>
  </g>
</svg>