<?xml version="1.0" encoding="UTF-8"?>
<svg xmlns="http://www.w3.org/2000/svg" xmlns:xlink="http://www.w3.org/1999/xlink" viewBox="0 0 2394.78 2070.78">
  <defs>
    <style>
      .cls-1 {
        fill: none;
        stroke: red;
        stroke-linecap: round;
        stroke-linejoin: round;
        stroke-width: .26px;
      }
    </style>
  </defs>
  <g id="Layer_1" data-name="Layer 1">
    <image width="5760" height="4320" transform="translate(-15.12 -40.27) scale(.6)" xlink:href="../PDF and PNG/RCP/Level B.jpg"/>
  </g>
  <g id="roombndry">
    <g>
      <g id="LWPOLYLINE">
        <rect class="cls-1" x="987.32" y="584.47" width="94.52" height="67.51"/>
      </g>
      <g id="LINE">
        <line class="cls-1" x1="411.02" y1="1009.98" x2="411.02" y2="995.35"/>
      </g>
      <g id="LWPOLYLINE-2" data-name="LWPOLYLINE">
        <polygon class="cls-1" points="1816.32 980.99 1821.38 980.99 1821.38 948.59 1821.38 946.7 1818.25 946.7 1816.32 946.7 1816.32 980.99"/>
      </g>
      <g id="LWPOLYLINE-3" data-name="LWPOLYLINE">
        <rect class="cls-1" x="987.32" y="584.47" width="94.52" height="67.51"/>
      </g>
      <g id="LWPOLYLINE-4" data-name="LWPOLYLINE">
        <polygon class="cls-1" points="1417.72 1630.87 1417.72 1584.52 1355.34 1584.52 1318.42 1584.52 1308.85 1584.52 1308.85 1630.37 1362.29 1630.37 1362.29 1630.87 1417.72 1630.87"/>
      </g>
      <g id="LWPOLYLINE-5" data-name="LWPOLYLINE">
        <polygon class="cls-1" points="2031.53 336.36 2031.53 341.98 2041.66 341.98 2041.66 461.26 2041.66 467.66 2041.66 554.44 2041.66 660.84 2041.66 735.39 2041.66 751.57 2045.7 751.57 2056.29 751.57 2106.36 751.57 2106.36 341.98 2037.72 341.98 2034.91 341.98 2034.91 336.36 2031.53 336.36"/>
      </g>
      <g id="LWPOLYLINE-6" data-name="LWPOLYLINE">
        <rect class="cls-1" x="2263.96" y="847.47" width="47.26" height="58.51"/>
      </g>
      <g id="LWPOLYLINE-7" data-name="LWPOLYLINE">
        <rect class="cls-1" x="1607.7" y="987.27" width="54.01" height="40.51"/>
      </g>
      <g id="LWPOLYLINE-8" data-name="LWPOLYLINE">
        <rect class="cls-1" x="941.8" y="729.71" width="54.01" height="40.51"/>
      </g>
      <g id="LWPOLYLINE-9" data-name="LWPOLYLINE">
        <rect class="cls-1" x="935.28" y="1417.42" width="15.19" height="15.19"/>
      </g>
      <g id="LWPOLYLINE-10" data-name="LWPOLYLINE">
        <rect class="cls-1" x="935.28" y="1201.38" width="15.19" height="15.19"/>
      </g>
      <g id="LWPOLYLINE-11" data-name="LWPOLYLINE">
        <polygon class="cls-1" points="921.57 2011.62 870.02 2063.16 1131.14 2063.16 1131.14 2092.84 1181.21 2092.84 1181.21 2082.72 1181.21 2047.99 1181.21 2020.99 1181.21 2014.24 1094.02 2014.24 1094.02 2011.62 921.57 2011.62"/>
      </g>
      <g id="LWPOLYLINE-12" data-name="LWPOLYLINE">
        <polygon class="cls-1" points="1181.21 2020.99 1181.21 2047.99 1186.84 2047.99 1186.84 2082.72 1194.72 2082.72 1194.72 2090.59 1251.54 2090.59 1251.54 2082.72 1259.42 2082.72 1259.42 2020.83 1243.1 2020.83 1243.1 1895.01 1186.84 1895.01 1186.84 2014.24 1186.84 2020.99 1181.21 2020.99"/>
      </g>
      <g id="LWPOLYLINE-13" data-name="LWPOLYLINE">
        <polygon class="cls-1" points="1848.7 1686.7 1821.69 1686.7 1815.35 1686.7 1815.35 1674.75 1821.69 1674.75 1848.7 1674.75 1848.7 1686.7"/>
      </g>
      <g id="LWPOLYLINE-14" data-name="LWPOLYLINE">
        <rect class="cls-1" x="1823.65" y="1320.65" width="47.68" height="57.67"/>
      </g>
    </g>
  </g>
  <g id="_0018.00B" data-name="0018.00B">
    <rect x="366.96" y="669.74" width="39.3" height="340.24"/>
  </g>
  <g id="_0098.00B" data-name="0098.00B">
    <rect x="366.96" y="550.71" width="54.96" height="110.68"/>
  </g>
  <g id="_0095.00B" data-name="0095.00B">
    <polygon points="453.91 351.13 465.04 351.13 466.78 339.8 925.22 339.8 925.22 354.61 1132.82 354.61 1132.82 767.44 725.22 766.1 722.78 666.26 643.48 667.81 427.13 667.81 427.13 551.9 451.83 551.9 453.91 351.13"/>
  </g>
  <g id="_0097.00B" data-name="0097.00B">
    <g id="LWPOLYLINE-15" data-name="LWPOLYLINE">
      <polygon points="444.32 460.84 382.43 460.84 382.43 545.02 424.14 545.02 444.32 545.02 444.32 460.84"/>
    </g>
  </g>
  <g id="_0073.00C" data-name="0073.00C">
    <g id="LWPOLYLINE-16" data-name="LWPOLYLINE">
      <polygon points="384.19 345.92 384.19 355.66 382.43 355.66 382.43 455 444.32 455 444.32 345.92 384.19 345.92"/>
    </g>
  </g>
  <g id="B05.001">
    <g id="LWPOLYLINE-17" data-name="LWPOLYLINE">
      <polygon points="1222.28 1807.81 1222.28 1860.69 1268.13 1860.69 1268.13 1834.69 1268.13 1807.81 1244.43 1807.81 1222.28 1807.81"/>
    </g>
  </g>
  <g id="B05.002">
    <g id="LWPOLYLINE-18" data-name="LWPOLYLINE">
      <polygon points="1087.18 1860.76 1193.56 1860.76 1195.63 1860.69 1195.81 1860.69 1217.85 1860.69 1217.85 1803.38 1242.96 1803.38 1242.96 1732.21 1120.87 1732.21 1120.87 1751.33 1117.91 1751.33 1117.91 1732.21 1090.35 1732.21 1090.35 1740.39 1087.18 1740.39 1087.18 1860.76"/>
    </g>
  </g>
  <g id="B05">
    <g id="LWPOLYLINE-19" data-name="LWPOLYLINE">
      <polygon points="1360.88 1716.35 1359.9 1716.45 1359.79 1716.45 1289.3 1716.45 1289.3 1727.74 1245.91 1727.74 1245.91 1730.9 1245.91 1804.5 1271.44 1804.5 1271.44 1834.69 1384.58 1834.69 1385.93 1834.69 1385.93 1772.72 1385.93 1718.53 1385.93 1716.35 1360.88 1716.35"/>
    </g>
  </g>
  <g id="_0029.00B" data-name="0029.00B">
    <g id="LWPOLYLINE-20" data-name="LWPOLYLINE">
      <polygon points="1444.02 1837.28 1390.01 1837.28 1390.01 1837.74 1390.01 1850.78 1444.02 1850.78 1444.02 1850.59 1444.02 1837.28"/>
    </g>
  </g>
  <g id="_0073.00B" data-name="0073.00B">
    <rect x="1467.48" y="1705.22" width="48.98" height="129.03"/>
  </g>
  <g id="_0014.00B" data-name="0014.00B">
    <g id="LWPOLYLINE-21" data-name="LWPOLYLINE">
      <polyline points="1462.09 1772.72 1387.97 1772.72 1387.97 1834.69 1387.97 1835.24 1390.05 1835.24 1443.99 1835.24 1448.14 1835.24 1454.82 1835.24 1456.64 1835.24 1465.26 1835.24 1465.26 1834.69 1465.26 1790.96"/>
    </g>
  </g>
  <g id="_0013.00B" data-name="0013.00B">
    <g id="LWPOLYLINE-22" data-name="LWPOLYLINE">
      <polyline points="1462.09 1718.53 1465.26 1718.53 1465.26 1702.67 1423.63 1702.67 1387.97 1702.67 1387.97 1702.91 1387.97 1714.55 1387.97 1716.38 1387.97 1718.53 1387.97 1772.72 1462.09 1772.72"/>
    </g>
  </g>
  <g id="B05.003">
    <g id="LWPOLYLINE-23" data-name="LWPOLYLINE">
      <polygon points="1521.24 1700.84 1521.24 1702.67 1519.76 1702.67 1519.76 1834.69 1521.24 1834.69 1521.24 1835.45 1521.24 1837.31 1521.24 1854.72 1518.29 1854.72 1518.29 1837.28 1466.75 1837.28 1466.75 1834.69 1465.27 1834.69 1465.27 1837.28 1456.61 1837.28 1456.61 1854.86 1449.45 1854.86 1448.1 1854.86 1446.06 1854.86 1385.93 1854.86 1385.93 1834.69 1271.44 1834.69 1271.44 1861.99 1271.44 1878.17 1271.44 1878.35 1273.97 1880.42 1273.97 1911.75 1320.04 1911.75 1320.04 1905.77 1557.54 1905.77 1569.73 1905.77 1569.73 1911.75 1620.93 1911.75 1623.18 1911.75 1623.18 1885.8 1637.01 1885.8 1637.01 1799.72 1576.38 1799.72 1576.38 1716.87 1576.38 1701.17 1576.38 1656.25 1521.24 1656.25 1521.24 1700.84"/>
    </g>
  </g>
  <g id="_0019.00B" data-name="0019.00B">
    <rect x="1365.57" y="1631.08" width="150.89" height="67.88"/>
  </g>
  <g id="_0072.00B" data-name="0072.00B">
    <g id="LWPOLYLINE-24" data-name="LWPOLYLINE">
      <polygon points="1359.83 1701.82 1359.9 1700.84 1359.9 1633.4 1289.3 1633.4 1289.3 1711.67 1289.34 1711.67 1359.83 1711.67 1359.83 1701.82"/>
    </g>
  </g>
  <g id="B04">
    <g id="LWPOLYLINE-25" data-name="LWPOLYLINE">
      <polygon points="1284.52 1715.75 1284.52 1714.06 1284.52 1633.4 1284.52 1630.37 1304.07 1630.37 1304.07 1584.52 1248.51 1584.52 1248.51 1636.7 1222.77 1636.7 1222.77 1635.15 1194.64 1635.15 1194.64 1636.7 1188.38 1636.7 1188.38 1637.12 1134.51 1637.12 1134.51 1635.15 1132.75 1635.15 1132.75 1636 1103.22 1636 1103.22 1598.23 1077.06 1598.23 1077.06 1636.7 1077.37 1636.7 1077.37 1645.77 1026.6 1645.77 1026.6 1720.95 1081.13 1720.95 1087.18 1720.95 1087.18 1722.96 1244.43 1722.96 1284.52 1722.96 1284.52 1716.49 1284.52 1715.75"/>
    </g>
  </g>
  <g id="B01.004">
    <rect x="1017.74" y="1440.45" width="478.75" height="55"/>
  </g>
  <g id="B05.006">
    <g id="LWPOLYLINE-26" data-name="LWPOLYLINE">
      <polygon points="1422.5 1584.17 1422.5 1625.17 1521.24 1625.17 1521.24 1584.17 1438.68 1584.17 1422.5 1584.17"/>
    </g>
  </g>
  <g id="_0051.005" data-name="0051.005">
    <g id="LWPOLYLINE-27" data-name="LWPOLYLINE">
      <polygon points="1417.72 1630.87 1417.72 1584.52 1355.34 1584.52 1318.42 1584.52 1308.85 1584.52 1308.85 1630.37 1362.29 1630.37 1362.29 1630.87 1417.72 1630.87"/>
    </g>
  </g>
  <g id="_0012.00B" data-name="0012.00B">
    <g id="LWPOLYLINE-28" data-name="LWPOLYLINE">
      <polygon points="1244.43 1583.82 1176.64 1583.82 1176.64 1631.08 1194.64 1631.08 1222.77 1631.08 1244.43 1631.08 1244.43 1583.82"/>
    </g>
  </g>
  <g id="_0011.00B" data-name="0011.00B">
    <g id="LWPOLYLINE-29" data-name="LWPOLYLINE">
      <polygon points="1108.84 1583.82 1108.84 1584.55 1108.84 1595.21 1108.84 1631.08 1132.75 1631.08 1134.51 1631.08 1176.64 1631.08 1176.64 1583.82 1161.38 1583.82 1155.66 1583.82 1108.84 1583.82"/>
    </g>
  </g>
  <g id="B04.009">
    <g id="LWPOLYLINE-30" data-name="LWPOLYLINE">
      <polygon points="1071.22 1578.44 1071.22 1574.84 1068.93 1574.84 990.32 1574.84 982.69 1574.84 933.59 1574.84 933.59 1637.86 970.93 1637.86 970.93 1604.1 973.89 1604.1 973.89 1637.86 1071.22 1637.86 1071.22 1595.81 1071.22 1582.13 1071.22 1579.74 1071.22 1578.44"/>
    </g>
  </g>
  <g id="B04.003">
    <g id="LWPOLYLINE-31" data-name="LWPOLYLINE">
      <polygon points="874.09 1641.09 928.81 1641.09 928.81 1639.16 928.81 1572.8 928.81 1570.73 928.81 1559.58 909.39 1559.58 909.39 1500.31 909.39 1499.8 874.09 1499.8 874.09 1505.86 874.09 1641.09"/>
    </g>
  </g>
  <g id="B04.007">
    <g id="LWPOLYLINE-32" data-name="LWPOLYLINE">
      <polygon points="970.51 1498.4 970.51 1495.44 932.88 1495.44 932.88 1498.4 912.35 1498.4 912.35 1556.63 932.88 1556.63 932.88 1570.76 980.65 1570.76 980.65 1534.76 980.65 1498.4 970.51 1498.4"/>
    </g>
  </g>
  <g id="B04.008">
    <g id="LWPOLYLINE-33" data-name="LWPOLYLINE">
      <polygon points="1068.97 1570.76 1068.97 1500.23 1015.45 1500.23 1015.45 1499.87 984.73 1499.87 984.73 1533.45 991.62 1533.45 991.62 1570.76 1068.97 1570.76"/>
    </g>
  </g>
  <g id="B01.044">
    <g id="LWPOLYLINE-34" data-name="LWPOLYLINE">
      <polygon points="1151.39 1567.41 1151.39 1498.4 1076 1498.4 1076 1570.73 1076 1570.76 1076 1574.88 1076 1577.13 1151.39 1577.13 1151.39 1567.41"/>
    </g>
  </g>
  <g id="B01.042">
    <g id="LWPOLYLINE-35" data-name="LWPOLYLINE">
      <polygon points="1234.24 1577.13 1234.24 1498.4 1156.17 1498.4 1156.17 1566.53 1165.65 1566.53 1165.65 1577.13 1234.24 1577.13"/>
    </g>
  </g>
  <g id="B01.040">
    <g id="LWPOLYLINE-36" data-name="LWPOLYLINE">
      <polygon points="1239.02 1498.4 1239.02 1577.13 1315.18 1577.13 1315.18 1562.08 1315.18 1560.78 1315.18 1498.4 1239.02 1498.4"/>
    </g>
  </g>
  <g id="B01.038">
    <g id="LWPOLYLINE-37" data-name="LWPOLYLINE">
      <rect x="1319.96" y="1498.4" width="36.15" height="61.09"/>
    </g>
  </g>
  <g id="B01.036">
    <g id="LWPOLYLINE-38" data-name="LWPOLYLINE">
      <polygon points="1436.28 1577.13 1436.28 1498.4 1360.89 1498.4 1360.89 1560.78 1360.89 1577.13 1420.11 1577.13 1422.5 1577.13 1436.28 1577.13"/>
    </g>
  </g>
  <g id="B01.034">
    <g id="LWPOLYLINE-39" data-name="LWPOLYLINE">
      <polygon points="1441.07 1578.44 1441.07 1579.74 1516.46 1579.74 1516.46 1517.17 1516.46 1498.4 1494.09 1498.4 1441.07 1498.4 1441.07 1578.44"/>
    </g>
  </g>
  <g id="B01.004a">
    <g id="LWPOLYLINE-40" data-name="LWPOLYLINE">
      <polygon points="1300.2 1382.54 1300.2 1382.58 1223.62 1382.58 1223.62 1416.82 1226.99 1416.82 1226.99 1437.07 1366.45 1437.07 1366.45 1409.59 1383.47 1409.59 1383.47 1440.45 1410.47 1440.45 1410.47 1382.58 1348.31 1382.58 1346.69 1382.58 1346.23 1382.58 1328.68 1382.58 1328.68 1382.54 1325.63 1382.54 1303.59 1382.54 1300.2 1382.54"/>
    </g>
  </g>
  <g id="B01.032">
    <g id="LWPOLYLINE-41" data-name="LWPOLYLINE">
      <polygon points="1511.18 1388.45 1433.75 1388.45 1433.75 1382.58 1415.68 1382.58 1415.68 1436.37 1494.09 1436.37 1513.43 1436.37 1513.43 1407.4 1511.18 1407.4 1511.18 1388.45"/>
    </g>
  </g>
  <g id="B01.060">
    <g id="LWPOLYLINE-42" data-name="LWPOLYLINE">
      <polygon points="1433.75 1378.5 1433.75 1315.38 1433.75 1313.34 1433.75 1313.3 1433.75 1297.59 1412.51 1297.59 1350.38 1297.59 1350.35 1297.59 1350.35 1321.88 1350.35 1378.47 1350.35 1378.5 1413.08 1378.5 1433.75 1378.5"/>
    </g>
  </g>
  <g id="_0015.00B" data-name="0015.00B">
    <g id="LWPOLYLINE-43" data-name="LWPOLYLINE">
      <polygon points="1511.15 1384.37 1518.29 1384.37 1518.29 1317.42 1517.13 1317.42 1511.08 1317.42 1509.25 1317.42 1437.87 1317.42 1437.83 1317.42 1437.83 1378.47 1437.83 1382.62 1437.83 1384.37 1511.15 1384.37"/>
    </g>
  </g>
  <g id="B01.003A">
    <g id="LWPOLYLINE-44" data-name="LWPOLYLINE">
      <rect x="1580.81" y="1579.74" width="16.88" height="42.8"/>
    </g>
  </g>
  <g id="B02.00">
    <path d="M1989.21,1069.54h-122.31v-10.29h-242.63v19.83h-43.46v56.51h23.07v62.94h-23.07v17.23h86.29v42.65h-86.29v175.68h24.05v64h-24.05v78.7h19.83v48.7h-19.83v75.68h-1.83v15.7h1.83v78.41h60.63v116.46l.35,2.22v26.2h393.33v-870.62h-45.91ZM1867.25,1374.24h-39.52v-49.51h39.52v49.51Z"/>
  </g>
  <g id="_0031.00B" data-name="0031.00B">
    <rect x="1827.72" y="1324.73" width="37.49" height="49.51"/>
  </g>
  <g id="_0032.00B" data-name="0032.00B">
    <g id="LWPOLYLINE-45" data-name="LWPOLYLINE">
      <polygon points="1664.14 1219.85 1598.6 1219.85 1598.6 1219.94 1586.79 1219.94 1586.79 1254.33 1664.14 1254.33 1664.14 1237.95 1664.14 1219.85"/>
    </g>
  </g>
  <g id="B01.003">
    <g id="LWPOLYLINE-46" data-name="LWPOLYLINE">
      <polygon points="1521.24 1633.4 1521.24 1653.3 1576.38 1653.3 1576.38 1624.01 1576.38 1578.26 1576.38 1493.66 1600.43 1493.66 1600.43 1438.52 1576.38 1438.52 1576.38 1417.21 1576.38 1256.37 1576.38 1217.81 1576.38 1194.11 1599.44 1194.11 1599.44 1140.02 1576.38 1140.02 1576.38 1084.07 1521.24 1084.07 1521.24 1140.02 1496.48 1140.02 1496.48 1194.04 1521.24 1194.04 1521.24 1306.36 1521.24 1313.3 1521.24 1313.34 1521.24 1315.38 1521.24 1386.41 1521.24 1388.45 1521.24 1440.45 1515.3 1440.45 1496.48 1440.45 1496.48 1495.44 1521.24 1495.44 1521.24 1517.17 1521.24 1581.95 1521.24 1585.34 1521.24 1624.17 1521.24 1630.8 1521.24 1633.4"/>
    </g>
  </g>
  <g id="B01.030">
    <g id="LWPOLYLINE-47" data-name="LWPOLYLINE">
      <polygon points="1437.83 1313.34 1509.28 1313.34 1509.28 1305.48 1517.16 1305.48 1517.16 1198.11 1494.09 1198.11 1474.96 1198.11 1474.96 1200.72 1454.71 1200.72 1454.71 1198.11 1414.55 1198.11 1414.55 1251.41 1414.55 1293.51 1437.83 1293.51 1437.83 1313.34"/>
    </g>
  </g>
  <g id="B01.058">
    <g id="LWPOLYLINE-48" data-name="LWPOLYLINE">
      <polygon points="1410.47 1293.51 1410.47 1251.41 1383.47 1251.41 1383.47 1255.49 1350.35 1255.49 1350.35 1293.51 1410.47 1293.51"/>
    </g>
  </g>
  <g id="B01.056a">
    <g id="LWPOLYLINE-49" data-name="LWPOLYLINE">
      <rect x="1328.68" y="1321.88" width="17.58" height="56.63"/>
    </g>
  </g>
  <g id="B01.056">
    <g id="LWPOLYLINE-50" data-name="LWPOLYLINE">
      <polygon points="1301.68 1280.79 1301.68 1282.53 1301.68 1302.17 1301.68 1331.22 1301.68 1382.54 1328.68 1382.54 1328.68 1321.88 1346.27 1321.88 1346.27 1295.55 1346.27 1293.75 1346.27 1293.47 1346.27 1255.49 1328.68 1255.49 1328.68 1251.41 1301.68 1251.41 1301.68 1280.46 1301.68 1280.79"/>
    </g>
  </g>
  <g id="B01.048">
    <g id="LWPOLYLINE-51" data-name="LWPOLYLINE">
      <polygon points="1226.57 1333.26 1226.57 1378.5 1226.67 1378.5 1298.73 1378.5 1298.73 1333.26 1226.57 1333.26"/>
    </g>
  </g>
  <g id="B01.052">
    <g id="LWPOLYLINE-52" data-name="LWPOLYLINE">
      <polygon points="1226.57 1284.57 1226.57 1329.18 1298.73 1329.18 1298.73 1302.17 1298.73 1284.57 1282.02 1284.57 1226.57 1284.57"/>
    </g>
  </g>
  <g id="B01.056b">
    <g id="LWPOLYLINE-53" data-name="LWPOLYLINE">
      <rect x="1283.32" y="1255.49" width="15.75" height="25.01"/>
    </g>
  </g>
  <g id="B01.002a">
    <g id="LWPOLYLINE-54" data-name="LWPOLYLINE">
      <polygon points="1366.45 1196.92 1226.99 1196.92 1226.99 1217.17 1223.62 1217.17 1223.62 1251.41 1226.99 1251.41 1226.99 1280.5 1280.72 1280.5 1280.72 1251.41 1300.38 1251.41 1303.77 1251.41 1328.68 1251.41 1348.31 1251.41 1383.47 1251.41 1410.47 1251.41 1410.47 1193.54 1383.47 1193.54 1383.47 1224.4 1366.45 1224.4 1366.45 1196.92"/>
    </g>
  </g>
  <g id="B01.001">
    <g id="LWPOLYLINE-55" data-name="LWPOLYLINE">
      <polygon points="1167.92 1352.26 1167.92 1410.47 1167.92 1440.45 1223.62 1440.45 1223.62 1416.82 1223.62 1383.93 1223.62 1380.54 1223.62 1331.22 1223.62 1282.53 1223.62 1251.41 1223.62 1217.17 1223.62 1193.54 1167.92 1193.54 1167.92 1223.52 1167.92 1272.08 1167.92 1352.26"/>
    </g>
  </g>
  <g id="B01.046">
    <g id="LWPOLYLINE-56" data-name="LWPOLYLINE">
      <polygon points="1164.96 1409.59 1164.96 1354.65 1081.7 1354.65 1081.7 1404.89 1081.7 1419.47 1074.87 1419.47 1074.87 1437.5 1079.27 1437.5 1150.41 1437.5 1150.41 1409.59 1164.96 1409.59"/>
    </g>
  </g>
  <g id="B01.050">
    <g id="LWPOLYLINE-57" data-name="LWPOLYLINE">
      <polygon points="1164.96 1349.87 1164.96 1274.48 1115.63 1274.48 1081.7 1274.48 1081.7 1349.87 1164.96 1349.87"/>
    </g>
  </g>
  <g id="B04.006">
    <g id="LWPOLYLINE-58" data-name="LWPOLYLINE">
      <polygon points="1015.45 1435.45 1015.45 1435.66 1070.09 1435.66 1070.09 1414.69 1076.91 1414.69 1076.91 1404.89 1076.91 1352.26 1076.91 1274.48 1017.21 1274.48 1017.21 1311.96 996.39 1311.96 996.39 1312.41 996.39 1350.67 1010.6 1350.67 1010.6 1353.94 996.39 1353.94 996.39 1391.97 1010.6 1391.97 1010.6 1395.24 996.39 1395.24 996.39 1435.16 996.39 1435.45 1015.45 1435.45"/>
    </g>
  </g>
  <g id="B01.054">
    <g id="LWPOLYLINE-59" data-name="LWPOLYLINE">
      <polygon points="1117.84 1269.69 1164.96 1269.69 1164.96 1224.4 1151.28 1224.4 1117.84 1224.4 1117.84 1269.69"/>
    </g>
  </g>
  <g id="B01.002c">
    <g id="LWPOLYLINE-60" data-name="LWPOLYLINE">
      <rect x="1113.41" y="1193.54" width="36.99" height="26.43"/>
    </g>
  </g>
  <g id="B01.024">
    <g id="LWPOLYLINE-61" data-name="LWPOLYLINE">
      <polygon points="1079.31 1269.69 1113.41 1269.69 1113.41 1222.93 1113.41 1218.8 1113.41 1193.54 982.25 1193.54 982.25 1269.69 1012.81 1269.69 1017.24 1269.69 1079.31 1269.69"/>
    </g>
  </g>
  <g id="B04.004">
    <g id="LWPOLYLINE-62" data-name="LWPOLYLINE">
      <polygon points="837.84 1141.46 798.98 1141.46 798.98 1213.9 795.47 1213.9 795.47 1215.02 799.97 1215.02 799.97 1222.8 799.97 1225.85 797.15 1225.85 797.15 1417.42 815.44 1417.42 815.44 1432.61 797.15 1432.61 797.15 1505.86 800.2 1505.86 869.73 1505.86 869.73 1495.44 910.87 1495.44 912.63 1495.44 914.26 1495.44 932.88 1495.44 970.51 1495.44 980.61 1495.44 980.64 1495.44 982.69 1495.44 1013.06 1495.44 1013.06 1439.81 995.33 1439.81 986.97 1439.81 986.97 1434.87 994.28 1434.87 994.28 1393.61 994.28 1352.31 994.28 1312.7 986.97 1312.7 986.97 1307.6 995.33 1307.6 1012.85 1307.6 1012.85 1274.48 977.47 1274.48 977.47 1193.54 977.47 1173.85 977.47 1141.6 977.47 1141.46 917.98 1141.46 911.22 1141.46 876.08 1141.46 863.96 1141.46 837.84 1141.46"/>
    </g>
  </g>
  <g id="B04.004a">
    <g id="LWPOLYLINE-63" data-name="LWPOLYLINE">
      <polygon points="719.23 1201.38 734.42 1201.38 734.42 1215.02 767.33 1215.02 767.33 1195.3 795.47 1195.3 795.47 1139.07 794.9 1139.07 794.9 1089.17 651.72 1089.17 651.68 1089.17 649.89 1215.02 719.23 1215.02 719.23 1201.38"/>
    </g>
  </g>
  <g id="B03.088a">
    <rect x="651.83" y="1002.21" width="33.39" height="77.43"/>
  </g>
  <g id="B03.088">
    <g id="LWPOLYLINE-64" data-name="LWPOLYLINE">
      <polygon points="805.03 1002.21 778.11 1002.21 734.37 1002.21 719.28 1002.21 690.47 1002.21 690.47 1080.8 690.47 1084.35 799.48 1084.35 799.72 1084.35 805.03 1084.35 805.03 1057.03 805.03 1054.78 805.03 1002.21"/>
    </g>
  </g>
  <g id="B03.086">
    <g id="LWPOLYLINE-65" data-name="LWPOLYLINE">
      <polygon points="827.92 887.93 655.48 887.93 655.48 998.1 688.43 998.1 718.39 998.1 718.39 982.24 735.27 982.24 735.27 998.1 776.62 998.1 776.62 972.07 795.18 945.63 797.63 947.35 779.61 973.02 779.61 998.1 806.52 998.1 807.98 997.25 808.05 997.25 827.92 997.25 827.92 997.19 827.92 887.93"/>
    </g>
  </g>
  <g id="B03.084">
    <g id="LWPOLYLINE-66" data-name="LWPOLYLINE">
      <polygon points="827.92 827.97 827.92 773.52 809.6 773.52 802.82 773.52 794.55 773.52 787.77 773.52 779.61 773.52 779.61 797.93 797.63 823.53 795.18 825.25 776.62 798.87 776.62 774.65 735.27 774.65 735.27 790.4 718.39 790.4 718.39 774.37 655.48 774.37 655.48 883.82 827.92 883.82 827.92 827.97"/>
    </g>
  </g>
  <g id="B03.009">
    <g id="LWPOLYLINE-67" data-name="LWPOLYLINE">
      <polygon points="830.91 1000.24 892.24 1000.24 892.24 938.44 946.84 938.44 946.84 876.52 892.24 876.52 892.24 829.62 889.39 829.62 887.52 829.62 886.96 829.62 833.34 829.62 830.91 829.62 830.91 885.87 830.91 1000.24"/>
    </g>
  </g>
  <g id="B03.082">
    <g id="LWPOLYLINE-68" data-name="LWPOLYLINE">
      <polygon points="884.57 826.31 884.57 776.09 872.17 776.09 834.64 776.09 834.64 826.31 884.57 826.31"/>
    </g>
  </g>
  <g id="B03.080a">
    <g id="LWPOLYLINE-69" data-name="LWPOLYLINE">
      <polygon points="934.71 766.1 888 766.1 888 769.9 889.35 773.49 889.35 776.12 889.35 826.66 895.19 826.66 895.19 873.57 947.97 873.57 947.97 784.76 945.47 784.76 934.71 784.76 934.71 766.1"/>
    </g>
  </g>
  <g id="B03.080">
    <g id="LWPOLYLINE-70" data-name="LWPOLYLINE">
      <polygon points="950.96 783.86 950.96 873.53 950.96 873.57 950.96 875.04 950.96 937.28 1035.6 937.28 1111.13 937.28 1111.13 784.04 1111.13 782.57 1111.13 773.52 1052.65 773.52 1045.87 773.52 1037.6 773.52 1030.82 773.52 971.63 773.52 964.85 773.52 956.58 773.52 950.96 773.52 950.96 783.86"/>
    </g>
  </g>
  <g id="B03.090">
    <g id="LWPOLYLINE-71" data-name="LWPOLYLINE">
      <polygon points="934.61 984.93 946.51 984.93 947.82 984.93 947.82 941.4 895.19 941.4 895.19 996.16 934.61 996.16 934.61 984.93"/>
    </g>
  </g>
  <g id="B03.081">
    <g id="LWPOLYLINE-72" data-name="LWPOLYLINE">
      <polygon points="950.78 984.93 950.78 989.19 950.78 997.29 1034.12 997.29 1034.12 941.4 950.78 941.4 950.78 941.43 950.78 984.89 950.78 984.93"/>
    </g>
  </g>
  <g id="B03.080b">
    <g id="LWPOLYLINE-73" data-name="LWPOLYLINE">
      <polygon points="1114.89 967.32 1114.89 965.28 1114.89 941.4 1037.07 941.4 1037.07 996.16 1114.89 996.16 1114.89 968.66 1114.89 967.32"/>
    </g>
  </g>
  <g id="B03.089">
    <g id="LWPOLYLINE-74" data-name="LWPOLYLINE">
      <polygon points="809.46 1059.25 809.46 1088.78 799.68 1088.78 799.68 1089.17 799.68 1136.68 836.54 1136.68 836.54 1129.36 870.3 1129.36 870.3 1059.25 809.46 1059.25"/>
    </g>
  </g>
  <g id="B04.004b">
    <g id="LWPOLYLINE-75" data-name="LWPOLYLINE">
      <polygon points="875.08 1130.66 875.08 1141.46 915.59 1141.46 915.59 1059.6 875.08 1059.6 875.08 1130.66"/>
    </g>
  </g>
  <g id="B03.091">
    <g id="LWPOLYLINE-76" data-name="LWPOLYLINE">
      <polygon points="977.47 1136.68 977.47 1135.5 977.47 1058.9 920.37 1058.9 920.37 1136.68 977.47 1136.68"/>
    </g>
  </g>
  <g id="B01.022">
    <g id="LWPOLYLINE-77" data-name="LWPOLYLINE">
      <polygon points="1164.96 1059.25 982.25 1059.25 982.25 1138.55 1164.96 1138.55 1164.96 1084.11 1164.96 1081.86 1164.96 1059.25"/>
    </g>
  </g>
  <g id="B01.002d">
    <g id="LWPOLYLINE-78" data-name="LWPOLYLINE">
      <polygon points="1230.05 1115.44 1228.4 1115.44 1228.4 1138.55 1283.53 1138.55 1283.53 1115.44 1230.05 1115.44"/>
    </g>
  </g>
  <g id="B01.002">
    <g id="LWPOLYLINE-79" data-name="LWPOLYLINE">
      <polygon points="1412.51 1193.54 1412.51 1194.04 1454.71 1194.04 1474.96 1194.04 1491.7 1194.04 1491.7 1138.55 1384.63 1138.55 1380.94 1138.55 1285.75 1138.55 1282.36 1138.55 1224.32 1138.55 1224.32 1113.22 1224.32 1084.07 1167.92 1084.07 1167.92 1138.55 982.25 1138.55 982.25 1173.85 982.25 1193.54 1113.41 1193.54 1147.9 1193.54 1151.28 1193.54 1167.04 1193.54 1170.43 1193.54 1221.91 1193.54 1225.3 1193.54 1367.33 1193.54 1382.59 1193.54 1385.98 1193.54 1409.13 1193.54 1412.51 1193.54"/>
    </g>
  </g>
  <g id="B01.026a">
    <g id="LWPOLYLINE-80" data-name="LWPOLYLINE">
      <rect x="1231.35" y="1059.25" width="52.18" height="51.76"/>
    </g>
  </g>
  <g id="B01.026">
    <g id="LWPOLYLINE-81" data-name="LWPOLYLINE">
      <polygon points="1378.55 1059.25 1287.97 1059.25 1287.97 1113.22 1287.97 1135.5 1287.97 1135.59 1378.55 1135.59 1378.55 1059.25"/>
    </g>
  </g>
  <g id="B01.028">
    <g id="LWPOLYLINE-82" data-name="LWPOLYLINE">
      <polygon points="1516.81 1059.25 1385.93 1059.25 1385.93 1135.59 1491.67 1135.59 1491.7 1135.59 1494.09 1135.59 1516.81 1135.59 1516.81 1084.11 1516.81 1084.07 1516.81 1081.86 1516.81 1059.25"/>
    </g>
  </g>
  <g id="B03.010F">
    <g id="LWPOLYLINE-83" data-name="LWPOLYLINE">
      <rect x="1580.81" y="1059.25" width="40.51" height="16.88"/>
    </g>
  </g>
  <g id="B03.010.1">
    <polygon points="1599.37 1000.24 1597.33 1000.24 1597.3 1000.24 1577.26 1000.24 1577.26 998.78 1522.59 998.78 1519.76 998.78 1519.2 1000.24 1451.26 1000.24 1418.28 1000.24 1416.61 1000.24 1414.89 1000.24 1405.92 1000.24 1404 1000.24 1402.53 1000.24 1315.53 1000.24 1314.37 1000.24 1312.14 1000.24 1221.73 1000.24 1219.5 1000.24 1218.34 1000.24 1131.35 1000.24 1130.22 1000.24 1130.22 1054.82 1169.39 1054.82 1169.39 1079.64 1224.32 1079.64 1224.32 1054.82 1230.05 1054.82 1285.75 1054.82 1380.94 1054.82 1384.63 1054.82 1521.24 1054.82 1521.24 1079.64 1521.28 1079.64 1576.34 1079.64 1576.38 1079.64 1576.38 1077.6 1576.38 1054.82 1622.79 1054.82 1652.89 1054.82 1652.89 1043.24 1652.89 1000.24 1599.37 1000.24"/>
  </g>
  <g id="B03.010.3">
    <polygon points="1129.87 1000.24 1127.96 1000.24 1115.77 1000.24 1035.6 1000.24 953.29 1000.24 949.9 1000.24 946.51 1000.24 936.41 1000.24 934.61 1000.24 893.71 1000.24 890.32 1000.24 832.8 1000.24 829.42 1000.24 808.02 1000.24 808.02 1054.82 870.26 1054.82 872.69 1054.82 917.98 1054.82 920.4 1054.82 977.44 1054.82 979.86 1054.82 1130.22 1054.82 1130.22 1000.24 1129.87 1000.24"/>
  </g>
  <g id="_0046.00A" data-name="0046.00A">
    <g id="LWPOLYLINE-84" data-name="LWPOLYLINE">
      <polygon points="1119.04 883 1119.04 963.24 1129.87 963.24 1129.87 923.74 1129.87 916.96 1129.87 883 1119.04 883"/>
    </g>
  </g>
  <g id="_0047.00B" data-name="0047.00B">
    <g id="LWPOLYLINE-85" data-name="LWPOLYLINE">
      <polygon points="1118.97 785.52 1118.97 880.04 1130.22 880.04 1130.22 849.57 1130.22 785.52 1119.16 785.52 1118.97 785.52"/>
    </g>
  </g>
  <g id="_0010.00B" data-name="0010.00B">
    <g id="LWPOLYLINE-86" data-name="LWPOLYLINE">
      <polygon points="1144.08 920.63 1144.08 917.96 1132.82 917.96 1132.82 965.28 1132.82 967.32 1132.82 967.35 1132.82 988.85 1135.1 988.85 1144.08 988.85 1162.08 988.85 1171.05 988.85 1172.42 988.85 1181.42 988.85 1216.3 988.85 1216.3 917.96 1162.08 917.96 1162.08 920.63 1144.08 920.63"/>
    </g>
  </g>
  <g id="_0008.00B" data-name="0008.00B">
    <g id="LWPOLYLINE-87" data-name="LWPOLYLINE">
      <polygon points="1216.3 849.57 1132.82 849.57 1132.82 880.01 1132.82 880.04 1132.82 882.08 1132.82 883 1132.82 917.96 1144.08 917.96 1162.08 917.96 1216.3 917.96 1216.3 849.57"/>
    </g>
  </g>
  <g id="_0006.00B" data-name="0006.00B">
    <g id="LWPOLYLINE-88" data-name="LWPOLYLINE">
      <polygon points="1132.82 849.57 1216.3 849.57 1216.3 791.69 1216.3 788.66 1216.3 780.96 1181.42 780.96 1172.42 780.96 1171.05 780.96 1162.08 780.96 1144.08 780.96 1135.1 780.96 1132.82 780.96 1132.82 785.56 1132.82 849.57"/>
    </g>
  </g>
  <g id="B03">
    <g id="LWPOLYLINE-89" data-name="LWPOLYLINE">
      <polygon points="1220.38 791.65 1220.38 849.57 1220.38 917.96 1220.38 988.81 1220.38 992.61 1220.38 1000.24 1313.49 1000.24 1313.49 990.71 1313.49 917.68 1313.49 849.57 1313.49 781 1313.49 777.2 1313.49 772.39 1252.59 772.39 1252.59 791.65 1220.38 791.65"/>
    </g>
  </g>
  <g id="_0009.00B" data-name="0009.00B">
    <g id="LWPOLYLINE-90" data-name="LWPOLYLINE">
      <polygon points="1371.8 920.63 1371.8 917.68 1317.57 917.68 1317.57 988.85 1352.46 988.85 1361.46 988.85 1362.82 988.85 1371.8 988.85 1389.8 988.85 1398.77 988.85 1401.05 988.85 1401.05 974.36 1401.05 974.33 1401.05 972.29 1401.05 922.67 1401.05 917.68 1389.8 917.68 1389.8 920.63 1371.8 920.63"/>
    </g>
  </g>
  <g id="_0007.00B" data-name="0007.00B">
    <g id="LWPOLYLINE-91" data-name="LWPOLYLINE">
      <polygon points="1401.05 849.57 1317.57 849.57 1317.57 917.68 1371.8 917.68 1389.8 917.68 1401.05 917.68 1401.05 882.09 1401.05 880.05 1401.05 880.02 1401.05 849.57"/>
    </g>
  </g>
  <g id="_0005.00B" data-name="0005.00B">
    <g id="LWPOLYLINE-92" data-name="LWPOLYLINE">
      <polygon points="1317.57 849.57 1401.05 849.57 1401.05 785.56 1401.05 780.96 1399.14 780.96 1398.77 780.96 1389.8 780.96 1371.8 780.96 1362.82 780.96 1361.46 780.96 1352.46 780.96 1317.57 780.96 1317.57 849.57"/>
    </g>
  </g>
  <g id="_0042.00B" data-name="0042.00B">
    <g id="LWPOLYLINE-93" data-name="LWPOLYLINE">
      <polygon points="1454.88 924.71 1405.13 924.71 1405.13 970.25 1418.28 970.25 1451.26 970.25 1454.88 970.25 1454.88 925.45 1454.88 924.71"/>
    </g>
  </g>
  <g id="_0085.00B" data-name="0085.00B">
    <g id="LWPOLYLINE-94" data-name="LWPOLYLINE">
      <polygon points="1517.16 925.41 1516.42 925.41 1458.96 925.41 1458.96 974.33 1453.3 974.33 1453.3 996.16 1517.16 996.16 1517.16 995.73 1517.16 980.34 1507.53 980.34 1507.53 950.73 1517.16 950.73 1517.16 925.41"/>
    </g>
  </g>
  <g id="_0086.00B" data-name="0086.00B">
    <g id="LWPOLYLINE-95" data-name="LWPOLYLINE">
      <polygon points="1516.46 772.38 1420.41 772.38 1420.41 784.04 1420.41 785.52 1420.41 785.56 1420.41 884.13 1405.13 884.13 1405.13 917.68 1405.13 920.63 1456.92 920.63 1458.96 920.63 1458.99 920.63 1516.46 920.63 1516.46 772.38"/>
    </g>
  </g>
  <g id="B03.018a">
    <g id="LWPOLYLINE-96" data-name="LWPOLYLINE">
      <polygon points="1417.45 769.43 1417.45 739.75 1334.75 739.75 1334.75 769.43 1402.53 769.43 1404 769.43 1405.92 769.43 1417.45 769.43"/>
    </g>
  </g>
  <g id="_0043.00B" data-name="0043.00B">
    <g id="LWPOLYLINE-97" data-name="LWPOLYLINE">
      <polygon points="1416.33 880.05 1416.33 785.52 1403.65 785.52 1403.65 849.57 1403.65 880.05 1416.33 880.05"/>
    </g>
  </g>
  <g id="_0044.00B" data-name="0044.00B">
    <g id="LWPOLYLINE-98" data-name="LWPOLYLINE">
      <polygon points="1421.53 769.4 1421.53 769.43 1517.16 769.43 1517.16 766.79 1517.16 763.77 1517.16 742.7 1421.53 742.7 1421.53 742.8 1421.53 769.4"/>
    </g>
  </g>
  <g id="B03.011a">
    <g id="LWPOLYLINE-99" data-name="LWPOLYLINE">
      <polygon points="1596.63 985.61 1596.63 880.83 1576.38 880.83 1576.38 985.61 1595.98 985.61 1596.63 985.61"/>
    </g>
  </g>
  <g id="B03.011">
    <g id="LWPOLYLINE-100" data-name="LWPOLYLINE">
      <polygon points="1521.24 766.76 1521.24 770.91 1521.24 920.6 1521.24 921.16 1521.24 923.02 1521.24 952.03 1521.24 979.04 1521.24 998.78 1576.38 998.78 1576.38 986.49 1576.38 983.1 1576.38 877.87 1596.63 877.87 1596.63 833.43 1576.38 833.43 1576.38 786.99 1576.38 783.6 1576.38 771.25 1576.38 770.32 1576.38 766.76 1576.34 766.76 1521.24 766.76"/>
    </g>
  </g>
  <g id="B03.011b">
    <g id="LWPOLYLINE-101" data-name="LWPOLYLINE">
      <polygon points="1596.63 829.17 1596.63 784.48 1576.38 784.48 1576.38 830.47 1596.63 830.47 1596.63 829.17"/>
    </g>
  </g>
  <g id="B03.072">
    <g id="LWPOLYLINE-102" data-name="LWPOLYLINE">
      <polygon points="2035.12 1062.51 2035.12 1010.82 2018.48 1010.82 1991.25 1010.82 1991.25 1062.51 2035.12 1062.51"/>
    </g>
  </g>
  <g id="B01.041">
    <g id="LWPOLYLINE-103" data-name="LWPOLYLINE">
      <polygon points="1762.88 1000.24 1703.86 1000.24 1676.06 1000.24 1675.26 1000.24 1674.73 1000.24 1655.85 1000.24 1655.85 1043.24 1655.85 1054.82 1871.33 1054.82 1871.33 1065.11 1926.46 1065.11 1987.17 1065.11 1987.17 1063.81 1987.17 1008.22 1975.54 1008.22 1975.54 1000.24 1943.55 1000.24 1886.98 1000.24 1885.25 1000.24 1824.37 1000.24 1824.34 1000.24 1823.46 1000.24 1796.72 1000.24 1796.72 985.77 1762.88 985.77 1762.88 991.24 1762.88 1000.24"/>
    </g>
  </g>
  <g id="_0035.00B" data-name="0035.00B">
    <g id="LWPOLYLINE-104" data-name="LWPOLYLINE">
      <polygon points="2013.61 1005.26 2013.61 999.54 2010.68 999.54 1978.49 999.54 1978.49 1000.28 1978.49 1005.26 1985.82 1005.26 2013.61 1005.26"/>
    </g>
  </g>
  <g id="_0036.00B" data-name="0036.00B">
    <g id="LWPOLYLINE-105" data-name="LWPOLYLINE">
      <polygon points="1762.18 833.29 1762.18 856.92 1762.92 856.92 1774.56 856.92 1774.56 833.32 1774.56 833.29 1762.18 833.29"/>
    </g>
  </g>
  <g id="B03.073">
    <g id="LWPOLYLINE-106" data-name="LWPOLYLINE">
      <polygon points="1777.16 833.29 1777.16 859.52 1762.88 859.52 1762.88 981.34 1796.69 981.34 1796.72 981.34 1797.6 981.34 1813.36 981.34 1813.36 945.22 1813.36 943.74 1813.36 943.71 1813.36 894.89 1813.36 844.26 1813.36 833.29 1777.16 833.29"/>
    </g>
  </g>
  <g id="_0084.00B" data-name="0084.00B">
    <g id="LWPOLYLINE-107" data-name="LWPOLYLINE">
      <polygon points="1678.21 833.99 1678.21 951.04 1705.9 951.04 1705.9 995.46 1758.1 995.46 1758.1 991.24 1758.1 985.8 1758.1 981.3 1758.1 859.55 1758.1 859.52 1758.1 858.22 1758.1 833.99 1750.65 833.99 1746.5 833.99 1689.36 833.99 1685.21 833.99 1678.21 833.99"/>
    </g>
  </g>
  <g id="_0040.00B" data-name="0040.00B">
    <g id="LWPOLYLINE-108" data-name="LWPOLYLINE">
      <polygon points="1701.82 996.16 1701.82 955.12 1676.03 955.12 1676.03 989.17 1676.03 996.16 1701.82 996.16"/>
    </g>
  </g>
  <g id="_0017.00B" data-name="0017.00B">
    <g id="LWPOLYLINE-109" data-name="LWPOLYLINE">
      <polygon points="1673.43 953.08 1673.43 833.99 1631.02 833.99 1601.41 833.99 1601.41 877.84 1601.41 880.86 1601.41 985.58 1601.41 987.86 1673.43 987.86 1673.43 955.16 1673.43 955.12 1673.43 953.08"/>
    </g>
  </g>
  <g id="_0041.00B" data-name="0041.00B">
    <g id="LWPOLYLINE-110" data-name="LWPOLYLINE">
      <polygon points="1600.71 829.21 1628.98 829.21 1628.98 773.54 1628.95 773.54 1600.71 773.54 1600.71 773.73 1600.71 782.69 1600.71 784.51 1600.71 829.21"/>
    </g>
  </g>
  <g id="B03.018b">
    <g id="LWPOLYLINE-111" data-name="LWPOLYLINE">
      <polygon points="1597.19 769.46 1598.67 769.46 1628.98 769.46 1628.98 739.75 1579.33 739.75 1579.33 763.77 1579.33 763.8 1579.33 765.28 1579.33 769.46 1595.28 769.46 1597.19 769.46"/>
    </g>
  </g>
  <g id="B03.054">
    <g id="LWPOLYLINE-112" data-name="LWPOLYLINE">
      <polygon points="1675.82 829.21 1685.24 829.21 1685.24 743.83 1667.73 743.83 1633.06 743.83 1633.06 769.42 1633.06 769.46 1633.06 771.5 1633.06 829.21 1675.82 829.21"/>
    </g>
  </g>
  <g id="B03.053">
    <g id="LWPOLYLINE-113" data-name="LWPOLYLINE">
      <rect x="1689.32" y="743.83" width="57.21" height="85.38"/>
    </g>
  </g>
  <g id="B03.052">
    <g id="LWPOLYLINE-114" data-name="LWPOLYLINE">
      <polygon points="1750.61 829.21 1760.14 829.21 1775.86 829.21 1777.16 829.21 1777.2 829.21 1813.72 829.21 1813.72 793.62 1813.72 785.04 1798.13 785.04 1798.13 768.73 1813.72 768.73 1813.72 743.83 1750.61 743.83 1750.61 829.21"/>
    </g>
  </g>
  <g id="B03.070">
    <g id="LWPOLYLINE-115" data-name="LWPOLYLINE">
      <polygon points="1824.34 948.55 1824.34 982.46 1824.34 983.94 1824.34 983.98 1824.34 995.74 1883.56 995.74 1883.56 948.55 1824.34 948.55"/>
    </g>
  </g>
  <g id="B03.068">
    <g id="LWPOLYLINE-116" data-name="LWPOLYLINE">
      <polygon points="1818.22 943.74 1822.86 943.74 1823.98 943.63 1824.37 943.63 1883.56 943.63 1883.56 897.35 1818.22 897.35 1818.22 943.74"/>
    </g>
  </g>
  <g id="B03.066">
    <g id="LWPOLYLINE-117" data-name="LWPOLYLINE">
      <rect x="1818.22" y="846.72" width="65.35" height="45.71"/>
    </g>
  </g>
  <g id="B03.064">
    <g id="LWPOLYLINE-118" data-name="LWPOLYLINE">
      <polygon points="1883.56 841.8 1883.56 796.08 1818.22 796.08 1818.22 831.25 1818.22 841.8 1883.56 841.8"/>
    </g>
  </g>
  <g id="B03.062">
    <g id="LWPOLYLINE-119" data-name="LWPOLYLINE">
      <polygon points="1883.56 791.16 1883.56 744.25 1861.92 744.25 1818.22 744.25 1818.22 769.6 1818.22 784.16 1818.22 791.16 1883.56 791.16"/>
    </g>
  </g>
  <g id="B03.071">
    <g id="LWPOLYLINE-120" data-name="LWPOLYLINE">
      <polygon points="2035.12 891.24 2035.12 843.69 2020.95 843.69 1964.3 843.69 1945.03 843.69 1945.03 950.45 1945.03 996.16 1975.54 996.16 1975.54 986.46 2010.72 986.46 2010.72 974.92 2035.12 974.92 2035.12 949.04 2035.12 891.24"/>
    </g>
  </g>
  <g id="B03.061">
    <g id="LWPOLYLINE-121" data-name="LWPOLYLINE">
      <polygon points="2019.44 794.11 2013.25 794.11 2013.25 789.61 1965.99 789.61 1965.99 834.83 2019.44 834.83 2019.44 794.11"/>
    </g>
  </g>
  <g id="B03.013">
    <g id="LWPOLYLINE-122" data-name="LWPOLYLINE">
      <polygon points="1886.94 946.09 1886.94 996.16 1942.08 996.16 1942.08 950.45 1942.08 840.74 1962.61 840.74 1962.61 836.35 1962.61 789.61 1942.08 789.61 1942.08 742.7 1886.94 742.7 1886.94 793.62 1886.94 844.26 1886.94 894.89 1886.94 946.09"/>
    </g>
  </g>
  <g id="B03.060">
    <g id="LWPOLYLINE-123" data-name="LWPOLYLINE">
      <polygon points="1945.45 735.25 1945.45 741.23 1945.45 784.69 1964.3 784.69 2013.25 784.69 2013.25 735.25 1945.45 735.25"/>
    </g>
  </g>
  <g id="B03.016">
    <rect x="1317.57" y="442.13" width="686.69" height="54.29"/>
  </g>
  <g id="B03.050">
    <g id="LWPOLYLINE-124" data-name="LWPOLYLINE">
      <polygon points="1945.03 665.13 1945.03 683.31 1945.03 730.75 2013.21 730.75 2014.69 730.75 2014.76 730.75 2027.24 730.75 2027.24 665.13 2004.22 665.13 1945.03 665.13"/>
    </g>
  </g>
  <g id="B03.044">
    <g id="LWPOLYLINE-125" data-name="LWPOLYLINE">
      <polygon points="2002.36 660.7 2002.36 591.74 1986.04 591.74 1986.04 575.43 1955.42 575.43 1955.42 591.74 1948.16 591.74 1920.01 591.74 1920.01 660.7 1942.04 660.7 1942.09 660.7 1943.55 660.7 2002.36 660.7"/>
    </g>
  </g>
  <g id="B03.042">
    <g id="LWPOLYLINE-126" data-name="LWPOLYLINE">
      <polygon points="2002.36 554.44 2002.36 501.69 1949.26 501.69 1920.01 501.69 1920.01 586.95 1948.16 586.95 1950.63 586.95 1950.63 570.65 1987.34 570.65 2002.36 570.65 2002.36 554.44"/>
    </g>
  </g>
  <g id="B03.015">
    <g id="LWPOLYLINE-127" data-name="LWPOLYLINE">
      <polygon points="1942.08 733 1942.08 684.61 1917.05 684.61 1917.05 663.69 1917.05 662.18 1917.05 589.34 1917.05 499.48 1917.05 497.26 1861.92 497.26 1861.92 523.88 1861.92 552.33 1861.92 588.7 1861.92 598.46 1861.92 625.6 1861.92 627.16 1862.34 627.16 1862.34 628.99 1862.34 682.93 1861.92 682.93 1861.92 686.32 1861.92 739.75 1885.25 739.75 1886.98 739.75 1942.08 739.75 1942.08 733"/>
    </g>
  </g>
  <g id="B03.046">
    <g id="LWPOLYLINE-128" data-name="LWPOLYLINE">
      <polygon points="1858.86 681.24 1858.96 681.24 1858.96 631.24 1858.86 631.24 1822.13 631.24 1818.79 631.24 1814.15 631.24 1814.15 681.24 1858.86 681.24"/>
    </g>
  </g>
  <g id="B03.015a">
    <g id="LWPOLYLINE-129" data-name="LWPOLYLINE">
      <polygon points="1824.17 626.74 1861.92 626.74 1861.92 598.46 1861.92 586.79 1824.17 586.79 1824.17 626.74"/>
    </g>
  </g>
  <g id="B03.051">
    <g id="LWPOLYLINE-130" data-name="LWPOLYLINE">
      <polygon points="1790.78 570.19 1790.78 556.41 1749.1 556.41 1749.1 680.54 1803.67 680.54 1803.67 627.16 1812.64 627.16 1817.49 627.16 1817.49 589.6 1817.05 589.6 1811.37 589.6 1811.37 570.19 1790.78 570.19"/>
    </g>
  </g>
  <g id="B03.055">
    <g id="LWPOLYLINE-131" data-name="LWPOLYLINE">
      <polygon points="1745.02 680.54 1745.02 556.41 1680.74 556.41 1680.74 573.46 1680.74 680.54 1745.02 680.54"/>
    </g>
  </g>
  <g id="B03.058">
    <g id="LWPOLYLINE-132" data-name="LWPOLYLINE">
      <polygon points="1605.19 574.76 1580.44 574.76 1580.44 611.88 1583.04 611.88 1583.04 632.13 1580.44 632.13 1580.44 656.94 1580.44 657.05 1580.44 659.02 1580.44 680.54 1604.12 680.54 1665.2 680.54 1669.9 680.54 1676.66 680.54 1676.66 574.76 1651.53 574.76 1649.45 574.76 1646.81 574.76 1605.19 574.76"/>
    </g>
  </g>
  <g id="B03.016d">
    <g id="LWPOLYLINE-133" data-name="LWPOLYLINE">
      <rect x="1649.45" y="554.93" width="27.22" height="17.23"/>
    </g>
  </g>
  <g id="B03.016c">
    <g id="LWPOLYLINE-134" data-name="LWPOLYLINE">
      <polygon points="1858.54 500.64 1752.75 500.64 1752.75 520.89 1749.38 520.89 1749.38 497.26 1722.37 497.26 1722.37 520.89 1719 520.89 1719 500.64 1579.74 500.64 1579.74 520.89 1576.36 520.89 1576.36 552.33 1606.49 552.33 1606.49 570.69 1646.84 570.69 1646.84 570.07 1646.84 552.33 1676.63 552.33 1676.74 552.33 1678.7 552.33 1747.06 552.33 1792.08 552.33 1822.48 552.33 1822.48 568.89 1822.48 583.84 1824.2 583.84 1858.54 583.84 1858.54 552.33 1861.92 552.33 1861.92 523.88 1858.54 523.88 1858.54 500.64"/>
    </g>
  </g>
  <g id="B03.056">
    <g id="LWPOLYLINE-135" data-name="LWPOLYLINE">
      <polygon points="1459.35 680.54 1516.81 680.54 1516.81 659.02 1516.81 622.18 1459.35 622.18 1459.35 680.54"/>
    </g>
  </g>
  <g id="B03.059">
    <g id="LWPOLYLINE-136" data-name="LWPOLYLINE">
      <polygon points="1459.39 618.1 1517.93 618.1 1517.93 574.83 1516.81 574.83 1516.81 572.72 1459.35 572.72 1459.35 618.1 1459.39 618.1"/>
    </g>
  </g>
  <g id="B03.057">
    <g id="LWPOLYLINE-137" data-name="LWPOLYLINE">
      <polygon points="1421.73 555.28 1421.73 571.25 1397.61 571.25 1397.61 666.12 1397.61 680.54 1419.49 680.54 1455.27 680.54 1455.27 622.21 1455.27 622.02 1455.27 620.14 1455.27 571.25 1455.27 555.28 1421.73 555.28"/>
    </g>
  </g>
  <g id="B03.021">
    <g id="LWPOLYLINE-138" data-name="LWPOLYLINE">
      <polygon points="1363.33 572.37 1363.14 572.37 1363.14 589.25 1321.23 589.25 1321.23 642.49 1321.23 644 1321.23 664.43 1393.53 664.43 1393.53 572.37 1388.72 572.37 1387.81 572.37 1363.33 572.37"/>
    </g>
  </g>
  <g id="B03.017">
    <g id="LWPOLYLINE-139" data-name="LWPOLYLINE">
      <polygon points="1576.36 573.46 1576.36 553.43 1576.36 549.82 1576.36 520.89 1576.36 497.26 1520.89 497.26 1520.89 526.24 1520.89 552.33 1520.89 571.25 1520.89 574.83 1520.89 618.06 1520.89 620.14 1520.89 656.98 1576.36 656.98 1576.36 632.13 1576.36 611.88 1576.36 573.46"/>
    </g>
  </g>
  <g id="B03.016b">
    <g id="LWPOLYLINE-140" data-name="LWPOLYLINE">
      <polygon points="1459.56 501.34 1459.56 526.24 1455.48 526.24 1455.48 553.81 1459.35 553.81 1459.35 569.77 1516.81 569.77 1516.81 552.33 1520.89 552.33 1520.89 526.24 1516.81 526.24 1516.81 501.34 1459.56 501.34"/>
    </g>
  </g>
  <g id="B03.016a">
    <g id="LWPOLYLINE-141" data-name="LWPOLYLINE">
      <polygon points="1320.95 500.64 1320.95 520.89 1317.57 520.89 1317.57 552.33 1320.95 552.33 1320.95 558.81 1320.95 585.17 1359.07 585.17 1359.07 571.07 1359.07 567.68 1359.07 552.33 1389.6 552.33 1389.6 568.29 1395.57 568.29 1397.61 568.29 1397.64 568.29 1418.77 568.29 1418.77 552.33 1455.48 552.33 1455.48 526.24 1455.48 497.26 1428.48 497.26 1428.48 520.89 1425.1 520.89 1425.1 500.64 1320.95 500.64"/>
    </g>
  </g>
  <g id="B03.019">
    <g id="LWPOLYLINE-142" data-name="LWPOLYLINE">
      <polygon points="1305.05 442.13 1263 442.13 1263 451.09 1263 553.1 1263 641.01 1317.15 641.01 1317.15 587.21 1317.57 587.21 1317.57 558.81 1317.57 552.33 1317.57 520.89 1317.57 498.95 1317.57 495.56 1317.57 442.13 1305.05 442.13"/>
    </g>
  </g>
  <g id="B03.018">
    <g id="LWPOLYLINE-143" data-name="LWPOLYLINE">
      <polygon points="1417.52 739.75 1419.49 739.75 1521.24 739.75 1521.24 763.8 1576.38 763.8 1576.38 739.75 1627.63 739.75 1631.02 739.75 1667.73 739.75 1687.28 739.75 1748.57 739.75 1813.68 739.75 1815.97 739.75 1861.92 739.75 1861.92 684.61 1814.19 684.61 1811.09 684.61 1805.71 684.61 1747.06 684.61 1678.7 684.61 1669.9 684.61 1665.2 684.61 1604.12 684.61 1576.36 684.61 1576.36 661.06 1576.33 661.06 1520.89 661.06 1520.89 684.61 1457.31 684.61 1419.49 684.61 1393.53 684.61 1393.53 667.81 1317.85 667.81 1317.85 643.97 1263 643.97 1263 667.81 1243.73 667.81 1243.73 667.84 1243.73 670.32 1243.73 764.84 1252.59 764.84 1252.59 769.43 1313.46 769.43 1313.49 769.43 1313.49 769.4 1313.49 739.75 1336.83 739.75 1416.1 739.75 1417.52 739.75"/>
    </g>
  </g>
  <g id="B03.002">
    <g id="LWPOLYLINE-144" data-name="LWPOLYLINE">
      <polygon points="1139.82 667.81 1138.94 667.81 1138.94 767.44 1218.34 767.44 1239.65 767.44 1239.65 764.84 1241.13 764.84 1241.13 670.32 1239.65 670.32 1239.65 667.81 1139.82 667.81"/>
    </g>
  </g>
  <g id="B03.020">
    <g id="LWPOLYLINE-145" data-name="LWPOLYLINE">
      <polygon points="1260.05 663.02 1260.05 644 1260.05 641.01 1258.92 641.01 1258.92 640.98 1258.92 555.49 1173.54 555.49 1173.54 569 1140.7 569 1140.7 663.02 1239.62 663.02 1239.65 663.02 1241.69 663.02 1260.05 663.02"/>
    </g>
  </g>
  <g id="B03.022">
    <g id="LWPOLYLINE-146" data-name="LWPOLYLINE">
      <polygon points="1251.04 442.13 1140.7 442.13 1140.7 550.71 1172.66 550.71 1258.92 550.71 1258.92 452.4 1251.04 452.4 1251.04 442.13"/>
    </g>
  </g>
  <g id="B03.024">
    <g id="LWPOLYLINE-147" data-name="LWPOLYLINE">
      <polygon points="1140.7 407.88 1138.94 407.88 1138.94 433.76 1140.7 433.76 1140.7 437.35 1252.34 437.35 1260.96 437.35 1302.66 437.35 1302.66 379.16 1262.97 379.16 1262.97 350.44 1263.11 348.79 1263.11 339.8 1167.28 339.8 1167.28 354.92 1143.74 354.92 1140.7 354.92 1140.7 407.88"/>
    </g>
  </g>
  <g id="_0088.0B" data-name="0088.0B">
    <g id="LWPOLYLINE-148" data-name="LWPOLYLINE">
      <polygon points="1266.28 352.09 1266.28 375.85 1302.63 375.85 1304.14 375.85 1304.14 355.24 1304.14 352.09 1269.97 352.09 1266.28 352.09"/>
    </g>
  </g>
  <g id="B03.026">
    <g id="LWPOLYLINE-149" data-name="LWPOLYLINE">
      <polygon points="1307.45 355.2 1307.45 377.51 1307.45 378.97 1307.45 379.19 1307.45 438.05 1317.57 438.05 1401.4 438.05 1401.4 389.14 1401.4 355.2 1366.61 355.2 1366.61 352.86 1364.57 352.86 1364.57 355.2 1307.45 355.2"/>
    </g>
  </g>
  <g id="B03.026b">
    <g id="LWPOLYLINE-150" data-name="LWPOLYLINE">
      <rect x="1405.48" y="391.35" width="51.62" height="46.7"/>
    </g>
  </g>
  <g id="B03.026a">
    <g id="LWPOLYLINE-151" data-name="LWPOLYLINE">
      <polygon points="1405.55 343.88 1405.55 353.16 1405.48 355.2 1405.48 355.24 1405.48 386.92 1454.85 386.92 1454.85 343.88 1405.55 343.88"/>
    </g>
  </g>
  <g id="B03.028">
    <g id="LWPOLYLINE-152" data-name="LWPOLYLINE">
      <polygon points="1537.27 347.89 1537.27 340.65 1461.88 340.65 1461.88 342.58 1461.88 389.14 1461.88 438.01 1461.88 439.17 1537.27 439.17 1537.27 355.59 1537.27 353.69 1537.27 347.89"/>
    </g>
  </g>
  <g id="B03.030">
    <g id="LWPOLYLINE-153" data-name="LWPOLYLINE">
      <rect x="1542.06" y="357.45" width="75.39" height="81.72"/>
    </g>
  </g>
  <g id="B03.032">
    <g id="LWPOLYLINE-154" data-name="LWPOLYLINE">
      <polygon points="1622.23 340.08 1622.23 355.59 1622.23 439.17 1697.62 439.17 1697.62 419.67 1697.62 351.73 1700.01 350.77 1700.01 342.73 1697.62 342.73 1697.62 340.08 1622.23 340.08"/>
    </g>
  </g>
  <g id="B03.034">
    <g id="LWPOLYLINE-155" data-name="LWPOLYLINE">
      <polygon points="1700.01 350.77 1702.4 351.73 1702.4 418.19 1718.37 418.19 1718.37 421.15 1702.4 421.15 1702.4 439.17 1777.79 439.17 1777.79 355.59 1777.79 340.08 1702.4 340.08 1702.4 342.73 1700.01 342.73 1700.01 350.77"/>
    </g>
  </g>
  <g id="B03.036">
    <g id="LWPOLYLINE-156" data-name="LWPOLYLINE">
      <polygon points="1782.58 357.45 1782.58 439.17 1857.97 439.17 1857.97 419.67 1857.97 357.45 1782.58 357.45"/>
    </g>
  </g>
  <g id="B03.038">
    <g id="LWPOLYLINE-157" data-name="LWPOLYLINE">
      <polygon points="1862.75 357.45 1862.75 418.19 1878.72 418.19 1878.72 421.15 1862.75 421.15 1862.75 439.17 1938.14 439.17 1938.14 357.45 1862.75 357.45"/>
    </g>
  </g>
  <g id="B03.040">
    <g id="LWPOLYLINE-158" data-name="LWPOLYLINE">
      <polygon points="2027.31 340.08 1942.92 340.08 1942.92 355.59 1942.92 439.17 2004.08 439.17 2015.22 439.17 2015.22 430.31 2027.31 430.31 2027.31 340.08"/>
    </g>
  </g>
</svg>