<?xml version="1.0" encoding="UTF-8"?>
<svg xmlns="http://www.w3.org/2000/svg" xmlns:xlink="http://www.w3.org/1999/xlink" viewBox="0 0 1928.29 1926.33">
  <defs>
    <style>
      .cls-1 {
        fill: none;
      }
    </style>
  </defs>
  <g id="Procore_Drawing" data-name="Procore Drawing">
    <image width="5760" height="4320" transform="translate(-296.62 -154.04) scale(.6)" xlink:href="../PDF and PNG/RCP/Level 14.jpg"/>
  </g>
  <g id="_1411.002" data-name="1411.002">
    <line class="cls-1" x1="1752.49" y1="665.75" x2="1746.62" y2="664.98"/>
    <line class="cls-1" x1="1690.46" y1="657.62" x2="1685.51" y2="656.97"/>
  </g>
  <g id="_0094.014" data-name="0094.014">
    <polygon points="657.01 948.38 680.18 948.38 683.2 948.38 736.6 948.38 736.6 948.83 736.6 1053.11 736.6 1053.56 657.01 1053.56 657.01 948.38"/>
  </g>
  <g id="_1420.36" data-name="1420.36">
    <polygon points="377.45 1361.18 383.7 1361.18 402.86 1361.18 402.86 1368.5 445.89 1368.5 445.89 1337.35 450.64 1337.35 450.64 1330.57 450.64 1315.94 497.61 1315.94 497.61 1325.53 498.45 1325.53 498.45 1315.94 530.09 1315.94 530.09 1320.03 536.91 1320.03 536.91 1444.5 536.91 1446.51 522.15 1446.51 472.72 1446.51 448.4 1446.51 383.04 1446.51 377.45 1446.51 377.45 1368.5 377.45 1361.18"/>
  </g>
  <g id="_1410.005b" data-name="1410.005b">
    <polygon points="812.4 845.71 826.45 845.71 829.41 845.71 829.41 873.83 812.4 873.83 812.4 845.71"/>
  </g>
  <g id="_1410.001b" data-name="1410.001b">
    <polygon points="1400.9 750.24 1384.03 750.24 1384.03 722.11 1399.34 722.11 1400.9 722.11 1400.9 750.24"/>
  </g>
  <g id="_1420.058" data-name="1420.058">
    <polygon points="1687.41 598.78 1588.23 598.78 1588.23 554.85 1641.38 554.85 1641.38 547.18 1684.55 547.18 1684.55 559.48 1687.51 559.48 1687.51 598.78 1687.41 598.78"/>
  </g>
  <g id="_1402.006" data-name="1402.006">
    <polygon points="1584.58 504.73 1584.58 552.63 1584.58 598.78 1532.64 598.78 1532.64 588.13 1531.94 588.13 1531.94 504.73 1584.58 504.73"/>
  </g>
  <g id="_1412.0031" data-name="1412.0031">
    <polygon points="990.85 719.16 969.81 719.16 969.81 661.46 969.81 661.36 990.85 661.36 990.85 671.37 990.85 671.4 990.85 672.88 990.85 719.16"/>
  </g>
  <g id="_1410.017b" data-name="1410.017b">
    <polygon points="1298.68 1320.96 1332.77 1320.96 1332.77 1321.03 1361.79 1321.03 1361.79 1386.14 1301.63 1386.14 1301.63 1386.05 1301.63 1365.47 1298.68 1365.47 1298.68 1320.96"/>
  </g>
  <g id="_1410.17a" data-name="1410.17a">
    <polygon points="1364.74 1321.03 1403.85 1321.03 1403.85 1364.84 1403.85 1365.23 1403.85 1386.14 1364.74 1386.14 1364.74 1321.03"/>
  </g>
  <g id="_1410.045" data-name="1410.045">
    <polygon points="1242.89 1193.54 1242.89 1195.46 1117.98 1195.46 1117.98 1086.79 1117.98 1084.78 1143.15 1084.78 1242.89 1084.78 1242.89 1111.05 1242.89 1193.54"/>
  </g>
  <g id="_1410.031a" data-name="1410.031a">
    <polygon points="1078.6 1047.31 1078.6 1081.06 1001.13 1081.06 1001.13 1038.04 1036.84 1038.04 1036.84 1047.31 1062.54 1047.31 1064.61 1047.31 1068.51 1047.31 1078.6 1047.31"/>
  </g>
  <g id="_1410.031" data-name="1410.031">
    <polygon points="1062.57 1044.35 1039.79 1044.35 1039.79 1035.08 1001.13 1035.08 1001.13 948.59 1035.78 948.59 1035.78 975.03 1062.57 975.03 1062.57 993.34 1062.57 1044.35"/>
  </g>
  <g id="_1412a" data-name="1412a">
    <polygon points="1095.48 669.83 1095.48 666.04 1095.48 658.41 1190.82 658.41 1190.82 666.04 1190.82 669.83 1190.82 676.41 1095.48 676.41 1095.48 669.83"/>
  </g>
  <g id="_1402.004" data-name="1402.004">
    <polygon points="1722.8 544.22 1722.8 510.47 1746.43 510.47 1746.43 544.22 1746.39 544.22 1722.8 544.22"/>
  </g>
  <g id="_1410.002.2" data-name="1410.002.2">
    <rect x="680.21" y="889.03" width="462.08" height="56.25"/>
  </g>
  <g id="_1410.002.1" data-name="1410.002.1">
    <polygon points="1459.75 889.03 1459.75 855.31 1406.46 855.31 1406.46 889.03 1142.55 889.03 1142.55 945.28 1604.96 945.28 1604.96 889.03 1459.75 889.03"/>
  </g>
  <g id="_1410.025" data-name="1410.025">
    <path d="M941.16,778.24h64.95v40.5h-32.43v2.95h28.14v25.81h-12.09v38.58h-32.06v-10.2h-33.47v10.2h-47.25v-11.07h-10.42v-33.75h10.26v-22.52h-10.26v-40.5h74.64ZM940.49,817.78h-2.95v23.62h2.95v-23.62Z"/>
  </g>
  <g id="_1410.025c" data-name="1410.025c">
    <polygon points="866.53 749.11 866.53 747.64 866.53 722.11 866.62 722.11 905.62 722.11 905.62 775.29 866.53 775.29 866.53 749.11"/>
  </g>
  <g id="_1410.025b" data-name="1410.025b">
    <rect x="908.57" y="722.11" width="30.37" height="53.17"/>
  </g>
  <g id="_1410.025a" data-name="1410.025a">
    <polygon points="943.38 722.11 969.81 722.11 988.25 722.11 988.25 775.29 943.38 775.29 943.38 722.11"/>
  </g>
  <g id="_1411.006" data-name="1411.006">
    <polygon points="1690.46 547.18 1722.8 547.18 1746.43 547.18 1746.43 602.44 1690.46 602.44 1690.46 559.48 1690.46 547.18"/>
    <polygon points="1766.68 614.27 1766.68 664.98 1746.62 664.98 1690.46 657.62 1690.46 602.44 1746.43 602.44 1746.43 614.27 1766.68 614.27"/>
    <polyline points="1245.24 602.44 1469.75 602.44 1469.75 588.13 1528.16 588.13 1528.16 602.44 1690.46 602.44 1690.46 658.41 1458.99 658.41 1458.99 855.31 1403.29 855.31 1403.29 658.41 1295.46 658.41 1295.46 655.97 1277.23 655.97 1277.23 659.9 1245.24 659.9"/>
  </g>
  <g id="_1412.001" data-name="1412.001">
    <polygon points="381.95 612.43 381.95 611.72 381.95 605.04 381.8 604.76 381.8 602.83 381.8 599.06 381.1 599.06 381.1 558.28 384.72 558.28 384.76 558.28 387.15 558.28 404.69 558.28 439.11 558.28 439.11 602.44 495.15 602.44 539.87 602.44 539.87 663.51 449.76 663.51 444.63 663.51 395.4 663.51 395.4 654.3 395.4 651.66 392.77 651.66 381.95 651.66 381.95 614.77 381.95 612.43"/>
  </g>
  <g id="_1413.001" data-name="1413.001">
    <polygon points="523.63 1501.21 523.63 1449.46 539.87 1449.46 539.87 1444.5 600.93 1444.5 600.93 1534.61 600.93 1539.74 600.93 1557.75 600.93 1559.04 600.86 1559.11 575.27 1584.71 575.27 1602.43 523.63 1602.43 523.63 1501.21"/>
  </g>
  <g id="_1411.001" data-name="1411.001">
    <polygon points="1711.03 1589.21 1685.44 1563.62 1685.37 1563.55 1685.37 1562.26 1685.37 1539.74 1685.37 1534.61 1685.37 1444.5 1746.43 1444.5 1746.43 1450.94 1762.67 1450.94 1762.67 1501.21 1762.67 1606.93 1711.03 1606.93 1711.03 1589.21"/>
  </g>
  <g id="_1413.004" data-name="1413.004">
    <polygon points="653.35 945.28 653.35 1057.22 650.3 1057.22 618.62 1057.22 618.62 1054.27 598.89 1054.27 597.8 1054.27 597.8 948.24 618.62 948.24 618.62 945.28 653.35 945.28"/>
    <rect x="595.84" y="1057.22" width="57.52" height="27.56"/>
  </g>
  <g id="_1411.004" data-name="1411.004">
    <polygon points="1688.35 1054.27 1688.25 1054.27 1667.68 1054.27 1667.68 1057.22 1636.14 1057.22 1632.95 1057.22 1632.95 945.28 1668.1 945.28 1668.1 948.24 1688.35 948.24 1688.35 1054.27"/>
  </g>
  <g id="_1414.002" data-name="1414.002">
    <polygon points="1042.1 1328.22 1143.15 1328.22 1143.15 1389.1 1122.9 1389.1 1122.9 1365.05 1119.95 1365.05 1119.95 1385.72 1017.57 1385.72 1017.57 1365.05 1014.62 1365.05 1014.62 1389.1 987.62 1389.1 987.62 1365.47 987.62 1322.88 987.62 1320.96 1026.86 1320.96 1026.89 1320.96 1026.89 1328.22 1042.1 1328.22"/>
  </g>
  <g id="_1410.005" data-name="1410.005">
    <polygon points="831.52 843.6 826.45 843.6 826.45 780.38 826.45 776.99 826.45 749.11 863.57 749.11 863.57 776.76 863.57 819.62 863.57 840.38 863.57 875.89 863.57 887.56 863.57 889.03 831.52 889.03 831.52 874.71 831.52 873.81 831.52 843.6"/>
  </g>
  <g id="_1410.011" data-name="1410.011">
    <polygon points="1553.21 769.36 1553.21 722.11 1575.43 722.11 1575.43 719.16 1602.43 719.16 1602.43 722.11 1611.15 722.11 1611.15 744.3 1611.15 751.85 1629.01 751.85 1629.01 769.36 1553.21 769.36"/>
  </g>
  <g id="_1410.024" data-name="1410.024">
    <polygon points="657.29 755.51 675.15 755.51 675.15 722.11 684.15 722.11 684.15 719.16 711.15 719.16 711.15 722.11 733.09 722.11 733.09 768.67 657.74 768.67 657.29 768.67 657.29 755.51"/>
  </g>
  <g id="_1420.29b" data-name="1420.29b">
    <polygon points="487.63 535.01 438.76 535.01 438.76 555.33 405.57 555.33 405.57 535.01 389.54 535.01 389.54 458.86 408.4 458.86 408.4 440.02 414.92 440.02 487.63 440.02 487.63 535.01"/>
  </g>
  <g id="_1410.005a" data-name="1410.005a">
    <rect x="812.4" y="777.87" width="14.05" height="65.73"/>
  </g>
  <g id="_1412.003" data-name="1412.003">
    <polygon points="866.53 661.36 935.43 661.36 935.43 661.46 935.43 681.19 938.38 681.19 938.38 658.41 956.83 658.41 969.81 658.41 969.81 719.16 941.16 719.16 907.1 719.16 863.57 719.16 863.57 681.19 866.53 681.19 866.53 661.36"/>
  </g>
  <g id="_1410.034" data-name="1410.034">
    <polygon points="1249.9 948.24 1249.9 950.31 1285.17 950.31 1285.17 1081.83 1258.52 1081.83 1244.19 1081.83 1144.63 1081.83 1144.63 948.24 1249.9 948.24"/>
  </g>
  <g id="_1420.48a" data-name="1420.48a">
    <polygon points="1811.53 1450.94 1811.53 1487.5 1799.72 1487.5 1799.72 1499.73 1765.63 1499.73 1765.63 1450.94 1811.53 1450.94"/>
  </g>
  <g id="_1420.56b" data-name="1420.56b">
    <polygon points="1821.06 623.71 1855.87 623.71 1888.88 623.71 1888.88 630.41 1905.9 630.41 1905.9 637.95 1905.9 651.22 1888.88 651.22 1888.88 663.51 1844.83 663.51 1844.83 662.33 1844.83 643.91 1841.88 643.91 1841.88 663.51 1836.53 663.51 1821.06 663.51 1821.06 623.71"/>
  </g>
  <g id="_1420.56a" data-name="1420.56a">
    <polygon points="1769.63 612.8 1804.09 612.8 1804.09 623.71 1816.99 623.71 1816.99 663.51 1769.63 663.51 1769.63 612.8"/>
  </g>
  <g id="_1420.56" data-name="1420.56">
    <polygon points="1891.84 627.46 1891.84 620.76 1857.35 620.76 1857.35 609.77 1854.4 609.77 1854.4 620.76 1819.03 620.76 1807.04 620.76 1807.04 609.84 1769.67 609.84 1768.16 609.84 1749.38 609.84 1749.38 602.44 1749.38 547.21 1749.38 547.03 1749.73 547.03 1749.73 545.7 1749.73 514.34 1756.63 514.34 1823.41 514.34 1886.72 514.34 1908.85 514.34 1908.85 627.46 1891.84 627.46"/>
  </g>
  <g id="_1410.033" data-name="1410.033">
    <polygon points="1116.5 1081.83 1104.76 1081.83 1104.76 1073.96 1085.28 1073.96 1085.28 1043.23 1079.9 1043.23 1070.38 1043.23 1070.38 994.64 1079.38 994.64 1079.38 975.03 1100.4 975.03 1100.4 948.24 1141.67 948.24 1141.67 1081.83 1116.5 1081.83"/>
  </g>
  <g id="_1412.005" data-name="1412.005">
    <polygon points="1630.13 681.19 1633.09 681.19 1633.09 719.16 1612.45 719.16 1611.15 719.16 1611.11 719.16 1602.43 719.16 1575.43 719.16 1553.25 719.16 1553.21 719.16 1551.38 719.16 1475.73 719.16 1473.9 719.16 1473.86 719.16 1458.99 719.16 1458.99 681.19 1461.95 681.19 1461.95 675.28 1482.34 675.28 1482.34 661.36 1630.13 661.36 1630.13 661.46 1630.13 681.19"/>
  </g>
  <g id="_1413.005" data-name="1413.005">
    <polygon points="595.92 771.62 618.9 771.62 618.9 768.67 598.97 768.67 598.79 768.67 598.79 675.56 618.62 675.56 618.62 658.41 653.21 658.41 653.21 697.78 653.21 717.07 653.21 720.46 653.21 754.21 653.21 770.71 654.69 770.71 654.69 774.09 654.69 799.04 618.62 799.04 595.92 799.04 595.92 771.62"/>
  </g>
  <g id="_1410.004.3" data-name="1410.004.3">
    <polygon points="985.82 1198.41 986.53 1198.41 987.24 1198.41 1022.48 1198.41 1075.9 1198.41 1076.62 1198.41 1077.31 1198.41 1112.83 1198.41 1113.07 1198.41 1142.29 1198.41 1142.29 1238.91 1112.83 1238.91 1081.49 1238.91 1055.47 1238.91 991.25 1238.91 955.03 1238.91 955.01 1238.91 955.01 1198.41 955.03 1198.41 985.82 1198.41"/>
  </g>
  <g id="_1410.004.4" data-name="1410.004.4">
    <polygon points="1184.72 1198.41 1185.71 1198.41 1186.69 1198.41 1235.92 1198.41 1310.55 1198.41 1311.55 1198.41 1312.53 1198.41 1362.13 1198.41 1362.47 1198.41 1403.29 1198.41 1403.29 1238.91 1362.13 1238.91 1318.36 1238.91 1282.01 1238.91 1192.3 1238.91 1141.7 1238.91 1141.67 1238.91 1141.67 1198.41 1141.7 1198.41 1184.72 1198.41"/>
  </g>
  <g id="_1410.007" data-name="1410.007">
    <polygon points="882.44 945.28 882.44 947.04 882.44 1109.74 882.44 1198.41 951.69 1198.41 951.69 1238.91 882.44 1238.91 882.44 1278 827.3 1278 827.3 1238.91 774.49 1238.91 719.45 1238.91 719.45 1198.41 724.16 1198.41 827.3 1198.41 827.3 1135.16 827.3 1105.24 827.3 1058.57 827.3 1055.18 827.3 945.28 882.44 945.28"/>
  </g>
  <g id="_1414.3" data-name="1414.3">
    <polygon points="1142.55 1389.09 1142.55 1444.5 855.15 1444.5 855.15 1447.03 823.61 1447.03 823.61 1386.39 827.3 1386.39 827.3 1280.95 882.44 1280.95 882.44 1389.09 1016.09 1389.09 1016.09 1388.67 1121.42 1388.67 1121.42 1389.09 1142.55 1389.09"/>
  </g>
  <g id="_1414.4" data-name="1414.4">
    <polygon points="1685.19 1388.67 1685.19 1444.5 1142.55 1444.5 1142.55 1389.09 1164.87 1389.09 1164.87 1388.67 1270.2 1388.67 1270.2 1389.09 1403.85 1389.09 1403.85 1280.95 1459.29 1280.95 1459.29 1320.15 1459.71 1320.15 1459.71 1388.67 1685.19 1388.67"/>
  </g>
  <g id="_1410.003" data-name="1410.003">
    <polygon points="1566.85 1198.41 1566.85 1238.91 1512.17 1238.91 1459.29 1238.91 1459.29 1278 1403.85 1278 1403.85 1240.39 1403.29 1240.39 1403.29 1237 1403.29 1200.32 1403.29 1196.37 1403.85 1196.37 1403.85 1109.74 1403.85 945.28 1458.99 945.28 1458.99 1055.17 1458.99 1058.56 1458.99 1104.37 1459.87 1104.37 1459.87 1134.28 1458.99 1134.28 1458.99 1198.41 1562.14 1198.41 1566.85 1198.41"/>
  </g>
  <g id="_1403" data-name="1403">
    <polygon points="1095.48 881.4 1095.48 877.61 1095.48 811.96 1095.41 811.96 1095.41 805.21 1095.48 805.21 1095.48 738.42 1095.48 679.36 1190.82 679.36 1190.82 738.42 1190.82 809.3 1190.82 879.51 1190.82 889.03 1095.48 889.03 1095.48 881.4"/>
  </g>
  <g id="_1413.2" data-name="1413.2">
    <polygon points="680.21 889.03 680.21 944.72 655.18 944.72 653.2 945.28 594.85 945.28 594.85 1055.74 595.83 1055.74 595.83 1097.62 539.87 1097.62 539.87 663.85 595.83 663.85 595.83 770.14 595.92 770.14 595.92 800.51 595.83 800.51 595.83 889.03 680.21 889.03"/>
  </g>
  <g id="_1413.3" data-name="1413.3">
    <polygon points="595.83 1238.9 595.83 1319.55 596.26 1321.03 596.26 1389.09 601.11 1389.09 601.11 1444.5 539.87 1444.5 539.87 1097.62 595.83 1097.62 595.83 1106.12 595.27 1106.12 595.27 1198.4 716.49 1198.4 716.49 1238.9 595.83 1238.9"/>
  </g>
  <g id="_1413.002" data-name="1413.002">
    <polygon points="601.11 1389.1 618.07 1389.1 618.07 1386.8 652.85 1386.8 652.85 1389.1 752.25 1389.1 752.25 1386.8 786.35 1386.8 786.35 1391.71 789.56 1391.71 789.56 1386.8 819.89 1386.8 819.89 1447.03 815.75 1447.03 817.61 1445.17 601.11 1445.17 601.11 1389.1"/>
  </g>
  <g id="_1414.001" data-name="1414.001">
    <polygon points="598.79 1320.96 620.8 1320.96 620.8 1297.78 677.2 1297.78 677.2 1320.96 822.88 1320.96 822.88 1383.53 786.35 1383.53 786.35 1386.8 598.79 1386.8 598.79 1320.96"/>
  </g>
  <g id="_1411.1" data-name="1411.1">
    <path d="M1746.62,664.98h-.19v324.56h-55.13v-44.26c-19.05.04-67.99-.06-86.34-.07v-56.18h85.5v-118.48h.56v-98.4h-.56v-14.53l56.16,7.36Z"/>
  </g>
  <g id="_1411.4" data-name="1411.4">
    <polygon points="1746.43 989.54 1746.43 1444.5 1685.19 1444.5 1685.19 1388.67 1690.18 1388.67 1690.18 1320.15 1690.46 1320.15 1690.46 1238.9 1569.8 1238.9 1569.8 1198.4 1691.02 1198.4 1691.02 1104.43 1690.46 1104.43 1690.46 1086.24 1691.3 1085.08 1691.3 989.54 1746.43 989.54"/>
  </g>
  <g id="_1412" data-name="1412">
    <polygon points="608.42 602.44 711.15 602.44 813.88 602.44 824.42 602.44 927.15 602.44 1029.88 602.44 1040.42 602.44 1143.32 602.44 1215.04 602.44 1215.04 600.19 1245.24 600.19 1245.24 660.66 1241.59 660.66 1241.59 658.41 1192.3 658.41 1191.14 658.41 1188.91 658.41 1097.39 658.41 1094.6 658.41 1094 658.41 1007.59 658.41 1006.11 658.41 1006.07 658.41 993.14 658.41 969.81 658.41 966.76 658.41 956.83 658.41 940.3 658.41 936.91 658.41 863.57 658.41 863.57 681.19 863.57 717.25 863.57 720.64 863.57 746.16 826.45 746.16 826.45 720.46 826.45 717.07 826.45 681.19 826.45 680.98 826.45 676.09 826.45 658.41 803.71 658.41 654.69 658.41 651.3 658.41 621.13 658.41 617.74 658.41 595.84 658.41 595.84 663.86 541.78 663.86 539.87 663.86 539.87 662.33 539.87 602.44 597.88 602.44 608.42 602.44"/>
  </g>
  <g id="_1420.24a" data-name="1420.24a">
    <polygon points="1013.39 506.32 1002.56 506.32 1002.56 457.98 1020.63 457.98 1032.93 457.98 1032.93 506.32 1013.39 506.32"/>
  </g>
  <g id="_1420.23a" data-name="1420.23a">
    <polygon points="1049.25 457.98 1067.74 457.98 1067.74 506.32 1056.91 506.32 1037.36 506.32 1037.36 457.98 1049.25 457.98"/>
  </g>
  <g id="_1420.22a" data-name="1420.22a">
    <polygon points="1229.39 506.32 1218.56 506.32 1218.56 457.98 1236.63 457.98 1248.93 457.98 1248.93 506.32 1229.39 506.32"/>
  </g>
  <g id="_1410.016" data-name="1410.016">
    <polygon points="1667.68 1238.91 1667.68 1241.86 1686.38 1241.86 1686.38 1306.41 1686.19 1306.41 1670.63 1306.41 1670.63 1294.6 1632.21 1294.6 1610.16 1294.6 1610.16 1318.08 1578.95 1318.08 1578.95 1241.86 1633.09 1241.86 1633.09 1238.91 1667.68 1238.91"/>
  </g>
  <g id="_1420.29a" data-name="1420.29a">
    <polygon points="442.06 598.78 442.06 556.81 442.06 538.31 488.5 538.31 492.76 538.31 492.76 598.78 442.06 598.78"/>
  </g>
  <g id="_1420.50a" data-name="1420.50a">
    <polygon points="1842.55 1291.96 1842.55 1281.13 1890.89 1281.13 1890.89 1299.2 1890.89 1311.51 1843.61 1311.51 1842.55 1311.51 1842.55 1291.96"/>
  </g>
  <g id="_1420.28a" data-name="1420.28a">
    <polygon points="581.39 506.32 570.56 506.32 570.56 457.98 588.63 457.98 600.93 457.98 600.93 506.32 581.39 506.32"/>
  </g>
  <g id="_1420.20" data-name="1420.20">
    <polygon points="1451.75 440.16 1451.75 455.02 1431.61 455.02 1431.61 509.28 1444.51 509.28 1444.51 513.21 1464.76 513.21 1464.76 588.13 1464.76 599.49 1361.36 599.49 1361.36 440.02 1431.71 440.02 1431.85 440.02 1431.85 435.66 1433.4 435.66 1433.4 440.16 1451.75 440.16"/>
  </g>
  <g id="_1420.31a" data-name="1420.31a">
    <polygon points="395.4 867.62 395.4 849.13 443.75 849.13 443.75 859.96 443.75 879.51 395.44 879.51 395.4 879.51 395.4 867.62"/>
  </g>
  <g id="_1420.30a" data-name="1420.30a">
    <polygon points="443.75 687.48 443.75 698.31 395.4 698.31 395.4 680.24 395.4 667.94 443.75 667.94 443.75 687.48"/>
  </g>
  <g id="_1420.47a" data-name="1420.47a">
    <polygon points="1680.94 1565.48 1680.94 1588.97 1668.63 1588.97 1650.56 1588.97 1650.56 1540.62 1661.39 1540.62 1680.94 1540.62 1680.94 1562.26 1680.94 1565.48"/>
  </g>
  <g id="_1410.055" data-name="1410.055">
    <polygon points="717.97 1241.86 719.36 1241.86 719.48 1241.86 772.83 1241.86 772.83 1297.16 772.83 1298.5 772.83 1317.73 709.87 1317.73 709.87 1307.99 709.87 1307.08 709.87 1241.9 709.87 1241.86 717.97 1241.86"/>
  </g>
  <g id="_1414.003" data-name="1414.003">
    <polygon points="1271.68 1389.1 1271.68 1387.2 1271.68 1365.47 1268.73 1365.47 1268.73 1385.72 1166.35 1385.72 1166.35 1365.05 1163.4 1365.05 1163.4 1389.1 1143.15 1389.1 1143.15 1328.22 1195.46 1328.22 1243.77 1328.22 1259.4 1328.22 1259.4 1320.96 1259.44 1320.96 1298.68 1320.96 1298.68 1322.88 1298.68 1365.47 1298.68 1389.1 1271.68 1389.1"/>
  </g>
  <g id="_1402.003" data-name="1402.003">
    <polygon points="1638.43 550.42 1588.23 550.42 1588.23 505.56 1638.43 505.56 1638.43 545.7 1638.43 550.42"/>
  </g>
  <g id="_1420.55a" data-name="1420.55a">
    <polygon points="1889.76 667.94 1890.89 667.94 1890.89 679.82 1890.89 698.31 1842.55 698.31 1842.55 687.48 1842.55 667.94 1843.35 667.94 1889.76 667.94"/>
  </g>
  <g id="_1410.032" data-name="1410.032">
    <polygon points="1097.09 970.6 1078.07 970.6 1064.61 970.6 1039.09 970.6 1039.09 948.59 1097.09 948.59 1097.09 970.6"/>
  </g>
  <g id="_1410.022" data-name="1410.022">
    <polygon points="618.62 802 653.21 802 653.21 818.37 653.21 818.4 653.21 819.88 653.21 889.03 618.62 889.03 618.62 870.47 599.91 870.47 599.91 802 618.62 802"/>
  </g>
  <g id="_1410.019" data-name="1410.019">
    <polygon points="618.62 1241.86 618.62 1238.91 653.21 1238.91 653.21 1241.86 706.92 1241.86 706.92 1306.2 679.92 1306.2 679.92 1294.6 654.09 1294.6 618.62 1294.6 618.62 1317.98 618.62 1318.08 599.25 1318.08 598.79 1318.08 598.79 1241.86 618.62 1241.86"/>
  </g>
  <g id="_1410.018b" data-name="1410.018b">
    <polygon points="953.53 1320.96 955.01 1320.96 955.04 1320.96 987.62 1320.96 987.62 1365.47 984.66 1365.47 984.66 1386.05 984.66 1386.14 921.35 1386.14 921.35 1368.11 921.35 1320.96 953.53 1320.96"/>
  </g>
  <g id="_1410.018a" data-name="1410.018a">
    <polygon points="882.44 1365.23 882.44 1364.84 882.44 1320.96 918.39 1320.96 918.39 1368.11 918.22 1368.11 918.22 1386.14 882.44 1386.14 882.44 1365.23"/>
  </g>
  <g id="_1410.047" data-name="1410.047">
    <polygon points="1043.59 1088.09 1083.24 1088.09 1085.32 1088.09 1103.46 1088.09 1104.88 1088.09 1115.02 1088.09 1115.02 1195.46 1030.23 1195.46 1030.23 1111.78 1043.59 1111.78 1043.59 1088.09"/>
  </g>
  <g id="_1420.36a" data-name="1420.36a">
    <polygon points="441.81 1330.57 441.81 1336.47 441.81 1365.54 405.81 1365.54 405.81 1358.23 385 1358.23 385 1337.42 393.61 1337.42 394.95 1337.42 406.65 1337.42 406.65 1334.46 396.25 1334.46 396.25 1315.94 441.81 1315.94 441.81 1330.57"/>
  </g>
  <g id="_1420.37b" data-name="1420.37b">
    <polygon points="470.69 1487.5 431.79 1487.5 384.34 1487.5 384.34 1453.54 446.92 1453.54 446.92 1467.25 449.87 1467.25 449.87 1452.24 449.87 1450.94 470.69 1450.94 470.69 1487.5"/>
  </g>
  <g id="_1420.37a" data-name="1420.37a">
    <polygon points="520.67 1499.73 486.58 1499.73 486.58 1487.5 474.76 1487.5 474.76 1450.94 520.67 1450.94 520.67 1499.73"/>
  </g>
  <g id="_1420.37" data-name="1420.37">
    <polygon points="395.59 1530.5 395.59 1501.72 377.45 1501.72 377.45 1490.45 383.04 1490.45 430.32 1490.45 430.32 1501.81 433.27 1501.81 433.27 1490.45 472.72 1490.45 483.62 1490.45 483.62 1502.69 520.67 1502.69 520.67 1604.6 517.02 1604.6 517.02 1605.59 440.38 1605.59 440.38 1606.93 395.4 1606.93 395.4 1589.7 377.45 1589.7 377.45 1530.5 395.59 1530.5"/>
  </g>
  <g id="_1420.43" data-name="1420.43">
    <polygon points="1145.36 1447.46 1245.03 1447.46 1245.03 1453.01 1248.93 1453.01 1248.93 1533.73 1228.51 1533.73 1228.51 1537.67 1215.61 1537.67 1215.61 1591.92 1235.76 1591.92 1235.76 1606.93 1223.38 1606.93 1145.36 1606.93 1145.36 1447.46"/>
  </g>
  <g id="_1412.004" data-name="1412.004">
    <polygon points="1400.91 661.36 1400.91 681.19 1402.39 681.19 1402.39 719.16 1382.97 719.16 1345.44 719.16 1344.14 719.16 1343.93 719.16 1295.46 719.16 1295.46 672.88 1295.46 671.4 1295.46 671.37 1295.46 658.41 1329.05 658.41 1329.05 681.19 1332.01 681.19 1332.01 661.46 1332.01 661.36 1400.91 661.36"/>
  </g>
  <g id="_1411.005" data-name="1411.005">
    <polygon points="1633.09 799.46 1633.09 774.79 1633.09 771.4 1633.09 750.97 1633.09 744.3 1633.09 742.96 1633.09 720.46 1633.09 717.07 1633.09 681.19 1633.09 658.41 1667.68 658.41 1667.68 673.03 1688.07 673.03 1688.07 769.08 1687.41 769.08 1667.68 769.08 1667.68 772.03 1690.46 772.03 1690.46 799.46 1667.68 799.46 1633.09 799.46"/>
  </g>
  <g id="_1411.003" data-name="1411.003">
    <polygon points="1632.95 1132.24 1632.95 1132.21 1632.95 1086 1633.09 1086 1633.09 1057.22 1667.68 1057.22 1691.3 1057.22 1691.3 1084.21 1679.77 1084.21 1670.77 1084.21 1670.77 1105.31 1688.07 1105.31 1688.07 1195.46 1667.96 1195.46 1667.96 1198.41 1632.95 1198.41 1632.95 1133.72 1632.95 1132.24"/>
  </g>
  <g id="_1414.004" data-name="1414.004">
    <polygon points="1511.82 1321.03 1577.47 1321.03 1611.04 1321.03 1632.21 1321.03 1635.6 1321.03 1665.17 1321.03 1668.56 1321.03 1687.23 1321.03 1687.23 1385.72 1685.19 1385.72 1667.68 1385.72 1667.68 1388.67 1633.09 1388.67 1633.09 1365.47 1630.13 1365.47 1630.13 1385.62 1630.13 1385.72 1462.66 1385.72 1462.66 1365.47 1459.71 1365.47 1459.71 1321.03 1510.48 1321.03 1511.82 1321.03"/>
  </g>
  <g id="_1413.003" data-name="1413.003">
    <polyline points="651.44 1198.41 617.12 1198.41 617.12 1195.46 597.8 1195.46 597.8 1107.45 611.45 1107.45 611.45 1084.78 651.44 1084.78"/>
  </g>
  <g id="_1412.002" data-name="1412.002">
    <polygon points="653.21 697.78 656.16 697.78 656.16 661.46 656.16 661.36 802.84 661.36 802.84 676.97 823.49 676.97 823.49 680.98 823.49 681.19 826.45 681.19 826.45 719.16 812.43 719.16 812.4 719.16 810.57 719.16 734.91 719.16 733.09 719.16 733.05 719.16 711.15 719.16 684.15 719.16 673.85 719.16 653.21 719.16 653.21 697.78"/>
  </g>
  <g id="_1401" data-name="1401">
    <polygon points="1824.52 363.52 1825.32 363.52 1825.32 392.77 1824.52 392.77 1824.52 433.27 1825.32 433.27 1825.32 462.52 1824.52 462.52 1824.52 469.28 1758.9 469.28 1758.9 462.52 1758.1 462.52 1758.1 433.27 1758.9 433.27 1758.9 392.77 1758.1 392.77 1758.1 363.52 1758.9 363.52 1758.9 328.55 1824.52 328.55 1824.52 363.52"/>
  </g>
  <g id="_1410.013" data-name="1410.013">
    <polygon points="1667.68 874.41 1667.68 889.03 1633.09 889.03 1633.09 842.42 1633.09 840.94 1633.09 840.9 1633.09 802.41 1667.68 802.41 1687.41 802.41 1687.51 802.41 1687.51 874.41 1667.68 874.41"/>
  </g>
  <g id="_1420.27a" data-name="1420.27a">
    <polygon points="617.25 457.98 635.74 457.98 635.74 506.32 624.91 506.32 605.36 506.32 605.36 457.98 617.25 457.98"/>
  </g>
  <g id="_1402" data-name="1402">
    <path d="M1899.99,226.97h17.72v101.39h-31.55v-5.72h-61.64v5.91h-65.62v-5.91h-41.46v.8h-48.49v21.09h20.97v59.18h-20.97v54.87h19.34v48.94h-18.46v2.95h52.98v33.75h-81.42v-140.51h-112.39v184.42h-59.45v-130.54h11.64v-22.64h-32.59v-207.98h17.44v-11.81h433.97v11.81ZM1567.77,247.85h14.77v-16.38h-14.77v16.38ZM1783.77,247.85h14.77v-16.38h-14.77v16.38Z"/>
  </g>
  <g id="_1402.005" data-name="1402.005">
    <polygon points="1584.58 408.14 1584.58 455.18 1584.58 501.42 1531.94 501.42 1531.94 408.14 1584.58 408.14"/>
  </g>
  <g id="_1402.002" data-name="1402.002">
    <rect x="1588.23" y="457.96" width="50.2" height="44.3"/>
  </g>
  <g id="_1402.001" data-name="1402.001">
    <rect x="1588.23" y="408.14" width="50.2" height="44.26"/>
  </g>
  <g id="_1420.35a" data-name="1420.35a">
    <polygon points="395.4 1299.2 395.4 1281.13 443.75 1281.13 443.75 1291.96 443.75 1311.51 442.69 1311.51 395.4 1311.51 395.4 1299.2"/>
  </g>
  <g id="_1420.34a" data-name="1420.34a">
    <polygon points="443.75 1119.48 443.75 1130.31 395.4 1130.31 395.4 1112.24 395.4 1099.94 443.75 1099.94 443.75 1119.48"/>
  </g>
  <g id="_1420.33a" data-name="1420.33a">
    <polygon points="395.4 1083.62 395.4 1065.13 443.75 1065.13 443.75 1075.96 443.75 1095.51 395.4 1095.51 395.4 1083.62"/>
  </g>
  <g id="_1420.32a" data-name="1420.32a">
    <polygon points="443.75 886.33 443.75 903.48 443.75 914.31 395.4 914.31 395.4 896.24 395.4 883.94 443.75 883.94 443.75 886.33"/>
  </g>
  <g id="_1410.023" data-name="1410.023">
    <polygon points="730.48 840.38 715.79 840.38 670.33 840.38 670.33 818.4 656.16 818.4 656.16 800.52 654.69 800.52 654.69 799.04 654.69 772.75 730.48 772.75 730.48 840.38"/>
  </g>
  <g id="_1410.054" data-name="1410.054">
    <polygon points="822.88 1295.86 776.14 1295.86 776.14 1241.86 822.88 1241.86 822.88 1279.48 822.88 1295.86"/>
  </g>
  <g id="_1410.046" data-name="1410.046">
    <polygon points="1043.4 1241.86 1193.81 1241.86 1193.81 1325.27 1143.15 1325.27 1043.4 1325.27 1043.4 1300.1 1043.4 1241.86"/>
  </g>
  <g id="_1410.020" data-name="1410.020">
    <polygon points="656.3 1136.08 722.68 1136.08 722.68 1195.46 721.36 1195.46 719.55 1195.46 717.97 1195.46 656.3 1195.46 656.3 1195.36 656.3 1136.08"/>
  </g>
  <g id="_1410.014" data-name="1410.014">
    <polygon points="1547.87 1057.21 1629.99 1057.21 1629.99 1086 1629.99 1132.24 1563.65 1132.24 1563.43 1132.24 1562.14 1132.24 1532.54 1132.24 1532.54 1130.94 1532.54 1117.41 1529.59 1117.41 1529.59 1129.64 1505.38 1129.64 1505.38 1117.41 1501.3 1117.41 1501.3 1130.94 1501.3 1132.24 1462.3 1132.24 1462.3 1105.24 1474.73 1105.24 1474.73 1057.21 1546 1057.21 1546.04 1057.21 1547.87 1057.21"/>
  </g>
  <g id="_1410.039" data-name="1410.039">
    <polygon points="1510.52 1241.86 1510.52 1295.86 1463.72 1295.86 1463.72 1279.48 1463.72 1241.86 1510.52 1241.86"/>
  </g>
  <g id="_1410.009" data-name="1410.009">
    <polygon points="1335.17 811.09 1335.13 811.09 1333.65 811.09 1280.19 811.09 1280.19 809.3 1280.19 771.82 1295.46 771.82 1295.46 722.11 1343.96 722.11 1343.96 811.09 1335.17 811.09"/>
  </g>
  <g id="_1410.010" data-name="1410.010">
    <polygon points="1381.92 752.35 1398.99 752.35 1400.9 752.35 1400.9 811.09 1346.91 811.09 1346.91 722.15 1346.91 722.11 1381.92 722.11 1381.92 752.35"/>
  </g>
  <g id="_1410.042" data-name="1410.042">
    <polygon points="1259.4 1241.86 1331.29 1241.86 1331.29 1318.01 1301.73 1318.01 1300.16 1318.01 1298.68 1318.01 1259.4 1318.01 1259.4 1300.1 1259.4 1241.86"/>
  </g>
  <g id="_1410.030" data-name="1410.030">
    <polygon points="823.23 1053.14 823.04 1053.14 812.45 1053.14 740.26 1053.14 740.26 948.8 823.23 948.8 823.23 1053.14"/>
  </g>
  <g id="_1410.053" data-name="1410.053">
    <polygon points="777.47 1137.2 823.23 1137.2 823.23 1195.46 725.63 1195.46 725.63 1137.2 750.61 1137.2 777.47 1137.2"/>
  </g>
  <g id="_1410.044" data-name="1410.044">
    <polygon points="1197.11 1325.27 1197.11 1241.86 1256.1 1241.86 1256.1 1299.22 1242.89 1299.22 1242.89 1325.27 1197.11 1325.27"/>
  </g>
  <g id="_1410.021" data-name="1410.021">
    <polygon points="811.57 1057.22 811.57 1106.12 825.27 1106.12 825.27 1133.12 778.95 1133.12 778.95 1131.82 778.95 1118.29 776 1118.29 776 1130.52 752.09 1130.52 752.09 1118.29 749.14 1118.29 749.14 1131.82 749.14 1133.12 724.16 1133.12 722.64 1133.12 656.3 1133.12 656.3 1085.63 656.3 1057.22 738.43 1057.22 740.26 1057.22 740.29 1057.22 811.57 1057.22"/>
  </g>
  <g id="_1410.037" data-name="1410.037">
    <polygon points="1463.07 1136.32 1503.34 1136.32 1531.06 1136.32 1560.66 1136.32 1560.66 1195.46 1463.07 1195.46 1463.07 1136.32"/>
  </g>
  <g id="_1410.035" data-name="1410.035">
    <polygon points="1546.04 949.36 1546.04 1053.13 1473.85 1053.13 1463.26 1053.13 1463.07 1053.13 1463.07 949.36 1546.04 949.36"/>
  </g>
  <g id="_1410.015" data-name="1410.015">
    <polygon points="1568.33 1195.46 1566.84 1195.46 1566.82 1195.46 1563.62 1195.46 1563.62 1135.2 1629.96 1135.2 1629.99 1135.2 1629.99 1195.36 1629.99 1195.46 1568.33 1195.46"/>
  </g>
  <g id="_1410.049" data-name="1410.049">
    <polygon points="1027.27 1195.28 955.01 1195.28 955.01 1111.75 1001.13 1111.75 1001.13 1087.91 1027.27 1087.91 1027.27 1110.31 1027.27 1193.37 1027.27 1195.28"/>
  </g>
  <g id="_1410.043" data-name="1410.043">
    <polygon points="1259.4 1084.78 1285.17 1084.78 1285.17 1111.92 1331.29 1111.92 1331.29 1195.46 1245.85 1195.46 1245.85 1111.92 1259.4 1111.92 1259.4 1084.78"/>
  </g>
  <g id="_1410.048" data-name="1410.048">
    <polygon points="1026.89 1318.01 987.62 1318.01 986.14 1318.01 984.57 1318.01 955.01 1318.01 955.01 1241.86 1040.1 1241.86 1040.1 1299.22 1026.89 1299.22 1026.89 1318.01"/>
  </g>
  <g id="_1410.001a" data-name="1410.001a">
    <rect x="1458.99" y="748.97" width="14.91" height="76.5"/>
  </g>
  <g id="_1410.012" data-name="1410.012">
    <polygon points="1618.88 840.94 1570.51 840.94 1555.81 840.94 1555.81 773.44 1633.09 773.44 1633.09 799.46 1633.09 800.93 1630.13 800.93 1630.13 840.94 1618.88 840.94"/>
  </g>
  <g id="_1420.29" data-name="1420.29">
    <path d="M359.3,440.02h.07v.07h6.91v-.07h12.62v18.84h5.85v96.47h-18.47v2.95h12.56v44.58h-123.05l-4.5-4.92h-17.72v-153h17.72v-4.92h108ZM274.09,598.22h10.12v-10.12h-10.12v10.12ZM274.09,454.78h10.12v-10.12h-10.12v10.12Z"/>
  </g>
  <g id="_1420.38a" data-name="1420.38a">
    <polygon points="624.91 1540.62 635.74 1540.62 635.74 1588.97 617.67 1588.97 605.36 1588.97 605.36 1560.98 605.36 1557.75 605.36 1540.62 624.91 1540.62"/>
  </g>
  <g id="_1420.46a" data-name="1420.46a">
    <polygon points="1488.91 1540.62 1499.74 1540.62 1499.74 1588.97 1481.25 1588.97 1469.36 1588.97 1469.36 1540.62 1488.91 1540.62"/>
  </g>
  <g id="_1420.44a" data-name="1420.44a">
    <polygon points="1272.91 1540.62 1283.74 1540.62 1283.74 1588.97 1265.25 1588.97 1253.36 1588.97 1253.36 1540.62 1272.91 1540.62"/>
  </g>
  <g id="_1420.45a" data-name="1420.45a">
    <polygon points="1452.63 1588.97 1434.56 1588.97 1434.56 1540.62 1445.39 1540.62 1464.93 1540.62 1464.93 1588.97 1452.63 1588.97"/>
  </g>
  <g id="_1420.42a" data-name="1420.42a">
    <polygon points="1037.36 1540.62 1056.91 1540.62 1067.74 1540.62 1067.74 1588.97 1049.25 1588.97 1037.36 1588.97 1037.36 1540.62"/>
  </g>
  <g id="_1420.43a" data-name="1420.43a">
    <polygon points="1236.63 1588.97 1218.56 1588.97 1218.56 1540.62 1229.39 1540.62 1248.93 1540.62 1248.93 1588.97 1236.63 1588.97"/>
  </g>
  <g id="_1420.40a" data-name="1420.40a">
    <polygon points="840.91 1540.62 851.74 1540.62 851.74 1588.97 833.53 1588.97 821.36 1588.97 821.36 1540.62 840.91 1540.62"/>
  </g>
  <g id="_1420.41a" data-name="1420.41a">
    <polygon points="1020.63 1588.97 1002.56 1588.97 1002.56 1540.62 1013.39 1540.62 1032.93 1540.62 1032.93 1588.97 1020.63 1588.97"/>
  </g>
  <g id="_1420.39a" data-name="1420.39a">
    <polygon points="804.63 1588.97 786.56 1588.97 786.56 1540.62 797.39 1540.62 816.93 1540.62 816.93 1588.97 804.63 1588.97"/>
  </g>
  <g id="_1420.51a" data-name="1420.51a">
    <polygon points="1890.89 1111.82 1890.89 1130.31 1842.55 1130.31 1842.55 1119.48 1842.55 1099.94 1890.89 1099.94 1890.89 1111.82"/>
  </g>
  <g id="_1420.49a" data-name="1420.49a">
    <polygon points="1890.61 1334.46 1878.8 1334.46 1878.8 1337.42 1891.91 1337.42 1893.25 1337.42 1901.3 1337.42 1901.3 1358.23 1880.49 1358.23 1880.49 1365.54 1844.49 1365.54 1844.49 1335.52 1844.49 1330.57 1844.49 1315.94 1890.61 1315.94 1890.61 1334.46"/>
  </g>
  <g id="_1420.53a" data-name="1420.53a">
    <polygon points="1890.89 895.82 1890.89 914.31 1842.55 914.31 1842.55 903.48 1842.55 883.94 1890.89 883.94 1890.89 895.82"/>
  </g>
  <g id="_1420.52a" data-name="1420.52a">
    <polygon points="1842.55 1075.96 1842.55 1065.13 1890.89 1065.13 1890.89 1083.2 1890.89 1095.51 1842.55 1095.51 1842.55 1075.96"/>
  </g>
  <g id="_1420.54a" data-name="1420.54a">
    <polygon points="1842.55 859.96 1842.55 849.13 1890.89 849.13 1890.89 867.2 1890.89 879.51 1842.55 879.51 1842.55 859.96"/>
  </g>
  <g id="_1420.21a" data-name="1420.21a">
    <polygon points="1265.39 457.98 1283.74 457.98 1283.74 506.32 1272.91 506.32 1253.36 506.32 1253.36 457.98 1265.39 457.98"/>
  </g>
  <g id="_1420.20a" data-name="1420.20a">
    <polygon points="1445.39 506.32 1434.56 506.32 1434.56 457.98 1452.63 457.98 1464.76 457.98 1464.76 506.32 1445.39 506.32"/>
  </g>
  <g id="_1420.25a" data-name="1420.25a">
    <polygon points="833.25 457.98 851.74 457.98 851.74 506.32 840.91 506.32 821.36 506.32 821.36 457.98 833.25 457.98"/>
  </g>
  <g id="_1420.26a" data-name="1420.26a">
    <polygon points="797.39 506.32 786.56 506.32 786.56 457.98 804.63 457.98 816.93 457.98 816.93 506.32 797.39 506.32"/>
  </g>
  <g id="_1410.038" data-name="1410.038">
    <polygon points="1513.12 1318.08 1513.12 1297.16 1513.82 1297.16 1513.82 1295.83 1513.82 1241.86 1568.33 1241.86 1575.99 1241.86 1575.99 1318.08 1513.12 1318.08"/>
  </g>
  <g id="_1420.48b" data-name="1420.48b">
    <polygon points="1836.42 1452.24 1836.42 1467.25 1839.38 1467.25 1839.38 1453.54 1902.33 1453.54 1902.33 1487.5 1854.5 1487.5 1815.61 1487.5 1815.61 1450.94 1836.42 1450.94 1836.42 1452.24"/>
  </g>
  <g id="_1420.47" data-name="1420.47">
    <polygon points="1577.36 1447.46 1680.94 1447.46 1680.94 1447.55 1680.94 1533.73 1660.51 1533.73 1660.51 1537.67 1647.61 1537.67 1647.61 1591.92 1667.75 1591.92 1667.75 1606.92 1655.38 1606.92 1577.36 1606.93 1577.36 1447.46"/>
  </g>
  <g id="_1420.46" data-name="1420.46">
    <polygon points="1482.55 1591.92 1502.7 1591.92 1502.7 1537.67 1489.79 1537.67 1489.79 1533.73 1469.36 1533.73 1469.36 1532.92 1469.36 1453.01 1473.34 1453.01 1473.34 1447.46 1572.93 1447.46 1572.93 1606.93 1494.92 1606.93 1482.55 1606.93 1482.55 1591.92"/>
  </g>
  <g id="_1420.45" data-name="1420.45">
    <polygon points="1361.36 1447.46 1461.03 1447.46 1461.03 1453.01 1464.93 1453.01 1464.93 1532.04 1444.51 1532.04 1444.51 1537.67 1431.61 1537.67 1431.61 1591.92 1451.75 1591.92 1451.75 1606.93 1439.38 1606.93 1361.36 1606.93 1361.36 1447.46"/>
  </g>
  <g id="_1420.44" data-name="1420.44">
    <polygon points="1266.55 1591.92 1286.7 1591.92 1286.7 1537.67 1273.79 1537.67 1273.79 1533.73 1253.36 1533.73 1253.36 1453.01 1257.34 1453.01 1257.34 1447.46 1356.93 1447.46 1356.93 1606.93 1278.93 1606.93 1266.55 1606.93 1266.55 1591.92"/>
  </g>
  <g id="_0039.014" data-name="0039.014">
    <polygon points="1741.7 492.82 1741.7 489.1 1748.45 489.1 1748.45 492.82 1755.15 492.82 1755.15 507.52 1748.08 507.52 1722.8 507.52 1700.59 507.52 1700.59 492.82 1714.7 492.82 1714.7 489.1 1721.45 489.1 1721.45 492.82 1741.7 492.82"/>
  </g>
  <g id="_1420.42" data-name="1420.42">
    <polygon points="1050.55 1591.92 1070.7 1591.92 1070.7 1537.67 1057.79 1537.67 1057.79 1533.73 1037.36 1533.73 1037.36 1453.01 1041.34 1453.01 1041.34 1447.46 1140.93 1447.46 1140.93 1606.93 1062.93 1606.93 1050.55 1606.93 1050.55 1591.92"/>
  </g>
  <g id="_1420.41" data-name="1420.41">
    <polygon points="929.54 1447.46 1029.03 1447.46 1029.03 1453.01 1032.93 1453.01 1032.93 1533.73 1012.51 1533.73 1012.51 1537.67 999.61 1537.67 999.61 1591.92 1019.75 1591.92 1019.75 1606.93 1007.38 1606.93 929.54 1606.93 929.54 1447.46"/>
  </g>
  <g id="_1420.40" data-name="1420.40">
    <polygon points="845.69 1606.93 834.83 1606.93 834.83 1606.89 834.83 1591.92 854.7 1591.92 854.7 1537.67 841.79 1537.67 841.79 1533.73 821.36 1533.73 821.36 1449.99 855.15 1449.99 855.15 1447.46 925.11 1447.46 925.11 1606.93 846.93 1606.93 845.69 1606.93"/>
  </g>
  <g id="_1420.39" data-name="1420.39">
    <polygon points="713.36 1447.46 814.19 1447.46 814.19 1450.16 816.93 1450.16 816.93 1451.9 816.93 1533.73 796.51 1533.73 796.51 1537.67 783.61 1537.67 783.61 1591.92 803.75 1591.92 803.75 1606.93 791.38 1606.93 713.36 1606.93 713.36 1447.46"/>
  </g>
  <g id="_1420.38" data-name="1420.38">
    <polygon points="618.55 1606.93 618.55 1591.92 638.69 1591.92 638.69 1537.66 625.79 1537.66 625.79 1533.73 605.36 1533.73 605.36 1447.55 605.36 1447.46 708.93 1447.46 708.93 1606.93 630.92 1606.93 618.55 1606.93"/>
  </g>
  <g id="_1420.35" data-name="1420.35">
    <polygon points="536.91 1207.94 536.91 1307.72 530.09 1307.72 530.09 1311.51 498.03 1311.51 450.64 1311.51 450.64 1291.08 446.7 1291.08 446.7 1278.18 392.45 1278.18 392.45 1298.32 377.45 1298.32 377.45 1285.95 377.45 1207.94 536.91 1207.94"/>
  </g>
  <g id="_1420.34" data-name="1420.34">
    <polygon points="377.45 1113.12 392.45 1113.12 392.45 1133.26 446.7 1133.26 446.7 1120.36 450.64 1120.36 450.64 1099.94 530.09 1099.94 530.09 1104.03 536.91 1104.03 536.91 1203.51 377.45 1203.51 377.45 1125.49 377.45 1113.12"/>
  </g>
  <g id="_1420.33" data-name="1420.33">
    <polygon points="536.91 991.94 536.91 1091.72 530.09 1091.72 530.09 1095.51 450.64 1095.51 450.64 1075.08 446.7 1075.08 446.7 1062.18 392.45 1062.18 392.45 1082.32 377.45 1082.32 377.45 1069.95 377.45 991.94 536.91 991.94"/>
  </g>
  <g id="_1420.32" data-name="1420.32">
    <polygon points="377.45 897.12 392.45 897.12 392.45 917.26 446.7 917.26 446.7 904.36 450.64 904.36 450.64 883.94 530.09 883.94 530.09 888.03 536.91 888.03 536.91 987.51 377.45 987.51 377.45 909.57 377.45 897.12"/>
  </g>
  <g id="_1420.31" data-name="1420.31">
    <polygon points="536.91 775.94 536.91 875.72 530.09 875.72 530.09 879.51 450.64 879.51 450.64 859.08 446.7 859.08 446.7 846.18 392.45 846.18 392.45 866.32 377.45 866.32 377.45 853.88 377.45 775.94 536.91 775.94"/>
  </g>
  <g id="_1420.48" data-name="1420.48">
    <polygon points="1765.63 1605.59 1765.63 1502.69 1802.67 1502.69 1802.67 1490.45 1813.57 1490.45 1853.03 1490.45 1853.03 1501.81 1855.98 1501.81 1855.98 1490.45 1903.21 1490.45 1908.85 1490.45 1908.85 1501.72 1890.89 1501.72 1890.89 1530.72 1908.85 1530.72 1908.85 1589.63 1877.77 1589.63 1877.77 1606.93 1845.93 1606.93 1845.93 1605.59 1765.63 1605.59"/>
  </g>
  <g id="_1420.49" data-name="1420.49">
    <polygon points="1903.21 1446.51 1837.9 1446.51 1813.57 1446.51 1764.15 1446.51 1749.38 1446.51 1749.38 1444.5 1749.38 1320.01 1754.87 1320.01 1754.87 1315.94 1787.84 1315.94 1787.84 1325.5 1788.69 1325.5 1788.69 1315.94 1835.66 1315.94 1835.66 1315.97 1835.66 1330.57 1835.66 1336.4 1840.41 1336.4 1840.41 1368.5 1883.44 1368.5 1883.44 1361.18 1902.6 1361.18 1908.85 1361.18 1908.85 1368.5 1908.85 1446.51 1903.21 1446.51"/>
  </g>
  <g id="_1420.50" data-name="1420.50">
    <polygon points="1908.85 1298.32 1893.85 1298.32 1893.85 1278.18 1839.59 1278.18 1839.59 1291.08 1835.66 1291.08 1835.66 1311.51 1788.27 1311.51 1754.87 1311.51 1754.87 1307.43 1749.38 1307.43 1749.38 1207.94 1908.85 1207.94 1908.85 1285.95 1908.85 1298.32"/>
  </g>
  <g id="_1420.51" data-name="1420.51">
    <polygon points="1749.38 1203.51 1749.38 1104.01 1754.87 1104.01 1754.87 1099.94 1835.66 1099.94 1835.66 1120.36 1839.59 1120.36 1839.59 1133.26 1893.85 1133.26 1893.85 1113.12 1908.85 1113.12 1908.85 1125.5 1908.85 1203.51 1749.38 1203.51"/>
  </g>
  <g id="_1420.52" data-name="1420.52">
    <polygon points="1893.85 1082.32 1893.85 1062.18 1839.59 1062.18 1839.59 1075.08 1835.66 1075.08 1835.66 1095.51 1754.87 1095.51 1754.87 1091.43 1749.38 1091.43 1749.38 991.94 1908.85 991.94 1908.85 1069.95 1908.85 1082.32 1893.85 1082.32"/>
  </g>
  <g id="_1420.53" data-name="1420.53">
    <polygon points="1749.38 987.51 1749.38 888.01 1754.87 888.01 1754.87 883.94 1835.66 883.94 1835.66 904.36 1839.59 904.36 1839.59 917.26 1893.85 917.26 1893.85 897.12 1908.85 897.12 1908.85 909.5 1908.85 987.51 1749.38 987.51"/>
  </g>
  <g id="_1420.54" data-name="1420.54">
    <polygon points="1893.85 866.32 1893.85 846.18 1839.59 846.18 1839.59 859.08 1835.66 859.08 1835.66 879.51 1754.87 879.51 1754.87 875.43 1749.38 875.43 1749.38 775.94 1908.85 775.94 1908.85 853.95 1908.85 866.32 1893.85 866.32"/>
  </g>
  <g id="_1420.55" data-name="1420.55">
    <polygon points="1749.38 771.51 1749.38 667.94 1768.16 667.94 1819.03 667.94 1835.66 667.94 1835.66 688.36 1839.59 688.36 1839.59 701.26 1893.85 701.26 1893.85 681.12 1908.85 681.12 1908.85 693.5 1908.85 771.51 1749.38 771.51"/>
  </g>
  <g id="_1420.21" data-name="1420.21">
    <polygon points="1266.69 440.05 1266.69 440.04 1277.69 440.02 1278.92 440.02 1356.93 440.02 1356.93 599.49 1253.36 599.49 1253.36 513.21 1273.79 513.21 1273.79 509.28 1286.69 509.28 1286.69 455.02 1266.69 455.02 1266.69 440.05"/>
  </g>
  <g id="_1420.22" data-name="1420.22">
    <polygon points="1235.75 440.02 1235.75 455.02 1215.61 455.02 1215.61 509.28 1228.51 509.28 1228.51 513.21 1248.93 513.21 1248.93 513.25 1248.93 597.41 1246.54 597.41 1244.05 597.41 1244.05 597.24 1243.16 597.24 1215.04 597.24 1215.04 599.49 1145.54 599.49 1145.54 440.02 1223.38 440.02 1235.75 440.02"/>
  </g>
  <g id="_1420.23" data-name="1420.23">
    <polygon points="1141.11 599.49 1041.3 599.49 1041.3 594 1037.36 594 1037.36 513.21 1057.79 513.21 1057.79 509.28 1070.69 509.28 1070.69 455.02 1050.55 455.02 1050.55 440.02 1062.92 440.02 1141.11 440.02 1141.11 599.49"/>
  </g>
  <g id="_1420.24" data-name="1420.24">
    <polygon points="1019.75 440.02 1019.75 455.02 999.61 455.02 999.61 509.28 1012.51 509.28 1012.51 513.21 1032.93 513.21 1032.93 594 1029 594 1029 599.49 929.36 599.49 929.36 440.02 1007.38 440.02 1019.75 440.02"/>
  </g>
  <g id="_1420.25" data-name="1420.25">
    <polygon points="924.93 599.49 825.3 599.49 825.3 594 821.36 594 821.36 513.21 841.79 513.21 841.79 509.28 854.69 509.28 854.69 455.02 834.55 455.02 834.55 440.02 846.92 440.02 924.93 440.02 924.93 599.49"/>
  </g>
  <g id="_1420.26" data-name="1420.26">
    <polygon points="803.75 440.02 803.75 455.02 783.61 455.02 783.61 509.28 796.51 509.28 796.51 513.21 816.93 513.21 816.93 594 813 594 813 599.49 713.36 599.49 713.36 440.02 791.38 440.02 803.75 440.02"/>
  </g>
  <g id="_1420.27" data-name="1420.27">
    <polygon points="708.93 599.49 609.3 599.49 609.3 594 605.36 594 605.36 513.21 625.79 513.21 625.79 509.28 638.69 509.28 638.69 455.02 618.55 455.02 618.55 440.02 630.92 440.02 708.93 440.02 708.93 599.49"/>
  </g>
  <g id="_1420.28" data-name="1420.28">
    <polygon points="587.75 440.02 587.75 455.02 567.61 455.02 567.61 509.28 580.51 509.28 580.51 513.21 600.93 513.21 600.93 594 597 594 597 599.49 539.87 599.49 497.54 599.49 497.54 536.66 497.54 440.02 575.38 440.02 587.75 440.02"/>
  </g>
  <g id="_1420.30" data-name="1420.30">
    <polygon points="377.45 681.12 392.45 681.12 392.45 701.26 446.7 701.26 446.7 688.36 450.64 688.36 450.64 667.94 536.82 667.94 536.91 667.94 536.91 771.51 377.45 771.51 377.45 693.57 377.45 681.12"/>
  </g>
  <g id="_0038.014" data-name="0038.014">
    <polygon points="1861.97 492.82 1861.97 489.1 1868.72 489.1 1868.72 492.82 1881.29 492.82 1881.29 502.35 1881.29 505.02 1881.29 507.66 1828.27 507.66 1828.27 492.82 1834.97 492.82 1834.97 489.1 1841.72 489.1 1841.72 492.82 1861.97 492.82"/>
  </g>
  <g id="_0040.014" data-name="0040.014">
    <polygon points="1552.16 886.08 1552.16 843.89 1555.85 843.89 1569.03 843.89 1569.03 886.08 1552.16 886.08"/>
  </g>
  <g id="_0047.014" data-name="0047.014">
    <polygon points="993.8 768.86 993.8 717.25 993.8 674.36 1006.46 674.36 1006.46 738.42 1006.46 768.86 993.8 768.86"/>
  </g>
  <g id="_0007.014" data-name="0007.014">
    <polygon points="1193.77 738.42 1277.23 738.42 1277.23 768.86 1280.19 768.86 1280.19 770.35 1277.23 770.35 1277.23 809.3 1267.11 809.3 1267.11 809.16 1246.86 809.16 1246.86 809.3 1193.77 809.3 1193.77 738.42"/>
  </g>
  <g id="_0037.014" data-name="0037.014">
    <polygon points="1618.88 843.89 1630.1 843.89 1630.13 843.89 1630.13 885.98 1630.13 886.08 1605 886.08 1601.97 886.08 1571.98 886.08 1571.98 843.89 1618.88 843.89"/>
  </g>
  <g id="_0031.014" data-name="0031.014">
    <polygon points="1400.24 1195.46 1334.24 1195.46 1334.24 1111.96 1334.24 1111.22 1400.9 1111.22 1400.9 1195.46 1400.24 1195.46"/>
  </g>
  <g id="_0030.014" data-name="0030.014">
    <polygon points="1400.8 1318.08 1364.77 1318.08 1361.75 1318.08 1334.24 1318.08 1334.24 1241.86 1400.24 1241.86 1400.9 1241.86 1400.9 1279.48 1400.9 1318.08 1400.8 1318.08"/>
  </g>
  <g id="_0026.014" data-name="0026.014">
    <polygon points="885.4 1241.86 951.65 1241.86 952.05 1241.86 952.05 1241.9 952.05 1317.97 952.05 1318.01 921.38 1318.01 918.36 1318.01 885.49 1318.01 885.4 1318.01 885.4 1279.48 885.4 1241.86"/>
  </g>
  <g id="_0027.014" data-name="0027.014">
    <polygon points="952.05 1111.22 952.05 1111.96 952.05 1195.42 952.05 1195.46 951.65 1195.46 885.4 1195.46 885.4 1111.22 952.05 1111.22"/>
  </g>
  <g id="_0042.014" data-name="0042.014">
    <polygon points="1332.18 859.05 1326.88 859.05 1294.27 859.05 1280.19 859.05 1280.19 814.05 1332.18 814.05 1332.18 814.08 1332.18 859.05"/>
  </g>
  <g id="_0043.014" data-name="0043.014">
    <polygon points="1280.19 674.36 1292.51 674.36 1292.51 719.12 1292.51 722.15 1292.51 768.87 1280.19 768.87 1280.19 674.36"/>
  </g>
  <g id="_0049.014" data-name="0049.014">
    <polygon points="734.14 883.82 734.14 886.08 717.27 886.08 717.27 886.05 717.27 843.33 730.45 843.33 734.14 843.33 734.14 883.82"/>
  </g>
  <g id="_0050.014" data-name="0050.014">
    <polygon points="656.16 885.98 656.16 821.36 656.2 821.36 667.38 821.36 667.38 843.33 714.31 843.33 714.31 886.08 683.2 886.08 680.18 886.08 656.16 886.08 656.16 885.98"/>
  </g>
  <g id="_0003.014" data-name="0003.014">
    <polygon points="1881.29 444.13 1881.29 489.1 1868.72 489.1 1861.97 489.1 1841.72 489.1 1834.97 489.1 1828.27 489.1 1828.27 470.75 1828.27 462.52 1828.27 433.27 1828.27 413.04 1881.29 413.04 1881.29 444.13"/>
  </g>
  <g id="_0001.014" data-name="0001.014">
    <polygon points="1828.27 392.77 1828.27 363.52 1828.27 326.39 1881.29 326.39 1881.29 331 1881.29 355.75 1881.29 413.04 1828.27 413.04 1828.27 392.77"/>
  </g>
  <g id="_0004.014" data-name="0004.014">
    <polygon points="1755.15 433.27 1755.15 462.52 1755.15 470.75 1755.15 489.1 1748.45 489.1 1741.7 489.1 1721.45 489.1 1714.7 489.1 1700.59 489.1 1700.59 413.04 1755.15 413.04 1755.15 433.27"/>
  </g>
  <g id="_0002.014" data-name="0002.014">
    <polygon points="1700.59 326.39 1755.15 326.39 1755.15 363.52 1755.15 392.77 1755.15 413.04 1700.59 413.04 1700.59 326.39"/>
  </g>
  <g id="_0005.014" data-name="0005.014">
    <polygon points="1193.77 679.4 1193.77 676.37 1193.77 669.8 1228.65 669.8 1229.77 669.8 1236.52 669.8 1240.11 669.8 1246.86 669.8 1267.11 669.8 1273.86 669.8 1275.32 669.8 1280.19 669.8 1280.19 674.36 1277.23 674.36 1277.23 738.42 1193.77 738.42 1193.77 679.4"/>
  </g>
  <g id="_0009.014" data-name="0009.014">
    <polygon points="1267.11 809.44 1267.11 809.3 1277.23 809.3 1277.23 812.57 1277.23 860.52 1277.23 877.64 1273.86 877.64 1267.11 877.64 1246.86 877.64 1240.11 877.64 1236.52 877.64 1229.77 877.64 1221.32 877.64 1193.77 877.64 1193.77 809.3 1246.86 809.3 1246.86 809.44 1267.11 809.44"/>
  </g>
  <g id="_0086.014" data-name="0086.014">
    <polygon points="1400.2 1108.27 1332.77 1108.27 1331.29 1108.27 1331.26 1108.27 1288.82 1108.27 1288.82 1084.82 1288.82 1081.8 1288.82 951.37 1288.82 948.87 1400.2 948.87 1400.2 1108.27"/>
  </g>
  <g id="_0010.014" data-name="0010.014">
    <polygon points="1039.44 809.44 1039.44 809.3 1092.52 809.3 1092.52 811.96 1092.52 877.64 1056.52 877.64 1049.77 877.64 1046.19 877.64 1039.44 877.64 1019.19 877.64 1012.44 877.64 1009.06 877.64 1009.06 850.49 1009.06 818.7 1009.06 809.3 1019.19 809.3 1019.19 809.44 1039.44 809.44"/>
  </g>
  <g id="_0008.014" data-name="0008.014">
    <polygon points="1092.52 805.21 1092.52 809.3 1039.44 809.3 1039.44 809.16 1019.19 809.16 1019.19 809.3 1009.06 809.3 1009.06 778.27 1009.06 770.34 1009.06 768.86 1009.06 768.82 1009.06 738.42 1092.52 738.42 1092.52 805.21"/>
  </g>
  <g id="_0006.014" data-name="0006.014">
    <polygon points="1009.06 674.39 1009.06 669.8 1010.97 669.8 1012.44 669.8 1019.19 669.8 1039.44 669.8 1046.19 669.8 1049.77 669.8 1056.52 669.8 1057.65 669.8 1092.52 669.8 1092.52 676.37 1092.52 679.4 1092.52 738.42 1009.06 738.42 1009.06 674.39"/>
  </g>
  <g id="_0017.014" data-name="0017.014">
    <polygon points="1549.55 768.01 1549.55 843.89 1549.55 843.93 1549.55 885.38 1477.55 885.38 1477.55 884.77 1477.55 827.26 1477.55 825.44 1477.55 749.01 1477.55 747.18 1477.55 722.81 1549.55 722.81 1549.55 768.01"/>
  </g>
  <g id="_0018.014" data-name="0018.014">
    <polygon points="808.74 776.08 808.74 777.9 808.74 843.56 808.74 845.74 808.74 873.8 808.74 875.63 808.74 882.28 808.74 885.38 736.74 885.38 736.74 843.37 736.74 843.33 736.74 767.32 736.74 722.81 808.74 722.81 808.74 776.08"/>
  </g>
  <g id="_0085.014" data-name="0085.014">
    <polygon points="1328.35 862 1335.13 862 1335.13 814.05 1343.93 814.05 1346.95 814.05 1400.86 814.05 1400.9 814.05 1400.9 847.62 1392.83 847.62 1392.83 869.14 1400.9 869.14 1400.9 885.98 1400.9 886.08 1328.35 886.08 1328.35 862"/>
  </g>
  <g id="_0084.014" data-name="0084.014">
    <polygon points="1549.7 1053.09 1549.7 949.4 1549.7 948.87 1601.97 948.87 1605 948.87 1629.29 948.87 1629.29 1053.55 1549.7 1053.55 1549.7 1053.09"/>
  </g>
  <g id="_0093.014" data-name="0093.014">
    <polygon points="946.17 952.03 962.21 952.03 988.02 952.03 997.48 952.03 997.48 1035.05 997.48 1038.07 997.48 1081.02 997.48 1088.12 997.48 1108.27 955.04 1108.27 955.01 1108.27 953.53 1108.27 886.1 1108.27 886.1 952.03 912.49 952.03 946.17 952.03"/>
  </g>
</svg>