<?xml version="1.0" encoding="UTF-8"?>
<svg id="Layer_1" data-name="Layer 1" xmlns="http://www.w3.org/2000/svg" xmlns:xlink="http://www.w3.org/1999/xlink" viewBox="0 0 2139.75 1923.75">
  <defs>
    <style>
      .cls-1 {
        fill: none;
        stroke: red;
        stroke-linecap: round;
        stroke-linejoin: round;
        stroke-width: .26px;
      }

      .cls-2 {
        isolation: isolate;
      }
    </style>
  </defs>
  <g id="Layer_1-2" data-name="Layer 1">
    <image class="cls-2" width="5760" height="4320" transform="translate(-289.38 -157.75) scale(.6)" xlink:href="../PDF and PNG/RCP/Level D.jpg"/>
  </g>
  <g id="room_boundaries" data-name="room boundaries">
    <g>
      <g id="LWPOLYLINE">
        <polygon class="cls-1" points="1931.19 334.96 1931.19 636.8 1987.84 636.8 1987.84 227.46 1931.19 227.46 1931.19 315.18 1931.19 334.96"/>
      </g>
      <g id="LWPOLYLINE-2">
        <polygon class="cls-1" points="1056.49 561.67 1079.2 561.67 1079.2 561.55 1079.2 547.47 1056.49 547.47 1056.49 561.55 1056.49 561.67"/>
      </g>
      <g id="LWPOLYLINE-3">
        <polygon class="cls-1" points="1155.95 547.61 1134.58 547.61 1134.58 561.55 1134.58 561.67 1155.95 561.67 1155.95 561.55 1155.95 547.61"/>
      </g>
      <g id="LWPOLYLINE-4">
        <rect class="cls-1" x="823.97" y="614.96" width="53.98" height="40.48"/>
      </g>
      <g id="LWPOLYLINE-5">
        <rect class="cls-1" x="1061.55" y="502.21" width="13.49" height="22.49"/>
      </g>
      <g id="LWPOLYLINE-6">
        <rect class="cls-1" x="1139.08" y="502.21" width="13.49" height="22.49"/>
      </g>
      <g id="LWPOLYLINE-7">
        <rect class="cls-1" x="1680.84" y="870.15" width="15.74" height="15.74"/>
      </g>
      <g id="LWPOLYLINE-8">
        <rect class="cls-1" x="1061.55" y="502.21" width="13.49" height="22.49"/>
      </g>
      <g id="LWPOLYLINE-9">
        <rect class="cls-1" x="1139.08" y="502.21" width="13.49" height="22.49"/>
      </g>
      <g id="LWPOLYLINE-10">
        <rect class="cls-1" x="1132.99" y="221.84" width="10.12" height="9"/>
      </g>
      <g id="LWPOLYLINE-11">
        <polygon class="cls-1" points="1056.49 562.79 1056.49 547.47 1079.2 547.47 1079.2 562.79 1134.58 562.79 1134.58 547.61 1155.95 547.61 1155.95 562.79 1204.58 562.79 1204.58 224.85 1204.58 221.84 1028.66 221.84 1028.66 452.94 1028.66 562.79 1056.49 562.79"/>
      </g>
      <g id="LWPOLYLINE-12">
        <rect class="cls-1" x="818.3" y="655.36" width="13.49" height="13.49"/>
      </g>
      <g id="LWPOLYLINE-13">
        <rect class="cls-1" x="818.3" y="871.27" width="13.49" height="13.49"/>
      </g>
      <g id="LWPOLYLINE-14">
        <rect class="cls-1" x="818.3" y="1087.19" width="13.49" height="13.49"/>
      </g>
      <g id="LWPOLYLINE-15">
        <rect class="cls-1" x="818.3" y="1303.1" width="13.49" height="13.49"/>
      </g>
      <g id="LWPOLYLINE-16">
        <rect class="cls-1" x="811.55" y="1586.49" width="26.99" height="13.49"/>
      </g>
      <g id="LWPOLYLINE-17">
        <rect class="cls-1" x="1464.36" y="1080.44" width="16.02" height="24.5"/>
      </g>
      <g id="LWPOLYLINE-18">
        <polygon class="cls-1" points="1361.04 1021.26 1361.04 1017.18 1434.28 1017.18 1454.52 1017.18 1454.52 1021.26 1434.28 1021.26 1361.04 1021.26"/>
      </g>
      <g id="LWPOLYLINE-19">
        <polygon class="cls-1" points="1479.54 1021.26 1479.54 1017.18 1552.78 1017.18 1573.02 1017.18 1573.02 1021.26 1552.78 1021.26 1479.54 1021.26"/>
      </g>
      <g id="LWPOLYLINE-20">
        <rect class="cls-1" x="1458.17" y="1585.65" width="29.24" height="15.18"/>
      </g>
      <g id="LWPOLYLINE-21">
        <rect class="cls-1" x="1674.09" y="1578.9" width="29.24" height="21.93"/>
      </g>
      <g id="LWPOLYLINE-22">
        <rect class="cls-1" x="1465.2" y="1302.26" width="15.18" height="15.18"/>
      </g>
      <g id="LWPOLYLINE-23">
        <rect class="cls-1" x="1674.44" y="1359.05" width="41.75" height="2.95"/>
      </g>
      <g id="LWPOLYLINE-24">
        <rect class="cls-1" x="1742.9" y="1359.05" width="21.86" height="2.95"/>
      </g>
      <g id="LWPOLYLINE-25">
        <rect class="cls-1" x="1791.46" y="1359.05" width="21.86" height="2.95"/>
      </g>
      <g id="LWPOLYLINE-26">
        <rect class="cls-1" x="1840.03" y="1359.05" width="27.48" height="2.95"/>
      </g>
      <g id="LWPOLYLINE-27">
        <rect class="cls-1" x="1242.31" y="438.32" width="29.24" height="15.74"/>
      </g>
      <g id="LWPOLYLINE-28">
        <polygon class="cls-1" points="1249.57 221.8 1211.33 221.8 1211.33 560.33 1451.64 560.33 1451.64 221.8 1264.19 221.8 1264.19 237.02 1249.57 237.02 1249.57 221.8"/>
      </g>
      <g id="LWPOLYLINE-29">
        <rect class="cls-1" x="1674.09" y="438.32" width="29.24" height="15.74"/>
      </g>
      <g id="LWPOLYLINE-30">
        <polygon class="cls-1" points="1486.71 671.49 1486.71 722.97 1510.75 722.97 1547.86 722.97 1555.13 722.97 1587.18 722.97 1587.18 655.36 1679.68 655.36 1680.77 655.36 1683.06 655.36 1694.35 655.36 1696.65 655.36 1697.74 655.36 1823.66 655.36 1823.66 700.92 1846.01 700.92 1891.13 700.92 1891.13 679.27 1891.13 676.15 1891.13 675.89 1891.13 636.86 1913.06 636.86 1913.06 636.77 1913.06 452.94 1897.88 452.94 1897.88 439.44 1913.06 439.44 1913.06 353.41 1897.88 353.41 1897.88 339.92 1913.06 339.92 1913.06 227.5 1913.06 221.84 1625.94 221.84 1625.94 221.8 1480.1 221.8 1480.1 237.02 1473.97 237.02 1473.97 438.32 1487.47 438.32 1487.47 454.06 1473.99 454.06 1473.99 560.26 1483.83 560.26 1483.83 562.81 1483.85 562.81 1483.85 563.76 1489.71 563.73 1489.71 658.06 1486.71 658.06 1486.71 668.82 1486.71 671.45 1486.71 671.49"/>
      </g>
    </g>
  </g>
  <g id="_0080.001" data-name=" 0080.001">
    <g id="LWPOLYLINE-31">
      <polygon points="1916.64 776.39 1916.64 682.4 1897.38 682.4 1897.38 707.17 1848.4 707.17 1848.4 860.38 1897.91 860.38 1911.34 860.38 1916.64 860.38 1916.64 790.16 1916.64 776.39"/>
    </g>
  </g>
  <g id="_0043.00D" data-name=" 0043.00D">
    <g id="LWPOLYLINE-32">
      <polygon points="1285.55 765.21 1298.22 765.21 1298.22 670.74 1285.55 670.74 1285.55 735.46 1285.55 765.21"/>
    </g>
  </g>
  <g id="D13">
    <polyline points="249.75 221.84 1023.75 221.84 1023.75 655.36 994.5 655.36 994.5 949.78 1031.25 949.78 1031.25 1465.12 989.25 1465.12 989.25 1602.75 595.69 1602.75 595.69 1589.8 413.44 1589.8 413.44 1065.66 249.75 1065.66"/>
  </g>
  <g id="_0047.00D" data-name=" 0047.00D">
    <g id="LWPOLYLINE-33">
      <polygon points="1012.28 669.86 1001.11 669.86 1001.11 765.2 1012.28 765.2 1012.28 734.74 1012.28 669.86"/>
    </g>
  </g>
  <g id="_0046.00A" data-name=" 0046.00A">
    <g id="LWPOLYLINE-34">
      <polygon points="1001.11 768.16 1001.11 873.94 1011.93 873.94 1011.93 808.87 1011.93 802.1 1011.93 768.16 1001.11 768.16"/>
    </g>
  </g>
  <g id="_0009.00D" data-name=" 0009.00D">
    <g id="LWPOLYLINE-35">
      <polygon points="1253.71 805.77 1253.71 804.8 1199.52 804.8 1199.52 871.06 1199.52 873.94 1234.38 873.94 1243.38 873.94 1244.74 873.94 1253.71 873.94 1271.71 873.94 1280.67 873.94 1281.04 873.94 1282.74 873.94 1282.95 873.94 1282.95 870.16 1282.95 810.58 1282.95 806.86 1282.95 804.8 1271.71 804.8 1271.71 805.77 1253.71 805.77"/>
    </g>
  </g>
  <g id="_0007.00D" data-name=" 0007.00D">
    <g id="LWPOLYLINE-36">
      <polygon points="1282.95 735.46 1199.52 735.46 1199.52 804.8 1253.71 804.8 1271.71 804.8 1282.95 804.8 1282.95 766.69 1282.95 765.21 1282.95 765.18 1282.95 735.46"/>
    </g>
  </g>
  <g id="_0005.00D" data-name=" 0005.00D">
    <g id="LWPOLYLINE-37">
      <polygon points="1199.52 735.46 1282.95 735.46 1282.95 670.77 1282.95 666.18 1281.04 666.18 1280.67 666.18 1271.71 666.18 1253.71 666.18 1244.74 666.18 1243.38 666.18 1234.38 666.18 1199.52 666.18 1199.52 735.46"/>
    </g>
  </g>
  <g id="D03">
    <g id="LWPOLYLINE-38">
      <polygon points="1196.57 660.28 1101.26 660.28 1101.26 662.42 1101.26 666.22 1101.26 734.74 1101.26 802.82 1101.26 871.06 1196.57 871.06 1196.57 807.85 1196.57 801.75 1196.57 735.46 1196.57 666.22 1196.57 662.42 1196.57 660.28"/>
    </g>
  </g>
  <g id="_0006.00D" data-name=" 0006.00D">
    <g id="LWPOLYLINE-39">
      <polygon points="1014.88 734.74 1098.31 734.74 1098.31 666.18 1063.45 666.18 1054.45 666.18 1053.09 666.18 1044.12 666.18 1026.13 666.18 1017.16 666.18 1014.88 666.18 1014.88 669.86 1014.88 734.74"/>
    </g>
  </g>
  <g id="_0008.00D" data-name=" 0008.00D">
    <g id="LWPOLYLINE-40">
      <polygon points="1098.31 734.74 1014.88 734.74 1014.88 765.17 1014.88 765.2 1014.88 766.68 1014.88 802.82 1026.13 802.82 1044.12 802.82 1098.31 802.82 1098.31 734.74"/>
    </g>
  </g>
  <g id="_0010.00D" data-name=" 0010.00D">
    <g id="LWPOLYLINE-41">
      <polygon points="1098.31 802.82 1044.12 802.82 1044.12 805.77 1026.13 805.77 1026.13 802.82 1014.88 802.82 1014.88 869.25 1014.88 873.94 1017.16 873.94 1026.13 873.94 1044.12 873.94 1053.09 873.94 1054.45 873.94 1063.45 873.94 1098.31 873.94 1098.31 868.01 1098.31 802.82"/>
    </g>
  </g>
  <g id="D11">
    <g id="LWPOLYLINE-42">
      <polygon points="1014.92 888.14 1011.93 888.14 1011.9 888.14 1002.87 888.14 1002.87 941.49 1035.76 941.49 1035.76 945.49 1039.91 945.49 1039.91 941.52 1073.66 941.52 1073.66 888.14 1014.92 888.14"/>
    </g>
  </g>
  <g id="_0040.00D" data-name=" 0040.00D">
    <g id="LWPOLYLINE-43">
      <polygon points="1583.55 840.21 1557.77 840.21 1557.77 874.26 1557.77 882.38 1583.55 882.38 1583.55 880.52 1583.55 840.21"/>
    </g>
  </g>
  <g id="_0033.00D" data-name=" 0033.00D">
    <g id="LWPOLYLINE-44">
      <polygon points="1378.24 1199.36 1400.12 1199.36 1400.12 1163.85 1400.12 1163.81 1378.98 1163.81 1378.24 1163.81 1378.24 1182 1378.24 1184.68 1378.24 1199.36"/>
    </g>
  </g>
  <g id="_0034.00D" data-name=" 0034.00D">
    <g id="LWPOLYLINE-45">
      <polygon points="1571.44 1198.1 1553.51 1198.1 1553.48 1198.1 1553.48 1216.23 1553.51 1216.23 1571.44 1216.23 1571.44 1216.2 1571.44 1198.1"/>
    </g>
  </g>
  <g id="_0085.00D" data-name=" 0085.00D">
    <g id="LWPOLYLINE-46">
      <polygon points="1402.3 880.55 1402.3 810.55 1400.43 810.55 1285.9 810.55 1285.9 870.19 1300.79 870.19 1300.79 880.55 1402.3 880.55"/>
    </g>
  </g>
  <g id="_0086.00D" data-name=" 0086.00D">
    <g id="LWPOLYLINE-47">
      <polygon points="1398.57 663.09 1301.17 663.09 1301.17 669.26 1301.17 670.74 1301.17 670.77 1301.17 768.16 1285.9 768.16 1285.9 804.8 1285.9 806.89 1398.57 806.89 1398.57 755.98 1402.3 755.98 1402.3 733.49 1398.57 733.49 1398.57 663.09"/>
    </g>
  </g>
  <g id="D10a">
    <g id="LWPOLYLINE-48">
      <polygon points="1478.41 727.12 1478.41 671.45 1463.44 671.45 1463.44 663.09 1407.08 663.09 1407.08 733.49 1407.08 755.98 1407.08 808.72 1407.08 881.25 1464.08 881.25 1464.08 881.06 1464.08 868.03 1478.33 868.03 1478.41 868.03 1478.41 727.12"/>
    </g>
  </g>
  <g id="_0017.00D" data-name=" 0017.00D">
    <rect x="1483.88" y="731.01" width="69.6" height="139.14"/>
  </g>
  <g id="_0084.00D" data-name=" 0084.00D">
    <g id="LWPOLYLINE-49">
      <polygon points="1558.82 731.01 1558.82 731.3 1558.82 837.25 1586.5 837.25 1586.5 880.55 1640.46 880.55 1640.48 880.55 1640.53 731.01 1558.82 731.01"/>
    </g>
  </g>
  <g id="_0081.00D" data-name=" 0081.00D">
    <polygon points="1640.53 722.97 1640.53 725.11 1644.78 725.11 1644.78 885.29 1644.78 885.37 1644.78 940.29 1674.3 940.29 1916.64 940.29 1916.64 892.64 1897.03 892.64 1897.03 865.16 1843.62 865.16 1843.62 707.17 1817.4 707.17 1817.4 661.61 1698.83 661.61 1698.83 671.1 1678.59 671.1 1678.59 661.61 1593.44 661.61 1593.44 722.97 1640.53 722.97"/>
  </g>
  <g id="D10">
    <g id="LWPOLYLINE-50">
      <polygon points="1402.72 883.92 1402.72 885.33 1300.83 885.33 1298.68 885.33 1287.81 885.33 1285.9 885.33 1282.92 885.33 1252.8 885.33 1252.8 939.83 1331.9 939.83 1640.49 939.83 1640.49 885.33 1586.53 885.33 1586.5 885.33 1583.51 885.33 1557.8 885.33 1556.47 885.33 1481.72 885.33 1479.19 885.33 1478.33 885.33 1468.76 885.33 1467.03 885.33 1465.38 883.92 1402.72 883.92"/>
    </g>
  </g>
  <g id="D20.002">
    <g id="LWPOLYLINE-51">
      <polygon points="1316.76 1269.23 1316.76 1200.42 1312.36 1200.42 1252.8 1200.42 1252.8 1269.23 1316.76 1269.23"/>
    </g>
  </g>
  <g id="_0015.00D" data-name=" 0015.00D">
    <g id="LWPOLYLINE-52">
      <polygon points="1400.12 1220.84 1400.12 1202.32 1376.76 1202.32 1373.23 1202.32 1319.71 1202.32 1319.71 1269.19 1319.71 1269.23 1400.12 1269.23 1400.12 1230.06 1400.12 1223.86 1400.12 1220.84"/>
    </g>
  </g>
  <g id="D21.003">
    <g id="LWPOLYLINE-53">
      <polygon points="1375.29 1182.04 1375.29 1162.33 1375.29 1160.85 1375.29 1160.82 1375.29 1147.35 1331.9 1147.35 1314.19 1147.35 1314.19 1196.76 1314.85 1196.76 1316.76 1196.76 1368.54 1196.76 1368.54 1182.04 1375.29 1182.04"/>
    </g>
  </g>
  <g id="D09">
    <g id="LWPOLYLINE-54">
      <rect x="1252.8" y="1147.35" width="57.73" height="49.42"/>
    </g>
  </g>
  <g id="D21.006">
    <g id="LWPOLYLINE-55">
      <rect x="1252.8" y="1040.35" width="77.62" height="38.9"/>
    </g>
  </g>
  <g id="D21.002">
    <g id="LWPOLYLINE-56">
      <polyline points="1264.82 1082.81 1264.82 1108.56 1252.8 1108.56 1252.8 1143.69 1312.36 1143.69 1330.42 1143.69 1330.42 1103.64 1330.42 1081.74 1330.42 1083.19"/>
    </g>
  </g>
  <g id="D21.001">
    <g id="LWPOLYLINE-57">
      <polygon points="1330.42 944.61 1252.8 944.61 1252.8 946.06 1252.8 1037.4 1330.42 1037.4 1330.42 944.61"/>
    </g>
  </g>
  <g id="D21.005">
    <g id="LWPOLYLINE-58">
      <polygon points="1553.48 1195.15 1574.39 1195.15 1574.39 1216.23 1672.82 1216.23 1672.82 1148.38 1553.48 1148.38 1553.48 1162.32 1553.48 1163.85 1553.48 1195.15"/>
    </g>
  </g>
  <g id="D21">
    <g id="LWPOLYLINE-59">
      <polygon points="1378.94 1160.85 1401.59 1160.85 1402.94 1163.85 1403.07 1163.85 1403.07 1160.84 1416 1160.84 1416 1163.85 1538.16 1163.85 1538.16 1160.84 1550.53 1160.84 1550.53 1148.38 1550.53 1140.04 1553.48 1140.04 1553.48 1148.38 1672.82 1148.38 1672.82 1100.65 1672.82 1087.22 1672.82 944.58 1642.64 944.58 1642.64 944.61 1333.38 944.61 1333.38 1038.87 1333.38 1051.95 1333.38 1080.44 1339.35 1080.44 1339.35 1104.94 1333.38 1104.94 1333.38 1143.69 1378.94 1143.69 1378.94 1160.85"/>
    </g>
  </g>
  <g id="D20.003">
    <g id="LWPOLYLINE-60">
      <polygon points="1574.39 1219.18 1572.92 1219.18 1553.48 1219.18 1553.48 1222.35 1553.48 1230.06 1553.48 1302.82 1651.04 1302.82 1651.04 1314.01 1654.27 1314.01 1654.27 1316.97 1651.04 1316.97 1651.04 1324.47 1681.12 1324.47 1681.12 1316.97 1674.51 1316.97 1674.51 1314.01 1681.12 1314.01 1681.12 1302.26 1697.14 1302.26 1697.14 1321.53 1716.19 1321.53 1716.19 1324.47 1742.9 1324.47 1742.9 1321.53 1764.76 1321.53 1764.76 1324.47 1791.46 1324.47 1791.46 1321.53 1813.32 1321.53 1813.32 1324.47 1840.03 1324.47 1840.03 1321.53 1862.17 1321.53 1862.17 1324.47 1888.88 1324.47 1888.88 1321.53 1897.03 1321.53 1897.03 1296.99 1897.03 1295.51 1897.03 1274.22 1916.64 1274.22 1916.64 1108.56 1909.68 1108.56 1897.03 1108.56 1897.03 1079.32 1909.68 1079.32 1916.64 1079.32 1916.64 944.58 1675.78 944.58 1675.78 1086.35 1696.3 1086.35 1696.3 1101.53 1675.78 1101.53 1675.78 1148.38 1675.78 1219.18 1574.43 1219.18 1574.39 1219.18"/>
    </g>
  </g>
  <g id="D20">
    <g id="LWPOLYLINE-61">
      <polygon points="1348.82 1589.17 1348.82 1711.81 1533.7 1711.81 1553.73 1711.81 1553.73 1783.5 1568.21 1783.5 1568.21 1802.9 1553.73 1802.9 1553.73 1816.68 1681.12 1816.68 1681.12 1794.75 1696.3 1794.75 1696.3 1816.68 1874.82 1816.68 1874.82 1794.75 1916.64 1794.75 1916.64 1643.62 1916.64 1600.83 1883.26 1600.83 1883.26 1585.65 1909.68 1585.65 1909.68 1526.89 1897.03 1526.89 1897.03 1497.65 1909.68 1497.65 1916.64 1497.65 1916.64 1362 1894.22 1362 1894.22 1359.05 1916.64 1359.05 1916.64 1324.47 1888.88 1324.47 1862.17 1324.47 1840.03 1324.47 1813.32 1324.47 1791.46 1324.47 1764.76 1324.47 1742.9 1324.47 1716.19 1324.47 1678.61 1324.47 1651.04 1324.47 1651.04 1359.05 1654.27 1359.05 1654.27 1362 1646.96 1362 1646.96 1327.52 1646.96 1321.42 1646.96 1315.49 1646.96 1305.78 1550.53 1305.78 1550.53 1230.06 1538.16 1230.06 1416 1230.06 1403.07 1230.06 1403.07 1272.18 1318.23 1272.18 1316.76 1272.18 1316.72 1272.18 1252.8 1272.18 1252.8 1295.23 1264.75 1295.23 1264.75 1324.47 1252.8 1324.47 1252.8 1424.56 1390.87 1424.56 1403.07 1424.56 1403.07 1447.37 1403.07 1514.21 1403.07 1517.33 1403.07 1528.3 1420.58 1528.3 1420.58 1549.98 1420.58 1589.17 1404.63 1589.17 1403.07 1589.17 1401.24 1589.17 1348.82 1589.17"/>
    </g>
  </g>
  <g id="D07.001">
    <g id="LWPOLYLINE-62">
      <polygon points="1039.91 1109.68 1039.91 1293.83 1049.18 1293.83 1049.18 1325 1049.18 1351.18 1115.11 1351.18 1134.19 1351.18 1134.37 949.78 1075.14 949.78 1039.91 949.78 1039.91 1079.04 1049.18 1079.04 1049.18 1109.68 1039.91 1109.68"/>
    </g>
  </g>
  <g id="D07">
    <g id="LWPOLYLINE-63">
      <polygon points="1124.92 1464.27 1124.92 1465.54 1128.18 1465.54 1128.18 1464.27 1128.22 1464.27 1134.19 1464.27 1134.19 1518.46 1128.11 1518.46 1128.11 1545.59 1224.04 1545.59 1224.04 1515.51 1241.93 1515.51 1243.26 1515.51 1249.14 1515.51 1249.14 1514.21 1249.14 1426.03 1249.14 1323.59 1249.14 1296.11 1249.14 1270.7 1249.14 1198.59 1249.14 1145.52 1249.14 1107.68 1249.14 1079.96 1249.14 1051.95 1249.14 1038.87 1249.14 946.06 1249.14 942.22 1249.19 942.22 1249.19 885.33 1201.43 885.33 1196.57 885.33 1196.57 879.9 1196.57 875.81 1196.57 871.06 1101.26 871.06 1101.26 877.7 1101.26 882.72 1101.26 888.14 1096.4 888.14 1076.62 888.14 1076.62 942.82 1076.62 945.49 1134.37 945.49 1134.19 1354.13 1116.59 1354.13 1116.59 1384.07 1122.76 1384.07 1134.19 1384.07 1134.19 1387.03 1124.63 1387.03 1124.63 1429.48 1134.19 1429.48 1134.19 1432.43 1122.76 1432.43 1116.63 1432.43 1116.63 1464.27 1124.92 1464.27"/>
    </g>
  </g>
  <g id="D08">
    <g id="LWPOLYLINE-64">
      <polygon points="1049.18 1405.3 1113.68 1405.3 1113.68 1385.37 1113.63 1385.37 1113.63 1354.13 1049.18 1354.13 1049.18 1405.3"/>
    </g>
  </g>
  <g id="D06">
    <g id="LWPOLYLINE-65">
      <polygon points="1049.18 1461.67 1113.68 1461.67 1113.68 1431.13 1113.68 1410.5 1049.18 1410.5 1049.18 1461.67"/>
    </g>
  </g>
  <g id="D20.001">
    <g id="LWPOLYLINE-66">
      <polygon points="1252.8 1427.51 1252.8 1512.91 1400.12 1512.91 1400.12 1448.67 1389.57 1448.67 1389.57 1427.51 1252.8 1427.51"/>
    </g>
  </g>
  <g id="_0019.00D" data-name=" 0019.00D">
    <g id="LWPOLYLINE-67">
      <polygon points="1399.41 1585.51 1399.41 1584.9 1399.41 1550.9 1399.41 1549.07 1399.41 1530.09 1399.41 1528.27 1399.41 1519.16 1249.11 1519.16 1244.56 1519.16 1244.56 1546.26 1244.56 1547.77 1244.56 1585.51 1271.02 1585.51 1272 1585.51 1347.35 1585.51 1399.41 1585.51"/>
    </g>
  </g>
  <g id="_0013.00D" data-name=" 0013.00D">
    <g id="LWPOLYLINE-68">
      <polygon points="1272 1657.42 1345.66 1657.42 1345.66 1605.05 1314.73 1605.05 1314.73 1601.33 1345.66 1601.33 1345.66 1589.8 1272 1589.8 1272 1601.33 1305.74 1601.33 1305.74 1605.05 1272 1605.05 1272 1657.42"/>
    </g>
  </g>
  <g id="_0014.00D" data-name=" 0014.00D">
    <g id="LWPOLYLINE-69">
      <rect x="1272" y="1657.42" width="73.66" height="58.68"/>
    </g>
  </g>
  <g id="_0011.00D" data-name=" 0011.00D">
    <g id="LWPOLYLINE-70">
      <polygon points="1058.67 1515.79 1058.67 1468.56 1047.88 1468.56 1034.81 1468.56 1031.58 1468.56 995.7 1468.56 995.7 1515.79 1058.67 1515.79"/>
    </g>
  </g>
  <g id="_0012.00D" data-name=" 0012.00D">
    <g id="LWPOLYLINE-71">
      <polygon points="1058.67 1468.56 1058.67 1515.79 1119.56 1515.79 1121.65 1515.79 1121.65 1468.56 1115.15 1468.56 1058.67 1468.56"/>
    </g>
  </g>
  <g id="D04">
    <g id="LWPOLYLINE-72">
      <polygon points="1058.67 1519.86 991.09 1519.86 991.09 1582.42 997.45 1582.42 997.45 1585.65 1027.22 1585.65 1054.7 1585.65 1121.65 1585.65 1121.65 1519.86 1058.67 1519.86"/>
    </g>
  </g>
  <g id="D05">
    <g id="LWPOLYLINE-73">
      <polygon points="652.99 1610.18 648.09 1610.18 522.89 1711.81 737.1 1711.81 818.3 1711.81 933 1711.81 989.16 1711.81 1063.24 1711.81 1201.99 1711.81 1267.92 1711.81 1267.92 1600.86 1240.91 1600.86 1240.91 1586.56 1240.91 1585.51 1240.91 1585.48 1240.91 1549.24 1225.51 1549.24 1224.04 1549.24 1224 1549.24 1128.11 1549.24 1128.11 1586.95 1128.11 1601.85 1128.11 1601.89 1128.11 1604.03 1128.11 1610.18 996.33 1610.18 989.12 1610.18 795.66 1610.18 652.99 1610.18"/>
    </g>
  </g>
  <g id="D05.001">
    <g id="LWPOLYLINE-74">
      <polygon points="403.05 1607.17 274.57 1607.17 274.57 1610.18 249.69 1610.18 246.91 1669.93 254.12 1669.93 254.12 1716.05 510.86 1716.05 644.99 1607.17 587.34 1607.17 403.05 1607.17"/>
    </g>
  </g>
  <g id="_0021.00D" data-name=" 0021.00D">
    <g id="LWPOLYLINE-75">
      <rect x="323.49" y="1375.08" width="59.6" height="80.97"/>
    </g>
  </g>
  <g id="D30.001">
    <polyline points="249.83 1324.47 249.83 1579.75 274.57 1579.75 274.57 1596.62 374.66 1596.62 374.66 1579.75 374.66 1541.51 374.66 1483.03 374.66 1462.79 316.74 1462.79 316.74 1368.33 374.66 1368.33 374.66 1339.09 374.66 1324.47 372.93 1324.47 268.42 1324.47 266.7 1324.47 249.83 1324.47"/>
  </g>
  <g id="D30">
    <g id="LWPOLYLINE-76">
      <polygon points="270.14 1305.28 371.21 1305.28 371.21 1277.17 404.6 1277.17 404.6 1126.62 371.21 1126.62 371.21 1083.89 270.21 1083.89 270.21 1085.5 270.21 1105.81 254.12 1105.81 254.12 1297.97 270.14 1297.97 270.14 1305.28"/>
    </g>
  </g>
</svg>