<?xml version="1.0" encoding="UTF-8"?>
<svg xmlns="http://www.w3.org/2000/svg" xmlns:xlink="http://www.w3.org/1999/xlink" viewBox="0 0 2066.09 1831.3">
  <g id="Layer_1" data-name="Layer 1">
    <image width="5760" height="4320" transform="translate(-300.87 -192.87) scale(.6)" xlink:href="../PDF and PNG/RCP/Level 6.jpg"/>
  </g>
  <g id="_0610.003b" data-name="0610.003b">
    <g id="LWPOLYLINE">
      <polygon points="1231.5 1550.91 1240.65 1550.91 1240.65 1494.65 1168.64 1494.65 1167.72 1493.08 1165.33 1493.14 1105.2 1494.76 1105.2 1550.91 1112.59 1550.91 1112.59 1565.22 1112.59 1566.1 1112.59 1570.6 1231.5 1570.6 1231.5 1566.1 1231.5 1565.22 1231.5 1550.91"/>
    </g>
  </g>
  <g id="_0610.008" data-name="0610.008">
    <g id="LWPOLYLINE-2" data-name="LWPOLYLINE">
      <polygon points="374.41 1550.91 389.6 1550.91 389.6 1566.1 583.41 1566.1 583.41 1550.91 612.66 1550.91 612.66 1566.1 799.44 1566.1 799.44 1550.91 828.7 1550.91 828.7 1566.1 1015.47 1566.1 1015.47 1550.91 1044.73 1550.91 1044.73 1566.1 1096.77 1566.1 1096.77 1550.91 1102.25 1550.91 1102.25 1494.55 1037.55 1494.55 997.66 1494.55 982.05 1494.55 982.05 1467.48 929.17 1467.48 929.17 1494.65 923.3 1494.65 923.3 1494.55 919.91 1494.55 856.02 1494.55 816.12 1494.55 800.53 1494.55 800.53 1467.48 747.65 1467.48 747.65 1494.55 738.39 1494.55 674.5 1494.55 634.6 1494.55 631.21 1494.55 631.21 1494.65 619.01 1494.65 619.01 1467.48 566.13 1467.48 566.13 1494.55 556.87 1494.55 502.75 1494.55 462.86 1494.55 447.27 1494.55 447.27 1467.48 396.89 1467.48 394.38 1467.48 394.38 1494.37 374.99 1494.37 310.54 1494.37 310.07 1494.37 310.07 1492.79 307.49 1492.79 237.74 1492.79 237.74 1540.08 246.71 1540.08 246.71 1550.91 260.56 1550.91 260.56 1566.1 374.41 1566.1 374.41 1550.91"/>
    </g>
  </g>
  <g id="_0610.001" data-name="0610.001">
    <g id="LWPOLYLINE-3" data-name="LWPOLYLINE">
      <polygon points="1886.63 1494.65 1886.63 1462.87 1903.72 1462.87 1903.72 1289.59 1886.63 1289.59 1886.63 1260.34 1903.72 1260.34 1903.72 1073.56 1886.63 1073.56 1886.63 1044.3 1903.72 1044.3 1903.72 914.57 1830.27 914.57 1830.27 984.73 1830.23 984.73 1830.23 1025.25 1830.23 1026.91 1830.23 1028.64 1830.23 1167.12 1830.23 1170.96 1798.59 1170.96 1798.59 1211.46 1828.75 1211.46 1830.23 1211.46 1830.23 1284.4 1830.23 1494.65 1886.63 1494.65"/>
    </g>
  </g>
  <g id="_0610.006" data-name="0610.006">
    <polygon points="1240.65 1550.91 1260.76 1550.91 1260.76 1565.22 1260.76 1566.1 1260.76 1570.6 1447.54 1570.6 1447.54 1566.1 1447.54 1565.22 1447.54 1550.91 1476.79 1550.91 1476.79 1565.22 1476.79 1566.1 1476.79 1570.6 1663.57 1570.6 1663.57 1566.1 1663.57 1565.22 1663.57 1550.91 1692.82 1550.91 1692.82 1565.22 1692.82 1566.1 1692.82 1570.6 1872.85 1570.6 1872.85 1550.91 1903.72 1550.91 1903.72 1494.65 1887.51 1494.65 1833.28 1494.65 1830.37 1494.65 1830.23 1494.65 1797.11 1494.65 1797.11 1494.55 1793.72 1494.55 1722.46 1494.55 1682.57 1494.55 1667 1494.55 1667 1467.48 1613.82 1467.48 1613.82 1494.55 1604.56 1494.55 1537.84 1494.55 1497.95 1494.55 1482.36 1494.55 1482.36 1467.48 1428.89 1467.48 1428.89 1494.55 1419.63 1494.55 1354.08 1494.55 1314.18 1494.55 1298.59 1494.55 1298.59 1467.48 1244.37 1467.48 1244.37 1492.82 1244.37 1493.77 1240.65 1493.77 1240.65 1496.21 1240.65 1550.91"/>
  </g>
  <g id="_0610.008a" data-name="0610.008a">
    <g id="LWPOLYLINE-4" data-name="LWPOLYLINE">
      <polygon points="453.74 1494.55 559.38 1494.55 559.38 1467.48 553.22 1467.48 453.74 1467.48 453.74 1494.55"/>
    </g>
  </g>
  <g id="_0610.008b" data-name="0610.008b">
    <g id="LWPOLYLINE-5" data-name="LWPOLYLINE">
      <polygon points="625.57 1494.55 740.9 1494.55 740.9 1467.48 734.81 1467.48 625.57 1467.48 625.57 1494.55"/>
    </g>
  </g>
  <g id="_0610.008c" data-name="0610.008c">
    <g id="LWPOLYLINE-6" data-name="LWPOLYLINE">
      <polygon points="807.3 1494.55 922.42 1494.55 922.42 1467.48 916.26 1467.48 807.3 1467.48 807.3 1494.55"/>
    </g>
  </g>
  <g id="_0610.008d" data-name="0610.008d">
    <g id="LWPOLYLINE-7" data-name="LWPOLYLINE">
      <polygon points="1096.77 1494.55 1096.77 1494.44 1096.77 1479.85 1096.77 1467.48 987.74 1467.48 987.74 1494.55 1096.77 1494.55"/>
    </g>
  </g>
  <g id="_0019.006" data-name="0019.006">
    <g id="LWPOLYLINE-8" data-name="LWPOLYLINE">
      <polygon points="1170.46 1329.53 1170.46 1490.99 1236.99 1490.99 1236.99 1329.53 1234.56 1329.53 1208.75 1329.53 1208.72 1329.53 1207.24 1329.53 1170.46 1329.53"/>
    </g>
  </g>
  <g id="_0610.006a" data-name="0610.006a">
    <g id="LWPOLYLINE-9" data-name="LWPOLYLINE">
      <polygon points="1304.61 1467.48 1304.61 1494.55 1422.14 1494.55 1422.14 1467.48 1415.98 1467.48 1304.61 1467.48"/>
    </g>
  </g>
  <g id="_0610.006b" data-name="0610.006b">
    <g id="LWPOLYLINE-10" data-name="LWPOLYLINE">
      <polygon points="1488.13 1467.48 1488.13 1494.55 1607.07 1494.55 1607.07 1467.48 1600.92 1467.48 1488.13 1467.48"/>
    </g>
  </g>
  <g id="_0610.006c" data-name="0610.006c">
    <g id="LWPOLYLINE-11" data-name="LWPOLYLINE">
      <polygon points="1672.57 1467.48 1672.57 1494.55 1795.63 1494.55 1795.63 1467.48 1786.03 1467.48 1672.57 1467.48"/>
    </g>
  </g>
  <g id="_0610.001b" data-name="0610.001b">
    <g id="LWPOLYLINE-12" data-name="LWPOLYLINE">
      <polygon points="1798.59 1282.49 1798.59 1447.96 1798.59 1466 1798.59 1466.9 1798.59 1467.51 1798.59 1491.5 1798.59 1491.7 1830.23 1491.7 1830.23 1491.6 1830.23 1282.49 1798.59 1282.49"/>
    </g>
  </g>
  <g id="_0610.046" data-name="0610.046">
    <g id="LWPOLYLINE-13" data-name="LWPOLYLINE">
      <polygon points="1795.28 1447.08 1795.28 1282.49 1684.91 1282.49 1671.48 1282.49 1613.82 1282.49 1613.82 1299.05 1613.82 1447.96 1613.82 1464.52 1613.86 1464.52 1666.97 1464.52 1667 1464.52 1672.92 1464.52 1722.46 1464.52 1723.94 1464.52 1723.97 1464.52 1785.15 1464.52 1785.15 1447.08 1795.28 1447.08"/>
    </g>
  </g>
  <g id="_0610.044" data-name="0610.044">
    <g id="LWPOLYLINE-14" data-name="LWPOLYLINE">
      <polygon points="1428.89 1282.49 1428.89 1299.05 1428.89 1447.96 1428.89 1464.52 1430.41 1464.52 1482.32 1464.52 1482.36 1464.52 1488.23 1464.52 1537.84 1464.52 1539.32 1464.52 1539.35 1464.52 1600.04 1464.52 1600.04 1447.08 1610.17 1447.08 1610.17 1299.93 1600.04 1299.93 1600.04 1282.49 1468.88 1282.49 1452.07 1282.49 1428.89 1282.49"/>
    </g>
  </g>
  <g id="_0610.042" data-name="0610.042">
    <g id="LWPOLYLINE-15" data-name="LWPOLYLINE">
      <polygon points="1243.6 1464.52 1245.9 1464.52 1298.56 1464.52 1298.59 1464.52 1304.46 1464.52 1354.08 1464.52 1355.55 1464.52 1355.59 1464.52 1415.1 1464.52 1415.1 1447.08 1425.23 1447.08 1425.23 1299.93 1415.1 1299.93 1415.1 1282.49 1257.08 1282.49 1254.57 1282.49 1254.57 1288.54 1254.57 1289.6 1254.57 1289.63 1254.57 1307.03 1243.6 1307.03 1243.6 1307.52 1243.6 1464.52"/>
    </g>
  </g>
  <g id="_0610.003c" data-name="0610.003c">
    <g id="LWPOLYLINE-16" data-name="LWPOLYLINE">
      <polygon points="1205.77 1306.05 1227.21 1306.05 1227.21 1280.15 1198.38 1280.15 1166.95 1280.15 1166.95 1315.96 1205.77 1315.96 1205.77 1306.05"/>
    </g>
  </g>
  <g id="_0610.040" data-name="0610.040">
    <g id="LWPOLYLINE-17" data-name="LWPOLYLINE">
      <polygon points="1306.05 1237.27 1306.05 1164.42 1245.59 1164.42 1245.55 1164.42 1245.55 1169.2 1199.86 1169.2 1199.86 1219.83 1169.9 1219.83 1169.9 1263.7 1169.9 1277.2 1170 1277.2 1198.38 1277.2 1228.52 1277.2 1237.69 1277.2 1237.69 1260.34 1254.57 1260.34 1254.57 1279.53 1415.98 1279.53 1427.41 1279.53 1451.19 1279.53 1451.19 1267.37 1469.76 1267.37 1469.76 1279.53 1600.92 1279.53 1612.35 1279.53 1670.6 1279.53 1670.6 1267.37 1685.79 1267.37 1685.79 1279.53 1796.93 1279.53 1827.18 1279.53 1827.28 1279.53 1827.28 1214.42 1795.63 1214.42 1795.63 1170.96 1777.21 1170.96 1777.21 1169.2 1662.18 1169.2 1652.19 1169.2 1651.28 1169.2 1466.91 1169.2 1454.85 1169.2 1454.85 1164.42 1392.4 1164.42 1392.4 1237.27 1306.05 1237.27"/>
    </g>
  </g>
  <g id="_0015.006" data-name="0015.006">
    <g id="LWPOLYLINE-18" data-name="LWPOLYLINE">
      <rect x="1309" y="1167.37" width="80.45" height="66.95"/>
    </g>
  </g>
  <g id="_0610.038" data-name="0610.038">
    <g id="LWPOLYLINE-19" data-name="LWPOLYLINE">
      <polygon points="1012.4 1282.45 929.17 1282.45 929.17 1299.01 929.17 1447.05 929.17 1447.26 929.17 1447.96 929.17 1464.52 929.2 1464.52 982.02 1464.52 982.07 1464.52 987.92 1464.52 1037.55 1464.52 1039.03 1464.52 1039.07 1464.52 1097.26 1464.52 1097.26 1447.08 1107.03 1447.08 1107.03 1283.15 1040.26 1283.15 1040.23 1283.15 1040.23 1289.59 1014.91 1289.59 1014.91 1282.45 1012.4 1282.45"/>
    </g>
  </g>
  <g id="_0610.036" data-name="0610.036">
    <g id="LWPOLYLINE-20" data-name="LWPOLYLINE">
      <polygon points="802.01 1282.8 802.01 1282.45 747.65 1282.45 747.65 1299.01 747.65 1299.89 747.65 1299.92 747.65 1447.05 747.65 1447.26 747.65 1447.96 747.65 1464.49 747.65 1464.52 800.5 1464.52 800.54 1464.52 806.41 1464.52 856.02 1464.52 857.53 1464.52 915.39 1464.52 915.39 1447.08 925.51 1447.08 925.51 1299.89 915.39 1299.89 915.39 1282.45 820.78 1282.45 820.78 1282.8 802.01 1282.8"/>
    </g>
  </g>
  <g id="_0610.034" data-name="0610.034">
    <g id="LWPOLYLINE-21" data-name="LWPOLYLINE">
      <polygon points="672.33 1282.8 672.33 1282.45 566.13 1282.45 566.13 1299.01 566.13 1447.96 566.13 1464.52 566.16 1464.52 618.98 1464.52 619.01 1464.52 624.88 1464.52 674.5 1464.52 675.97 1464.52 676.01 1464.52 733.94 1464.52 733.94 1447.08 743.99 1447.08 743.99 1299.89 733.87 1299.89 733.87 1282.45 685.76 1282.45 685.76 1282.8 672.33 1282.8"/>
    </g>
  </g>
  <g id="_0610.032" data-name="0610.032">
    <g id="LWPOLYLINE-22" data-name="LWPOLYLINE">
      <polygon points="552.35 1282.45 394.73 1282.45 394.73 1288.55 394.73 1306.64 384.61 1306.64 384.61 1445.41 394.38 1445.41 394.38 1464.52 447.23 1464.52 447.27 1464.52 453.52 1464.52 502.75 1464.52 504.23 1464.52 504.26 1464.52 552.35 1464.52 552.35 1447.08 562.47 1447.08 562.47 1299.89 552.35 1299.89 552.35 1282.45"/>
    </g>
  </g>
  <g id="_0610.030" data-name="0610.030">
    <g id="LWPOLYLINE-23" data-name="LWPOLYLINE">
      <polygon points="313.5 1214.31 313.5 1277.04 373.37 1277.04 373.37 1260.32 389.6 1260.32 389.6 1279.49 393.86 1279.49 553.22 1279.49 564.65 1279.49 671.45 1279.49 671.45 1267.37 686.64 1267.37 686.64 1279.49 734.74 1279.49 746.17 1279.49 801.13 1279.49 801.13 1263.99 821.66 1263.99 821.66 1279.49 916.26 1279.49 927.69 1279.49 1014.91 1279.49 1014.91 1260.34 1040.23 1260.34 1040.23 1279.84 1107.03 1279.84 1107.03 1220.53 1079.33 1220.53 1079.33 1169.2 1036.87 1169.2 1020.13 1169.2 1018.07 1169.2 1016.74 1169.2 1009.05 1169.2 819.38 1169.2 810.76 1169.2 810.29 1169.2 807.37 1169.2 603.33 1169.2 591.13 1169.2 590.35 1169.2 590.2 1169.2 379.77 1169.2 375.02 1169.2 375.02 1169.16 340.88 1169.16 340.88 1214.31 313.5 1214.31"/>
    </g>
  </g>
  <g id="_0610.005a" data-name="0610.005a">
    <g id="LWPOLYLINE-24" data-name="LWPOLYLINE">
      <polygon points="373.69 1462.85 380.95 1462.85 380.95 1460.34 380.95 1446.29 380.95 1305.76 380.95 1289.6 373.37 1289.6 373.37 1281.12 370.86 1281.12 312.02 1281.12 310.54 1281.12 310.54 1489.74 310.54 1491.06 373.69 1491.06 373.69 1462.85"/>
    </g>
  </g>
  <g id="_0610.005" data-name="0610.005">
    <g id="LWPOLYLINE-25" data-name="LWPOLYLINE">
      <polygon points="237.74 1051.34 254.58 1051.34 254.58 1066.53 237.74 1066.53 237.74 1267.37 254.58 1267.37 254.58 1282.56 237.74 1282.56 237.74 1492.79 310.54 1492.79 310.54 1279.08 310.54 1214.38 310.54 1211.36 337.93 1211.36 337.93 1169.16 310.54 1169.16 310.54 1081.61 310.54 1000.18 310.54 1000.14 310.54 997.15 310.54 913.22 341.19 913.22 341.19 858.09 317.84 858.09 254.62 858.09 252.79 858.09 237.74 858.09 237.74 1051.34"/>
    </g>
  </g>
  <g id="_0610.029" data-name="0610.029">
    <g id="LWPOLYLINE-26" data-name="LWPOLYLINE">
      <polygon points="339.4 1166.21 375.02 1166.21 378.28 1166.21 378.28 1083.09 376.38 1083.09 365.59 1083.09 313.5 1083.09 313.5 1166.21 339.4 1166.21"/>
    </g>
  </g>
  <g id="_0610.027" data-name="0610.027">
    <g id="LWPOLYLINE-27" data-name="LWPOLYLINE">
      <polygon points="374.41 1044.3 375.4 1044.3 378.28 1044.3 378.28 1000.14 313.5 1000.14 313.5 1080.14 364.28 1080.14 364.28 1044.3 374.38 1044.3 374.41 1044.3"/>
    </g>
  </g>
  <g id="_0610.026" data-name="0610.026">
    <g id="LWPOLYLINE-28" data-name="LWPOLYLINE">
      <polygon points="590.23 1066.53 590.23 1065.63 590.23 1052.23 590.23 1051.34 590.23 1051.3 590.23 986.15 590.23 982.76 590.23 971.5 590.23 969.61 467.1 969.61 391.57 969.61 391.57 987.08 381.27 987.08 381.27 998.67 381.27 1000.18 381.27 1044.3 388.76 1044.3 388.76 1073.56 381.27 1073.56 381.27 1078.22 381.27 1079.75 381.27 1081.61 381.27 1166.21 590.23 1166.21 590.23 1153.06 590.23 1149.67 590.23 1066.56 590.23 1066.53"/>
    </g>
  </g>
  <g id="_0610.024" data-name="0610.024">
    <g id="LWPOLYLINE-29" data-name="LWPOLYLINE">
      <polygon points="806.47 1066.53 806.47 1065.65 806.47 1052.22 806.47 1051.34 806.47 1051.3 806.47 987.1 806.47 986.71 806.47 986.18 806.47 969.61 721.14 969.61 604.23 969.61 604.23 987.05 594.52 987.05 593.92 987.05 593.92 1051.34 605.63 1051.34 605.63 1066.53 593.92 1066.53 593.92 1148.77 594.52 1148.77 604.23 1148.77 604.23 1166.21 806.47 1166.21 806.47 1164.33 806.47 1149.65 806.47 1066.56 806.47 1066.53"/>
    </g>
  </g>
  <g id="_0610.022" data-name="0610.022">
    <g id="LWPOLYLINE-30" data-name="LWPOLYLINE">
      <polygon points="820.26 1148.77 820.26 1166.25 1008.17 1166.25 1008.17 1142.9 1016.19 1142.9 1016.19 969.57 932.61 969.57 928.71 969.57 820.26 969.57 820.26 987.06 810.17 987.06 810.17 1051.34 821.66 1051.34 821.66 1066.53 810.13 1066.53 810.13 1148.77 820.26 1148.77"/>
    </g>
  </g>
  <g id="_0610.018" data-name="0610.018">
    <g id="LWPOLYLINE-31" data-name="LWPOLYLINE">
      <polygon points="1080.03 1165.54 1081.15 1165.54 1107.74 1165.54 1107.74 1070.65 1107.74 1047.75 1038.38 1047.75 1038.38 1073.43 1024.67 1073.43 1024.67 1143.02 1038.17 1143.02 1038.17 1165.54 1079.29 1165.54 1080.03 1165.54"/>
    </g>
  </g>
  <g id="_0610.003" data-name="0610.003">
    <g id="LWPOLYLINE-32" data-name="LWPOLYLINE">
      <polygon points="1166.81 1493.1 1166.81 1327.71 1166.95 1325.88 1166.95 1325.84 1166.95 1317.26 1166.95 1313.87 1166.95 1282.06 1166.95 1278.68 1166.95 1216.88 1196.91 1216.88 1196.91 1169.2 1166.95 1169.2 1166.95 1164.94 1166.95 1072.1 1166.95 976.5 1166.95 975.23 1166.95 914.57 1110.69 914.57 1110.69 968.15 1110.69 1046.27 1110.69 1070.65 1110.69 1168.5 1082.98 1168.5 1082.98 1169.23 1082.98 1216.88 1110.69 1216.88 1110.69 1281.5 1110.69 1447.05 1110.69 1447.26 1110.69 1447.96 1110.69 1466 1110.69 1478.51 1110.69 1478.55 1110.69 1479.85 1110.69 1494.44 1110.69 1494.61 1166.81 1493.1"/>
    </g>
  </g>
  <g id="_0610.017" data-name="0610.017">
    <g id="LWPOLYLINE-33" data-name="LWPOLYLINE">
      <rect x="1169.9" y="1073.57" width="70.06" height="90.07"/>
    </g>
  </g>
  <g id="_0610.016" data-name="0610.016">
    <polygon points="1169.9 1070.62 1239.32 1070.62 1239.32 1046.73 1241.44 1046.73 1241.44 1001.27 1241.44 986.04 1241.44 985.11 1241.44 977.98 1241.44 976.7 1169.9 976.7 1169.9 1070.62"/>
  </g>
  <g id="_0610.014" data-name="0610.014">
    <g id="LWPOLYLINE-34" data-name="LWPOLYLINE">
      <polygon points="1327.99 969.5 1255.68 969.5 1255.68 986.94 1245.55 986.94 1245.55 1001.27 1245.55 1045.73 1252.97 1045.73 1252.97 1072.13 1245.55 1072.13 1245.55 1161.43 1304.13 1161.43 1392.4 1161.43 1394.31 1161.43 1454.85 1161.43 1454.85 1144.87 1454.85 1065.65 1454.85 1052.22 1454.85 986.13 1454.85 971.48 1454.85 969.5 1331.38 969.5 1328.59 969.5 1327.99 969.5"/>
    </g>
  </g>
  <g id="_0610.012" data-name="0610.012">
    <g id="LWPOLYLINE-35" data-name="LWPOLYLINE">
      <polygon points="1467.79 1143.99 1467.79 1166.25 1650.4 1166.25 1650.4 1148.77 1657.57 1148.77 1657.57 969.57 1574.66 969.57 1467.79 969.57 1467.79 987.01 1458.54 987.01 1458.54 1051.34 1469.76 1051.34 1469.76 1066.53 1458.54 1066.53 1458.54 1143.99 1467.79 1143.99"/>
    </g>
  </g>
  <g id="_0610.049" data-name="0610.049">
    <g id="LWPOLYLINE-36" data-name="LWPOLYLINE">
      <polygon points="1689.3 1050.67 1689.3 1070.18 1677 1070.18 1677 1095.13 1663.48 1095.13 1663.48 1149.65 1663.48 1166.25 1777.21 1166.25 1827.28 1166.25 1827.28 1030.11 1825.37 1030.11 1744.79 1030.11 1689.3 1030.11 1689.3 1050.67"/>
    </g>
  </g>
  <g id="_0610.051" data-name="0610.051">
    <g id="LWPOLYLINE-37" data-name="LWPOLYLINE">
      <polygon points="1827.28 973.17 1746.27 973.17 1746.27 1027.16 1827.28 1027.16 1827.28 984.73 1827.28 973.17"/>
    </g>
  </g>
  <g id="_0610.010" data-name="0610.010">
    <g id="LWPOLYLINE-38" data-name="LWPOLYLINE">
      <polygon points="1827.28 970.22 1827.28 916.05 1785.29 916.05 1746.27 916.05 1746.27 970.22 1827.28 970.22"/>
    </g>
  </g>
  <g id="_0610.011" data-name="0610.011">
    <g id="LWPOLYLINE-39" data-name="LWPOLYLINE">
      <polygon points="1663.48 968.09 1663.48 1027.16 1688.43 1027.16 1743.31 1027.16 1743.31 971.69 1743.31 916.09 1743.31 916.05 1735.23 916.05 1663.48 916.05 1663.48 916.15 1663.48 968.09"/>
    </g>
  </g>
  <g id="_0610.012a" data-name="0610.012a">
    <g id="LWPOLYLINE-40" data-name="LWPOLYLINE">
      <polygon points="1660.52 913.1 1594.14 913.1 1594.14 917.18 1589.87 917.18 1577.26 917.18 1577.26 966.62 1659.05 966.62 1660.52 966.62 1660.52 913.1"/>
    </g>
  </g>
  <g id="_0610.091" data-name="0610.091">
    <g id="LWPOLYLINE-41" data-name="LWPOLYLINE">
      <polygon points="1508.98 917.18 1508.98 913.1 1475.24 913.1 1475.24 917.18 1458.36 917.18 1458.36 966.62 1459.13 966.62 1466.91 966.62 1572.06 966.62 1572.06 917.18 1533.05 917.18 1508.98 917.18"/>
    </g>
  </g>
  <g id="_0610.013" data-name="0610.013">
    <g id="LWPOLYLINE-42" data-name="LWPOLYLINE">
      <polygon points="1333.98 964.61 1333.98 966.51 1455.41 966.51 1455.41 917.18 1333.98 917.18 1333.98 964.61"/>
    </g>
  </g>
  <g id="_0610.014a" data-name="0610.014a">
    <g id="LWPOLYLINE-43" data-name="LWPOLYLINE">
      <polygon points="1245.52 913.1 1245.52 966.51 1254.78 966.51 1328.78 966.51 1328.78 916.05 1313.64 916.05 1311.9 916.05 1311.9 913.1 1245.52 913.1"/>
    </g>
  </g>
  <g id="_0610.015" data-name="0610.015">
    <g id="LWPOLYLINE-44" data-name="LWPOLYLINE">
      <polygon points="1242.56 968 1242.56 919.18 1215.63 919.18 1210.28 919.18 1210.28 916.05 1169.9 916.05 1169.9 973.75 1242.56 973.75 1242.56 969.53 1242.56 968"/>
    </g>
  </g>
  <g id="_0610.019" data-name="0610.019">
    <g id="LWPOLYLINE-45" data-name="LWPOLYLINE">
      <polygon points="1107.74 916.05 1106.61 916.05 1066.58 916.05 1066.58 919.14 1034.49 919.14 1029.87 919.14 1029.87 916.05 1021.96 916.05 1021.96 964.7 1021.96 1044.8 1037.22 1044.8 1107.74 1044.8 1107.74 968.15 1107.74 916.05"/>
    </g>
  </g>
  <g id="_0720.095" data-name="0720.095">
    <g id="LWPOLYLINE-46" data-name="LWPOLYLINE">
      <polygon points="1018.3 917.18 998.05 917.18 998.05 913.1 994.66 913.1 951.91 913.1 951.91 917.18 935.49 917.18 935.04 917.18 935.04 966.62 1018.3 966.62 1018.3 917.18"/>
    </g>
  </g>
  <g id="_0620.021" data-name="0620.021">
    <g id="LWPOLYLINE-47" data-name="LWPOLYLINE">
      <polygon points="809.95 966.62 819.38 966.62 927.23 966.62 927.23 917.18 880.8 917.18 809.95 917.18 809.95 917.62 809.95 966.58 809.95 966.62"/>
    </g>
  </g>
  <g id="_0720.093" data-name="0720.093">
    <g id="LWPOLYLINE-48" data-name="LWPOLYLINE">
      <polygon points="807 914.57 793.6 914.57 793.6 913.1 740.62 913.1 740.62 916.05 739.35 916.05 723.74 916.05 723.74 966.62 807 966.62 807 914.57"/>
    </g>
  </g>
  <g id="_0610.025" data-name="0610.025">
    <g id="LWPOLYLINE-49" data-name="LWPOLYLINE">
      <polygon points="469.7 917.18 469.7 966.62 590.2 966.62 593.82 966.62 594.52 966.62 603.33 966.62 718.54 966.62 718.54 917.18 665.55 917.18 592.41 917.18 469.7 917.18"/>
    </g>
  </g>
  <g id="_0610.026a" data-name="0610.026a">
    <g id="LWPOLYLINE-50" data-name="LWPOLYLINE">
      <polygon points="447.62 916.05 447.62 913.1 381.23 913.1 381.23 966.62 390.67 966.62 464.49 966.62 464.49 916.05 449.52 916.05 447.62 916.05"/>
    </g>
  </g>
  <g id="_0610.028" data-name="0610.028">
    <g id="LWPOLYLINE-51" data-name="LWPOLYLINE">
      <polygon points="377.15 997.19 377.15 986.18 377.15 985.29 377.15 985.25 377.15 969.64 377.15 968.11 377.15 916.18 341.19 916.18 313.5 916.18 313.5 997.19 377.15 997.19"/>
    </g>
  </g>
  <g id="_0610.004" data-name="0610.004">
    <g id="LWPOLYLINE-52" data-name="LWPOLYLINE">
      <polygon points="652.33 857.96 650.29 857.96 605.9 857.96 604.42 857.96 604.39 857.96 590.41 857.96 512.38 857.96 512.38 831.44 458.27 831.44 458.24 831.44 458.24 854.91 458.24 857.96 453.37 857.96 392.2 857.96 388.81 857.96 388.81 858.09 373.89 858.09 341.19 858.09 341.19 913.22 379.19 913.22 379.19 913.1 382.58 913.1 447.62 913.1 449.52 913.1 464.46 913.1 467.1 913.1 592.41 913.1 592.41 912.66 665.55 912.66 665.55 913.1 721.14 913.1 723.77 913.1 739.35 913.1 740.62 913.1 793.6 913.1 808.48 913.1 808.48 914.57 880.8 914.57 880.8 913.1 928.71 913.1 932.61 913.1 935.49 913.1 951.91 913.1 994.66 913.1 998.05 913.1 1019.14 913.1 1020.13 913.1 1020.18 913.1 1021.99 913.1 1029.87 913.1 1029.87 916.19 1033.02 916.19 1033.02 858.53 1033.19 858.53 1033.19 854.87 1002.96 854.87 1002.96 857.96 999.14 857.96 987.94 857.96 884.18 857.96 884.18 833.91 821.66 833.91 821.66 857.96 703.55 857.96 702.04 857.96 652.36 857.96 652.33 857.96"/>
    </g>
  </g>
  <g id="_0610.003a" data-name="0610.003a">
    <g id="LWPOLYLINE-53" data-name="LWPOLYLINE">
      <polygon points="1090.44 857.96 1039.24 857.96 1039.24 854.87 1036.15 854.87 1036.15 858.53 1035.97 858.53 1035.97 916.19 1066.58 916.19 1066.58 913.1 1106.61 913.1 1109.21 913.1 1109.21 914.57 1168.42 914.57 1168.42 913.1 1210.28 913.1 1210.28 916.23 1214.15 916.23 1214.15 854.86 1185.79 854.86 1185.79 840.69 1185.79 830.25 1090.44 830.25 1090.44 838.79 1090.44 842.58 1090.44 857.96"/>
    </g>
  </g>
  <g id="_0610.002" data-name="0610.002">
    <polygon points="1215.65 855.36 1392.4 855.36 1392.4 831.44 1454.85 831.44 1454.85 858.26 1902.26 858.26 1902.26 911.83 1215.65 914.57 1215.65 855.36"/>
  </g>
  <g id="_0049.006" data-name="0049.006">
    <g id="LWPOLYLINE-54" data-name="LWPOLYLINE">
      <polygon points="729.05 805.07 703.52 805.07 703.52 847.27 729.05 847.27 729.05 839.14 729.05 805.07"/>
    </g>
  </g>
  <g id="_0604" data-name="0604">
    <g id="LWPOLYLINE-55" data-name="LWPOLYLINE">
      <polygon points="940.02 775.67 887.84 775.67 887.84 832.09 887.13 833.21 887.13 833.95 887.13 855.36 987.06 855.36 987.06 835.31 1001.06 835.31 1001.06 775.67 966.6 775.67 966.6 793.64 940.02 793.64 940.02 775.67"/>
    </g>
  </g>
  <g id="_0098.006" data-name="0098.006">
    <g id="LWPOLYLINE-56" data-name="LWPOLYLINE">
      <polygon points="1389.45 775.39 1388.71 775.39 1330.12 775.39 1330.12 823.18 1323.35 823.18 1323.35 855.01 1389.45 855.01 1389.45 830.31 1378.69 830.31 1378.69 800.71 1389.45 800.71 1389.45 775.39"/>
    </g>
  </g>
  <g id="_0617" data-name="0617">
    <path d="M1810.28,780.88h-39.46v-112.35h-6.69v-19.6h-79.32v-13.13h-14.98v-27.5h-55.2v10.13h-10.41v183.68h68.24v33.19h54.01v-23.95h83.85v-30.48h-.04ZM1737.06,692.12h-12.38v75.32h12.38v13.54h-50.12v-13.54h2.95v10.58h20.18v-10.58h10.53v-27h-10.46v-21.31h10.46v-27h-10.53v-10.58h-20.18v10.58h-2.95v-13.54h50.12v13.54Z"/>
  </g>
  <g id="_0617.002" data-name="0617.002">
    <g id="LWPOLYLINE-57" data-name="LWPOLYLINE">
      <polygon points="1687.76 608.3 1687.76 634.92 1687.76 645.98 1740.92 645.98 1740.92 608.3 1687.76 608.3"/>
    </g>
  </g>
  <g id="_0617.003" data-name="0617.003">
    <g id="LWPOLYLINE-58" data-name="LWPOLYLINE">
      <rect x="1743.87" y="608.3" width="20.25" height="37.68"/>
    </g>
  </g>
  <g id="_0617.004" data-name="0617.004">
    <g id="LWPOLYLINE-59" data-name="LWPOLYLINE">
      <rect x="1773.77" y="668.53" width="36.54" height="20.65"/>
    </g>
  </g>
  <g id="_0617.005" data-name="0617.005">
    <g id="LWPOLYLINE-60" data-name="LWPOLYLINE">
      <rect x="1773.77" y="692.13" width="36.54" height="19.13"/>
    </g>
  </g>
  <g id="_0617.006" data-name="0617.006">
    <g id="LWPOLYLINE-61" data-name="LWPOLYLINE">
      <rect x="1773.77" y="714.21" width="36.54" height="30.38"/>
    </g>
  </g>
  <g id="_0617.007" data-name="0617.007">
    <g id="LWPOLYLINE-62" data-name="LWPOLYLINE">
      <rect x="1773.77" y="747.54" width="36.54" height="30.38"/>
    </g>
  </g>
  <g id="_0618.001" data-name="0618.001">
    <g id="LWPOLYLINE-63" data-name="LWPOLYLINE">
      <polygon points="1886.63 852.39 1886.63 827.91 1903.86 827.91 1903.86 780.88 1852.58 780.88 1852.58 839.94 1852.58 841.28 1852.58 852.39 1886.63 852.39"/>
    </g>
  </g>
  <g id="_0617.008" data-name="0617.008">
    <g id="LWPOLYLINE-64" data-name="LWPOLYLINE">
      <polygon points="1849.27 838.64 1849.27 780.88 1813.27 780.88 1813.27 812.83 1813.27 838.64 1849.27 838.64"/>
    </g>
  </g>
  <g id="_0617.009" data-name="0617.009">
    <g id="LWPOLYLINE-65" data-name="LWPOLYLINE">
      <polygon points="1810.31 855 1810.31 839.94 1810.31 814.31 1785.96 814.31 1785.96 855 1794.63 855 1810.31 855"/>
    </g>
  </g>
  <g id="_0617.010" data-name="0617.010">
    <g id="LWPOLYLINE-66" data-name="LWPOLYLINE">
      <rect x="1757.69" y="814.31" width="25.32" height="40.69"/>
    </g>
  </g>
  <g id="_0617.011" data-name="0617.011">
    <g id="LWPOLYLINE-67" data-name="LWPOLYLINE">
      <polygon points="1729.42 814.31 1729.42 833.39 1729.42 835.14 1729.42 836.78 1729.42 855 1754.73 855 1754.73 814.31 1729.42 814.31"/>
    </g>
  </g>
  <g id="_0037.006" data-name="0037.006">
    <g id="LWPOLYLINE-68" data-name="LWPOLYLINE">
      <rect x="1632.62" y="805.07" width="36.88" height="49.94"/>
    </g>
  </g>
  <g id="_0617.012" data-name="0617.012">
    <g id="LWPOLYLINE-69" data-name="LWPOLYLINE">
      <polygon points="1575.93 805.77 1575.93 848.75 1575.93 850.23 1575.93 850.26 1575.93 855.01 1629.67 855.01 1629.67 805.07 1602.39 805.07 1602.39 805.77 1575.93 805.77"/>
    </g>
  </g>
  <g id="_0040.006" data-name="0040.006">
    <g id="LWPOLYLINE-70" data-name="LWPOLYLINE">
      <polygon points="1572.98 805.07 1547.18 805.07 1547.18 839.14 1547.18 847.27 1572.98 847.27 1572.98 805.07"/>
    </g>
  </g>
  <g id="_0620.033" data-name="0620.033">
    <g id="LWPOLYLINE-71" data-name="LWPOLYLINE">
      <polygon points="1548.24 676.66 1548.24 802.11 1574.45 802.11 1575.93 802.11 1575.96 802.11 1600.56 802.11 1600.56 617.55 1600.56 609.01 1559.07 609.01 1559.07 667.2 1559.07 676.66 1548.24 676.66"/>
    </g>
  </g>
  <g id="_0606" data-name="0606">
    <g id="LWPOLYLINE-72" data-name="LWPOLYLINE">
      <polygon points="1490.78 608.3 1490.78 624.2 1490.78 625.67 1490.78 625.71 1490.78 665.9 1549.8 665.9 1555.41 665.9 1555.41 608.3 1490.78 608.3"/>
    </g>
  </g>
  <g id="_0017.006" data-name="0017.006">
    <g id="LWPOLYLINE-73" data-name="LWPOLYLINE">
      <polygon points="1544.58 803.59 1544.58 672.16 1472.57 672.16 1472.57 837.84 1544.58 837.84 1544.58 805.1 1544.58 805.08 1544.58 803.59"/>
    </g>
  </g>
  <g id="_0607.001" data-name="0607.001">
    <g id="LWPOLYLINE-74" data-name="LWPOLYLINE">
      <rect x="1450.77" y="734.31" width="18.14" height="33.75"/>
    </g>
  </g>
  <g id="_0607" data-name="0607">
    <g id="LWPOLYLINE-75" data-name="LWPOLYLINE">
      <polygon points="1468.91 732.2 1468.91 672.16 1448.66 672.16 1448.66 634.11 1448.66 633.06 1448.66 633.02 1448.66 619.54 1392.4 619.54 1392.4 771.7 1392.4 772.26 1392.4 773.56 1392.4 802.01 1392.4 829.01 1392.4 829.87 1454.98 829.87 1455.9 829.87 1468.91 829.87 1468.91 770.18 1448.66 770.18 1448.66 732.2 1468.91 732.2"/>
    </g>
  </g>
  <g id="_0620.037" data-name="0620.037">
    <g id="LWPOLYLINE-76" data-name="LWPOLYLINE">
      <polygon points="1468.91 668.5 1470.74 668.5 1487.13 668.5 1487.13 625.67 1470.11 625.67 1470.11 635.17 1452.32 635.17 1452.32 668.5 1468.88 668.5 1468.91 668.5"/>
    </g>
  </g>
  <g id="_0086.006" data-name="0086.006">
    <g id="LWPOLYLINE-77" data-name="LWPOLYLINE">
      <polygon points="1290.45 623.21 1290.45 632.52 1290.45 634.03 1290.45 732.99 1276.91 732.99 1275.17 732.99 1275.17 767.66 1275.17 771.73 1328.65 771.73 1330.12 771.73 1330.16 771.73 1388.75 771.73 1388.75 623.21 1290.45 623.21"/>
    </g>
  </g>
  <g id="_0009.006" data-name="0009.006">
    <g id="LWPOLYLINE-78" data-name="LWPOLYLINE">
      <polygon points="1241.84 770.61 1241.84 767.66 1188.75 767.66 1188.75 838.82 1224.75 838.82 1231.5 838.82 1235.09 838.82 1241.84 838.82 1262.09 838.82 1268.85 838.82 1272.22 838.82 1272.22 821.7 1272.22 820.22 1272.22 820.19 1272.22 773.21 1272.22 767.66 1262.09 767.66 1262.09 770.61 1241.84 770.61"/>
    </g>
  </g>
  <g id="_0056.006" data-name="0056.006">
    <g id="LWPOLYLINE-79" data-name="LWPOLYLINE">
      <polygon points="1327.17 774.69 1275.17 774.69 1275.17 820.22 1289.26 820.22 1321.87 820.22 1327.17 820.22 1327.17 775.43 1327.17 774.69"/>
    </g>
  </g>
  <g id="_0043.006" data-name="0043.006">
    <g id="LWPOLYLINE-80" data-name="LWPOLYLINE">
      <polygon points="1287.49 730.03 1287.49 635.51 1274.82 635.51 1274.82 699.58 1274.82 730.03 1287.49 730.03"/>
    </g>
  </g>
  <g id="_0007.006" data-name="0007.006">
    <g id="LWPOLYLINE-81" data-name="LWPOLYLINE">
      <polygon points="1272.22 699.58 1188.75 699.58 1188.75 767.66 1241.84 767.66 1262.09 767.66 1272.22 767.66 1272.22 733.02 1272.22 730.03 1272.22 728.12 1272.22 699.58"/>
    </g>
  </g>
  <g id="_0005.006" data-name="0005.006">
    <g id="LWPOLYLINE-82" data-name="LWPOLYLINE">
      <polygon points="1188.75 699.58 1272.22 699.58 1272.22 635.54 1272.22 635.51 1273.7 635.51 1273.7 630.95 1270.31 630.95 1268.85 630.95 1262.09 630.95 1241.84 630.95 1235.09 630.95 1231.5 630.95 1224.75 630.95 1223.63 630.95 1188.75 630.95 1188.75 699.58"/>
    </g>
  </g>
  <g id="_0010.006" data-name="0010.006">
    <g id="LWPOLYLINE-83" data-name="LWPOLYLINE">
      <polygon points="1014.14 770.61 1014.14 767.09 1004.01 767.09 1004.01 773.84 1004.01 835.31 1004.01 838.82 1007.39 838.82 1014.14 838.82 1034.39 838.82 1041.14 838.82 1044.73 838.82 1051.48 838.82 1087.48 838.82 1087.48 767.09 1034.39 767.09 1034.39 770.61 1014.14 770.61"/>
    </g>
  </g>
  <g id="_0603" data-name="0603">
    <g id="LWPOLYLINE-84" data-name="LWPOLYLINE">
      <polygon points="1090.44 619.54 1090.44 627.19 1090.44 630.98 1090.44 699.58 1090.44 767.09 1090.44 827.3 1185.79 827.3 1185.79 767.66 1185.79 699.58 1185.79 630.98 1185.79 627.19 1185.79 619.54 1090.44 619.54"/>
    </g>
  </g>
  <g id="_0008.006" data-name="0008.006">
    <g id="LWPOLYLINE-85" data-name="LWPOLYLINE">
      <polygon points="1087.48 699.58 1004.01 699.58 1004.01 730 1004.01 730.02 1002.53 730.02 1002.53 731.5 1004.01 731.51 1004.01 767.09 1014.14 767.09 1034.39 767.09 1087.48 767.09 1087.48 699.58"/>
    </g>
  </g>
  <g id="_0006.006" data-name="0006.006">
    <g id="LWPOLYLINE-86" data-name="LWPOLYLINE">
      <polygon points="1004.01 699.58 1087.48 699.58 1087.48 630.95 1052.6 630.95 1051.48 630.95 1044.73 630.95 1041.14 630.95 1034.39 630.95 1014.14 630.95 1007.39 630.95 1005.92 630.95 1002.53 630.95 1002.53 635.51 1004.01 635.51 1004.01 635.54 1004.01 699.58"/>
    </g>
  </g>
  <g id="_0093.006" data-name="0093.006">
    <g id="LWPOLYLINE-87" data-name="LWPOLYLINE">
      <polygon points="887.49 772.02 1001.06 772.02 1001.06 767.09 1001.06 732.99 987.2 732.99 987.2 635.54 987.2 635.51 987.2 634.03 987.2 623.21 887.49 623.21 887.49 772.02"/>
    </g>
  </g>
  <g id="_0047.006" data-name="0047.006">
    <g id="LWPOLYLINE-88" data-name="LWPOLYLINE">
      <polygon points="990.16 635.51 990.16 730.03 1001.41 730.03 1001.41 699.58 1001.41 635.51 990.16 635.51"/>
    </g>
  </g>
  <g id="_0605" data-name="0605">
    <g id="LWPOLYLINE-89" data-name="LWPOLYLINE">
      <polygon points="884.18 775.25 883.83 773.84 883.83 621.02 827.57 621.02 827.57 633.02 827.57 633.94 827.57 666.64 827.57 671.81 807.32 671.81 807.32 714.54 827.57 714.54 827.57 752.52 807.32 752.52 807.32 830.26 820.78 830.26 884.14 830.26 884.18 830.26 884.18 775.71 884.18 775.25"/>
    </g>
  </g>
  <g id="_0605.001" data-name="0605.001">
    <g id="LWPOLYLINE-90" data-name="LWPOLYLINE">
      <rect x="807.32" y="716.65" width="18.14" height="33.75"/>
    </g>
  </g>
  <g id="_0018.006" data-name="0018.006">
    <g id="LWPOLYLINE-91" data-name="LWPOLYLINE">
      <polygon points="803.66 672.16 731.65 672.16 731.65 803.59 731.65 805.07 731.65 805.1 731.65 837.84 803.66 837.84 803.66 672.16"/>
    </g>
  </g>
  <g id="_0620.084" data-name="0620.084">
    <g id="LWPOLYLINE-92" data-name="LWPOLYLINE">
      <polygon points="824.27 634.82 806.47 634.82 806.47 622.51 801.34 622.51 764.33 622.51 764.33 664.77 805.49 664.77 807.32 664.77 824.27 664.77 824.27 634.82"/>
    </g>
  </g>
  <g id="_0620.085" data-name="0620.085">
    <g id="LWPOLYLINE-93" data-name="LWPOLYLINE">
      <polygon points="707.46 622.51 707.46 664.77 729.82 664.77 761.02 664.77 761.02 622.51 707.46 622.51"/>
    </g>
  </g>
  <g id="_0620.83" data-name="0620.83">
    <g id="LWPOLYLINE-94" data-name="LWPOLYLINE">
      <polygon points="727.99 802.11 727.99 676.66 703.8 676.66 703.8 666.64 703.8 623.21 675.67 623.21 675.67 802.11 700.53 802.11 700.56 802.11 702.04 802.11 727.99 802.11"/>
    </g>
  </g>
  <g id="_0610.007" data-name="0610.007">
    <g id="LWPOLYLINE-95" data-name="LWPOLYLINE">
      <polygon points="652.33 805.77 652.33 848.19 652.33 855.01 700.56 855.01 700.56 850.26 700.56 850.23 700.56 848.75 700.56 805.77 673.85 805.77 652.33 805.77"/>
    </g>
  </g>
  <g id="_0050.006" data-name="0050.006">
    <g id="LWPOLYLINE-96" data-name="LWPOLYLINE">
      <polygon points="607.38 855.01 648.25 855.01 648.25 848.19 648.25 792.69 648.25 789.31 607.38 789.31 607.38 855.01"/>
    </g>
  </g>
  <g id="_0620.082" data-name="0620.082">
    <g id="LWPOLYLINE-97" data-name="LWPOLYLINE">
      <polygon points="589.53 835.31 595 835.31 595 812.94 602.03 812.94 602.03 765.86 517.95 765.86 516.04 765.86 516.04 827.75 516.04 829.61 516.04 854.31 589.53 854.31 589.53 835.31"/>
    </g>
  </g>
  <g id="_0620.081" data-name="0620.081">
    <g id="LWPOLYLINE-98" data-name="LWPOLYLINE">
      <polygon points="602 762.9 604.57 762.9 604.57 679.16 570.77 679.16 567.99 679.16 517.95 679.16 516.04 679.16 516.04 762.9 602 762.9"/>
    </g>
  </g>
  <g id="_0620.086" data-name="0620.086">
    <g id="LWPOLYLINE-99" data-name="LWPOLYLINE">
      <polygon points="516.04 676.21 566.69 676.21 566.69 622.86 554.31 622.86 552.83 622.86 550.92 622.86 516.04 622.86 516.04 676.21"/>
    </g>
  </g>
  <g id="_0620.080" data-name="0620.080">
    <polygon points="572.61 641.48 607.38 641.48 607.38 622.86 671.22 622.86 671.22 802.11 652.33 802.11 652.33 786 607.38 786 607.38 676.21 572.61 676.21 572.61 641.48"/>
  </g>
  <g id="_0620.006" data-name="0620.006">
    <g id="LWPOLYLINE-100" data-name="LWPOLYLINE">
      <polygon points="799.86 563.47 751.83 563.47 675.92 563.47 675.92 527.81 635.34 527.81 635.34 563.47 564.07 563.47 564.07 563.3 552.4 563.3 552.4 619.56 567.99 619.56 570.77 619.56 572.28 619.56 590.93 619.56 606.72 619.56 671.98 619.56 673.85 619.56 705.63 619.56 707.49 619.56 762.68 619.56 799.86 619.56 799.86 563.47"/>
    </g>
  </g>
  <g id="_0612.1" data-name="0612.1">
    <polygon points="1569.8 563.28 1566.42 563.28 1566.42 563.47 1498.38 563.47 1453.16 563.47 1410.98 563.47 1409.42 563.47 1407.59 563.47 1315.84 563.47 1241.58 563.47 1165.67 563.47 1165.67 537.97 1110.47 537.97 1110.47 563.47 1110.47 619.54 1183.88 619.54 1186.11 619.54 1187.27 619.54 1273.7 619.54 1275.17 619.56 1275.21 619.56 1286 619.56 1288.34 619.56 1289.39 619.56 1390.57 619.56 1392.4 619.54 1393.96 619.54 1448.66 619.54 1448.66 605.35 1467.96 605.35 1468.49 605.35 1469.48 605.35 1489.31 605.35 1490.78 605.35 1490.82 605.35 1557.24 605.35 1600.52 605.35 1600.7 605.35 1602.39 605.35 1612.2 605.35 1612.2 563.28 1569.8 563.28"/>
  </g>
  <g id="_0612.2" data-name="0612.2">
    <polygon points="1036.08 563.47 963.5 563.47 889.67 563.47 883.65 563.47 883.65 537.97 827.57 537.97 827.57 563.47 802.82 563.47 802.82 619.56 807.35 619.56 826.69 619.56 826.69 621.02 882.27 621.02 883.48 621.02 885.66 619.56 988.26 619.56 989.31 619.56 991.65 619.56 1001.02 619.56 1001.06 619.56 1002.53 619.54 1086.6 619.54 1092.35 619.54 1110.47 619.54 1110.47 563.47 1036.08 563.47"/>
  </g>
  <g id="_0612.001" data-name="0612.001">
    <g id="LWPOLYLINE-101" data-name="LWPOLYLINE">
      <polygon points="1569.63 518.98 1568.07 518.98 1568.07 563.28 1612.2 563.28 1612.2 544.31 1612.2 542.83 1612.2 542.8 1612.2 518.98 1569.63 518.98"/>
    </g>
  </g>
  <g id="_0618" data-name="0618">
    <g id="LWPOLYLINE-102" data-name="LWPOLYLINE">
      <polygon points="1885.94 612.24 1903.72 612.24 1903.72 574.97 1900.65 574.97 1848.74 574.97 1848.74 564.49 1767.08 564.49 1767.08 598.18 1787.76 598.18 1787.76 601.13 1767.08 601.13 1767.08 606.83 1767.08 647.46 1767.08 665.58 1772.29 665.58 1813.69 665.58 1835.31 665.58 1835.31 668.53 1817.06 668.53 1817.06 689.14 1817.06 692.16 1817.06 711.22 1817.06 714.25 1817.06 744.55 1817.06 747.58 1817.06 777.89 1817.06 777.92 1850.92 777.92 1903.86 777.92 1903.86 641.5 1885.94 641.5 1885.94 612.24"/>
    </g>
  </g>
  <g id="_0616" data-name="0616">
    <g id="LWPOLYLINE-103" data-name="LWPOLYLINE">
      <polygon points="1615.15 545.79 1615.15 563.28 1615.15 605.32 1615.15 605.35 1669.79 605.35 1669.9 605.35 1670.7 605.35 1684.77 605.35 1685.09 605.35 1686.28 605.35 1742.4 605.35 1764.13 605.35 1764.13 599.66 1764.13 564.49 1728.03 564.49 1691.43 564.49 1639.13 564.49 1639.13 545.79 1615.54 545.79 1615.15 545.79"/>
    </g>
  </g>
  <g id="_0616.001" data-name="0616.001">
    <g id="LWPOLYLINE-104" data-name="LWPOLYLINE">
      <polygon points="1689.95 564.49 1689.95 563.02 1689.95 545.79 1689.21 545.79 1639.13 545.79 1639.13 564.49 1689.95 564.49"/>
    </g>
  </g>
  <g id="_0619" data-name="0619">
    <g id="LWPOLYLINE-105" data-name="LWPOLYLINE">
      <polygon points="1879.88 471.74 1878.4 471.74 1851.9 471.74 1851.9 488.62 1848.95 488.62 1848.95 471.74 1821.86 471.74 1773.41 471.74 1751.68 471.74 1692.9 471.74 1692.9 542.8 1692.9 542.83 1692.9 544.31 1692.9 561.54 1726.55 561.54 1726.55 541.99 1729.51 541.99 1729.51 561.54 1765.6 561.54 1848.74 561.54 1848.74 541.99 1851.69 541.99 1851.69 563.02 1851.69 572.02 1903.86 572.02 1903.86 471.74 1880.48 471.74 1879.88 471.74"/>
    </g>
  </g>
  <g id="_0039.006" data-name="0039.006">
    <g id="LWPOLYLINE-106" data-name="LWPOLYLINE">
      <polygon points="1716.5 453.95 1716.5 450.22 1709.75 450.22 1709.75 453.95 1695.63 453.95 1695.63 468.79 1750.2 468.79 1750.2 453.95 1743.51 453.95 1743.51 450.22 1736.76 450.22 1736.76 453.95 1716.5 453.95"/>
    </g>
  </g>
  <g id="_0038.006" data-name="0038.006">
    <g id="LWPOLYLINE-107" data-name="LWPOLYLINE">
      <polygon points="1836.79 453.95 1836.79 451.94 1830.04 451.94 1830.04 453.96 1823.34 453.96 1823.34 468.79 1876.36 468.79 1876.36 453.96 1876.33 453.96 1863.79 453.96 1863.79 451.94 1857.04 451.94 1857.04 453.95 1836.79 453.95"/>
    </g>
  </g>
  <g id="_0003.006" data-name="0003.006">
    <g id="LWPOLYLINE-108" data-name="LWPOLYLINE">
      <polygon points="1876.36 374.15 1823.34 374.15 1823.34 437.09 1823.34 450.24 1830.04 450.24 1830.04 451.94 1836.79 451.94 1836.79 450.22 1857.04 450.22 1857.04 451.94 1863.79 451.94 1863.79 450.24 1876.36 450.24 1876.36 374.15"/>
    </g>
  </g>
  <g id="_0001.006" data-name="0001.006">
    <g id="LWPOLYLINE-109" data-name="LWPOLYLINE">
      <rect x="1823.34" y="287.21" width="53.02" height="86.94"/>
    </g>
  </g>
  <g id="_0601" data-name="0601">
    <g id="LWPOLYLINE-110" data-name="LWPOLYLINE">
      <polygon points="1820.07 423.64 1820.39 423.64 1820.39 394.38 1820.07 394.38 1820.07 353.88 1820.39 353.88 1820.39 324.62 1820.07 324.62 1820.07 306.01 1753.48 306.01 1753.48 324.62 1753.16 324.62 1753.16 353.88 1753.48 353.88 1753.48 394.38 1753.16 394.38 1753.16 423.64 1753.48 423.64 1753.48 435.61 1773.41 435.61 1820.07 435.61 1820.07 423.64"/>
    </g>
  </g>
  <g id="_0004.006" data-name="0004.006">
    <g id="LWPOLYLINE-111" data-name="LWPOLYLINE">
      <polygon points="1750.2 374.15 1695.63 374.15 1695.63 450.22 1709.75 450.22 1716.5 450.22 1736.76 450.22 1743.51 450.22 1750.2 450.22 1750.2 437.09 1750.2 374.15"/>
    </g>
  </g>
  <g id="_0002.006" data-name="0002.006">
    <g id="LWPOLYLINE-112" data-name="LWPOLYLINE">
      <rect x="1695.63" y="287.21" width="54.57" height="86.94"/>
    </g>
  </g>
  <g id="_602b" data-name="602b">
    <g id="LWPOLYLINE-113" data-name="LWPOLYLINE">
      <rect x="1666.01" y="307.32" width="18.39" height="47.28"/>
    </g>
  </g>
  <g id="_0615" data-name="0615">
    <g id="LWPOLYLINE-114" data-name="LWPOLYLINE">
      <polygon points="1615.5 454.62 1615.5 517.51 1615.5 542.83 1639.13 542.83 1689.25 542.83 1689.25 473.65 1689.25 471.18 1689.25 470.26 1689.25 454.62 1665.35 454.62 1664.01 454.62 1615.5 454.62"/>
    </g>
  </g>
  <g id="_0614" data-name="0614">
    <g id="LWPOLYLINE-115" data-name="LWPOLYLINE">
      <polygon points="1500.21 448.32 1500.21 501.28 1500.21 558.68 1500.21 560.52 1564.76 560.52 1564.76 560.23 1564.76 517.51 1564.76 515.78 1564.76 514.12 1564.76 448.32 1507.06 448.32 1500.21 448.32"/>
    </g>
  </g>
  <g id="_0613" data-name="0613">
    <g id="LWPOLYLINE-116" data-name="LWPOLYLINE">
      <polygon points="1612.55 452.41 1612.55 391.99 1567.72 391.99 1567.72 446.11 1567.72 516.03 1612.55 516.03 1612.55 452.41"/>
    </g>
  </g>
  <g id="_0602.002" data-name="0602.002">
    <g id="LWPOLYLINE-117" data-name="LWPOLYLINE">
      <polygon points="1615.5 396.42 1615.5 450.19 1662.71 450.19 1662.71 404.12 1662.71 396.42 1615.5 396.42"/>
    </g>
  </g>
  <g id="_0602.003" data-name="0602.003">
    <g id="LWPOLYLINE-118" data-name="LWPOLYLINE">
      <rect x="1508.36" y="396.42" width="56.4" height="47.47"/>
    </g>
  </g>
  <g id="_0620.074a" data-name="0620.074a">
    <g id="LWPOLYLINE-119" data-name="LWPOLYLINE">
      <rect x="1455.38" y="502.75" width="41.17" height="54.62"/>
    </g>
  </g>
  <g id="_0620.072a" data-name="0620.072a">
    <g id="LWPOLYLINE-120" data-name="LWPOLYLINE">
      <polygon points="1450.95 503.11 1409.07 503.11 1409.07 560.17 1450.95 560.17 1450.95 558.68 1450.95 503.11"/>
    </g>
  </g>
  <g id="_0620.074" data-name="0620.074">
    <g id="LWPOLYLINE-121" data-name="LWPOLYLINE">
      <polygon points="1475.92 418.43 1447.52 418.43 1447.52 411.08 1409.07 411.08 1409.07 476.27 1409.07 489.7 1409.07 491.12 1409.24 491.12 1409.24 499.8 1453.16 499.8 1455.41 499.8 1496.55 499.8 1496.55 446.84 1496.55 445.33 1496.55 418.43 1496.51 418.43 1475.92 418.43"/>
    </g>
  </g>
  <g id="_0620.076" data-name="0620.076">
    <g id="LWPOLYLINE-122" data-name="LWPOLYLINE">
      <polygon points="1476.8 403.24 1476.8 414.78 1496.55 414.78 1496.55 394.63 1496.55 393.29 1496.55 334.64 1411.28 334.64 1409.07 334.64 1409.07 403.24 1448.4 403.24 1476.8 403.24"/>
    </g>
  </g>
  <g id="_0620.072" data-name="0620.072">
    <g id="LWPOLYLINE-123" data-name="LWPOLYLINE">
      <polygon points="1317.5 477.74 1317.5 560.17 1406.12 560.17 1406.12 558.43 1406.12 503.14 1406.12 502.47 1405.94 502.47 1405.94 501.45 1405.94 491.17 1380.8 491.17 1380.8 477.74 1349.29 477.74 1317.5 477.74"/>
    </g>
  </g>
  <g id="_0620.070" data-name="0620.070">
    <g id="LWPOLYLINE-124" data-name="LWPOLYLINE">
      <rect x="1243.24" y="477.74" width="70.96" height="82.43"/>
    </g>
  </g>
  <g id="_0620.068" data-name="0620.068">
    <g id="LWPOLYLINE-125" data-name="LWPOLYLINE">
      <polygon points="1239.93 560.17 1239.93 477.74 1168.98 477.74 1168.98 536.49 1168.98 560.17 1239.93 560.17"/>
    </g>
  </g>
  <g id="_0620.003" data-name="0620.003">
    <polygon points="1165.67 535.01 1165.67 476.27 1117.5 476.27 1110.47 476.27 1110.47 535.01 1165.67 535.01"/>
  </g>
  <g id="_0620.066" data-name="0620.066">
    <g id="LWPOLYLINE-126" data-name="LWPOLYLINE">
      <polygon points="1107.16 477.74 1037.73 477.74 1037.73 560.17 1107.16 560.17 1107.16 536.49 1107.16 477.74"/>
    </g>
  </g>
  <g id="_0620.064" data-name="0620.064">
    <g id="LWPOLYLINE-127" data-name="LWPOLYLINE">
      <rect x="965.16" y="477.74" width="69.27" height="82.43"/>
    </g>
  </g>
  <g id="_0620.062" data-name="0620.062">
    <g id="LWPOLYLINE-128" data-name="LWPOLYLINE">
      <rect x="890.97" y="477.74" width="70.88" height="82.43"/>
    </g>
  </g>
  <g id="_0620.005b" data-name="0620.005b">
    <g id="LWPOLYLINE-129" data-name="LWPOLYLINE">
      <rect x="827.57" y="476.27" width="56.08" height="58.75"/>
    </g>
  </g>
  <g id="_0620.060" data-name="0620.060">
    <g id="LWPOLYLINE-130" data-name="LWPOLYLINE">
      <polygon points="824.27 536.49 824.27 477.74 753.49 477.74 753.49 560.17 801.34 560.17 824.27 560.17 824.27 536.49"/>
    </g>
  </g>
  <g id="_0620.058" data-name="0620.058">
    <g id="LWPOLYLINE-131" data-name="LWPOLYLINE">
      <polygon points="679.22 560.17 750.18 560.17 750.18 477.74 679.22 477.74 679.22 477.84 679.22 526.34 679.22 560.17"/>
    </g>
  </g>
  <g id="_0620.056" data-name="0620.056">
    <g id="LWPOLYLINE-132" data-name="LWPOLYLINE">
      <polygon points="632.04 560.17 632.04 526.34 632.04 526.17 632.04 480.63 614.31 480.63 614.31 479.04 556.93 479.04 556.93 489.94 556.93 491.25 556.93 491.63 556.93 546.81 556.93 547.02 556.93 560.17 564.07 560.17 632.04 560.17"/>
    </g>
  </g>
  <g id="_0620.007" data-name="0620.007">
    <g id="LWPOLYLINE-133" data-name="LWPOLYLINE">
      <polygon points="675.92 524.86 675.92 474.79 635.34 474.79 635.34 480.66 635.34 524.86 675.92 524.86"/>
    </g>
  </g>
  <g id="_0620.009" data-name="0620.009">
    <g id="LWPOLYLINE-134" data-name="LWPOLYLINE">
      <polygon points="458.24 827.78 513.09 827.78 513.09 764.38 513.09 761.64 513.09 760.99 513.09 677.68 513.09 676.17 513.09 674.3 513.09 619.56 549.44 619.56 549.44 617.82 549.44 563.3 513.09 563.3 513.09 550.18 513.09 549.8 513.09 548.49 513.09 489.94 513.09 488.26 513.09 475.27 555.28 474.79 555.28 476.09 614.31 476.09 617.19 476.09 617.19 420.26 564.73 420.26 564.73 420.08 561.34 420.08 543.17 420.08 543.17 420.12 513.09 420.12 513.09 375.35 513.09 331.23 457.21 331.23 457.21 399.38 457.21 430.84 457.21 524.41 457.21 614.78 457.21 646.31 457.21 713.23 457.21 759.73 457.21 785.06 458.24 785.06 458.24 825.72 458.24 827.78"/>
    </g>
  </g>
  <g id="_0620.056a" data-name="0620.056a">
    <g id="LWPOLYLINE-135" data-name="LWPOLYLINE">
      <polygon points="553.98 546.84 553.98 491.6 516.39 491.6 516.39 546.84 550.75 546.84 553.98 546.84"/>
    </g>
  </g>
  <g id="_0620.006a" data-name="0620.006a">
    <g id="LWPOLYLINE-136" data-name="LWPOLYLINE">
      <polygon points="549.44 563.3 549.44 559.96 549.44 550.15 516.04 550.15 516.04 563.3 549.44 563.3"/>
    </g>
  </g>
  <g id="_0620.004c" data-name="0620.004c">
    <g id="LWPOLYLINE-137" data-name="LWPOLYLINE">
      <polygon points="553.63 477.57 553.63 474.81 516.04 475.24 516.04 488.29 553.63 488.29 553.63 477.57"/>
    </g>
  </g>
  <g id="_0620.004.2" data-name="0620.004.2">
    <g id="LWPOLYLINE-138" data-name="LWPOLYLINE">
      <polygon points="885.31 476.27 885.31 474.79 889.67 474.79 963.5 474.79 1036.08 474.79 1108.81 474.79 1108.81 476.27 1117.5 476.27 1117.5 420.26 1097.27 420.26 1075.19 420.26 1050.2 420.26 1046.81 420.26 1016.87 420.26 1016.87 419.66 881.65 419.66 831.64 419.66 828.25 419.66 828.25 420.26 826.92 420.26 799.88 420.26 798.58 419 796.5 419 761.29 419 761.29 409.35 712.18 409.35 708.8 409.35 659.86 409.35 659.86 420.26 625.38 420.26 620.14 420.26 620.14 476.09 623.04 476.09 633.69 476.09 633.69 474.79 637.08 474.79 674.18 474.79 677.57 474.79 751.83 474.79 825.92 474.79 825.92 476.27 885.31 476.27"/>
    </g>
  </g>
  <g id="_0620.004.1" data-name="0620.004.1">
    <g id="LWPOLYLINE-139" data-name="LWPOLYLINE">
      <polygon points="1167.32 476.27 1167.32 474.79 1241.58 474.79 1315.84 474.79 1349.29 474.79 1349.29 419.84 1285.6 419.84 1285.6 420.26 1260.67 420.26 1228.56 420.26 1158.02 420.26 1154.64 420.26 1137.41 420.26 1117.5 420.26 1117.5 476.27 1167.32 476.27"/>
    </g>
  </g>
  <g id="_0620.027" data-name="0620.027">
    <g id="LWPOLYLINE-140" data-name="LWPOLYLINE">
      <polygon points="1153.16 340.01 1153.16 334.19 1137.75 334.19 1137.75 331.23 1119.58 331.23 1117.5 331.23 1117.5 334.19 1116.53 334.19 1099.31 334.19 1099.31 417.31 1117.15 417.31 1117.15 420.26 1137.41 420.26 1137.41 417.31 1153.16 417.31 1153.16 417.21 1153.16 399.44 1153.16 399.37 1153.16 397.75 1153.16 343.4 1153.16 341.26 1153.16 340.01"/>
    </g>
  </g>
  <g id="_0620.025" data-name="0620.025">
    <g id="LWPOLYLINE-141" data-name="LWPOLYLINE">
      <polygon points="1156.46 396.1 1206.04 396.1 1206.04 345.44 1158.02 345.44 1156.46 345.44 1156.46 396.1"/>
    </g>
  </g>
  <g id="_0620.028" data-name="0620.028">
    <g id="LWPOLYLINE-142" data-name="LWPOLYLINE">
      <polygon points="1209 396.1 1231.95 396.1 1257.28 396.1 1257.54 396.1 1257.54 345.44 1209 345.44 1209 396.1"/>
    </g>
  </g>
  <g id="_0620.001a" data-name="0620.001a">
    <g id="LWPOLYLINE-143" data-name="LWPOLYLINE">
      <polygon points="1261.97 331.23 1261.97 341.32 1261.97 341.48 1261.97 343.4 1261.97 397.75 1261.97 399.45 1261.97 401.14 1261.97 418.96 1261.97 420.26 1285.6 420.26 1285.6 416.89 1348.03 416.89 1348.03 334.61 1285.6 334.61 1285.6 331.23 1261.97 331.23"/>
    </g>
  </g>
  <g id="_0620.001" data-name="0620.001">
    <g id="LWPOLYLINE-144" data-name="LWPOLYLINE">
      <polygon points="1406.12 404.12 1406.12 331.34 1409.63 331.34 1409.63 276.1 1349.29 276.1 1349.29 333.13 1350.98 333.13 1350.98 418.36 1349.29 418.36 1349.29 474.79 1382.28 474.79 1382.28 476.27 1406.12 476.27 1406.12 409.78 1406.12 404.12"/>
    </g>
  </g>
  <g id="_0620.004b" data-name="0620.004b">
    <g id="LWPOLYLINE-145" data-name="LWPOLYLINE">
      <polygon points="1207.52 399.4 1156.11 399.4 1156.11 420.26 1230.65 420.26 1230.65 399.4 1207.52 399.4"/>
    </g>
  </g>
  <g id="_0620.004a" data-name="0620.004a">
    <g id="LWPOLYLINE-146" data-name="LWPOLYLINE">
      <rect x="1383.75" y="476.27" width="22.36" height="11.95"/>
    </g>
  </g>
  <g id="_0620.029" data-name="0620.029">
    <g id="LWPOLYLINE-147" data-name="LWPOLYLINE">
      <polygon points="1048.11 331.39 1048.11 398.56 1048.11 399.86 1048.11 420.26 1075.19 420.26 1075.19 417.31 1095.23 417.31 1095.23 334.19 1075.54 334.19 1075.54 332.71 1048.11 331.39"/>
    </g>
  </g>
  <g id="_0620.031" data-name="0620.031">
    <g id="LWPOLYLINE-148" data-name="LWPOLYLINE">
      <polygon points="998.04 331.31 998.04 361.71 996.57 361.71 996.57 388.71 996.57 398.56 1041.35 398.56 1041.35 334.19 1024.47 334.19 1024.47 332.71 998.04 331.31"/>
    </g>
  </g>
  <g id="_0620.005" data-name="0620.005">
    <rect x="830.09" y="331.39" width="53.22" height="88.08"/>
  </g>
  <g id="_0620.005a" data-name="0620.005a">
    <g id="LWPOLYLINE-149" data-name="LWPOLYLINE">
      <polygon points="994.66 399.86 994.66 388.71 996.57 388.71 996.57 361.71 995.09 361.71 995.09 334.61 886.51 334.61 886.51 352.61 886.51 361.71 883.56 361.71 883.56 388.71 886.51 388.71 886.51 398.84 886.51 416.61 886.51 417.31 900.02 417.31 994.66 417.31 994.66 399.86"/>
    </g>
  </g>
  <g id="_0620.035" data-name="0620.035">
    <g id="LWPOLYLINE-150" data-name="LWPOLYLINE">
      <polygon points="764.25 407.88 764.25 419 798.58 419 798.58 401.71 828.29 401.71 828.29 366.68 826.6 366.68 826.6 332.5 764.25 332.5 764.25 352.78 764.25 407.88"/>
    </g>
  </g>
  <g id="_0620.059" data-name="0620.059">
    <g id="LWPOLYLINE-151" data-name="LWPOLYLINE">
      <rect x="712.14" y="354.08" width="48.8" height="52.32"/>
    </g>
  </g>
  <g id="_0620.057" data-name="0620.057">
    <g id="LWPOLYLINE-152" data-name="LWPOLYLINE">
      <polygon points="666.34 354.08 659.86 354.08 659.86 356.53 659.86 403.01 659.86 404.32 659.86 404.35 659.86 406.4 708.84 406.4 708.84 354.08 666.34 354.08"/>
    </g>
  </g>
  <g id="_0620.002.2" data-name="0620.002.2">
    <g id="LWPOLYLINE-153" data-name="LWPOLYLINE">
      <polygon points="669.23 276.1 668.36 276.1 662.54 276.1 662.54 331.23 676.4 331.23 753.07 331.23 762.77 331.23 762.77 332.5 828.08 332.5 828.08 331.23 881.65 331.23 885.04 331.23 885.04 331.65 996.57 331.65 996.57 331.23 1000.12 331.42 1024.47 332.71 1024.47 331.23 1042.23 331.23 1046.81 331.23 1046.81 331.33 1075.54 332.71 1075.54 331.23 1097.27 331.23 1116.53 331.23 1116.53 328.18 1116.53 276.1 1041.39 276.1 967.13 276.1 893.43 276.1 819.73 276.1 744.31 276.1 739.39 276.1 669.23 276.1"/>
    </g>
  </g>
  <g id="_0620.002.1" data-name="0620.002.1">
    <g id="LWPOLYLINE-154" data-name="LWPOLYLINE">
      <polygon points="1188.78 276.1 1116.53 276.1 1116.53 331.23 1137.75 331.23 1156.11 331.23 1156.11 341.36 1207.52 341.36 1259.01 341.36 1259.01 331.23 1285.6 331.23 1285.6 331.65 1349.29 331.65 1349.29 276.1 1337.2 276.1 1262.94 276.1 1188.78 276.1"/>
    </g>
  </g>
  <g id="_0620.009a" data-name="0620.009a">
    <g id="LWPOLYLINE-155" data-name="LWPOLYLINE">
      <polygon points="516.04 375.35 516.04 417.17 543.17 417.17 543.17 420.08 563.42 420.08 563.42 403.01 563.42 381.25 564.9 381.25 564.9 349.6 564.9 346.21 563.42 346.21 563.42 331.23 543.17 331.23 543.17 334.19 516.04 334.19 516.04 334.28 516.04 375.35"/>
    </g>
  </g>
  <g id="_0620.055" data-name="0620.055">
    <g id="LWPOLYLINE-156" data-name="LWPOLYLINE">
      <polygon points="629.9 336.44 603.09 336.44 603.09 347.69 564.9 347.69 564.9 381.25 566.38 381.25 566.38 401.71 612.86 401.71 622.99 401.71 624.19 401.71 656.56 401.71 656.56 354.44 629.9 354.44 629.9 336.44"/>
    </g>
  </g>
  <g id="_0610.004a" data-name="0610.004a">
    <g id="LWPOLYLINE-157" data-name="LWPOLYLINE">
      <polygon points="455.28 857.96 455.28 831.24 390.29 831.24 390.29 831.85 390.29 857.96 455.28 857.96"/>
    </g>
  </g>
  <g id="_0620.054" data-name="0620.054">
    <g id="LWPOLYLINE-158" data-name="LWPOLYLINE">
      <polygon points="454.93 769.48 423.57 769.48 423.47 764.6 397.06 764.6 397.06 823.86 454.93 823.86 454.93 785.06 454.93 769.48"/>
    </g>
  </g>
  <g id="_0620.053" data-name="0620.053">
    <g id="LWPOLYLINE-159" data-name="LWPOLYLINE">
      <polygon points="373.01 854.43 373.01 827.58 385.42 827.58 389.25 827.58 389.25 762.63 321.75 762.63 321.75 765.69 319.5 765.69 319.5 854.43 341.19 854.43 373.01 854.43"/>
    </g>
  </g>
  <g id="_0620.051" data-name="0620.051">
    <g id="LWPOLYLINE-160" data-name="LWPOLYLINE">
      <polygon points="237.74 835.31 254.58 835.31 254.58 854.43 316.19 854.43 316.19 762.63 247.87 762.63 247.87 764.88 246.99 764.88 237.74 764.88 237.74 835.31"/>
    </g>
  </g>
  <g id="_0620.052d" data-name="0620.052d">
    <g id="LWPOLYLINE-161" data-name="LWPOLYLINE">
      <polygon points="307.49 646.31 302.02 646.31 272.25 646.31 237.74 646.31 237.74 713.23 307.49 713.23 307.49 646.31"/>
    </g>
  </g>
  <g id="_0620.052f" data-name="0620.052f">
    <g id="LWPOLYLINE-162" data-name="LWPOLYLINE">
      <polygon points="457.21 713.23 457.21 646.31 452.81 646.31 423.04 646.31 381.52 646.31 381.52 713.23 457.21 713.23"/>
    </g>
  </g>
  <g id="_0620.052e" data-name="0620.052e">
    <g id="LWPOLYLINE-163" data-name="LWPOLYLINE">
      <polygon points="381.52 646.31 354.56 646.31 324.79 646.31 307.49 646.31 307.49 713.23 381.52 713.23 381.52 646.31"/>
    </g>
  </g>
  <g id="_0620.008" data-name="0620.008">
    <polygon points="457.21 761.64 457.21 713.23 381.52 713.23 307.49 713.23 237.74 713.23 237.74 761.93 246.99 761.93 246.99 762.63 247.87 762.63 314.45 762.63 316.19 762.63 316.19 762.73 317.84 762.73 319.5 762.73 319.5 762.63 321.75 762.63 389.21 762.63 389.25 762.63 390.73 761.64 395.75 761.64 423.47 761.64 457.21 761.64"/>
  </g>
  <g id="_0620.052b" data-name="0620.052b">
    <g id="LWPOLYLINE-164" data-name="LWPOLYLINE">
      <polygon points="375.29 614.78 375.29 612.24 381.52 612.24 381.52 524.41 307.49 524.41 307.49 614.78 324.79 614.78 354.56 614.78 375.29 614.78"/>
    </g>
  </g>
  <g id="_0620.052" data-name="0620.052">
    <g id="LWPOLYLINE-165" data-name="LWPOLYLINE">
      <polygon points="254.58 634.46 237.74 634.46 237.74 646.31 274.76 646.31 274.76 642.38 286.19 642.38 286.36 640.13 299.51 640.13 299.51 646.31 307.49 646.31 327.3 646.31 327.3 642.38 338.72 642.38 338.9 640.13 352.05 640.13 352.05 646.31 381.52 646.31 425.55 646.31 425.55 642.38 436.98 642.38 437.15 640.13 450.3 640.13 450.3 646.31 457.21 646.31 457.21 614.78 450.3 614.78 450.3 621 437.15 621 436.98 618.75 425.55 618.75 425.55 614.78 388.72 614.78 375.29 614.78 352.05 614.78 352.05 621 338.9 621 338.72 618.75 327.3 618.75 327.3 614.78 307.49 614.78 299.51 614.78 299.51 621 286.36 621 286.19 618.75 274.76 618.75 274.76 614.78 254.58 614.78 254.58 634.46"/>
    </g>
  </g>
  <g id="_0620.050f" data-name="0620.050f">
    <g id="LWPOLYLINE-166" data-name="LWPOLYLINE">
      <polygon points="457.21 524.41 457.21 430.84 452.81 430.84 426.43 430.84 381.52 430.84 381.52 524.41 457.21 524.41"/>
    </g>
  </g>
  <g id="_0620.052c" data-name="0620.052c">
    <g id="LWPOLYLINE-167" data-name="LWPOLYLINE">
      <polygon points="381.52 612.24 388.72 612.24 388.72 614.78 423.04 614.78 452.81 614.78 457.21 614.78 457.21 524.41 381.52 524.41 381.52 612.24"/>
    </g>
  </g>
  <g id="_0620.050d" data-name="0620.050d">
    <g id="LWPOLYLINE-168" data-name="LWPOLYLINE">
      <polygon points="237.74 524.41 307.49 524.41 307.49 430.84 302.02 430.84 275.64 430.84 237.74 430.84 237.74 524.41"/>
    </g>
  </g>
  <g id="_0620.052a" data-name="0620.052a">
    <g id="LWPOLYLINE-169" data-name="LWPOLYLINE">
      <polygon points="307.49 524.41 237.74 524.41 237.74 614.78 253.7 614.78 272.25 614.78 302.02 614.78 307.49 614.78 307.49 524.41"/>
    </g>
  </g>
  <g id="_0620.050e" data-name="0620.050e">
    <g id="LWPOLYLINE-170" data-name="LWPOLYLINE">
      <polygon points="307.49 524.41 381.52 524.41 381.52 430.84 354.56 430.84 328.17 430.84 307.49 430.84 307.49 524.41"/>
    </g>
  </g>
  <g id="_0620.050" data-name="0620.050">
    <g id="LWPOLYLINE-171" data-name="LWPOLYLINE">
      <polygon points="254.58 418.43 237.74 418.43 237.74 430.84 275.64 430.84 275.64 427.23 286.19 427.23 286.36 424.97 299.51 424.97 299.51 430.84 307.49 430.84 328.17 430.84 328.17 427.23 338.72 427.23 338.9 424.97 352.05 424.97 352.05 430.84 381.52 430.84 426.43 430.84 426.43 427.23 436.98 427.23 437.15 424.97 450.3 424.97 450.3 430.84 457.21 430.84 457.21 399.38 450.3 399.38 450.3 405.85 437.15 405.85 436.98 403.6 425.55 403.6 425.55 399.38 403.38 399.38 403.38 418.43 374.13 418.43 374.13 399.38 352.05 399.38 352.05 405.85 338.9 405.85 338.72 403.6 327.3 403.6 327.3 399.38 307.49 399.38 299.51 399.38 299.51 405.85 286.36 405.85 286.19 403.6 274.76 403.6 274.76 399.38 254.58 399.38 254.58 418.43"/>
    </g>
  </g>
  <g id="_0620.050c" data-name="0620.050c">
    <g id="LWPOLYLINE-172" data-name="LWPOLYLINE">
      <polygon points="457.21 399.38 457.21 331.23 457.21 326.8 384.76 326.8 384.76 399.38 402.51 399.38 423.04 399.38 452.81 399.38 457.21 399.38"/>
    </g>
  </g>
  <g id="_0620.050b" data-name="0620.050b">
    <g id="LWPOLYLINE-173" data-name="LWPOLYLINE">
      <polygon points="384.76 326.8 307.49 326.8 307.49 399.38 324.79 399.38 354.56 399.38 375.01 399.38 384.76 399.38 384.76 326.8"/>
    </g>
  </g>
  <g id="_0620.050a" data-name="0620.050a">
    <g id="LWPOLYLINE-174" data-name="LWPOLYLINE">
      <polygon points="307.49 326.8 237.74 326.8 237.74 399.38 253.7 399.38 272.25 399.38 302.02 399.38 307.49 399.38 307.49 326.8"/>
    </g>
  </g>
  <g id="_602.002" data-name="602.002">
    <g id="LWPOLYLINE-175" data-name="LWPOLYLINE">
      <polygon points="292.59 276.1 237.74 276.1 237.74 326.8 307.49 326.8 384.76 326.8 457.21 326.8 457.21 331.23 511.18 331.23 513.8 331.23 514.56 331.23 543.17 331.23 565.46 331.23 598.22 331.23 601.61 331.23 629.87 331.23 629.9 331.23 631.2 331.23 653.79 331.23 658.46 331.23 658.46 276.1 654.33 276.1 654.33 276.06 651.31 276.06 591.04 276.06 517.9 276.06 442.8 276.06 368.54 276.06 294.28 276.06 294.28 276.1 292.59 276.1"/>
    </g>
  </g>
  <g id="_0620.002b" data-name="0620.002b">
    <g id="LWPOLYLINE-176" data-name="LWPOLYLINE">
      <rect x="673.89" y="331.23" width="81.69" height="14.06"/>
    </g>
  </g>
  <g id="_0620.002a" data-name="0620.002a">
    <g id="LWPOLYLINE-177" data-name="LWPOLYLINE">
      <polygon points="567.95 344.73 600.13 344.73 600.13 331.23 567.5 331.23 567.5 344.73 567.95 344.73"/>
    </g>
  </g>
  <g id="_0602" data-name="0602">
    <g id="LWPOLYLINE-178" data-name="LWPOLYLINE">
      <polygon points="1666.01 306.02 1664.13 306.02 1664.13 283.94 1753.48 283.94 1753.48 306.01 1820.07 306.01 1820.07 283.94 1879.88 283.94 1879.88 287.53 1880.35 287.53 1880.35 290.45 1906.32 290.45 1906.32 194.53 1888.6 194.53 1888.6 182.71 1468.58 182.71 1468.58 194.53 1468.58 271.78 1412.94 271.78 1412.94 274.62 1412.94 331.34 1499.86 331.34 1499.86 391.99 1507.06 391.99 1566.24 391.99 1569.63 391.99 1610.64 391.99 1614.02 391.99 1664.01 391.99 1666.01 391.99 1666.01 390.47 1666.01 356.46 1666.01 306.02"/>
    </g>
  </g>
  <g id="_0602.001" data-name="0602.001">
    <g id="LWPOLYLINE-179" data-name="LWPOLYLINE">
      <polygon points="1409.81 194.53 1409.81 198.54 1412.94 198.54 1412.94 271.78 1468.58 271.78 1468.58 194.53 1409.81 194.53"/>
    </g>
  </g>
  <g id="_0620.020" data-name="0620.020">
    <g id="LWPOLYLINE-180" data-name="LWPOLYLINE">
      <polygon points="1409.63 198.54 1406.5 198.54 1406.5 194.53 1377.49 194.53 1377.49 182.71 1327.92 182.71 1327.92 192.7 1338.85 192.7 1338.85 273.15 1349.29 273.15 1409.63 273.15 1409.63 271.78 1409.63 198.54"/>
    </g>
  </g>
  <g id="_0620.022" data-name="0620.022">
    <g id="LWPOLYLINE-181" data-name="LWPOLYLINE">
      <polyline points="1324.83 195.91 1324.83 182.71 1254.23 182.71 1254.23 197.35 1265.16 197.35 1265.16 273.15 1275.61 273.15 1335.94 273.15 1335.94 271.78 1335.94 195.39"/>
    </g>
  </g>
  <g id="_0620.024" data-name="0620.024">
    <g id="LWPOLYLINE-182" data-name="LWPOLYLINE">
      <polygon points="1261.29 273.15 1261.29 201.56 1252.64 201.56 1238.75 201.56 1238.75 188.94 1238.75 188.16 1238.75 182.71 1190.44 182.71 1190.44 273.15 1261.29 273.15"/>
    </g>
  </g>
  <g id="_0620.026" data-name="0620.026">
    <g id="LWPOLYLINE-183" data-name="LWPOLYLINE">
      <polygon points="1187.13 273.15 1187.13 182.71 1116.74 182.71 1116.74 273.15 1119.58 273.15 1187.13 273.15"/>
    </g>
  </g>
  <g id="_0620.028-2" data-name="0620.028">
    <g id="LWPOLYLINE-184" data-name="LWPOLYLINE">
      <polygon points="1113.43 188.55 1108.58 188.55 1108.58 182.71 1043.04 182.71 1043.04 200.68 1043.04 273.15 1113.43 273.15 1113.43 188.55"/>
    </g>
  </g>
  <g id="_0620.030" data-name="0620.030">
    <g id="LWPOLYLINE-185" data-name="LWPOLYLINE">
      <polygon points="968.78 182.71 968.78 273.15 1039.73 273.15 1039.73 201.56 1022.5 201.56 1022.5 188.94 1022.5 187.28 1022.5 182.71 968.78 182.71"/>
    </g>
  </g>
  <g id="_0620.032" data-name="0620.032">
    <g id="LWPOLYLINE-186" data-name="LWPOLYLINE">
      <rect x="895.08" y="182.71" width="70.39" height="90.43"/>
    </g>
  </g>
  <g id="_0620.034" data-name="0620.034">
    <g id="LWPOLYLINE-187" data-name="LWPOLYLINE">
      <polygon points="891.78 273.15 891.78 182.71 821.38 182.71 821.38 188.94 821.38 200.68 821.38 273.15 891.78 273.15"/>
    </g>
  </g>
  <g id="_0620.036" data-name="0620.036">
    <g id="LWPOLYLINE-188" data-name="LWPOLYLINE">
      <polygon points="745.96 182.71 745.96 187.49 745.96 273.15 818.08 273.15 818.08 201.56 806.75 201.56 806.75 188.94 806.75 182.71 745.96 182.71"/>
    </g>
  </g>
  <g id="_0620.038" data-name="0620.038">
    <g id="LWPOLYLINE-189" data-name="LWPOLYLINE">
      <polygon points="666.99 187.49 666.18 187.49 666.18 273.15 739.39 273.15 739.39 187.49 742.66 187.49 742.66 182.71 666.99 182.71 666.99 187.49"/>
    </g>
  </g>
  <g id="_0620.040" data-name="0620.040">
    <g id="LWPOLYLINE-190" data-name="LWPOLYLINE">
      <polygon points="663.68 187.49 663.68 182.71 605.35 182.71 605.35 188.94 605.35 201.56 592.69 201.56 592.69 273.11 651.31 273.11 651.31 270.9 654.33 270.9 663.68 270.9 663.68 187.49"/>
    </g>
  </g>
  <g id="_0620.042" data-name="0620.042">
    <g id="LWPOLYLINE-191" data-name="LWPOLYLINE">
      <polygon points="589.39 200.68 589.39 189.85 589.39 188.94 589.81 188.94 589.81 182.71 519.56 182.71 519.56 273.11 589.39 273.11 589.39 200.68"/>
    </g>
  </g>
  <g id="_0620.044" data-name="0620.044">
    <g id="LWPOLYLINE-192" data-name="LWPOLYLINE">
      <rect x="444.45" y="182.71" width="71.8" height="90.4"/>
    </g>
  </g>
  <g id="_0620.046" data-name="0620.046">
    <g id="LWPOLYLINE-193" data-name="LWPOLYLINE">
      <polygon points="370.19 201.56 370.19 273.11 441.15 273.11 441.15 182.71 389.39 182.71 389.39 187.28 389.32 188.94 389.32 201.56 375.57 201.56 374.94 201.56 374.66 201.56 370.19 201.56"/>
    </g>
  </g>
  <g id="_0620.048" data-name="0620.048">
    <g id="LWPOLYLINE-194" data-name="LWPOLYLINE">
      <polygon points="295.93 195.16 295.93 273.11 366.89 273.11 366.89 198.25 374.69 198.25 374.69 188.94 374.69 182.71 303.53 182.71 303.53 195.16 295.93 195.16"/>
    </g>
  </g>
  <g id="_0620.049" data-name="0620.049">
    <g id="LWPOLYLINE-195" data-name="LWPOLYLINE">
      <polygon points="254.79 206.62 241.5 206.62 241.5 194.81 237.74 194.81 237.74 273.15 292.63 273.15 292.63 191.85 300.22 191.85 300.22 182.71 252.93 182.71 252.93 194.81 254.79 196.64 254.79 197.86 254.79 206.62"/>
    </g>
  </g>
</svg>