<?xml version="1.0" encoding="UTF-8"?>
<svg xmlns="http://www.w3.org/2000/svg" xmlns:xlink="http://www.w3.org/1999/xlink" viewBox="0 0 1926.33 1908.65">
  <defs>
    <style>
      .cls-1 {
        opacity: .51;
      }
    </style>
  </defs>
  <g id="Procore_Drawing" data-name="Procore Drawing">
    <image width="5760" height="4320" transform="translate(-296.49 -149.6) scale(.6)" xlink:href="../PDF and PNG/RCP/Level 16.jpg"/>
  </g>
  <g id="_1611" data-name="1611">
    <polygon class="cls-1" points="1434.25 782.66 1434.25 684.22 1397.12 684.22 1397.12 658.91 1473.62 658.91 1473.62 724.87 1473.62 782.66 1434.25 782.66"/>
  </g>
  <g id="_1612" data-name="1612">
    <polygon class="cls-1" points="851.5 684.19 851.5 782.66 812.12 782.66 812.12 724.87 812.12 658.91 838.84 658.91 887.78 658.91 887.78 684.19 851.5 684.19"/>
  </g>
  <g id="_0043.016" data-name="0043.016">
    <polygon class="cls-1" points="1279.56 772.75 1279.56 678.23 1279.92 678.18 1279.92 673.68 1279.92 658.91 1319.36 658.91 1319.36 772.75 1279.56 772.75"/>
  </g>
  <g id="_0038.016" data-name="0038.016">
    <polygon class="cls-1" points="1881.72 503.1 1879.75 503.1 1879.75 514.91 1828 514.91 1828 496.7 1881.72 496.7 1881.72 503.1"/>
  </g>
  <g id="_0039.016" data-name="0039.016">
    <rect class="cls-1" x="1700.31" y="496.56" width="54.56" height="18.35"/>
  </g>
  <g id="_0040.016" data-name="0040.016">
    <polygon class="cls-1" points="1575.58 889.96 1551.88 889.96 1551.88 881.84 1551.88 830.33 1575.58 830.33 1575.58 889.96"/>
  </g>
  <g id="_0047.016" data-name="0047.016">
    <polygon class="cls-1" points="1006.18 673.68 1006.18 678.25 1006.18 772.74 966.46 772.74 966.46 658.91 1006.18 658.91 1006.18 673.68"/>
  </g>
  <g id="_0049.016" data-name="0049.016">
    <polygon class="cls-1" points="710.17 830.33 733.86 830.33 733.86 881.84 733.86 889.96 710.17 889.96 710.17 830.33"/>
  </g>
  <g id="_0009.016" data-name="0009.016">
    <polygon class="cls-1" points="1266.83 813.32 1266.83 813.18 1276.96 813.18 1276.96 881.52 1273.58 881.52 1266.83 881.52 1246.58 881.52 1239.83 881.52 1236.25 881.52 1229.5 881.52 1193.5 881.52 1193.5 813.18 1246.58 813.18 1246.58 813.32 1266.83 813.32"/>
  </g>
  <g id="_0010.016" data-name="0010.016">
    <polygon class="cls-1" points="1039.16 813.32 1039.16 813.18 1092.25 813.18 1092.25 881.52 1056.25 881.52 1049.5 881.52 1045.91 881.52 1039.16 881.52 1018.91 881.52 1012.16 881.52 1008.79 881.52 1008.79 813.18 1018.91 813.18 1018.91 813.32 1039.16 813.32"/>
  </g>
  <g id="_0097.016" data-name="0097.016">
    <polygon class="cls-1" points="732.81 827.38 731.78 827.38 707.21 827.38 707.21 892.91 733.83 892.91 736.5 892.91 808.43 892.91 808.47 892.91 808.47 953.38 499.09 953.38 499.09 831.6 595.28 831.6 595.28 892.84 598.93 892.84 598.93 829.77 598.93 658.91 808.47 658.91 808.47 723.04 732.81 723.04 732.81 827.38"/>
  </g>
  <g id="_0087.016" data-name="0087.016">
    <polygon class="cls-1" points="1477.28 658.91 1785.81 658.91 1785.81 953.38 1477.28 953.38 1477.28 892.91 1477.31 892.91 1550.58 892.91 1578.53 892.91 1578.53 827.38 1552.93 827.38 1552.93 723.04 1477.28 723.04 1477.28 658.91"/>
  </g>
  <g id="_0065.016" data-name="0065.016">
    <rect class="cls-1" x="1526.64" y="539.1" width="70.03" height="90.56"/>
  </g>
  <g id="_0008.016" data-name="0008.016">
    <polygon class="cls-1" points="1828 333.79 1879.75 333.79 1879.75 338.01 1881.72 338.01 1881.72 359.63 1881.72 448.01 1881.72 492.98 1828 492.98 1828 333.79"/>
  </g>
  <g id="_0098.016" data-name="0098.016">
    <rect class="cls-1" x="499.09" y="658.91" width="96.19" height="169.03"/>
  </g>
  <g id="_0080.016" data-name="0080.016">
    <polygon class="cls-1" points="1757.83 514.91 1757.83 494.7 1757.83 333.79 1825.04 333.79 1825.04 494.84 1825.04 514.91 1757.83 514.91"/>
  </g>
  <g id="_1603" data-name="1603">
    <polygon class="cls-1" points="1095.2 890.02 1095.2 885.28 1095.2 883 1095.2 881.49 1095.2 813.18 1095.2 658.91 1190.54 658.91 1190.54 813.18 1190.54 883.38 1190.54 901.49 1095.2 901.49 1095.2 890.02"/>
  </g>
  <g id="_1610" data-name="1610">
    <polygon class="cls-1" points="1473.62 889.92 1473.62 891.08 1473.62 891.44 1473.62 953.38 1422.43 953.38 1153.56 953.38 1099.56 953.38 1099.56 960.13 1099.42 960.13 1099.42 953.38 820.09 953.38 812.12 953.38 812.12 891.44 812.12 891.08 812.12 889.92 812.12 887.99 812.12 886.16 812.12 881.84 812.12 786.32 855.15 786.32 855.15 687.85 887.78 687.85 887.78 901.49 1097.11 901.49 1188.63 901.49 1397.12 901.49 1397.12 687.88 1430.59 687.88 1430.59 786.32 1473.62 786.32 1473.62 881.84 1473.62 889.92"/>
  </g>
  <g id="_0018.016" data-name="0018.016">
    <polygon class="cls-1" points="808.47 784.49 808.47 880.54 736.47 880.54 736.47 832.25 736.47 830.33 736.47 827.35 736.47 726.69 808.47 726.69 808.47 784.49"/>
  </g>
  <g id="_0002.016" data-name="0002.016">
    <rect class="cls-1" x="1700.31" y="333.79" width="54.56" height="159.05"/>
  </g>
  <g id="_0042.016" data-name="0042.016">
    <polygon class="cls-1" points="1319.36 897.97 1279.56 897.97 1279.56 885.05 1279.56 878.27 1279.56 813.18 1279.56 775.35 1279.6 775.35 1319.36 775.35 1319.36 897.24 1319.36 897.97"/>
  </g>
  <g id="_0017.016" data-name="0017.016">
    <polygon class="cls-1" points="1549.28 828.86 1549.28 830.33 1549.28 830.37 1549.28 880.54 1477.28 880.54 1477.28 784.49 1477.28 726.69 1549.28 726.69 1549.28 828.86"/>
  </g>
  <g id="_0006.016" data-name="0006.016">
    <polygon class="cls-1" points="1008.79 774.04 1008.79 772.74 1008.79 772.7 1008.79 678.25 1008.79 673.68 1008.79 658.91 1092.25 658.91 1092.25 813.18 1039.16 813.18 1039.16 813.04 1018.91 813.04 1018.91 813.18 1008.79 813.18 1008.79 774.04"/>
  </g>
  <g id="_0005.016" data-name="0005.016">
    <polygon class="cls-1" points="1193.5 658.91 1276.96 658.91 1276.96 673.68 1276.96 678.21 1276.96 772.71 1276.96 772.73 1276.96 774.05 1276.96 813.18 1266.83 813.18 1266.83 813.04 1246.58 813.04 1246.58 813.18 1193.5 813.18 1193.5 658.91"/>
  </g>
  <g id="_0093.016" data-name="0093.016">
    <polygon class="cls-1" points="963.5 658.91 963.5 772.7 963.5 775.38 963.5 897.27 891.43 897.27 891.43 686.02 891.43 658.91 963.5 658.91"/>
  </g>
  <g id="_0086.016" data-name="0086.016">
    <polygon class="cls-1" points="1393.47 897.27 1322.31 897.27 1322.31 775.38 1322.31 772.71 1322.31 658.91 1393.47 658.91 1393.47 686.05 1393.47 897.27"/>
  </g>
</svg>